<?xml version="1.0" encoding="utf-8"?>
<!-- Generator: Adobe Illustrator 19.1.0, SVG Export Plug-In . SVG Version: 6.00 Build 0)  -->
<svg version="1.1" id="Layer_1" xmlns="http://www.w3.org/2000/svg" xmlns:xlink="http://www.w3.org/1999/xlink" x="0px" y="0px"
	 viewBox="-296 153.9 366 255.1" style="enable-background:new -296 153.9 366 255.1;" xml:space="preserve">
<style type="text/css">
	.st0{fill:#22F4BB;}
</style>
<g>
	<polygon class="st0" points="-211.5,266.7 -211.9,266.6 -212.2,267.2 -73.3,347 -73.1,347.1 -72.8,346.5 	"/>
	<path class="st0" d="M-15.3,357.1c0-1.3-0.4-2.5-1.3-2.8c-0.7-0.4-1.6-0.4-2.5,0.1l-4.3,2.5c-0.1,0.1-0.2,0.2-0.3,0.2
		c-1.5,0.8-2.5,2.6-2.8,4.6l0,0c-0.1,0.6-0.2,1.1-0.2,1.8c0,1.5,0.4,2.6,1.3,3c0.3,0.1,0.7,0.2,1,0.2c0.4,0,1-0.1,1.2-0.3h0.1h0.1
		l0,0c0.2,0,0.3,0,0.6,0c0.1,0,0.2,0,0.3,0c1.2-0.1,2.5-1.1,3.3-2.4l0.1-0.1c1.8-1,3.4-4,3.4-6.6l0,0
		C-15.3,357.2-15.3,357.2-15.3,357.1C-15.3,357.2-15.3,357.1-15.3,357.1z M-24.8,364.6L-24.8,364.6c-0.6-0.6-0.8-1.2-0.8-2
		c0-0.2,0-0.6,0-0.8c0.2-2,1.6-3.8,3.1-4.3c-1.3,0.9-2.5,2.6-2.7,4.5C-25.4,362.9-25.2,363.8-24.8,364.6z M-25.4,365.3l1.2,0.6
		c-0.3,0.1-0.7,0-1-0.1c-0.1-0.1-0.2-0.1-0.2-0.2c-0.1-0.2-0.2-0.4-0.3-0.7C-25.6,365-25.5,365.2-25.4,365.3z M-22.6,365.6
		L-22.6,365.6l-1.1-0.6c-0.7-0.7-0.9-1.7-0.8-2.9c0.2-2.2,1.8-4.1,3.5-4.4c0,0,0.1,0,0.2,0c0.6,0,1,0.1,1.3,0.6
		c0.7,0.7,0.9,1.7,0.8,2.9c-0.1,0.6-0.2,1.2-0.4,1.7c0,0-0.1,0-0.1,0.1l-0.2,0.1v0.1c0,0.1,0,0.2-0.1,0.3l-0.4,0.8
		c-0.1,0.1-0.2,0.2-0.3,0.3c-0.6,0.4-1.1,0.8-1.8,0.9l0,0C-22.2,365.7-22.4,365.7-22.6,365.6z M-17.9,361.4c0.2-1.5-0.2-2.8-1-3.6
		c-0.4-0.6-1.1-0.8-1.8-0.8l-1.1-0.2l3-1.8c0.7-0.3,1.2-0.3,1.7-0.1c0.6,0.3,0.9,1.2,0.9,2.4c0,1.8-0.8,3.7-1.8,4.9
		C-17.9,361.8-17.9,361.6-17.9,361.4z"/>
	<path class="st0" d="M-13.4,354.8c-0.7,0.1-1.1,0.8-1.2,1.5c0,0.3,0.1,0.8,0.3,1c0.2,0.1,0.4,0.2,0.7,0.2c0.8-0.1,1.2-0.8,1.3-1.5
		c0-0.3-0.1-0.8-0.3-1C-12.8,354.9-13.2,354.8-13.4,354.8z M-13.2,355.4c0.1,0.1,0.1,0.2,0.1,0.4c0,0.4-0.3,0.8-0.6,0.8h-0.1
		c-0.1-0.1-0.1-0.2-0.1-0.4C-13.8,355.8-13.5,355.4-13.2,355.4L-13.2,355.4z"/>
	<path class="st0" d="M9.8,338.2c-0.3,0-0.6,0-0.8,0.1l-11.2,6.2c-2,1.1-3.7,4.1-3.7,6.8c0,1.6,0.6,2.9,1.6,3.5
		c0.4,0.2,0.9,0.3,1.3,0.3s0.9-0.1,1.5-0.3l0.4,1.1c0,0.1,0.2,0.2,0.3,0.1c0,0,0.1,0,0.1-0.1l0,0c-0.1,0-0.1,0-0.2-0.1l-0.3-1
		c0,0,0.1,0,0.1-0.1l0,0c0,0,0,0,0.1,0h0.1l0,0c0.1,0,0.3-0.1,0.4-0.1l0,0h0.1c0.6,0.2,0.9,0.7,0.9,1.3c0,0.3-0.1,0.7-0.2,0.9
		c0.2-0.3,0.3-0.8,0.3-1.2c-0.1-0.3-0.3-0.8-0.9-1l0.3-0.2l0,0c0.1-0.1,0.2-0.1,0.3-0.2c0.4-0.2,0.8-0.6,1.1-1l7.8-4.1
		c0.6-0.2,0.7-0.9,0.4-1.3c-0.1-0.2-0.3-0.3-0.6-0.4c-0.3,0-0.6,0-0.8,0.1l-5.7,3.1c0-0.1,0.1-0.2,0.1-0.4c0.2-1.3-0.1-2.5-0.9-3.3
		c-0.6-0.6-1.2-0.8-2-0.7l-0.7-0.1l10.5-5.8c0.2-0.1,0.3-0.3,0.4-0.6c0-0.3,0-0.6-0.1-0.8C10.3,338.4,10,338.3,9.8,338.2z M9,347.7
		h0.1l0.1,0.1v0.1L9.1,348l-6.5,3.6c0.1-0.1,0.1-0.2,0.1-0.4L9,347.7z M2.3,349.8c-0.2,2-1.7,3.7-3.1,3.9c-0.2,0-0.6,0-0.8,0l0,0
		c-0.2-0.1-0.4-0.2-0.6-0.3l0,0l0,0c-0.6-0.6-0.8-1.5-0.7-2.6c0.2-2,1.7-3.7,3.1-3.9c0.1,0,0.1,0,0.1,0l0.4,0.1v-0.1
		c0.3,0.1,0.6,0.2,0.9,0.4C2.2,347.8,2.4,348.7,2.3,349.8z M-4,353.6l1.1,0.4c-0.3,0-0.6-0.1-0.9-0.2c-0.8-0.4-1.2-1.2-1.2-2.6
		C-4.9,352.2-4.5,353.1-4,353.6z M-2.8,348c0.2-0.4,0.6-0.8,0.8-1.1c0.1-0.1,0.3-0.2,0.4-0.2C-2.1,347-2.5,347.5-2.8,348z
		 M-1.6,345.3c-0.4,0.2-0.9,0.7-1.3,1.1c-0.6,0.4-1,0.9-1.3,1.6c0.6-1.3,1.5-2.5,2.5-3l11.2-6.2c0,0,0,0,0.1,0l0.1,0.1v0.1l-0.1,0.1
		L-1.6,345.3z"/>
	<path class="st0" d="M-154.3,336.3L-154.3,336.3l-0.1,0.9l-0.3-0.6c-0.3-0.6-0.6-1-0.8-1.2s-0.4-0.4-0.7-0.7
		c-0.4-0.3-0.8-0.4-1.1-0.3c-0.2,0.1-0.3,0.2-0.4,0.3c0,0,0,0.1-0.1,0.1c0,0,0,0,0,0.1s0,0.2,0,0.3l0,0l0,0l0,0l0,0
		c0,0.4,0.1,0.9,0.3,1.3c0.2,0.4,0.6,0.8,1,1.1l0.3,0.1l0.1-1.1v-0.1h-0.1c-0.2-0.1-0.3-0.3-0.4-0.4c-0.1-0.2-0.1-0.3-0.1-0.4
		c0,0,0.1,0,0.2,0.1c0.1,0,0.2,0.1,0.3,0.3c0.2,0.2,0.3,0.4,0.6,0.8l1.3,2.2l0.9,0.7l0.2-3.1l-1-0.8L-154.3,336.3z M-153.8,339
		l-0.2-0.1l-1.2-2.1c-0.2-0.3-0.4-0.6-0.6-0.8c-0.1-0.2-0.3-0.3-0.4-0.4c-0.2-0.1-0.4-0.2-0.6-0.2c-0.1,0-0.2,0-0.3,0.2
		c-0.1,0-0.1,0.1-0.1,0.3c0,0,0,0.1,0,0.2c-0.1-0.2-0.1-0.6-0.1-0.8c0-0.2,0.1-0.6,0.2-0.6c0,0,0,0,0.1,0c0.1,0,0.3,0.1,0.4,0.2
		c0.2,0.2,0.4,0.4,0.7,0.7c0.2,0.2,0.4,0.7,0.8,1.2l0.8,1.2l0.2,0.1h0.1l0.1-1.5l0.2,0.1l0,0L-153.8,339z M-157,336.2L-157,336.2
		c-0.1-0.1-0.1-0.3-0.1-0.4c0-0.1,0-0.1,0-0.1v0.1C-157.2,335.8-157.1,336-157,336.2z M-156.5,334.9L-156.5,334.9L-156.5,334.9
		L-156.5,334.9z M-156.5,336.8v0.2c-0.2-0.2-0.4-0.4-0.6-0.7c0.1,0.1,0.2,0.3,0.4,0.4v-0.1C-156.5,336.7-156.5,336.8-156.5,336.8z"
		/>
	<path class="st0" d="M-153.8,332.9l-0.2-0.1v-0.1l-1.7-1.2l-0.1,1.7l0,0v0.4l1,0.7v-0.8l0.4,0.3c0,0.1,0,0.2,0,0.3
		c0,0.3-0.1,0.3-0.2,0.3s-0.3-0.1-0.7-0.3l-0.9-0.7c-0.2-0.2-0.4-0.4-0.6-0.7c0-0.1-0.1-0.2-0.1-0.3c0-0.2,0-0.2,0-0.2
		s0.1,0,0.3,0.1l0.3,0.2l0.1-1.2v-0.1l-0.1-0.1c-0.2-0.1-0.3-0.2-0.4-0.3c-0.3-0.2-0.6-0.2-0.8-0.1s-0.4,0.3-0.4,0.9v0.1
		c0,0,0,0,0,0.1c0,0.4,0.1,1,0.4,1.6c0.3,0.4,0.7,1,1.2,1.3l0.9,0.6c0.3,0.3,0.8,0.4,1.1,0.4c0.1,0,0.2,0,0.2,0.2
		c0.2,0,0.7-0.2,0.7-1c0-0.3,0-0.8-0.1-1.1C-153.5,333.5-153.6,333.1-153.8,332.9z M-155.2,334.6c0.3,0.2,0.6,0.3,0.8,0.3
		c0.1,0,0.3-0.1,0.3-0.4c0-0.1,0-0.2,0-0.3l0,0c0-0.2,0-0.4,0-0.6c0-0.2,0-0.3-0.1-0.4l-1.1-0.9v0.8l-0.1-0.1V332l1.2,0.9
		c0.1,0.2,0.2,0.4,0.3,0.7c0.1,0.3,0.1,0.7,0.1,1c0,0.6-0.2,0.7-0.3,0.7c-0.2,0.1-0.6,0-1-0.3l-0.9-0.7c-0.4-0.3-0.9-0.8-1.1-1.2
		c0.2,0.2,0.3,0.4,0.7,0.7l0.9,0.7c0,0,0.1,0,0.1,0.1L-155.2,334.6z M-157.2,331.4c-0.1,0-0.1,0-0.2,0.1c0-0.2,0-0.4,0.2-0.6h0.1
		c0.2,0,0.3,0.1,0.2,0.1v0.3C-157,331.4-157.1,331.4-157.2,331.4z"/>
	<path class="st0" d="M-133.1,350.2c-0.4-0.4-0.8-0.6-1.1-0.6c-0.2-0.1-0.3-0.1-0.4-0.1c-0.1,0-0.1,0-0.1,0c-0.2,0-0.7,0.1-0.7,0.8
		v0.1l-0.1-0.1l0.1-1.7l-0.9-0.7v0.1l-0.6-0.3l-0.2,2.8l2.9,2.4l0.1-0.4l0.1,0.1l0.1-0.9c-0.1-0.1-0.2-0.2-0.2-0.3
		c-0.1-0.1-0.1-0.3-0.1-0.4c0.1,0,0.2,0.1,0.4,0.2c0.2,0.2,0.4,0.3,0.6,0.6c0.1,0.1,0.1,0.3,0.1,0.4s0,0.1,0,0.1s0,0-0.2-0.1
		l-0.3-0.2v1.3l0.1,0.1c0.3,0.2,0.7,0.3,0.9,0.3c0.1,0,0.2-0.1,0.3-0.2c0.1,0,0.1,0,0.2,0.1c0.2-0.1,0.4-0.3,0.4-0.8
		c0-0.6-0.1-1-0.3-1.5C-132.3,350.8-132.6,350.5-133.1,350.2z M-134.3,352l-2-1.8l0.1-1.8l0.3,0.2l-0.1,1.5l0,0v0.1l1.8,1.6
		L-134.3,352z M-134.7,351L-134.7,351L-134.7,351c0-0.1-0.1-0.2-0.1-0.3c0-0.1,0-0.2,0-0.3l0,0c0-0.2,0-0.3,0.1-0.4h0.1
		c0.2,0,0.6,0.1,1,0.4c0.4,0.3,0.8,0.7,1,1.1c0.2,0.4,0.3,0.8,0.3,1.2c-0.1,0.4-0.2,0.6-0.3,0.6c-0.2,0-0.4-0.1-0.7-0.2l0.1-0.3
		c0.1,0,0.2,0,0.3,0c0.1,0,0.3-0.1,0.3-0.4s-0.1-0.6-0.2-0.8c-0.2-0.2-0.4-0.4-0.7-0.7c-0.3-0.2-0.6-0.3-0.8-0.3
		c-0.2,0-0.3,0.1-0.4,0.2C-134.5,350.6-134.7,350.7-134.7,351z"/>
	<path class="st0" d="M-132.2,346.8l-2.1-1.6v0.2l-0.1-0.1l-0.1,1.8l0,0v0.2l1,0.8l0.1-0.8l0.6,0.3c0,0.1,0.1,0.2,0.1,0.3
		s0,0.1,0,0.2c0,0.3-0.2,0.3-0.3,0.3c-0.1,0-0.2,0-0.3-0.1c-0.1,0-0.1-0.1-0.2-0.1l-0.9-0.7c-0.3-0.2-0.6-0.4-0.8-0.8
		c-0.1-0.2-0.2-0.4-0.2-0.7c0-0.1,0.1-0.2,0.1-0.2c0.1,0,0.2,0,0.4,0.2l0.3,0.2l0.1-1.2v-0.1l-0.1-0.1c-0.4-0.4-0.9-0.6-1.2-0.4
		c-0.4,0.1-0.7,0.6-0.7,1.1s0.1,1.1,0.4,1.7c0.3,0.6,0.8,1,1.3,1.5l0.9,0.7c0.6,0.3,1,0.6,1.3,0.6h0.1c0.3,0,0.7-0.2,0.8-1
		c0-0.4,0-0.9-0.1-1.2C-131.9,347.4-132,347-132.2,346.8z M-132.4,349.5c-0.3,0.1-0.8-0.1-1.2-0.4l-0.9-0.7
		c-0.6-0.3-0.9-0.8-1.2-1.3c-0.2-0.6-0.3-1-0.3-1.5c0-0.2,0.1-0.6,0.3-0.7h0.1c0.2,0,0.4,0.1,0.7,0.1v0.3c-0.2-0.1-0.3-0.1-0.4-0.1
		c-0.2,0-0.4,0.1-0.4,0.6c0,0.2,0.1,0.6,0.2,0.8c0,0.1,0.1,0.3,0.2,0.4c0.1,0.3,0.4,0.7,0.8,0.9l0.9,0.7c0.3,0.2,0.7,0.3,0.9,0.3
		c0.1,0,0.2,0,0.3-0.1c0.2-0.1,0.3-0.2,0.3-0.6c0-0.2,0-0.3,0-0.6c0,0,0-0.1,0-0.2c0,0.1,0.1,0.2,0.1,0.3c0.1,0.3,0.1,0.6,0.1,0.9
		s-0.1,0.6-0.3,0.8C-132.3,349.5-132.3,349.5-132.4,349.5z M-133.9,347l0.1-1.1l1.3,1c0.1,0.2,0.1,0.3,0.2,0.6c0-0.1,0-0.1-0.1-0.2
		l-1.2-0.9l-0.1,0.6l0,0v0.2L-133.9,347z M-135.1,347.3c-0.1-0.1-0.2-0.2-0.3-0.4l0,0l0,0C-135.4,346.9-135.2,347.1-135.1,347.3z"/>
	<path class="st0" d="M-176.5,318.9c-0.8-0.4-1.6-0.4-2.1,0.1c-0.2,0.2-0.2,0.7,0,1c0.2,0.2,0.3,0.4,0.6,0.4c0.1,0,0.2,0,0.3-0.1
		c0.2-0.2,0.7-0.2,1,0c0.9,0.4,1.6,1.7,1.6,2.8c0,0.6-0.1,0.9-0.4,1.1c-0.2,0.1-0.6,0.1-0.9-0.1c-0.4-0.2-0.8-0.8-1.1-1.3
		c-0.1-0.2-0.2-0.3-0.4-0.4c-0.1-0.1-0.2-0.1-0.3,0c-0.2,0.2-0.3,0.6-0.1,1c0.2,0.4,0.6,0.9,0.9,1.3c0.3,0.3,0.7,0.7,1,0.8
		c0.3,0.2,0.7,0.3,1,0.3c0.3,0,0.6,0,0.8-0.2c0.3-0.2,0.6-0.6,0.7-0.9c0.1-0.3,0.2-0.7,0.2-1.1c0,0,0,0,0-0.1l0,0
		C-173.9,321.7-175,319.7-176.5,318.9z M-178.1,322.9c0,0,0.1,0.1,0.2,0.2c0.3,0.7,0.8,1.2,1.3,1.5c0.6,0.2,1,0.2,1.3,0
		c0.4-0.2,0.7-0.8,0.7-1.5c0-1.2-0.8-2.6-1.8-3.1c-0.6-0.3-1.1-0.2-1.5,0.1c-0.1,0-0.1-0.1-0.2-0.2c-0.1-0.2-0.1-0.4-0.1-0.4
		c0.3-0.4,1-0.4,1.6-0.1c1.3,0.8,2.4,2.6,2.4,4.3c0,0.8-0.2,1.5-0.7,1.7c-0.4,0.2-0.9,0.1-1.5-0.1c-0.7-0.4-1.3-1.1-1.8-2
		C-178.1,323-178.1,322.9-178.1,322.9z"/>
	<path class="st0" d="M-176.1,323.2c0.1,0,0.2,0,0.2-0.1c0.1,0,0.2-0.2,0.2-0.4c0-0.3-0.2-0.8-0.6-0.9l-2.6-1.3
		c-0.1-0.1-0.3-0.1-0.4,0c-0.1,0-0.2,0.2-0.2,0.4c0,0.3,0.2,0.8,0.6,0.9l2.6,1.3C-176.2,323.2-176.2,323.2-176.1,323.2z
		 M-178.9,320.7l2.6,1.3c0.1,0.1,0.2,0.3,0.2,0.6c0,0.1,0,0.1,0,0.1l-2.6-1.3C-178.8,321.3-178.9,321-178.9,320.7L-178.9,320.7z"/>
	<polygon class="st0" points="-24.6,370.3 -25.2,368.5 -24.6,370.5 -24.6,370.6 -24.5,370.6 -23.9,368 -23.5,367.8 -23.5,370.8 
		-23.8,370.9 -23.8,368.9 -23.8,368.8 -23.9,368.8 -24.5,371.2 -24.7,371.3 -25.3,369.6 -25.3,369.4 -25.4,369.6 -25.4,371.7 
		-25.7,371.8 -25.7,368.8 -25.2,368.5 -25.2,368.4 -25.8,368.8 -25.8,372 -25.3,371.9 -25.3,370.1 -24.8,371.6 -24.8,371.7 
		-24.4,371.5 -23.9,369.6 -23.9,371.2 -23.4,370.9 -23.4,367.7 -24,368 	"/>
	<path class="st0" d="M-22,367.3c-0.2,0.1-0.3,0.2-0.4,0.4c-0.1,0.2-0.1,0.4-0.1,0.7v0.6c0,0.2,0,0.4,0.1,0.6c0,0,0.1,0.1,0.2,0.1
		c0,0,0.1,0,0.2,0c0.2-0.1,0.3-0.2,0.4-0.4c0.1-0.2,0.1-0.4,0.1-0.7V368c0-0.2,0-0.4-0.1-0.6C-21.7,367.3-21.8,367.2-22,367.3z
		 M-21.7,368.4c0,0.2,0,0.4-0.1,0.7c-0.1,0.1-0.2,0.2-0.3,0.3c-0.1,0.1-0.2,0.1-0.2,0c-0.1,0-0.1-0.2-0.1-0.4v-0.6
		c0-0.2,0-0.4,0.1-0.7c0.1-0.1,0.2-0.2,0.3-0.3h0.1c0.2,0,0.2,0.2,0.2,0.4V368.4z"/>
	<path class="st0" d="M-22.2,366.8c-0.2,0.2-0.4,0.4-0.7,0.8c-0.1,0.3-0.2,0.7-0.2,1.1v0.6c0,0.4,0.1,0.7,0.3,0.9
		c0.1,0.1,0.2,0.1,0.3,0.1c0.1,0,0.2,0,0.4-0.1c0.2-0.2,0.4-0.4,0.7-0.8c0.1-0.3,0.2-0.7,0.2-1.1v-0.6c0-0.4-0.1-0.7-0.3-0.9
		C-21.7,366.6-21.9,366.6-22.2,366.8z M-21.3,368.3c0,0.3,0,0.7-0.2,1c-0.2,0.3-0.4,0.6-0.7,0.7c-0.2,0.1-0.4,0.1-0.6,0
		c-0.1-0.1-0.2-0.4-0.2-0.8v-0.6c0-0.3,0-0.7,0.2-1c0.2-0.3,0.4-0.6,0.7-0.7c0.1-0.1,0.2-0.1,0.3-0.1c0.1,0,0.2,0,0.2,0.1
		c0.1,0.1,0.2,0.4,0.2,0.8V368.3z"/>
	<path class="st0" d="M-20.1,366.2l-0.3,0.2v2.4l0.3-0.2c0.2-0.1,0.3-0.2,0.4-0.4c-0.1,0.1-0.2,0.2-0.3,0.3l-0.2,0.1v-2l0.2-0.1
		c0.2-0.1,0.3-0.1,0.3,0c0.1,0.1,0.1,0.2,0.1,0.4c0-0.2,0-0.4-0.1-0.6C-19.8,366.2-19.9,366.1-20.1,366.2z"/>
	<path class="st0" d="M-19.5,367.4c0,0.2,0,0.4-0.1,0.7C-19.5,367.9-19.5,367.7-19.5,367.4L-19.5,367.4z"/>
	<path class="st0" d="M-19.3,365.9c-0.2-0.1-0.4-0.1-0.8,0l-0.8,0.4v3.3l1-0.3c0.2-0.2,0.4-0.4,0.7-0.8c0.1-0.3,0.2-0.7,0.2-1.1
		v-0.6C-19,366.3-19.1,366-19.3,365.9z M-19.1,367.3c0,0.3,0,0.7-0.2,1c-0.2,0.3-0.4,0.6-0.7,0.7l-0.7,0.3v-3l0.8-0.3
		c0.2-0.1,0.4-0.1,0.6,0c0.1,0.1,0.2,0.4,0.2,0.8C-19.1,366.8-19.1,367.3-19.1,367.3z"/>
	<path class="st0" d="M-19.5,366.9L-19.5,366.9L-19.5,366.9z"/>
	<polygon class="st0" points="-18.8,368.4 -17.2,367.9 -17.2,367.2 -17.3,367.2 -17.3,367.5 -18.7,368.2 -18.7,365.2 -17.3,364.6 
		-17.3,365 -18.3,365.4 -18.3,366.3 -17.4,365.9 -17.4,366.2 -18.3,366.6 -18.3,367.7 -18.2,367.5 -18.2,366.9 -17.3,366.4 
		-17.3,365.7 -18.2,366.2 -18.2,365.5 -17.2,365.1 -17.2,364.4 -18.8,365.2 	"/>
	<polygon class="st0" points="-17.3,367.2 -17.3,367.2 -18.2,367.5 -18.2,367.7 	"/>
	<path class="st0" d="M-0.6,355.9L-0.6,355.9h0.1c0.1,0,0.1-0.2,0.1-0.3l0,0C-0.4,355.7-0.4,355.8-0.6,355.9z"/>
	<path class="st0" d="M-0.4,355.5c0-0.1,0-0.1,0-0.2l-0.2-0.7h-0.1L-0.4,355.5z"/>
	<path class="st0" d="M-2.5,356.3h0.1l0.1,0.1c0,0.3,0.1,0.7,0.4,0.9c0.2,0.2,0.6,0.2,0.9,0.1c0.7-0.2,1.2-0.9,1.2-1.7
		c0-0.6-0.3-1-0.9-1.1l0,0c0.4,0.1,0.7,0.4,0.7,0.9c0,0.7-0.4,1.3-1.1,1.6c-0.2,0.1-0.6,0-0.8-0.1c-0.2-0.2-0.3-0.4-0.3-0.8
		c0-0.1,0-0.2-0.1-0.2c-0.1,0-0.1-0.1-0.2,0c-0.2,0-0.3,0.2-0.3,0.4c0,0.3,0.1,0.7,0.2,0.9c-0.1-0.2-0.1-0.4-0.1-0.7
		C-2.7,356.6-2.6,356.3-2.5,356.3z"/>
	<path class="st0" d="M-1.1,357.9c-0.1,0.1-0.3,0.1-0.4,0.1c-0.2,0-0.6,0-0.8-0.2c-0.1-0.1-0.1-0.2-0.2-0.2c0.1,0.1,0.2,0.3,0.3,0.3
		c0.3,0.2,0.7,0.3,1.1,0.2c0.7-0.2,1.1-0.8,1.5-1.5C0.2,357.2-0.4,357.8-1.1,357.9z"/>
	<path class="st0" d="M-2.5,357.5c0,0,0-0.1-0.1-0.1C-2.5,357.5-2.5,357.5-2.5,357.5z"/>
	<path class="st0" d="M-2.5,357.5L-2.5,357.5L-2.5,357.5z"/>
	<path class="st0" d="M-177.8,326.1c-0.6,0-1,0.6-1,1.2c0,0.7,0.4,1.2,1,1.2s1-0.6,1-1.2C-176.8,326.6-177.2,326.1-177.8,326.1z
		 M-178,327.3c0-0.3,0.1-0.6,0.2-0.6c0.1,0,0.2,0.2,0.2,0.6c0,0.3-0.1,0.6-0.2,0.6S-178,327.6-178,327.3z"/>
	<path class="st0" d="M-156.2,339.3c-0.6,0-1,0.6-1,1.2c0,0.7,0.4,1.2,1,1.2s1-0.6,1-1.2C-155.2,339.9-155.6,339.3-156.2,339.3z
		 M-156.2,341.1c-0.1,0-0.2-0.2-0.2-0.6c0-0.3,0.1-0.6,0.2-0.6c0,0,0.2,0.2,0.2,0.6C-155.9,340.9-156.1,341.1-156.2,341.1z"/>
	<path class="st0" d="M-135,353.3c-0.6,0-1,0.6-1,1.2c0,0.7,0.4,1.2,1,1.2s1-0.6,1-1.2C-134,353.9-134.4,353.3-135,353.3z
		 M-135.2,354.5c0-0.3,0.1-0.6,0.2-0.6c0,0,0.2,0.2,0.2,0.6c0,0.3-0.1,0.6-0.2,0.6C-135.1,355.1-135.2,354.9-135.2,354.5z"/>
	<path class="st0" d="M40.5,294.7L40.5,294.7c-1.1-5.9-7.2-9-7.5-9.2l-0.7-0.3c-3.3-1.7-8.3-4.3-14.6-7.4l-0.3-0.1
		c-11.5-5.8-27.2-13.9-43-21.9c0.1-9.3-2-11.8-7.1-13.9c-0.8-0.3-1.6-0.8-2.4-1.1c-6.3-3.4-12,0.4-12.9,1.1
		c-0.2,0.1-1.1,0.6-2.4,1.2l-8.1-4.1c-16.7-8.6-26.9-13.8-30-15.6c-13-7.3-29.5-0.9-31.3-0.1l-0.8,0.2
		c-12.4,4.9-44.3,17.6-67.1,26.6c-1.1-14.5-5.8-71.4-6.6-79.1c-0.9-9.2-5.5-11.8-8.4-13.2c-0.2-0.2-0.6-0.3-0.7-0.4
		c-0.1,0-0.1-0.1-0.3-0.2c-2.9-1.6-5.5-0.7-9.6,0.8l-0.8,0.2c-2.1,0.8-4.7,1.7-8.1,2.6c-11.3,3-10,15.8-9.6,18.3l9.2,88.7
		c-4,5.4-4.3,10.6-4.3,10.6c0,0.3,0.1,1.1,0.3,4.7c0.4,5.9,1.1,15.9,1.2,21c0.2,6.7,2.5,9.8,3.8,11l0,0l0.4,0.3
		c0.1,0.1,0.2,0.1,0.3,0.2l137.7,90.1c0.1,0.1,3.4,2.5,7.5,2.5c1.5,0,3-0.3,4.3-0.9c1.1-0.4,6.4-3.3,9.2-4.7
		c1.6,1.5,3.6,2.8,5.5,3.8c2.5,1.3,4.6,1.8,6.3,1.5h0.3l0.3-0.1c2.1-0.8,2.9-1.2,4.7-2.4c1.5-1,3.8-2.5,8.4-5.2
		c10.4-6.1,10.3-12.1,10-13.9v-2.6c22-11.9,45.5-24.8,53.3-29l1.5-0.8c1.3-0.8,2.1-1.2,2.2-1.2c0.1,0,5.8-3.7,6.3-9.8
		c0.2-2.8-0.8-5.6-3.1-8.1c1-10.5,2-24.2,2.4-29l0.6-0.2l0.4-0.4l0.1-0.1C40,301.2,41.1,297.8,40.5,294.7z M38.4,295.9
		c0-0.1,0-0.2,0-0.3C38.4,295.8,38.4,295.8,38.4,295.9z M32,335.7l0.1,0.1c-0.1-0.2-0.3-0.3-0.4-0.6l0,0L32,335.7z M-38,397
		c-4.8,2.8-7.2,4.4-8.5,5.3c-1.6,1-2.1,1.3-3.8,1.9h-0.1c0-3.5,0-132.1-0.1-138.6c0-6.2,3-7.6,3.1-7.7l17.8-8.7
		c0.4,1.5,0.7,3.5,0.7,6.6l-0.8,130.6v0.2C-29.7,386.6-28.4,391.5-38,397z M-221.2,164c3.8-1,6.6-2,8.9-2.8c3.6-1.3,5.4-2,6.9-1.1
		c0.3,0.2,0.7,0.3,1,0.6c0.6,0.3,1.2,0.7,1.8,1c-3.5,1.2-14.6,5.3-17.3,6.5c-3.6,1.7-2.8,7.7-2.8,8l8.4,87h0.2c-2,1.1-3.7,2.6-5,3.9
		l-9.2-88.5C-228.4,177.9-230.5,166.5-221.2,164z M-224.4,164.1L-224.4,164.1L-224.4,164.1z M-223.1,163.3
		C-223,163.3-223,163.3-223.1,163.3C-223,163.3-223,163.3-223.1,163.3z M29.8,340.2c-0.4,0.8-1.6,2-2,2.2l-2.2,1.2l0.1-2.2l1.7-1
		c0,0,1.6-0.7,2.6-2.1C29.9,339,29.9,339.6,29.8,340.2z M23.4,342.8l1.6-0.9l-0.1,1.7L23.4,342.8z M24.4,344.3l-4.8,2.7
		c-0.2,0.1-0.3,0.1-0.4,0.1c-0.1-0.1-0.2-0.3-0.2-0.6c0-0.7,0.4-1.5,1-1.8l2.6-1.5L24.4,344.3z M28.6,336
		C28.6,336.2,28.5,336.2,28.6,336c-0.2,0.1-0.3,0.2-0.4,0.2c-0.1,0.1-0.2,0.1-0.4,0.2l-1.8,1.1l0.1-2.2l2-1.2c0,0,1.1-0.6,2.1-1.3
		c0,0.8-0.1,1.5-0.1,2.1c-0.3,0.2-0.7,0.6-1.1,0.9C28.9,335.9,28.8,336,28.6,336z M23.4,339.2L23.4,339.2c-0.1,0-0.1,0-0.2,0
		c-0.1-0.1-0.2-0.3-0.2-0.6c0-0.3,0.1-0.8,0.3-1.2l1.6,0.9L23.4,339.2C23.5,339.2,23.4,339.2,23.4,339.2z M32,313.4v0.2v0.1
		c-0.1,1.2-2.4,2.7-3.1,3l-1.6,0.8l0.1-1.7c1.2-0.7,3.7-2.2,4.8-4.1C32.1,312.3,32.1,312.8,32,313.4L32,313.4z M25.1,331.9l-3.6,1.9
		c-0.1,0-0.2,0.1-0.3,0c-0.1-0.1-0.2-0.3-0.2-0.6c0-0.6,0.4-1.5,0.9-1.7l1.3-0.7L25.1,331.9z M23.9,330.4l1.8-0.9l-0.1,1.9
		L23.9,330.4z M26.5,329.1l2.6-1.3c0.1,0,0.9-0.3,1.6-1c0,0.4-0.1,0.9-0.1,1.5c-0.4,0.9-1.3,1.6-1.8,1.8l-2.5,1.3L26.5,329.1z
		 M11.4,332.3L11.4,332.3l6.5-3.5c0.1,0,0.2-0.1,0.2-0.2h0.1l-0.1-0.1v-0.1l-0.1-0.1c-0.1,0-0.1-0.1-0.2-0.1c-0.2,0-0.2,0-0.2-0.3
		v-0.3l6.5-3.4l1.5,0.8L11.4,332.3z M-16.4,346.2c0.1-0.2,0.1-0.4,0.1-0.7v-0.2c0.7-0.4,3.7-2.1,4.9-2.7c0,0.4,0.1,0.7,0.2,0.8
		L-16.4,346.2z M-17.1,345.5c0,0.4-0.2,0.7-0.3,1l-0.9-0.4L-17.1,345.5L-17.1,345.5z M17,328.8l-5.3,2.8c0.1-0.2,0.1-0.4,0.1-0.7
		v-0.2c0.8-0.4,3.8-2,4.9-2.7C16.8,328.4,16.9,328.6,17,328.8z M11,330.9c0,0.4-0.2,0.7-0.4,1.1l-0.9-0.4L11,330.9L11,330.9z
		 M26.3,322.9l-0.1,1.5l-1.3-0.7L26.3,322.9z M10.7,332.7l-0.2,0.1L10.7,332.7L10.7,332.7z M27,322.6l1.1-0.6
		c0.1-0.1,1.9-0.8,3.1-2.2c-0.6,2.7-3.8,4.1-4,4.3l-0.3,0.2L27,322.6z M31.6,316.8v0.3c-0.2,2.8-3.7,4.1-3.8,4.1l-3.9,2h-0.1
		l-0.1,0.1l-52,26.9v-3l55.3-28.5l0.2,0.1v-0.3l2-1c0.1-0.1,1.6-0.9,2.7-2c0,0.4-0.1,0.8-0.1,1.2L31.6,316.8z M27.1,310.8l-1.5-0.8
		l1.6-0.8L27.1,310.8z M11,317.6c0,0.3,0.1,0.4,0.2,0.6L6,320.9c0.1-0.2,0.1-0.4,0.1-0.7V320L11,317.6z M-13.3,329.9
		c0,0.4,0.1,0.7,0.2,0.8l-5.3,2.8c0.1-0.2,0.1-0.4,0.1-0.7v-0.2c0.7-0.3,3-1.7,4.4-2.4L-13.3,329.9z M-18.9,332.8
		c0,0.4-0.2,0.7-0.4,1l-0.9-0.4L-18.9,332.8L-18.9,332.8z M-18.8,334.4l6.6-3.6c0.1,0,0.2-0.1,0.2-0.2h0.1l-0.1-0.1v-0.1l-0.1-0.1
		c-0.1,0-0.1-0.1-0.2-0.1c-0.2,0-0.2,0-0.2-0.3v-0.2l17.8-9.1c0,0.3-0.2,0.6-0.4,1l-0.8,1.3l8.6-4.7l-0.4-0.3
		c-0.1,0-0.1-0.1-0.2-0.1c-0.2,0-0.2,0-0.2-0.3v-0.1l13-6.6l1.7,0.9C16.5,316.4-1.1,325.3-18.8,334.4L-18.8,334.4z M-9,334.6l1-0.6
		c0,0.3-0.2,0.6-0.3,0.9L-9,334.6z M-2.1,331.8l-5.3,2.8c0.1-0.2,0.1-0.4,0.1-0.7v-0.2c0.1,0,0.2-0.1,0.4-0.2l4.5-2.2
		C-2.2,331.4-2.1,331.7-2.1,331.8z M25.5,316.9l1.1-0.6l0,0l-0.1,1.3L25.5,316.9z M-1.3,331.9c0.1,0,0.2-0.1,0.2-0.2h0.1l-0.1-0.1
		v-0.1l-0.1-0.1c-0.1,0-0.1-0.1-0.2-0.1c-0.2,0-0.2,0-0.2-0.3v-0.1l26.3-13.4l1.5,0.9l-34,17.5l0.1-0.1c0,0,0-0.1,0-0.2L-1.3,331.9z
		 M31.9,309.8v0.3c-0.2,2.1-3.6,4.3-5,5h-0.1v0.1c-0.2,0.1-0.4,0.2-0.4,0.2l-1.6,0.8h-0.1l-0.1,0.1L-2,330h-0.1c-0.1,0-0.1,0-3,1.6
		c-0.1,0.1-0.3,0.2-0.4,0.2l-4.7,2.5c0,0,0,0-0.1,0l-0.1,0.1l-17.9,9.2v-3.4c24.2-12.3,50.1-25.6,55.4-28.2l0.2-0.1l0.3,0.2v-0.3
		l0.4-0.2c0.7-0.4,3-1.8,4.4-3.1c0,0.4-0.1,1-0.1,1.6L31.9,309.8z M-19.2,334.7c-0.1,0-0.2,0.1-0.2,0.1L-19.2,334.7L-19.2,334.7z
		 M-9.9,335l1.3,0.6l-0.2,0.3l0.3-0.3l0.2,0.1h0.1H-8l-20.3,10.4v-1.8L-9.9,335z M-16.9,347l6.5-3.5c0.1,0,0.2-0.1,0.2-0.2l0.1-0.1
		l-0.1-0.1V343l-0.1-0.1c-0.1,0-0.1-0.1-0.2-0.1c-0.2,0-0.2,0-0.2-0.3v-0.3L8.9,332l1.6,0.7l-0.1,0.3l-27.2,14.3V347
		C-16.9,347.1-16.9,347-16.9,347z M23.9,336.8L23.9,336.8l1.5-0.9l-0.1,1.7L23.9,336.8z M32.6,306.8c-0.2,0.9-2.5,2.6-4.8,3.9
		l0.1-1.9c2.4-1,3.8-2.1,4.7-3C32.6,306.1,32.6,306.5,32.6,306.8z M-28.2,335.9l60.9-31.4c-0.3,0.7-1.6,2.1-5,3.5h-0.3v0.2l-2.6,1.3
		l-0.1-0.1l-0.1,0.2l-12.9,6.6l0,0c-0.1,0-0.1,0-3,1.6c0,0,0,0-0.1,0l-36.5,18.7L-28.2,335.9z M-20.9,333.8l1.5,0.7l-0.1,0.3
		c-2.9,1.5-5.7,2.9-8.6,4.4v-1.7L-20.9,333.8z M-28.3,351.2l9.1-4.7l1.6,0.7l-0.2,0.4l0.4-0.3l0.1,0.1h0.1l0,0l-11.2,5.8
		L-28.3,351.2z M-28.2,334.7v-5.8c24-12.1,40.7-20.4,49.9-24.5c8.4-3.8,12.7-7.6,12.7-11.2c0-2.7-2.4-4.6-3.7-5.4
		c0.1,0,0.1,0.1,0.2,0.1l0.7,0.3c0,0,4.9,2.6,5.7,6.7c0.4,2.4-0.6,4.8-2.9,7.4L-28.2,334.7z M-27.7,258.2
		c23.8,12.1,47.1,24,57.4,29.1l-0.3,0.7l0.2,0.1c0.1,0.1,4,2,4,5.2c0,3.4-4.1,6.8-12.2,10.5c-11.3,5-33.1,16-49.5,24.3L-27.7,258.2z
		 M-28.3,354.2l54.7-28.8l0.3,0.2v-0.3l0.8-0.4c0,0,2.4-1,3.7-3c-0.1,0.7-0.2,1.9-0.3,3.6c-0.6,1-1.9,1.7-2,1.7l-2.8,1.5h-0.2v0.1
		l-2.6,1.3h-0.1v0.1l-1.6,0.8c-0.8,0.4-1.3,1.5-1.3,2.5c0,0.6,0.2,1,0.6,1.2c0.2,0.1,0.3,0.1,0.6,0.1s0.4,0,0.6-0.2l4-2.1l0.3,0.2
		v-0.4l2.9-1.5c0.3-0.1,0.9-0.6,1.3-1c0,0.6-0.1,1.2-0.1,1.9c-0.6,0.7-1.8,1.6-2.7,1.9l-2,1.2h-0.2v0.1l-2,1.2
		c-0.1,0.1-0.3,0.2-0.4,0.3l0,0l0,0c-0.6,0.6-0.9,1.3-0.9,2.1c0,0.6,0.2,1,0.6,1.2c0.2,0.1,0.3,0.1,0.6,0.1s0.4,0,0.7,0l1.8-1.1
		l0.2,0.1v-0.2l2.2-1.3c0.2-0.1,1.1-0.6,1.9-1.1c0,0.1,0,0.1,0,0.2H30l-0.1,0.3c-0.7,2.1-2.7,3-2.8,3l-2,1.1l0,0l0,0l-2.6,1.5l0,0
		l0,0l-2.9,1.7c-0.8,0.4-1.5,1.6-1.5,2.6c0,0.6,0.2,1,0.6,1.2c0.2,0.1,0.3,0.1,0.6,0.1c0.2,0,0.4,0,0.8-0.1l5.4-3l0.1,0.1v-0.2
		l2.7-1.5c0.2-0.2,0.8-0.7,1.3-1.2c-0.3,1.3-0.8,1.9-1,1.9c-0.6,0.3-5,2.8-12,6.6l-44.8,24.8L-28.3,354.2z M36.4,291.1
		C36.5,291.1,36.5,291.1,36.4,291.1C36.5,291.1,36.5,291.1,36.4,291.1z M36.8,291.7c0,0.1,0.1,0.1,0.1,0.2
		C36.9,291.8,36.8,291.7,36.8,291.7z M37.2,292.2c0.1,0.1,0.1,0.2,0.2,0.3C37.4,292.4,37.3,292.3,37.2,292.2z M37.6,292.9
		c0.1,0.1,0.1,0.3,0.2,0.4C37.7,293.1,37.6,293,37.6,292.9z M37.9,293.7c0,0.1,0.1,0.3,0.1,0.4C38.1,294,37.9,293.8,37.9,293.7z
		 M-51.7,404.2c-0.8-0.1-1.8-0.6-2.9-1.1c0-8-0.8-138.1-0.9-142.8c-0.1-4.5,4.3-5.9,4.5-6.1l18.5-8.6c1,0.6,1.9,1.1,2.5,2.2
		l-17.9,8.9c-0.2,0.1-3.9,1.8-3.8,8.9C-51.7,272-51.7,401.2-51.7,404.2z M-80.9,403l-22.9-14.9l-114.8-75.4c0,0-1.6-0.9-2.5-4
		l139.8,90.3c0.2,0.2,1.2,0.9,2.7,0.9c0.7,0,1.2-0.1,1.8-0.4c0.2,1.1,0.8,2.6,1.7,3.1c0.3,0.2,0.7,0.3,1,0.3c0.3,0,0.6-0.1,0.9-0.2
		l0.2-0.1l-0.2-1l-0.2,0.1c-0.3,0.1-0.7,0.1-0.9,0c-0.3-0.2-0.6-0.7-0.8-1.1c0.2,0,0.3,0,0.6,0c1.1,0,2.8-0.2,4.8-1.3
		c0.6-0.3,3-1.6,6.8-3.8c0,1.3,0.1,2.2,0.1,2.4c0.1,0.3,0.3,0.8,0.7,1.2c-6.1,3.3-9.5,5-10.2,5.3c-1.6,0.7-3.1,0.7-4.5,0.4
		C-79.1,404.2-80.9,403-80.9,403z M-199.8,164.2l-16,5.6c0,0-4,1.3-3.7,5.8c0.3,4.1,8.3,85.2,8.4,86l0.3-0.1c-0.8,0.3-1.5,0.7-2.1,1
		l-8.4-86.4c0-0.1-0.7-5.5,2.1-6.8c2.9-1.3,15.7-6.1,17.8-6.7C-200.8,163-200.3,163.6-199.8,164.2z M-64.3,261
		c0.1,8.3,0.4,55.4,0.8,92l-5.4,2.8c-0.1,0-6.8,4.5-7.3,14.5l-0.6,19.7h-0.1l0.1,0.1l-0.2,6.6l-0.1-0.1l-0.2,0.2
		c-0.3,0.4-0.8,0.7-1.3,0.7c-0.7,0-1.2-0.3-1.3-0.4l-141.7-91.6c-0.1-0.6-0.1-1.1-0.1-1.7c-0.2-6.4-1.1-20.2-1.5-24.3l142.2,89
		c0.3,0.2,1.2,0.9,2.4,0.9c0.2,0,0.4,0,0.6,0h0.1c0.4-0.1,0.7-0.3,0.9-1l0.1-0.2l-0.2-0.1c-0.7-0.4-2-1.1-2.5-1.5l-143.6-89.4
		c0.6-2.9,3-10.8,12.8-14.6c12.2-4.8,91-36.1,91.8-36.3c0.1,0,7.3-3,15.7-3c4.9,0,9.2,1,12.8,3c3.8,2.1,16.8,8.9,38.4,19.9
		c-2,0.9-4.4,2-6.7,2.9C-64.7,251.6-64.3,260.6-64.3,261z M-75.3,384.4l9.2-4.9l1.6,0.2l-10.9,5.8L-75.3,384.4z M-66.5,378.2v0.7
		l-8.7,4.5v-0.4L-66.5,378.2z M-63.4,379.1l-2.5-0.3v-0.9l2.7-1.5c0,0.9,0,1.7,0,2.5L-63.4,379.1z M-66.5,371.5l-8.5,4.5v-0.8
		l8.5-4.4V371.5z M-75,376.8l9.1-4.7l0.1-0.1l1.5,0.2l-10.6,5.6V376.8z M-75.5,390.7v-0.6l8.6-4.7v0.3L-75.5,390.7z M-75.5,391.5
		l9.4-5.3l1.3,0.2l-10.8,5.8V391.5z M-75.4,398l-0.2-0.2v-0.1v-0.2l9.4-5.3l1.5,0.2L-75.4,398z M-75.6,396.6v-0.3l8.9-4.7v0.1
		L-75.6,396.6z M-221.3,307.5v-1l141,91.2c0.2,0.1,0.9,0.6,1.8,0.6c0.6,0,1.1-0.1,1.6-0.6c0,0.1,0,0.4,0.1,1
		c-0.6,0.3-1.1,0.4-1.7,0.4c-1,0-1.8-0.4-2.4-0.8l-140.4-90.8C-221.2,307.6-221.2,307.5-221.3,307.5z M-70.2,398.2
		c-2.5,1.3-4.5,1.2-5.2,1c0-0.1,0-0.1,0-0.2l12.6-6.7c0,0.7,0,1.2,0,1.8C-67,396.3-69.6,397.9-70.2,398.2z M-75.6,395.2v-1.9
		l12.6-6.7c0,0.7,0,1.2,0,1.9L-75.6,395.2z M-75.4,389.2l0.1-2.8l12.2-6.5c0,0.9,0,1.8,0,2.7L-75.4,389.2z M-63.1,375.5l-12.1,6.5
		l0.1-3.1l11.9-6.3C-63.1,373.6-63.1,374.5-63.1,375.5z M-63.3,371.7l-2.6-0.3v-0.9l2.6-1.3C-63.3,370-63.1,370.8-63.3,371.7
		L-63.3,371.7z M-70.5,359l4.1-2v0.4l-4.9,2.7C-71.1,359.7-70.9,359.4-70.5,359z M-63.9,357.7l-1.8-0.2v-0.7l2.4-1.1
		c0,0.6,0,1.2,0,1.8C-63.6,357.5-63.7,357.6-63.9,357.7z M-72.2,361.4l6.2-3.3l0.9,0.1c-4.1,2.1-6.4,3.4-7.6,4
		C-72.6,361.9-72.4,361.6-72.2,361.4z M-63.4,354.5l-5.5,2.7c0.4-0.3,0.7-0.6,0.7-0.6l4.7-2.5C-63.4,354.3-63.4,354.4-63.4,354.5z
		 M-74.9,370.3c0-0.2,0-0.4,0-0.7l8.6-4.6c0,0,0,0,0.1,0l1.1,0.2L-74.9,370.3L-74.9,370.3z M-66.5,364.4l-8.3,4.4
		c0-0.2,0-0.3,0.1-0.6l8.2-4.1V364.4z M-63.3,361.5l-2.8,1.5l0,0c-0.1,0-0.2,0.1-0.3,0.2l-8.1,4.1c0.2-1.5,0.7-2.7,1.1-3.8
		c0.9-0.4,3.4-1.8,10-5.3C-63.4,359.4-63.4,360.5-63.3,361.5z M-62.9,391.4l-0.8,0.4l-2.4-0.3v-0.3l3.3-1.7
		C-62.9,390.1-62.9,390.7-62.9,391.4z M-63,385.6l-0.6,0.3l-2.1-0.3l0,0l-0.3-0.1v-0.3l3.1-1.7C-63,384.1-63,384.9-63,385.6z
		 M-63.3,368.2l-11.8,6.1l0.1-2.9l11.7-5.9C-63.3,366.3-63.3,367.3-63.3,368.2z M-63.9,364.7l-1.9-0.3v-0.7l2.5-1.2
		c0,0.7,0,1.2,0,1.9L-63.9,364.7z M-223.2,278.4l0.2-0.6l143.1,89.2c0.3,0.2,1.6,0.9,2.1,1.2c-0.1,0.1-0.1,0.1-0.2,0.1s-0.1,0-0.2,0
		s-0.2,0-0.3,0c-0.8,0-1.7-0.7-1.9-0.8L-223.2,278.4C-223.2,278.5-223.2,278.5-223.2,278.4z M-210,261.2c-0.4-4.3-8.1-81.7-8.4-85.6
		c-0.2-3.5,2.8-4.6,2.9-4.6l16.3-5.6c0.8,1.5,1.3,3.3,1.6,5.8c0.8,8.5,6.6,80.9,6.8,82.5C-199.4,257-206.5,259.8-210,261.2z
		 M-60.7,398.5c-0.4-0.4-0.8-0.9-0.8-1.1c-0.2-0.9-0.3-14-0.6-32.5l0.1-0.1c-0.1-0.1-0.1-0.1-0.1-0.2l0,0l0,0l0,0
		c-0.3-30.4-0.7-75-0.9-103.6c0,0-0.4-8.4,5-10.6c5.8-2.5,11.8-5.5,11.9-5.5l0.1-0.1c0.1,0,2.5-1.9,5.6-1.9c1.2,0,2.5,0.3,3.7,0.9
		c1,0.6,1.9,0.9,2.7,1.2c0.1,0,0.1,0,0.2,0.1l-17.6,8.1c0,0.1-5.4,1.9-5.3,7.3c0.1,4.9,0.9,134.6,0.9,142.1
		c-1.9-1.1-3.6-2.6-4.7-3.7l0,0L-60.7,398.5z M-46.7,243.7L-46.7,243.7L-46.7,243.7C-46.6,243.7-46.7,243.7-46.7,243.7z
		 M-189.6,253.1L-189.6,253.1L-189.6,253.1L-189.6,253.1z M-202.1,160.4c0.3,0.2,0.8,0.4,1.1,0.8
		C-201.3,160.9-201.7,160.6-202.1,160.4z M-224,276v-0.1C-224,275.9-224,275.9-224,276z M-56.4,403.4c-0.1-0.1-0.2-0.1-0.3-0.2
		C-56.6,403.3-56.5,403.3-56.4,403.4z M-57.9,402.4c-0.1-0.1-0.1-0.1-0.2-0.2C-58.1,402.3-58,402.4-57.9,402.4z M-59.3,401.4
		c-0.1,0-0.1-0.1-0.2-0.1C-59.4,401.3-59.4,401.3-59.3,401.4z M-52.3,405.3c-0.1,0-0.2,0-0.3-0.1C-52.5,405.3-52.4,405.3-52.3,405.3
		z M-53.4,405c-0.1,0-0.2-0.1-0.4-0.1C-53.7,404.9-53.5,404.9-53.4,405z M9.6,355.5c11.2-6.2,19.1-10.4,19.4-10.6
		c0.2-0.1,1.8-1.3,2-6.8c0-0.4,0.1-1,0.1-1.5c1.8,1.8,2.6,3.7,2.5,5.7c-0.1,1.8-1,3.5-2,4.7c-0.1,0.1-0.1,0.2-0.2,0.3l0,0
		c-1.1,1.2-2.1,2-2.2,2.1c-0.3,0.1-30.1,16.5-57.6,31.4v-4.4L9.6,355.5z M32.7,336.4c0.1,0.1,0.1,0.1,0.2,0.2
		C32.8,336.6,32.7,336.5,32.7,336.4z M33.2,337.3c0,0.1,0.1,0.1,0.1,0.2C33.4,337.4,33.4,337.4,33.2,337.3z M33.8,338.2
		c0,0,0,0.1,0.1,0.1C33.9,338.3,33.9,338.2,33.8,338.2z M38.3,297.8c0,0.1,0,0.1,0,0.2C38.3,297.9,38.3,297.8,38.3,297.8z
		 M38.4,296.7c0,0.1,0,0.1,0,0.2C38.4,296.8,38.4,296.8,38.4,296.7z M-203.7,159.5L-203.7,159.5c-0.2-0.1-0.3-0.2-0.4-0.3
		c0.1,0,0.2,0.1,0.3,0.2L-203.7,159.5z M-204.7,159L-204.7,159c-0.9-0.6-2-0.6-3.1-0.4C-206.6,158.3-205.7,158.4-204.7,159z
		 M-208.7,158.7c0.1,0,0.3-0.1,0.4-0.1C-208.5,158.6-208.6,158.6-208.7,158.7z M-225.7,164.9C-225.7,165-225.7,165-225.7,164.9
		C-225.7,165-225.7,165-225.7,164.9z M-226.7,166L-226.7,166L-226.7,166z M-229.4,178.5c0-0.1,0-0.2,0-0.3
		C-229.4,178.5-229.4,178.6-229.4,178.5l9.3,89.7c-0.1,0.1-0.2,0.3-0.3,0.4l0.1-0.1l0.2-0.3L-229.4,178.5z M-229.4,178
		c0,0.1,0,0.1,0,0.2C-229.4,178.1-229.4,178-229.4,178z M-223.8,275.4c0-0.2,0.1-0.3,0.2-0.6C-223.6,275-223.8,275.2-223.8,275.4z
		 M-223.5,274.6c0-0.1,0.1-0.3,0.1-0.4C-223.5,274.3-223.5,274.5-223.5,274.6z M-223.4,274.1c0.1-0.1,0.1-0.3,0.2-0.6
		C-223.2,273.7-223.3,273.8-223.4,274.1z M-223.2,273.5c0.1-0.3,0.3-0.7,0.4-1.1C-222.9,272.7-223,273.2-223.2,273.5z M-222.6,272.3
		c0.1-0.1,0.1-0.3,0.2-0.4C-222.4,271.9-222.5,272-222.6,272.3z M-222.2,271.5c0.1-0.1,0.1-0.2,0.2-0.4
		C-222.1,271.2-222.2,271.4-222.2,271.5z M-221.7,270.6c0.1-0.1,0.1-0.2,0.2-0.3C-221.6,270.4-221.6,270.5-221.7,270.6z
		 M-221.1,269.5c0-0.1,0.1-0.1,0.1-0.2C-221,269.4-221,269.5-221.1,269.5z M-222.9,303.9c-0.1-5.2-0.9-15.1-1.2-21.1
		c-0.2-2.6-0.3-4.3-0.3-4.5l0,0C-224.4,279-223.1,296.5-222.9,303.9c0.2,5.8,2,8.4,3,9.3C-220.7,312.3-222.6,309.8-222.9,303.9z
		 M-218.3,314.2L-218.3,314.2l136.8,89.6c0,0,0.1,0,0.1,0.1l-0.1-0.1L-218.3,314.2z M-79.3,404.9c1.1,0.4,2.6,0.9,4.3,0.9
		c0.4,0,1,0,1.6-0.1c-0.6,0.1-1,0.1-1.6,0.1C-76.7,405.8-78.2,405.3-79.3,404.9z M-79.7,404.6c0.1,0,0.2,0.1,0.3,0.1
		C-79.6,404.7-79.6,404.6-79.7,404.6z M-61.2,399.6l-0.7,0.3c-5.3,2.8-9,4.7-9.8,5c-0.4,0.2-1,0.3-1.6,0.4c0.6-0.1,1.1-0.2,1.7-0.4
		C-71,404.7-67.5,403-61.2,399.6c0.2,0.2,0.4,0.4,0.7,0.7c0,0-0.1,0-0.1-0.1L-61.2,399.6z M-55.4,404.1c0.1,0,0.1,0.1,0.2,0.1
		c0.2,0.1,0.3,0.2,0.6,0.2c-0.2-0.1-0.3-0.1-0.6-0.2C-55.2,404.2-55.3,404.1-55.4,404.1z M-51.4,405.4c0.1,0,0.1,0,0.2,0
		C-51.3,405.4-51.4,405.4-51.4,405.4z M-50.4,405.4L-50.4,405.4L-50.4,405.4L-50.4,405.4z M-37.4,398c-4.7,2.8-7.1,4.3-8.5,5.3
		c-1.7,1.1-2.2,1.5-4.1,2.1l0,0l0,0c1.9-0.7,2.5-1,4.1-2.1C-44.4,402.3-42.1,400.8-37.4,398c6.7-3.9,8.5-7.6,8.9-9.9
		C-28.7,390.4-30.5,394.1-37.4,398z M-28.4,387.5c0-0.1,0-0.2,0-0.2S-28.4,387.4-28.4,387.5z M-28.4,388c0-0.1,0-0.3,0-0.4
		C-28.4,387.8-28.4,387.9-28.4,388z M-28.4,386.8C-28.4,386.9-28.4,386.9-28.4,386.8C-28.4,386.9-28.4,386.9-28.4,386.8z
		 M27.5,351.6l-1.5,0.8c-7.8,4.3-31.8,17.4-53.9,29.4l-0.6,0.3l0,0c27.6-14.9,57.9-31.6,58.3-31.7l0,0
		C29.8,350.4,28.9,350.8,27.5,351.6z M32.3,348c1-1.2,2-2.8,2.4-4.7C34.4,345.1,33.4,346.8,32.3,348z M32,348.4
		c0.1-0.1,0.1-0.1,0.2-0.2C32.2,348.1,32.1,348.3,32,348.4z M34.8,342.8c0-0.1,0-0.2,0-0.3l0,0C34.8,342.5,34.8,342.7,34.8,342.8z
		 M34.9,341.9c0-0.1,0-0.2,0-0.3C34.9,341.6,34.9,341.8,34.9,341.9z M34.2,339C34.2,339.1,34.2,339.1,34.2,339
		C34.2,339.1,34.2,339.1,34.2,339z M34.6,339.9L34.6,339.9L34.6,339.9z M34.8,340.8L34.8,340.8L34.8,340.8z M34,304.1v0.2
		C34,304.2,34,304.1,34,304.1l1.3-0.7l0,0L34,304.1z M35.6,303.3c0.1-0.2,0.3-0.4,0.4-0.6C35.8,302.9,35.7,303.1,35.6,303.3
		L35.6,303.3z M37.9,298.8c0,0.1,0,0.1,0,0.2C37.9,298.9,37.9,298.8,37.9,298.8z M37.6,299.8c0,0.1-0.1,0.1-0.1,0.2
		C37.5,300,37.6,299.8,37.6,299.8z M37.2,300.7c-0.1,0.1-0.1,0.2-0.2,0.3C37.1,301,37.1,300.9,37.2,300.7z M36.6,301.7
		c-0.1,0.1-0.2,0.3-0.3,0.4C36.4,302.1,36.5,301.9,36.6,301.7z"/>
</g>
</svg>
