<?xml version="1.0" encoding="utf-8"?>
<!-- Generator: Adobe Illustrator 19.1.0, SVG Export Plug-In . SVG Version: 6.00 Build 0)  -->
<svg version="1.2" baseProfile="tiny" id="Layer_1" xmlns="http://www.w3.org/2000/svg" xmlns:xlink="http://www.w3.org/1999/xlink"
	 x="0px" y="0px" viewBox="-204 406 150 150" xml:space="preserve">
<path d="M-83.7,437.1c-15,0-28.9-2.1-40.3-5.8c-1.3-0.4-2.7-0.4-4.1,0c-11.4,3.6-25.3,5.8-40.3,5.8c-1.1,0-2.3,0-3.5,0
	c-3.3-0.1-6.2,2.4-6.5,5.6c-0.4,3.4-0.6,7-0.6,10.6c0,36.6,21,67.7,50.3,79.8c1.6,0.7,3.4,0.7,5,0c29.5-12.2,50.5-43.4,50.5-79.9
	c0-3.6-0.2-7.1-0.6-10.6c-0.4-3.3-3.2-5.7-6.5-5.6C-81.4,437-82.5,437.1-83.7,437.1z"/>
</svg>
