<?xml version="1.0" encoding="utf-8"?>
<!-- Generator: Adobe Illustrator 22.1.0, SVG Export Plug-In . SVG Version: 6.00 Build 0)  -->
<svg version="1.1" baseProfile="tiny" id="Layer_1" xmlns="http://www.w3.org/2000/svg" xmlns:xlink="http://www.w3.org/1999/xlink"
	 x="0px" y="0px" viewBox="0 0 94.7 20" xml:space="preserve">
<g>
	<path fill="#FFFFFF" d="M7.6,17.6L1,3.6C0,1.6,3,0,4.1,2.1l2.3,5.1l2.9,6.7l2.9-6.7l2.3-5.1c1-1.9,4-0.7,3.1,1.4L11,17.6
		C10.4,19.2,8.6,19.6,7.6,17.6z"/>
	<path fill="#FFFFFF" d="M20.2,2.8c0-2.1,3.3-2.2,3.3,0v14.5c0,2.1-3.3,2.2-3.3,0V2.8z"/>
	<path fill="#FFFFFF" d="M46.9,7.7V17c0,1.1-0.9,1.7-1.8,1.7c-0.8,0-1.5-0.6-1.5-1.7V2.8c0-1.3,1.1-1.7,1.5-1.7
		c0.7,0,1.2,0.4,1.6,0.9l5.6,7.5l5.8-7.8c0.8-1,2.9-0.6,2.9,1.1V17c0,1.1-0.7,1.7-1.5,1.7c-0.9,0-1.6-0.6-1.6-1.7V7.7L53.6,13
		c-0.9,1.1-2.1,1.1-2.9,0L46.9,7.7z"/>
	<path fill="#FFFFFF" d="M64.6,2.8c0-2.1,3.3-2.2,3.3,0v14.5c0,2.1-3.3,2.2-3.3,0V2.8z"/>
	<path fill="#FFFFFF" d="M71.8,3c0-0.9,0.2-1.8,1.5-1.8c0.9,0,1.1,0.2,1.8,0.9l8.4,10.5V2.8c0-0.8,0.7-1.7,1.6-1.7
		c0.9,0,1.8,0.9,1.8,1.7V17c0,1.1-0.7,1.5-1.3,1.7c-0.9,0-1.3-0.2-2.1-0.9L75.1,7.3V17c0,1.1-0.7,1.7-1.6,1.7
		c-0.9,0-1.7-0.6-1.7-1.7V3z"/>
	<path fill="#FFFFFF" d="M90.5,2.8c0-2.1,3.3-2.2,3.3,0v14.5c0,2.1-3.3,2.2-3.3,0V2.8z"/>
	<path fill="#FFFFFF" d="M41,3.5c0.5-0.6,0.4-1.6-0.2-2.1c-0.6-0.5-1.6-0.4-2.1,0.2l-3.7,4.5l1.9,2.4L41,3.5z"/>
	<path fill="#FFFFFF" d="M26.5,16.4c-0.5,0.6-0.4,1.6,0.2,2.1c0.3,0.2,0.6,0.3,1,0.3c0.4,0,0.9-0.2,1.2-0.5l3.7-4.5l-1.9-2.4
		L26.5,16.4z"/>
	<path fill="#FFFFFF" d="M28.8,1.6C28.5,1.2,28.1,1,27.7,1c-0.3,0-0.7,0.1-1,0.3c-0.6,0.5-0.7,1.5-0.2,2.1l12.2,14.8
		c0.3,0.4,0.7,0.5,1.2,0.5c0.3,0,0.7-0.1,1-0.3c0.6-0.5,0.7-1.5,0.2-2.1L28.8,1.6z"/>
</g>
</svg>
