<svg xmlns="http://www.w3.org/2000/svg" id="Layer_1" width="300" height="300">
  <style>
    .st0{fill:#22F4BB;} .st1{fill:none;}
  </style>
  <path d="M291.5 121c-.1-7-6.2-11.3-9.9-12.8l-6.9-3.6-.3-.1c-.6-.2-57.6-24.7-75.9-33-17.8-8.1-28.6-8.1-30.5-8-2.6-.1-27.9-.9-66.8 6.4-42.8 8.1-66.7 17.2-81 23.4-1.1.5-11 4.9-12.7 11.8-.5 2-.5 6.9-.4 8.9 0 .4.7 42.9.7 54.2.1 12.5 7.7 16.7 9.6 17.5l77.5 44.1c1.7 1.3 9.9 7.2 22.6 8.7 4.5.5 8.6.7 12.1.6 6.8-.1 11.2-1.1 11.6-1.2 5-1.3 121.8-31.1 134.4-34.7 12.2-3.5 14.4-13.5 13.9-18.6.2-5 2.2-57.2 2-63.6zM23.4 100.3c13.9-6 37.3-15 79.4-22.9 25.9-4.9 45.9-6 56.5-6.3 5.5-.1 8.5 0 8.6 0h.4c.1 0 9.8-.5 27 7.3 17.9 8.1 72.6 31.6 75.9 33l6.9 3.7.4.2s4.7 2 5.2 5.4c-2.7 2.3-9.5 5.4-26.5 5.9-39.7 1.2-76.5 15.4-103.4 25.8-2.2.9-4.4 1.7-6.4 2.5-25.2 9.6-46.4.4-54.4-4l-3.7-2c-11.7-6.5-47.1-26.1-74.3-41 0-.5.1-.9.1-1.1.5-1.5 3.9-4.6 8.3-6.5zm258.4 85c0 .3 1 7.8-8.3 10.5-12.4 3.6-132.9 34.3-134 34.6-.1 0-8.9 1.8-21 .4-11.6-1.4-18.8-7.2-18.8-7.2l-.3-.2-78.3-44.5-.5-.2c-.2-.1-4.9-2.2-5-10.5 0-11.3-.7-53.8-.7-54.3v-2.3c27.1 14.7 61.5 33.8 72.9 40.2l3.7 2c5.8 3.2 18.5 8.9 34.7 8.6 6.9-.1 14.4-1.4 22.3-4.4 2.1-.8 4.2-1.6 6.4-2.5 26.7-10.3 63.2-24.4 102.3-25.6 14.5-.4 22.2-2.8 26.4-5.3-.2 13.8-2 59.6-2 60.1v.3l.2.3z" class="st0"/>
  <ellipse cx="177.9" cy="132" transform="rotate(88.792 177.86 131.995) scale(1.00002)" class="st0" rx="2" ry="3.7"/>
  <ellipse cx="201" cy="125.3" transform="rotate(88.792 200.99 125.302) scale(1.00002)" class="st0" rx="2" ry="3.7"/>
  <ellipse cx="224.2" cy="120.2" transform="rotate(88.792 224.152 120.16) scale(1.00002)" class="st0" rx="2" ry="3.7"/>
  <path d="M50.8 166.5c-1.5-.4-2.7-.4-3.8.1-2.4.5-4.1 4.2-4 9 .1 5.1 2.2 8.9 4.8 8.8h.1c.4.1.9.1 1.4.1.5 0 1.1-.1 1.7-.2 2.6-.5 4.4-4.2 4.3-9 0-4.4-1.9-8.1-4.5-8.8zm0 8.9c.1 4.3-1.5 7.4-2.9 7.4-1.5 0-3.2-3-3.3-7.3-.1-4.3 1.5-7.4 2.9-7.4 1.5 0 3.2 3 3.3 7.3zm0 7.4h-.3c1.2-1.6 1.9-4.3 1.8-7.4-.1-3.2-.9-5.9-2.2-7.4.1 0 .2 0 .3.1 1.7.4 3.4 3.1 3.5 7.3.1 4.3-1.5 7.1-3.1 7.4zm30.7 1.3l-12.9-6.9c-.7-1-1.7-1.8-2.7-2-1.5-.4-2.7-.4-3.8.1-2.4.5-4.1 4.2-4 9 .1 5.1 2.2 8.9 4.8 8.8l15.7 8.8c.7.5 1.5.7 2.2.7.4 0 .9-.1 1.3-.3 1.7-.8 2.9-3.1 3.3-6.1.7-4.9-1-10.2-3.9-12.1zm-18.8-7.3c1.5 0 3.2 3 3.3 7.3.1 4.3-1.5 7.4-2.9 7.4-1.5 0-3.2-3-3.3-7.3-.1-4.3 1.4-7.4 2.9-7.4zm2.9-.1c1.7.4 3.4 3.1 3.5 7.3.1 4.3-1.5 7.2-3.1 7.4h-.3c1.2-1.6 1.9-4.3 1.8-7.4-.1-3.2-.9-5.9-2.2-7.4.1 0 .2.1.3.1zM84 196c-.3 2.4-1.2 4.3-2.4 4.8-.6.3-1.3.2-2-.3L65.8 193h.4c2.6-.5 4.4-4.2 4.3-9 0-1.5-.3-2.8-.7-4l10.7 5.5c2.5 1.4 4 6.3 3.5 10.5zm16.3-4.2c-4.7 1.2-9.5-3.4-10.8-10.3-1.3-6.9 1.5-13.6 6.2-14.9 4.7-1.2 9.5 3.4 10.8 10.3 1.2 7-1.6 13.6-6.2 14.9zM95.9 168c-4.2 1.1-6.6 7-5.5 13.2 1.1 6.2 5.4 10.3 9.6 9.2 4.2-1.1 6.6-7 5.5-13.2-1.1-6.2-5.4-10.3-9.6-9.2z" class="st0"/>
  <path d="M97 191.4c-.1 0-.2 0-.3-.1-.2-.3-5-6.8-2.9-10.8.4-.9 1.7-2.5 2.1-3 0-.8-.3-4-3.8-5.9-.2-.1-.3-.3-.3-.5s.1-.4.3-.5c.3-.1 6.3-1.5 7.5 3.7.2 1 .5 2.5.6 3.1.6.4 2.8 1.4 4.6-2.8.1-.2.2-.3.4-.2.2.1.3.3.3.5 0 .4.1 9.4-3.6 9.3-.8 0-2.5-.7-3-1-.6.4-3 2.3-1.7 7.5.1.2 0 .5-.1.6 0 .1-.1.1-.1.1zm-3.4-20c3.2 2.5 3 6.4 3 6.4 0 .1 0 .2-.1.3 0 0-1.7 2.1-2.1 3-1.2 2.3.6 6 1.8 8-.6-5.2 2.5-6.9 2.5-6.9h.2c.6.3 2.2 1 2.9 1 2.1.1 2.7-4.1 2.9-6.6-2.3 3.7-4.9 1.6-5 1.5-.1-.1-.2-.2-.2-.4 0 0-.3-2.1-.6-3.3-.6-2.8-3.6-3.1-5.3-3z" class="st0"/>
  <path d="M29.5 128.1l-4.1-2.1 1.1 48.3 4 2zm2 48.6l5-2.3-.9-43.2-5.1-2.6zm1 .7l4.1 2.1-.1-4z" class="st1"/>
  <path d="M23.4 122.7l1.1 52.8 14.2 7.3-1.2-52.8-14.1-7.3zm13.1 51.7l-5 2.3-1-48.1 5.1 2.6.9 43.2zM25.4 126l4 2.1 1 48.2-4-2.1-1-48.2zm7.1 51.4l4-1.8.1 3.9-4.1-2.1z" class="st0"/>
</svg>
