<svg xmlns="http://www.w3.org/2000/svg" version="1.2" baseProfile="tiny" viewBox="0 0 560 960">
  <g id="phone-hotspot" fill="#22F4BB">
    <path d="M513.5 335.9h-468V235h468v100.9zm-463-5h458V240h-458v90.9z"/>
    <path d="M74.8 271.4c1.5-.3 3.5-.5 6-.5 3.1 0 5.4.7 6.8 2 1.3 1.2 2.1 2.9 2.1 5.1 0 2.2-.6 3.9-1.9 5.2-1.7 1.8-4.4 2.7-7.4 2.7-.9 0-1.8 0-2.5-.2v9.7h-3.1v-24zm3.1 11.7c.7.2 1.5.3 2.6.3 3.8 0 6.1-1.8 6.1-5.2 0-3.2-2.3-4.8-5.7-4.8-1.4 0-2.4.1-3 .3v9.4zm16.8 4.2c.1 4.3 2.8 6 6 6 2.3 0 3.6-.4 4.8-.9l.5 2.3c-1.1.5-3 1.1-5.8 1.1-5.4 0-8.6-3.5-8.6-8.8 0-5.3 3.1-9.4 8.2-9.4 5.7 0 7.2 5 7.2 8.2 0 .6-.1 1.2-.1 1.5H94.7zm9.3-2.3c0-2-.8-5.1-4.4-5.1-3.2 0-4.6 3-4.9 5.1h9.3zm6.9-1.6c0-2.1 0-3.8-.1-5.4h2.8l.1 3.4h.1c.8-2.3 2.7-3.8 4.8-3.8.4 0 .6 0 .9.1v3c-.3-.1-.6-.1-1.1-.1-2.2 0-3.8 1.7-4.2 4.1-.1.4-.1.9-.1 1.5v9.3H111v-12.1zm11.4 8.8c.9.6 2.6 1.3 4.2 1.3 2.3 0 3.4-1.2 3.4-2.6 0-1.5-.9-2.3-3.2-3.2-3.1-1.1-4.6-2.8-4.6-4.9 0-2.8 2.3-5.1 6-5.1 1.8 0 3.3.5 4.3 1.1l-.8 2.3c-.7-.4-1.9-1-3.6-1-1.9 0-2.9 1.1-2.9 2.4 0 1.4 1 2.1 3.3 3 3 1.2 4.6 2.7 4.6 5.3 0 3.1-2.4 5.2-6.5 5.2-1.9 0-3.7-.5-4.9-1.2l.7-2.6zm30.4-5.6c0 6.4-4.5 9.3-8.7 9.3-4.7 0-8.4-3.5-8.4-9 0-5.8 3.8-9.3 8.6-9.3 5.2 0 8.5 3.6 8.5 9zm-13.8.1c0 3.8 2.2 6.7 5.3 6.7 3 0 5.3-2.8 5.3-6.8 0-3-1.5-6.7-5.2-6.7-3.8.1-5.4 3.5-5.4 6.8zm17.8-4c0-1.8 0-3.3-.1-4.7h2.8l.2 2.9h.1c.9-1.7 2.9-3.3 5.8-3.3 2.4 0 6.2 1.4 6.2 7.4v10.4h-3.2v-10c0-2.8-1-5.1-4-5.1-2.1 0-3.7 1.5-4.2 3.2-.1.4-.2.9-.2 1.5v10.5h-3.2v-12.8zm29.7 12.7l-.3-2.2h-.1c-1 1.4-2.8 2.6-5.3 2.6-3.5 0-5.3-2.5-5.3-5 0-4.2 3.7-6.5 10.5-6.5v-.3c0-1.4-.4-4-4-4-1.6 0-3.3.5-4.5 1.3l-.7-2.1c1.4-.9 3.5-1.5 5.7-1.5 5.3 0 6.6 3.6 6.6 7.1v6.5c0 1.5.1 3 .3 4.2h-2.9zm-.5-8.9c-3.5-.1-7.4.5-7.4 3.9 0 2.1 1.4 3 3 3 2.3 0 3.7-1.4 4.2-2.9.1-.3.2-.7.2-1v-3zm8.2-16.6h3.2v25.6h-3.2v-25.6zm19.3 1.3v10.2h11.7v-10.2h3.2v24.3h-3.2V284h-11.7v11.4h-3.1v-24.3h3.1zm36 15.4c0 6.4-4.5 9.3-8.7 9.3-4.7 0-8.4-3.5-8.4-9 0-5.8 3.8-9.3 8.6-9.3 5.1 0 8.5 3.6 8.5 9zm-13.8.1c0 3.8 2.2 6.7 5.3 6.7 3 0 5.3-2.8 5.3-6.8 0-3-1.5-6.7-5.2-6.7-3.8.1-5.4 3.5-5.4 6.8zm21.6-13.7v5h4.5v2.4h-4.5v9.4c0 2.2.6 3.4 2.4 3.4.8 0 1.4-.1 1.8-.2l.1 2.4c-.6.3-1.6.4-2.8.4-1.5 0-2.7-.5-3.4-1.3-.9-.9-1.2-2.5-1.2-4.5v-9.5h-2.7V278h2.7v-4.2l3.1-.8zm7.7 19.2c.9.6 2.6 1.3 4.2 1.3 2.3 0 3.4-1.2 3.4-2.6 0-1.5-.9-2.3-3.2-3.2-3.1-1.1-4.6-2.8-4.6-4.9 0-2.8 2.3-5.1 6-5.1 1.8 0 3.3.5 4.3 1.1l-.8 2.3c-.7-.4-1.9-1-3.6-1-1.9 0-2.9 1.1-2.9 2.4 0 1.4 1 2.1 3.3 3 3 1.2 4.6 2.7 4.6 5.3 0 3.1-2.4 5.2-6.5 5.2-1.9 0-3.7-.5-4.9-1.2l.7-2.6zm14.7-8.5c0-2.2-.1-4-.1-5.7h2.8l.1 3h.1c1.3-2.1 3.3-3.4 6.2-3.4 4.2 0 7.4 3.6 7.4 8.9 0 6.3-3.8 9.4-7.9 9.4-2.3 0-4.3-1-5.4-2.7h-.1v9.5h-3.1v-19zm3.1 4.6c0 .5.1.9.1 1.3.6 2.2 2.5 3.7 4.8 3.7 3.3 0 5.3-2.7 5.3-6.7 0-3.5-1.8-6.5-5.2-6.5-2.2 0-4.2 1.5-4.8 3.9-.1.4-.2.9-.2 1.3v3zm33.1-1.7c0 6.4-4.5 9.3-8.7 9.3-4.7 0-8.4-3.5-8.4-9 0-5.8 3.8-9.3 8.6-9.3 5.2 0 8.5 3.6 8.5 9zm-13.8.1c0 3.8 2.2 6.7 5.3 6.7 3 0 5.3-2.8 5.3-6.8 0-3-1.5-6.7-5.2-6.7-3.8.1-5.4 3.5-5.4 6.8zm21.7-13.7v5h4.5v2.4h-4.5v9.4c0 2.2.6 3.4 2.4 3.4.8 0 1.4-.1 1.8-.2l.1 2.4c-.6.3-1.6.4-2.8.4-1.5 0-2.7-.5-3.4-1.3-.9-.9-1.2-2.5-1.2-4.5v-9.5h-2.7V278h2.7v-4.2l3.1-.8zM48.37 333.62l136.98 164.02-.77.64L47.6 334.26zm462.26.05l.75.66L369.36 498.4l-.76-.66zM276.8 724c-9.9 0-18 8.1-18 18s8.1 18 18 18 18-8.1 18-18c-.1-9.9-8.1-18-18-18zm0 31.4c-7.4 0-13.4-6-13.4-13.4s6-13.4 13.4-13.4 13.4 6 13.4 13.4c-.1 7.4-6.1 13.4-13.4 13.4z"/>
    <path d="M367.1 396H186.4c-10.8 0-19.4 8.8-19.4 19.7v336.7c0 10.8 8.6 19.7 19.4 19.7H267v38h20v-38h80.1c10.8 0 19.9-8.8 19.9-19.7V415.7c0-10.9-9.1-19.7-19.9-19.7zM383 752.3c0 8.6-7 15.7-15.7 15.7H186.7c-8.6 0-15.7-7-15.7-15.7V415.7c0-8.6 7-15.7 15.7-15.7h180.7c8.6 0 15.7 7 15.7 15.7v336.6z"/>
    <path d="M183 717h189V422H183v295zm4-291h181v287H187V426z"/>
    <circle cx="262.8" cy="411" r="4"/>
    <path d="M274.7 413h18.7c1.1 0 2-.9 2-2s-.9-2-2-2h-18.7c-1.1 0-2 .9-2 2s.9 2 2 2zm-1.3 395h7v74h-7zm97.1-309.5h-186v-35h186v35zm-185-1h184v-33h-184v33z"/>
  </g>
  
  
  <g id="btn-on">
  <path  fill="#22F4BB" d="M460.7 310h-41.1c-13.4 0-24.4-11-24.4-24.4 0-13.4 11-24.4 24.4-24.4h41.1c13.4 0 24.4 11 24.4 24.4.1 13.4-10.9 24.4-24.4 24.4z"/>
    
  </g>
  <g id="btn-off">
    <path fill="#2D303F" d="M476.9 269.3c-4.1-4.1-9.4-6.3-15.1-6.3h-41.1c-5.7 0-11.1 2.3-15.1 6.3-4.1 4.1-6.3 9.5-6.3 15.2 0 5.7 2.2 11.1 6.3 15.2s9.4 6.3 15.1 6.3h41.1c5.7 0 11.1-2.3 15.1-6.3 4.1-4.1 6.3-9.5 6.3-15.2s-2.3-11.1-6.3-15.2z"/>
    <path fill="#22F4BB" d="M486 284.4c0-13.5-10.9-24.4-24.4-24.4h-41.1c-13.5 0-24.4 10.9-24.4 24.4v.1c0 13.5 10.9 24.4 24.4 24.4h41.1c13.5 0 24.4-10.9 24.4-24.4v-.1zM461.7 306h-41.1c-5.7 0-11.1-2.3-15.1-6.3s-6.3-9.4-6.3-15.1c0-5.7 2.2-11.1 6.3-15.2s9.4-6.3 15.1-6.3h41.1c5.7 0 11.1 2.3 15.1 6.3s6.3 9.5 6.3 15.2-2.2 11.1-6.3 15.2c-4 3.9-9.4 6.2-15.1 6.2z"/>
    <animate id="animation2"
             attributeName="opacity"
             from="1" to="0" dur="0.1s" begin="animation1.end" 
              />
     <animate id="animation3"
             attributeName="opacity"
             from="0" to="0" dur="2s" begin="animation2.end" 
              />
	
  </g>
  <g id="btn-trigger">
    <path fill="#2D303F" d="M483.6 284.5c0-11.6-9.4-21-21-21s-21 9.4-21 21 9.4 21 21 21 21-9.4 21-21z"/>
    <path fill="#22F4BB" d="M462.6 260.6c-13.2 0-24 10.8-24 24s10.8 24 24 24 24-10.8 24-24-10.7-24-24-24zm-20.9 23.9c0-11.6 9.4-21 21-21s21 9.4 21 21-9.4 21-21 21-21-9.4-21-21z"/>
     <animateMotion id="animation1" dur="0.4s" path="M -45 0 H 0 " begin="1s;animation3.end" />
    
  </g>
</svg>
