<svg xmlns="http://www.w3.org/2000/svg" id="Layer_1" viewBox="0 0 560 960">
  <style>
    .st0{fill:#22F4BB;} .st1{fill:#2D303F;}
	
  </style>
  <g id="phone-popup">
    <path d="M486 389.5H73c-15.2 0-27.5-12.3-27.5-27.5V200c0-15.2 12.3-27.5 27.5-27.5h413c15.2 0 27.5 12.3 27.5 27.5v162c0 15.1-12.3 27.5-27.5 27.5zM73 177.6c-12.4 0-22.5 10.1-22.5 22.5v162c0 12.4 10.1 22.5 22.5 22.5h413c12.4 0 22.5-10.1 22.5-22.5v-162c0-12.4-10.1-22.5-22.5-22.5H73z" class="st0"/>
    <path d="M48 309h463v1H48v-1zm231 1h1v78h-1v-78zm-154.1-74.6H117v-2.9h19.3v2.9h-8v23.2h-3.4v-23.2zm12.4 10.3c0-2.2 0-4.1-.2-5.8h3l.1 3.7h.2c.8-2.5 2.9-4.1 5.2-4.1.4 0 .7 0 1 .1v3.2c-.3-.1-.7-.1-1.2-.1-2.4 0-4.1 1.8-4.6 4.4-.1.5-.2 1-.2 1.6v10h-3.4l.1-13zm28.3 7.7c0 1.9 0 3.6.2 5.1h-3l-.2-3.1h-.1c-.9 1.5-2.9 3.5-6.2 3.5-2.9 0-6.5-1.6-6.5-8.2v-10.9h3.4v10.4c0 3.6 1.1 5.9 4.2 5.9 2.3 0 3.9-1.6 4.5-3.1.2-.5.3-1.1.3-1.7v-11.5h3.4v13.6zm5.2 1.7c1 .7 2.8 1.4 4.5 1.4 2.5 0 3.6-1.2 3.6-2.8s-1-2.5-3.5-3.4c-3.4-1.2-4.9-3.1-4.9-5.3 0-3 2.4-5.5 6.5-5.5 1.9 0 3.6.5 4.6 1.2l-.9 2.5c-.7-.5-2.1-1.1-3.8-1.1-2 0-3.1 1.2-3.1 2.5 0 1.5 1.1 2.2 3.6 3.2 3.2 1.2 4.9 2.9 4.9 5.6 0 3.3-2.5 5.6-7 5.6-2 0-3.9-.5-5.3-1.3l.8-2.6zm19.8-20.6v5.4h4.9v2.6h-4.9v10.1c0 2.3.7 3.6 2.5 3.6.9 0 1.5-.1 2-.2l.2 2.5c-.7.3-1.7.5-3 .5-1.6 0-2.9-.5-3.7-1.4-1-1-1.3-2.7-1.3-4.9v-10.2h-2.9v-2.6h2.9v-4.5l3.3-.9zm20.4.9h-7.9v-2.9h19.3v2.9h-8v23.2H211v-23.2zm13.9-4.3h3.4v11.7h.1c.5-1 1.4-1.8 2.4-2.4 1-.6 2.2-1 3.5-1 2.5 0 6.5 1.5 6.5 8v11.1h-3.4v-10.7c0-3-1.1-5.6-4.3-5.6-2.2 0-3.9 1.5-4.6 3.4-.2.5-.2 1-.2 1.6v11.3h-3.4v-27.4zm25.2 3.5c0 1.2-.8 2.1-2.2 2.1-1.2 0-2-.9-2-2.1 0-1.2.9-2.1 2.1-2.1 1.3 0 2.1.9 2.1 2.1zm-3.8 23.9v-18.7h3.4v18.7h-3.4zm8.6-3.4c1 .7 2.8 1.4 4.5 1.4 2.5 0 3.6-1.2 3.6-2.8s-1-2.5-3.5-3.4c-3.4-1.2-4.9-3.1-4.9-5.3 0-3 2.4-5.5 6.5-5.5 1.9 0 3.6.5 4.6 1.2l-.9 2.5c-.7-.5-2.1-1.1-3.8-1.1-2 0-3.1 1.2-3.1 2.5 0 1.5 1.1 2.2 3.6 3.2 3.2 1.2 4.9 2.9 4.9 5.6 0 3.3-2.5 5.6-7 5.6-2 0-3.9-.5-5.3-1.3l.8-2.6zm42.3 2.6c-1.2.6-3.7 1.2-6.9 1.2-7.3 0-12.9-4.6-12.9-13.2 0-8.2 5.5-13.7 13.6-13.7 3.2 0 5.3.7 6.2 1.2l-.8 2.7c-1.3-.6-3.1-1.1-5.3-1.1-6.1 0-10.2 3.9-10.2 10.7 0 6.4 3.7 10.5 10 10.5 2 0 4.1-.4 5.5-1.1l.8 2.8zm20.5-8.7c0 6.9-4.8 9.9-9.3 9.9-5.1 0-9-3.7-9-9.6 0-6.3 4.1-9.9 9.3-9.9 5.4 0 9 3.9 9 9.6zm-14.8.2c0 4.1 2.4 7.2 5.7 7.2 3.2 0 5.7-3.1 5.7-7.3 0-3.2-1.6-7.2-5.6-7.2-4.1.1-5.8 3.8-5.8 7.3zm19.1-4.3c0-1.9 0-3.5-.2-5.1h3l.2 3h.1c1-1.8 2.8-3.4 5.9-3.4 2.5 0 4.5 1.5 5.3 3.7h.1c.6-1 1.3-1.9 2.1-2.4 1.1-.9 2.4-1.3 4.1-1.3 2.5 0 6.1 1.6 6.1 8.1v11h-3.3v-10.6c0-3.6-1.3-5.8-4.1-5.8-1.9 0-3.4 1.4-4 3.1-.2.5-.3 1.1-.3 1.7v11.6h-3.3v-11.2c0-3-1.3-5.1-3.9-5.1-2.1 0-3.7 1.7-4.2 3.4-.2.5-.3 1.1-.3 1.7v11.3H322v-13.7zm32.3 1c0-2.4-.1-4.3-.2-6.1h3.1l.2 3.2h.1c1.4-2.3 3.6-3.6 6.6-3.6 4.5 0 7.9 3.8 7.9 9.5 0 6.7-4.1 10-8.5 10-2.5 0-4.6-1.1-5.8-2.9h-.1v10.2h-3.4l.1-20.3zm3.3 5c0 .5.1 1 .2 1.4.6 2.4 2.7 4 5.1 4 3.6 0 5.7-2.9 5.7-7.2 0-3.7-2-7-5.6-7-2.3 0-4.5 1.7-5.1 4.2-.1.4-.2.9-.2 1.4v3.2h-.1zm34.3 2.5c0 1.9 0 3.6.2 5.1h-3l-.2-3.1h-.1c-.9 1.5-2.9 3.5-6.2 3.5-2.9 0-6.5-1.6-6.5-8.2v-10.9h3.4v10.4c0 3.6 1.1 5.9 4.2 5.9 2.3 0 3.9-1.6 4.5-3.1.2-.5.3-1.1.3-1.7v-11.5h3.4v13.6zm9.7-18.9v5.4h4.9v2.6h-4.9v10.1c0 2.3.7 3.6 2.5 3.6.9 0 1.5-.1 2-.2l.2 2.5c-.7.3-1.7.5-3 .5-1.6 0-2.9-.5-3.7-1.4-1-1-1.3-2.7-1.3-4.9v-10.2h-2.9v-2.6h2.9v-4.5l3.3-.9zm10.4 15.3c.1 4.6 3 6.5 6.4 6.5 2.4 0 3.9-.4 5.2-1l.6 2.4c-1.2.5-3.2 1.2-6.2 1.2-5.8 0-9.2-3.8-9.2-9.4 0-5.6 3.3-10.1 8.8-10.1 6.1 0 7.7 5.4 7.7 8.8 0 .7-.1 1.2-.1 1.6H412zm10-2.4c0-2.2-.9-5.5-4.7-5.5-3.4 0-4.9 3.2-5.2 5.5h9.9zm7.4-1.7c0-2.2 0-4.1-.2-5.8h3l.1 3.7h.2c.8-2.5 2.9-4.1 5.2-4.1.4 0 .7 0 1 .1v3.2c-.3-.1-.7-.1-1.2-.1-2.4 0-4.1 1.8-4.6 4.4-.1.5-.2 1-.2 1.6v10h-3.4v-13h.1zm15.3 5.5l-.1-1c-.2-2.1.5-4.4 2.4-6.7 1.7-2 2.7-3.6 2.7-5.3 0-2-1.2-3.3-3.7-3.3-1.4 0-2.9.5-3.9 1.2l-.9-2.4c1.3-.9 3.5-1.5 5.5-1.5 4.4 0 6.5 2.7 6.5 5.7 0 2.6-1.5 4.5-3.3 6.7-1.7 2-2.3 3.7-2.2 5.7v1l-3-.1zm-.8 5.4c0-1.4 1-2.4 2.3-2.4 1.4 0 2.3 1 2.3 2.4s-.9 2.4-2.3 2.4-2.3-1.1-2.3-2.4zm-319.5 78.8H117v-2.7h18v2.7h-7.4V357h-3.2v-21.6zm11.5 9.6c0-2.1 0-3.8-.1-5.4h2.8l.1 3.4h.1c.8-2.3 2.7-3.8 4.8-3.8.4 0 .6 0 .9.1v3c-.3-.1-.6-.1-1.1-.1-2.2 0-3.8 1.7-4.2 4.1-.1.4-.1.9-.1 1.5v9.3H136V345h-.1zm26.4 7.3c0 1.8 0 3.4.1 4.8h-2.8l-.2-2.8h-.1c-.8 1.4-2.7 3.2-5.8 3.2-2.7 0-6-1.5-6-7.6v-10.2h3.2v9.6c0 3.3 1 5.5 3.9 5.5 2.1 0 3.6-1.5 4.2-2.9.2-.5.3-1 .3-1.6v-10.7h3.2v12.7zm4.8 1.5c.9.6 2.6 1.3 4.2 1.3 2.3 0 3.4-1.2 3.4-2.6 0-1.5-.9-2.3-3.2-3.2-3.1-1.1-4.6-2.8-4.6-4.9 0-2.8 2.3-5.1 6-5.1 1.8 0 3.3.5 4.3 1.1l-.8 2.3c-.7-.4-1.9-1-3.6-1-1.9 0-2.9 1.1-2.9 2.4 0 1.4 1 2.1 3.3 3 3 1.2 4.6 2.7 4.6 5.3 0 3.1-2.4 5.2-6.5 5.2-1.9 0-3.7-.5-4.9-1.2l.7-2.6zm18.5-19.2v5h4.5v2.4h-4.5v9.4c0 2.2.6 3.4 2.4 3.4.8 0 1.4-.1 1.8-.2l.1 2.4c-.6.3-1.6.4-2.8.4-1.5 0-2.7-.5-3.4-1.3-.9-.9-1.2-2.5-1.2-4.5V342h-2.7v-2.4h2.7v-4.2l3.1-.8zm123.2-1.5c1.9-.3 4.2-.5 6.7-.5 4.5 0 7.7 1 9.8 3 2.2 2 3.4 4.8 3.4 8.7 0 4-1.2 7.2-3.5 9.4-2.3 2.3-6 3.5-10.7 3.5-2.2 0-4.1-.1-5.7-.3v-23.8zm3.1 21.4c.8.1 1.9.2 3.2.2 6.7 0 10.3-3.7 10.3-10.3 0-5.7-3.2-9.4-9.8-9.4-1.6 0-2.8.1-3.7.3v19.2zm36.6-6.3c0 6.4-4.5 9.3-8.7 9.3-4.7 0-8.4-3.5-8.4-9 0-5.8 3.8-9.3 8.6-9.3 5.2 0 8.5 3.6 8.5 9zm-13.8.2c0 3.8 2.2 6.7 5.3 6.7 3 0 5.3-2.8 5.3-6.8 0-3-1.5-6.7-5.2-6.7-3.8 0-5.4 3.4-5.4 6.8zm17.8-4.1c0-1.8 0-3.3-.1-4.7h2.8l.2 2.9h.1c.9-1.7 2.9-3.3 5.8-3.3 2.4 0 6.2 1.4 6.2 7.4V357h-3.2v-10c0-2.8-1-5.1-4-5.1-2.1 0-3.7 1.5-4.2 3.2-.1.4-.2.9-.2 1.5V357h-3.2v-12.7h-.2zm22.8-11.9c-.8 3-2.4 6.9-3.4 8.5l-2 .3c.8-2.1 1.7-5.9 2.1-8.5l3.3-.3zm6.9 2.2v5h4.5v2.4h-4.5v9.4c0 2.2.6 3.4 2.4 3.4.8 0 1.4-.1 1.8-.2l.1 2.4c-.6.3-1.6.4-2.8.4-1.5 0-2.7-.5-3.4-1.3-.9-.9-1.2-2.5-1.2-4.5V342h-2.7v-2.4h2.7v-4.2l3.1-.8zm19 .8h-7.4v-2.7h18v2.7h-7.4V357h-3.2v-21.6zm11.5 9.6c0-2.1 0-3.8-.1-5.4h2.8l.1 3.4h.1c.8-2.3 2.7-3.8 4.8-3.8.4 0 .6 0 .9.1v3c-.3-.1-.6-.1-1.1-.1-2.2 0-3.8 1.7-4.2 4.1-.1.4-.1.9-.1 1.5v9.3h-3.1l-.1-12.1zm26.4 7.3c0 1.8 0 3.4.1 4.8h-2.8l-.2-2.8h-.1c-.8 1.4-2.7 3.2-5.8 3.2-2.7 0-6-1.5-6-7.6v-10.2h3.2v9.6c0 3.3 1 5.5 3.9 5.5 2.1 0 3.6-1.5 4.2-2.9.2-.5.3-1 .3-1.6v-10.7h3.2v12.7zm4.8 1.5c.9.6 2.6 1.3 4.2 1.3 2.3 0 3.4-1.2 3.4-2.6 0-1.5-.9-2.3-3.2-3.2-3.1-1.1-4.6-2.8-4.6-4.9 0-2.8 2.3-5.1 6-5.1 1.8 0 3.3.5 4.3 1.1l-.8 2.3c-.7-.4-1.9-1-3.6-1-1.9 0-2.9 1.1-2.9 2.4 0 1.4 1 2.1 3.3 3 3 1.2 4.6 2.7 4.6 5.3 0 3.1-2.4 5.2-6.5 5.2-1.9 0-3.7-.5-4.9-1.2l.7-2.6zm18.5-19.2v5h4.5v2.4h-4.5v9.4c0 2.2.6 3.4 2.4 3.4.8 0 1.4-.1 1.8-.2l.1 2.4c-.6.3-1.6.4-2.8.4-1.5 0-2.7-.5-3.4-1.3-.9-.9-1.2-2.5-1.2-4.5V342h-2.7v-2.4h2.7v-4.2l3.1-.8zM276.8 745c-9.9 0-18 8.1-18 18s8.1 18 18 18 18-8.1 18-18-8.1-18-18-18zm0 31.4c-7.4 0-13.4-6-13.4-13.4s6-13.4 13.4-13.4 13.4 6 13.4 13.4c-.1 7.4-6.1 13.4-13.4 13.4z" class="st0"/>
    <path d="M367.3 793H186.7c-10.8 0-19.7-8.8-19.7-19.7V436.7c0-10.8 8.8-19.7 19.7-19.7h180.7c10.8 0 19.7 8.8 19.7 19.7v336.7c-.1 10.8-8.9 19.6-19.8 19.6zM186.7 421c-8.6 0-15.7 7-15.7 15.7v336.7c0 8.6 7 15.7 15.7 15.7h180.7c8.6 0 15.7-7 15.7-15.7V436.7c0-8.6-7-15.7-15.7-15.7H186.7zM372 738H183V443h189v295zm-185-4h181V447H187v287z" class="st0"/>
    <circle cx="262.8" cy="432" r="4" class="st0"/>
    <path d="M293.7 434H275c-1.1 0-2-.9-2-2s.9-2 2-2h18.7c1.1 0 2 .9 2 2s-.9 2-2 2zm52.7 185.4H209.3c-4.9 0-9-4-9-9v-57.7c0-4.9 4-9 9-9h137.1c4.9 0 9 4 9 9v57.7c0 5-4 9-9 9zm-137.1-74.3c-4.2 0-7.6 3.4-7.6 7.6v57.7c0 4.2 3.4 7.6 7.6 7.6h137.1c4.2 0 7.6-3.4 7.6-7.6v-57.7c0-4.2-3.4-7.6-7.6-7.6H209.3z" class="st0"/>
    <path d="M200 591h155v1H200v-1z" class="st0"/>
    <path d="M277 591h1v28h-1v-28zM51.9 376.4l150.2 235.9-.9.5L51.1 376.9l.8-.5zm458.6-5l.9.5-156.9 240.9-.8-.5 156.8-240.9zM266.4 791H286v39.5h-19.6V791z" class="st0"/>
    <path d="M273.1 829h7v54h-7v-54z" class="st0"/>
  </g>
  <g id="btn-trust">
    <path d="M47 310v52c0 14.1 11.9 26 26 26h206v-78H47z" class="st0"/>
    <path d="M124.4 335.4H117v-2.7h18v2.7h-7.4V357h-3.2v-21.6zm11.5 9.6c0-2.1 0-3.8-.1-5.4h2.8l.1 3.4h.1c.8-2.3 2.7-3.8 4.8-3.8.4 0 .6 0 .9.1v3c-.3-.1-.6-.1-1.1-.1-2.2 0-3.8 1.7-4.2 4.1-.1.4-.1.9-.1 1.5v9.3H136V345h-.1zm26.4 7.3c0 1.8 0 3.4.1 4.8h-2.8l-.2-2.8h-.1c-.8 1.4-2.7 3.2-5.8 3.2-2.7 0-6-1.5-6-7.6v-10.2h3.2v9.6c0 3.3 1 5.5 3.9 5.5 2.1 0 3.6-1.5 4.2-2.9.2-.5.3-1 .3-1.6v-10.7h3.2v12.7zm4.8 1.5c.9.6 2.6 1.3 4.2 1.3 2.3 0 3.4-1.2 3.4-2.6 0-1.5-.9-2.3-3.2-3.2-3.1-1.1-4.6-2.8-4.6-4.9 0-2.8 2.3-5.1 6-5.1 1.8 0 3.3.5 4.3 1.1l-.8 2.3c-.7-.4-1.9-1-3.6-1-1.9 0-2.9 1.1-2.9 2.4 0 1.4 1 2.1 3.3 3 3 1.2 4.6 2.7 4.6 5.3 0 3.1-2.4 5.2-6.5 5.2-1.9 0-3.7-.5-4.9-1.2l.7-2.6zm18.5-19.2v5h4.5v2.4h-4.5v9.4c0 2.2.6 3.4 2.4 3.4.8 0 1.4-.1 1.8-.2l.1 2.4c-.6.3-1.6.4-2.8.4-1.5 0-2.7-.5-3.4-1.3-.9-.9-1.2-2.5-1.2-4.5V342h-2.7v-2.4h2.7v-4.2l3.1-.8z" class="st1"/>
     <animate id="animation1"
             attributeName="opacity"
             from="1" to="0" dur="0.5s"
             begin="0s;animation3.end+3s" />
	<animate id="animation2"
             attributeName="opacity"
             from="0" to="0" dur="1s"
             begin="0s;animation1.end" />
    <animate id="animation3"
             attributeName="opacity"
             from="0" to="1" dur="0.5s" 
             begin="animation2.end" />
  </g>
</svg>
