<svg xmlns="http://www.w3.org/2000/svg" id="Layer_1" viewBox="0 0 560 960">
  <style>
    .st0{fill:#2D303F;} .st1{fill:#22F4BB;} .st2{fill:none;}
  </style>
  <g id="mini-router">
    <path d="M348.5 820.5c-.1-3.1-1.3-5.1-2.6-5.4-.1 0-.1-.1-.2-.1 1 1.1 1.5 3.2 1.6 5.5s-.4 4.5-1.3 5.5h.2c1.2 0 2.4-2.4 2.3-5.5z" class="st2"/>
    <path d="M343.8 815.1c-1.1 0-2.2 2.3-2.1 5.4s1.3 5.3 2.4 5.3c1 0 2.2-2.3 2.1-5.4s-1.3-5.3-2.4-5.3zm26.4 3.9h.1c.4 0 1.6.8 2.1.8 1.5.1 2-3 2.1-4.8-1.7 2.7-3.6 1.2-3.7 1.1s-.1-.1-.1-.3c0 0-.2-1.5-.4-2.4-.4-2.1-2.6-2.3-3.9-2.2 2.3 1.8 2.2 4.7 2.2 4.7 0 .1 0 .1-.1.2 0 0-1.2 1.5-1.5 2.2-.9 1.7.4 4.4 1.3 5.8-.4-3.8 1.9-5.1 1.9-5.1z" class="st2"/>
    <path d="M370.8 813.3c.1.7.4 1.8.4 2.3.4.3 2.1 1 3.4-2.1-1.2-3.4-3.9-5.5-6.5-4.8-1 .3-1.9.9-2.6 1.9.9-.3 4.5-.8 5.3 2.7zm-14 8.2l-7.8-4c.3.9.5 1.9.5 3 .1 3.5-1.2 6.6-3.1 6.6h-.3l10.1 5.5c.5.4 1 .4 1.5.2.9-.4 1.5-1.8 1.8-3.5.3-3.2-.8-6.8-2.7-7.8zm-24.1-12.8c-1 0-2.2 2.3-2.1 5.4.1 3.1 1.3 5.3 2.4 5.3 1 0 2.2-2.3 2.1-5.4-.1-3.1-1.3-5.3-2.4-5.3zm-11 6.8l3 1.6-.1-2.9-2.9 1.3zm-5.2-37.6l.7 35.3 2.9 1.5-.7-35.3-2.9-1.5z" class="st2"/>
    <path d="M334.8 808.7c-.1-.1-.1-.1-.2-.1 1 1.1 1.5 2.8 1.6 5.2.1 2.3-.4 4.2-1.3 5.2h.2c1.2 0 2.3-2 2.3-5.2-.1-3.1-1.4-4.8-2.6-5.1zM501.9 770l-.3-.1-5.1-2.7c-2.4-1-42.5-18.1-55.6-24-12.6-5.7-19.7-5.2-19.8-5.2h-.2c-.1 0-2.3-.2-6.3-.2-7.8.2-22.4.9-41.4 4.5-30.8 5.8-48 12.3-58.2 16.7-3.2 1.4-5.7 3.6-6.1 4.7 0 .1-.1.4-.1.8 19.9 10.9 45.9 25.3 54.4 30l2.7 1.5c5.9 3.2 21.4 10 39.8 2.9 1.5-.6 3.1-1.2 4.7-1.8 19.7-7.6 46.7-18 75.7-18.9 12.5-.4 17.4-2.6 19.4-4.3-.2-2.4-3.6-3.9-3.6-3.9zm-73.7 13.8c-1.5 0-2.7-.6-2.7-1.4 0-.8 1.2-1.5 2.7-1.5s2.7.6 2.7 1.4c0 .7-1.2 1.4-2.7 1.5zm16.9-5c-1.5 0-2.7-.6-2.7-1.4s1.2-1.5 2.7-1.5 2.7.6 2.7 1.4c0 .8-1.2 1.5-2.7 1.5zm17-3.7c-1.5 0-2.7-.6-2.7-1.4 0-.8 1.2-1.5 2.7-1.5s2.7.6 2.7 1.4c0 .8-1.2 1.5-2.7 1.5zM324 781.7l-3.8-1.9.7 35.2 3.7-1.7-.6-31.6zm42.6 36.1c.3-.7 1.2-1.8 1.5-2.2 0-.6-.2-2.9-2.8-4.3-.1 0-.1-.1-.2-.2-1.1 1.9-1.6 4.5-1.1 7.2.5 3 2 5.2 3.9 6.3-.9-1.7-2.4-4.7-1.3-6.8z" class="st2"/>
    <path d="M505.5 776.8c-3.1 1.8-8.7 3.6-19.3 3.9-28.6.9-55.4 11.2-74.9 18.8-1.6.7-3.1 1.2-4.7 1.8-5.8 2.2-11.3 3.1-16.3 3.2-11.9.2-21.2-4-25.4-6.3l-2.6-1.5C353.9 792 329 778 309 767.3v1.7c0 .4.4 31.5.4 39.8.1 6.1 3.5 7.6 3.6 7.7l.3.1 57.3 32.6.2.1s5.3 4.2 13.8 5.3c8.9 1 15.3-.3 15.4-.3.8-.2 89.1-22.7 98.2-25.3 6.8-2 6-7.5 6-7.7l-.2-.2v-.2c0-.4 1.4-33.9 1.5-44.1zm-189.7 37.3l-.8-38.7 10.3 5.3.9 38.7-10.4-5.3zm19.4 6.5c-.4.1-.9.3-1.2.3-.4 0-.7.1-1 .1h-.1c-1.9 0-3.4-2.9-3.5-6.6-.1-3.5 1.2-6.3 2.9-6.7.8-.4 1.7-.4 2.8-.1 1.9.5 3.3 3.2 3.3 6.4.1 3.5-1.3 6.2-3.2 6.6zm25.2 8.7c-.3 2.2-1.2 3.9-2.4 4.5-.3.1-.7.2-1 .2-.5 0-1.1-.1-1.6-.5l-11.5-6.4c-1.9.1-3.4-2.7-3.5-6.4-.1-3.5 1.2-6.2 2.9-6.6.8-.4 1.7-.4 2.8-.1.7.1 1.5.7 2 1.5l9.4 5.1c2.2 1.2 3.4 5.1 2.9 8.7zm10.9-3.2c-3.4.9-7-2.5-7.9-7.5-1-5.1 1.1-10 4.5-10.9s7 2.5 7.9 7.5c1 5.1-1.1 9.9-4.5 10.9z" class="st2"/>
    <path d="M375.1 815.2c-.1 2-.6 5.4-2.6 5.4-.6 0-1.8-.5-2.2-.7-.4.3-2.1 1.6-1.3 5.2.7.2 1.4.2 2.1 0 3.1-.8 4.8-5.1 4-9.7v-.2z" class="st2"/>
    <path d="M511.4 774.2c-.1-5.1-4.5-8.3-7.3-9.4l-5.1-2.6-.2-.1c-.4-.1-42.2-18.1-55.6-24.2-13-5.9-20.9-5.9-22.3-5.9-1.9-.1-20.4-.7-48.9 4.7-31.3 5.9-48.9 12.6-59.3 17.1-.7.3-5.6 2.5-8.1 6l-.6-.3c-3.3-1.9-7.4-1.2-9.8 1.6l-59.3-32.9c-3.3-1.8-5-3.9-4.7-5.9.3-2.6 4-5.1 9.8-6.6l44.1-11.4-.5-1.9-44.1 11.4c-6.8 1.8-10.8 4.7-11.3 8.2-.3 2 .5 5 5.8 7.9l59.2 32.8c-1.9 3.7-.7 8.4 3 10.5l7.2 4.2c.2 9.9.4 25.7.4 31.2.1 9.2 5.6 12.2 7 12.8l56.8 32.3c1.2 1 7.3 5.3 16.6 6.4 3.3.4 6.3.5 8.9.4 5-.1 8.2-.8 8.5-.9 3.7-1 89.2-22.8 98.4-25.4 8.9-2.6 10.5-9.9 10.2-13.6-.1-3.5 1.3-41.7 1.2-46.4zm-7.2 47.1c0 .2.8 5.7-6 7.7-9.1 2.6-97.3 25.1-98.1 25.3-.1 0-6.5 1.3-15.4.3-8.5-1-13.8-5.3-13.8-5.3l-.2-.1-57.4-32.6-.4-.1c-.1-.1-3.5-1.6-3.6-7.7 0-8.3-.4-39.4-.4-39.8v-1.7c20 10.8 44.9 24.8 53.3 29.4l2.7 1.5c4.2 2.3 13.5 6.5 25.4 6.3 5.1-.1 10.5-1 16.3-3.2 1.5-.6 3.1-1.2 4.7-1.8 19.6-7.5 46.3-17.9 74.9-18.8 10.6-.3 16.2-2.1 19.3-3.9-.1 10.1-1.5 43.7-1.5 44v.2l.2.3zm-17.9-43c-29.1.9-56 11.3-75.7 18.9-1.6.7-3.2 1.2-4.7 1.8-18.5 7-34 .3-39.8-2.9l-2.7-1.5c-8.6-4.8-34.5-19.1-54.4-30 0-.4.1-.7.1-.8.4-1.1 2.9-3.4 6.1-4.8 10.2-4.4 27.3-11 58.2-16.8 19-3.6 33.6-4.2 41.4-4.4 4-.1 6.2.2 6.3.2h.2c.1 0 7.2-.5 19.8 5.2 13.1 5.9 53.2 23.1 55.6 24.1l5.1 2.7.3.1s3.4 1.5 3.8 3.9c-2.2 1.7-7.2 3.9-19.6 4.3z" class="st1"/>
    <ellipse cx="428.1" cy="782.3" transform="rotate(88.798 428.13 782.293) scale(1.00002)" class="st1" rx="1.5" ry="2.7"/>
    <ellipse cx="445.2" cy="777.3" transform="rotate(88.79 445.17 777.336) scale(1.00002)" class="st1" rx="1.5" ry="2.7"/>
    <ellipse cx="462" cy="773.6" transform="rotate(88.798 462.016 773.624) scale(1.00002)" class="st1" rx="1.5" ry="2.7"/>
    <path d="M335.1 807.5c-1.1-.3-2-.3-2.8.1-1.8.4-3 3.3-2.9 6.8.1 3.7 1.6 6.6 3.5 6.6h.1c.3 0 .7-.1 1-.1.4 0 .8-.2 1.2-.2 1.9-.4 3.2-3.1 3.1-6.6.1-3.3-1.3-6-3.2-6.6zm-2.1 12c-1.1 0-2.3-2.2-2.4-5.3s1.1-5.4 2.1-5.4c1.1 0 2.3 2.2 2.4 5.3s-1.1 5.4-2.1 5.4zm2.1-.5h-.2c.9-1 1.4-2.9 1.3-5.2s-.7-4.2-1.6-5.3c.1 0 .1.1.2.1 1.2.3 2.5 2.1 2.6 5.1 0 3.2-1.1 5.3-2.3 5.3zm22.5 1.4l-9.4-5.1c-.5-.7-1.2-1.3-2-1.5-1.1-.3-2-.3-2.8.1-1.8.4-3 3.1-2.9 6.6.1 3.7 1.6 6.5 3.5 6.4l11.5 6.4c.5.4 1.1.5 1.6.5.3 0 .7-.1 1-.2 1.2-.6 2.1-2.3 2.4-4.5.4-3.4-.8-7.3-2.9-8.7zm-13.5 5.5c-1.1 0-2.3-2.2-2.4-5.3s1-5.4 2.1-5.4 2.3 2.2 2.4 5.3-1.1 5.4-2.1 5.4zm3.2-5.4c-.1-2.3-.7-4.4-1.6-5.5h.2c1.2.3 2.5 2.4 2.6 5.4.1 3.1-1.1 5.5-2.3 5.5h-.2c.9-.9 1.4-3.2 1.3-5.4zm12.1 8.6c-.2 1.8-.9 3.1-1.8 3.5-.4.2-1 .2-1.5-.2l-10.1-5.5h.3c1.9 0 3.2-3.1 3.1-6.6 0-1.1-.2-2.1-.5-2.9l7.8 4c2 1.1 3.1 4.7 2.7 7.7zm8.6-21.5c-3.4 1-5.5 5.9-4.5 10.9 1 5.1 4.5 8.4 7.9 7.5 3.4-1 5.4-5.8 4.5-10.9-1-5-4.5-8.4-7.9-7.5zm.1 1c2.6-.7 5.3 1.4 6.5 4.8-1.3 3.1-2.9 2.3-3.4 2.1-.1-.4-.3-1.5-.4-2.3-.8-3.4-4.4-2.9-5.3-2.8.7-.8 1.6-1.5 2.6-1.8zm.2 15.5c-.9-1.5-2.2-4.2-1.3-5.9.3-.7 1.5-2.2 1.5-2.2.1-.1.1-.1.1-.2 0 0 .1-2.9-2.2-4.7 1.2-.1 3.4.1 3.9 2.2.2.9.4 2.4.4 2.4 0 .1.1.2.1.3s2 1.6 3.7-1.1c-.1 1.8-.6 4.9-2.1 4.8-.5 0-1.7-.8-2.1-.8h-.1c0 .1-2.3 1.4-1.9 5.2zm-4.2-5.8c-.5-2.7 0-5.4 1.1-7.2 0 .1.1.2.2.2 2.6 1.4 2.8 3.7 2.8 4.3-.3.4-1.2 1.5-1.5 2.2-1.1 2.1.4 5.2 1.4 6.8-2-1-3.5-3.3-4-6.3zm7 6.7c-.7.2-1.4.2-2.1 0-.8-3.6.9-5 1.3-5.2.4.2 1.6.7 2.2.7 1.9.1 2.5-3.3 2.6-5.4v.2c.9 4.6-.9 8.9-4 9.7zM315 775.5l.8 38.7 10.4 5.3-.9-38.7-10.3-5.3zm2.2 37.7l-.7-35.3 2.9 1.5.7 35.3-2.9-1.5zm3-33.4l3.7 1.9.7 31.6-3.7 1.7-.7-35.2zm1.5 35.7l2.9-1.3.1 2.9-3-1.6zM312 689h-8.6l8.6-19.6-25.5 26.6h10.7l-10.7 24.4L312 689z" class="st1"/>
  </g>
  <g id="Phone-usb">
    <path d="M261 779h26v31h-26z" class="st0"/>
    <path d="M272.3 786.3h6.2v5.1h-6.2v-5.1z" class="st1"/>
    <path d="M289 777h-28v-4h-47.7c-6.8 0-13.3 6.7-13.3 11.6v6.4h-21.3c-10.5 0-18.7-8.8-18.7-19.3V609h-7v162.7c0 14.4 11.3 26.3 25.7 26.3H200v5.3c0 4.9 6.5 12.7 13.3 12.7H261v-4h28v-35zm-2 33h-26v-31h26v31z" class="st1"/>
    <path d="M272.3 798h6.2v5.1h-6.2V798zM156.8 526c-9.9 0-18 8.1-18 18s8.1 18 18 18 18-8.1 18-18c-.1-9.9-8.1-18-18-18zm0 31.4c-7.4 0-13.4-6-13.4-13.4s6-13.4 13.4-13.4 13.4 6 13.4 13.4c-.1 7.4-6.1 13.4-13.4 13.4z" class="st1"/>
    <path d="M247.3 198H66.7c-10.8 0-19.7 8.8-19.7 19.7v336.7c0 10.8 8.8 19.7 19.7 19.7H147v37h19v-37h81.3c10.8 0 19.7-8.8 19.7-19.7V217.7c0-10.9-8.8-19.7-19.7-19.7zM263 554.3c0 8.6-7 15.7-15.7 15.7H66.7C58 570 51 563 51 554.3V217.7c0-8.6 7-15.7 15.7-15.7h180.7c8.6 0 15.7 7 15.7 15.7v336.6h-.1z" class="st1"/>
    <path d="M63 519h189V224H63v295zm4-291h181v287H67V228z" class="st1"/>
    <circle cx="142.8" cy="213" r="4" class="st1"/>
    <path d="M154.9 215h18.7c1.1 0 2-.9 2-2s-.9-2-2-2h-18.7c-1.1 0-2 .9-2 2s.9 2 2 2z" class="st1"/>
    <path d="M233.2 792.6h7.2c1 0 1.6-.2 1.4-1.3-.1-.9.4-1 1.1-.7 2.5 1 4.9 2 7.4 3 .3.1.7.2.7.6 0 .4-.4.5-.7.6-2.5 1-4.9 2-7.4 3-.8.3-1.1.1-1.1-.7.1-1.2-.4-1.4-1.5-1.4-3.4.1-6.7 0-10.1 0-.3 0-.7-.1-.9.2-.2.4.2.6.4.9 1.1 1.3 2.4 2.3 4.2 2.3.5 0 .9-.1.9-.6.1-.7.5-.8 1.1-.8h4c.8 0 1 .3 1 1v3.9c0 .8-.3 1-1 1h-4c-.5 0-.9-.1-1-.7-.1-.5-.4-.7-.9-.7-3.3.1-5.7-1.6-7.2-4.2-1.1-1.9-2.4-2.6-4.4-2.3-.4.1-.8 0-1.2 0-1.2-.1-2 .2-2.8 1.2-1.6 2-4.6 2.1-6.3.3-1.7-1.7-1.7-4.7.2-6.3 1.9-1.7 4.7-1.5 6.4.5 1.2 1.5 1.5 1.5 2.7 0 1-1.2 1.9-2.5 3.1-3.6 1.5-1.3 3.3-1.9 5.3-1.8 1.1.1 2-.1 2.8-1.1 1.1-1.4 3.3-1.3 4.7-.1s1.5 3.3.4 4.7-3.2 1.9-4.5.7c-1.5-1.4-3.2-1.1-4.8-.9-1.4.1-2.4 1.3-3.2 2.4-.1.2-.3.4-.3.6.1.3.4.2.7.2 2.4.1 5 .1 7.6.1z" class="st0"/>
    <animateMotion dur="2s" path="M -20 2 H 30 Z" repeatCount="50"/>
  </g>
</svg>
