<svg xmlns="http://www.w3.org/2000/svg" version="1.2" baseProfile="tiny" viewBox="0 0 560 960">
  <g id="mini-route-phone">
    <path fill="#22F4BB" d="M503 615.2c-.1-7.4-6.6-12-10.5-13.6l-7.3-3.8-.3-.1c-.6-.2-61.2-26.2-80.6-35.1-18.9-8.6-30.4-8.6-32.4-8.5-2.8-.1-29.6-1-71 6.8-45.5 8.6-70.9 18.3-86.1 24.9-1.1.5-9.6 4.3-12.7 10.4l-1-.6c-3.3-1.9-7.4-1.2-9.8 1.6L132 564.3c-3.3-1.8-5-3.9-4.7-5.9.3-2.6 4-5.1 9.8-6.6l44.1-11.4-.5-1.9-44.1 11.4c-6.8 1.8-10.8 4.7-11.3 8.2-.3 2 .5 5 5.8 7.9l59.2 32.8c-1.9 3.7-.7 8.4 3 10.5l7.9 4.6c.2 12.9.6 42.1.6 51.4.1 13.3 8.2 17.7 10.2 18.6l82.3 46.9c1.8 1.4 10.5 7.6 24 9.2 4.8.5 9.1.7 12.9.6 7.2-.1 11.9-1.2 12.3-1.3 5.3-1.4 129.4-33 142.8-36.9 13-3.7 15.3-14.3 14.8-19.8 0-5.1 2.1-60.6 1.9-67.4zm-10.6 68.3c0 .3 1.2 8.3-8.7 11.2-13.2 3.8-141.1 36.4-142.3 36.8-.1 0-9.4 1.9-22.3.4-12.3-1.5-20-7.6-20-7.6l-.3-.2-83.2-47.3-.5-.2c-.2-.1-5.3-2.3-5.4-11.2 0-12-.8-57.2-.8-57.7v-2.4c29 15.6 65.4 35.9 77.5 42.7l4 2.1c6.2 3.4 19.7 9.5 36.9 9.1 7.3-.1 15.3-1.5 23.7-4.7 2.2-.8 4.5-1.7 6.8-2.7 28.4-10.9 67.2-25.9 108.7-27.2 15.4-.4 23.4-3 27.8-5.6-.2 14.7-2.4 63.3-2.4 63.9v.3l.5.3zm-25.9-62.3c-42.2 1.3-81.3 16.4-109.9 27.4-2.3 1-4.7 1.8-6.8 2.7-26.8 10.2-49.3.4-57.8-4.3l-3.9-2.1c-12.4-6.9-50-27.7-78.9-43.6 0-.5.1-1 .1-1.2.5-1.6 4.1-4.9 8.8-6.9 14.8-6.4 39.6-15.9 84.4-24.3 27.5-5.2 48.8-6.5 60-6.8 5.8-.1 9-.1 9.1-.1h.4c.1 0 10.4-.4 28.7 7.9 19 8.6 77.1 33.6 80.6 35.1l7.3 4 .4.2s5 2.1 5.5 5.7c-2.7 2.4-9.9 5.7-28 6.3z"/>
    <path fill="#22F4BB" d="M224 618h-61.9c-8.8 0-17.1 8.7-17.1 15.1v24.3c0 6.4 8.4 16.6 17.1 16.6H224v-56z"/>
    <path fill="#2D303F" d="M186.7 643.4h9.3c1.3 0 2-.2 1.9-1.7-.1-1.1.5-1.2 1.4-.9l9.6 3.9c.4.2 1 .2 1 .8 0 .6-.5.7-.9.8-3.2 1.3-6.4 2.5-9.6 3.8-1 .4-1.5.1-1.4-.9.1-1.5-.6-1.8-1.9-1.8-4.4.1-8.7 0-13.1 0-.4 0-.9-.2-1.1.2-.3.5.2.8.5 1.1 1.4 1.7 3.1 3 5.4 3 .6 0 1.1-.1 1.2-.8.1-.9.7-1 1.4-1h5.3c1 0 1.3.4 1.3 1.4v5.1c0 1-.4 1.3-1.4 1.3h-5.3c-.7 0-1.2-.2-1.3-.9-.1-.7-.5-.9-1.2-.9-4.2.1-7.4-2-9.4-5.5-1.4-2.5-3.1-3.4-5.7-3-.5.1-1 .1-1.5 0-1.5-.2-2.6.2-3.6 1.6-2 2.6-5.9 2.7-8.2.3-2.3-2.3-2.2-6.1.2-8.2 2.5-2.2 6.1-1.9 8.3.7 1.6 1.9 1.9 1.9 3.5-.1 1.3-1.6 2.5-3.3 4-4.6 2-1.7 4.3-2.5 6.9-2.3 1.4.1 2.6-.1 3.6-1.4 1.5-1.8 4.3-1.7 6.1-.2 1.8 1.6 2 4.2.5 6.1-1.4 1.8-4.2 2.4-5.9.9-1.9-1.8-4.1-1.4-6.2-1.2-1.9.2-3.1 1.7-4.2 3.2-.2.2-.4.5-.4.8.1.4.6.3.9.3 3.3.1 6.6.1 10 .1z"/>
    <g fill="#22F4BB">
      <path d="M76 426h3v166.2c-4 2.7-8.6 4.8-16 4.8-7.9 0-12.5-2.5-16.3-5.1l-2.3 3.3c4.1 2.9 9.5 5.9 18.5 5.9 11 0 16.4-4.1 21.7-8.1 5-3.7 9.7-7.3 19.3-7.3 7.8 0 12.4 2.5 16.2 5.2l2.3-3.3c-4.1-2.9-9.4-5.9-18.4-5.9-10.6 0-16.1 3.8-21.1 7.7V426h3v-17h40.2c6 0 10.8-4.9 10.8-10.8V229.8c0-6-4.9-10.8-10.8-10.8H35.8c-6 0-10.8 4.9-10.8 10.8v168.4c0 6 4.9 10.8 10.8 10.8H76v17zm-47-27.8V229.8c0-3.8 3.1-6.8 6.8-6.8h90.4c3.8 0 6.8 3.1 6.8 6.8v168.4c0 3.8-3.1 6.8-6.8 6.8H35.8c-3.7 0-6.8-3.1-6.8-6.8z"/>
      <path d="M80.8 383.8c-5 0-9 4-9 9s4 9 9 9 9-4 9-9-4-9-9-9zm0 15.7c-3.7 0-6.7-3-6.7-6.7s3-6.7 6.7-6.7 6.7 3 6.7 6.7-3 6.7-6.7 6.7zM129 232H33v149h96V232zm-4 145H37V236h88v141z"/>
      <circle cx="73.8" cy="227.5" r="2"/>
      <path d="M79.5 228h9.4c.5 0 1-.5 1-1s-.4-1-1-1h-9.4c-.5 0-1 .5-1 1s.4 1 1 1zm32.4 415c-14.5 0-26.3-12-26.3-27h-1.4c.1 0 .3-.1.4-.2 5-3.7 9.7-7.2 19.3-7.2 7.8 0 12.4 2.5 16.2 5.2l2.3-3.2c-4.1-2.9-9.5-5.9-18.5-5.9-11 0-16.4 4-21.7 8-1.7 1.2-3.3 2.4-5.1 3.4h-.6v.5c-3.5 2-7.6 3.5-13.7 3.5-7.9 0-12.5-2.4-16.2-5.1l-2.3 3.3c4.1 2.9 9.5 5.9 18.6 5.9 6 0 10.4-1 14-2.8 2.3 17.3 17.1 30.8 35 30.8H150v-9h-38.1z"/>
    </g>
    <ellipse cx="382.2" cy="627" fill="#22F4BB" transform="rotate(-91.21 382.24 626.945)" rx="2.1" ry="3.9"/>
    <ellipse cx="406.8" cy="619.8" fill="#22F4BB" transform="rotate(-91.208 406.822 619.802)" rx="2.1" ry="3.9"/>
    <ellipse cx="431.4" cy="614.4" fill="#22F4BB" transform="rotate(-91.21 431.384 614.38)" rx="2.1" ry="3.9"/>
    <path fill="#22F4BB" d="M247.2 663.6c-1.6-.4-2.9-.4-4 .1-2.5.5-4.4 4.7-4.3 9.8.1 5.4 2.3 9.6 5.1 9.6h.1c.4 0 1-.1 1.5-.1s1.2-.2 1.8-.3c2.8-.5 4.7-4.5 4.6-9.6 0-4.8-2-8.8-4.8-9.5zm-3 17.3c-1.6 0-3.4-3.2-3.5-7.8s1.6-7.9 3.1-7.9c1.6 0 3.4 3.2 3.5 7.8 0 4.6-1.7 7.9-3.1 7.9zm3 .1h-.3c1.3-2 2-4.6 1.9-7.9-.1-3.4-1-6.3-2.3-7.9.1 0 .2 0 .3.1 1.8.4 3.6 3.3 3.7 7.8.1 4.6-1.6 7.9-3.3 7.9zm32.7 1.3l-13.7-7.3c-.7-1.1-1.8-1.9-2.9-2.1-1.6-.4-2.9-.4-4 .1-2.5.5-4.4 4.5-4.3 9.6.1 5.4 2.3 9.5 5.1 9.3l16.7 9.3c.7.5 1.6.7 2.3.7.4 0 1-.1 1.4-.3 1.8-.8 3.1-3.3 3.5-6.5.7-5.2-1.1-10.8-4.1-12.8zm-19.6 7.8c-1.6 0-3.4-3.2-3.5-7.8-.1-4.6 1.5-7.9 3.1-7.9s3.4 3.2 3.5 7.8c.1 4.6-1.6 7.9-3.1 7.9zm4.7-7.9c-.1-3.4-1-6.3-2.3-7.9.1 0 .2.1.3.1 1.8.4 3.6 3.3 3.7 7.7.1 4.6-1.6 7.9-3.3 7.9h-.3c1.2-2 2-4.6 1.9-7.8zm17.5 12.7c-.3 2.5-1.3 4.6-2.5 5.1-.6.3-1.4.3-2.1-.2l-14.7-7.8h.4c2.8-1 4.7-4.6 4.6-9.7 0-1.6-.3-3-.7-4.3l11.4 5.8c2.6 1.5 4.1 6.7 3.6 11.1zm12.4-31.2c-5 1.4-8 8.5-6.6 15.8 1.4 7.3 6.5 12.2 11.5 10.9 4.9-1.4 7.9-8.4 6.6-15.8-1.4-7.3-6.5-12.2-11.5-10.9zm.3 1.5c3.8-1 7.7 2 9.5 7-1.9 4.5-4.3 3.4-4.9 3l-.6-3.3c-1.1-5-6.4-4.3-7.7-4 .9-1.4 2.2-2.3 3.7-2.7zm.3 22.3c-1.3-2.1-3.2-6-1.9-8.4.4-1 2.2-3.2 2.2-3.2.1-.1.1-.2.1-.3 0 0 .2-4.1-3.2-6.8 1.8-.1 5 .2 5.6 3.2.3 1.3.6 3.5.6 3.5 0 .2.1.3.2.4s2.9 2.3 5.3-1.6c-.2 2.7-.9 7-3.1 6.9-.7 0-2.4-.2-3.1-1.2h-.2c.1 0-3.2 1.9-2.5 7.5zm-6.2-8.3c-.7-4-.1-7.8 1.5-10.5 0 .1.1.2.3.3 3.7 2 4 5.4 4 6.3-.4.5-1.8 2.2-2.2 3.2-1.6 3.1.6 7.5 2 9.8-2.6-1.5-4.8-4.8-5.6-9.1zm10.2 9.8c-1 .3-2.1.2-3.1 0-1.2-5.2 1.3-7.2 1.9-7.6.5.3 2.3 1.1 3.2 1.1 2.8.1 3.6-4.8 3.8-7.8 0 .1.1.2.1.3 1.1 6.5-1.4 12.8-5.9 14zm-95.2-164h-7.7l7.7-17.3-23 24.3h9.7l-9.7 21.7z"/>
  </g>
  <g id="signal-1"><path  fill="#22F4BB" d="M474.6 414.2C437.7 377.9 389 358 337.3 358s-100.4 20-137.2 56.2c-4.3 4.3-4.4 10.7-.1 15.1 2.1 2.1 4.8 2.8 7.8 2.8h.1c2.9 0 5.6-.6 7.7-2.7 32.7-32.2 76-49.6 121.8-49.6s89.1 17.8 121.8 50c2.1 2 4.8 3.2 7.7 3.2 3 0 5.8-1.1 7.8-3.3 4.3-4.3 4.2-11.3-.1-15.5z"/>
 <animate id="animation3" attributeName="opacity" from="0" to="1" dur="1s" begin="animation2.end"  />
  </g>
  <g id="signal-2">
  <path  fill="#22F4BB" d="M437.9 458.6c0-2.1-.8-4-2.3-5.4-26.4-25.8-61.3-40.1-98.2-40.1-36.9 0-71.8 14.2-98.2 40.1-3 3-3.1 7.9-.1 10.9 1.5 1.5 3.4 2.3 5.5 2.3 2 0 3.9-.8 5.4-2.2 23.5-23 54.6-35.7 87.5-35.7s63.9 12.7 87.5 35.7c3 3 7.9 2.9 10.9-.1 1.2-1.5 2-3.4 2-5.5z"/>
   <animate id="animation2" attributeName="opacity" from="0" to="1" dur="1s"  begin="animation1.end"  />
  </g>
  <g id="signal-3">
  <path  fill="#22F4BB" d="M390.4 498.6c2 1.9 5.5 1.9 7.4-.1 2-2.1 1.9-5.4-.1-7.4-16.3-15.7-37.7-24.4-60.4-24.4-22.6 0-44.1 8.7-60.4 24.4-2.1 2-2.1 5.3-.1 7.4 2 2.1 5.3 2.1 7.4.1 14.3-13.8 33.2-21.4 53.1-21.4 19.9-.1 38.8 7.6 53.1 21.4z"/>
  
   <animate id="animation1" attributeName="opacity" from="0" to="1" dur="1s" begin="0s;animation3.end"  />
  </g>
</svg>
