<?xml version="1.0" encoding="utf-8"?>
<!-- Generator: Adobe Illustrator 19.1.0, SVG Export Plug-In . SVG Version: 6.00 Build 0)  -->
<svg version="1.2" baseProfile="tiny" xmlns="http://www.w3.org/2000/svg" xmlns:xlink="http://www.w3.org/1999/xlink" x="0px"
	 y="0px" viewBox="0 0 640 480" xml:space="preserve">
<g id="Layer_1">
	<path fill="#DBE7FF" d="M194.1,316.5c0,63.7,57.6,111.7,138.5,111.7c0.3,0,0.6,0,1,0c-6.5,0-35.1-218.8-33.9-220.8
		C252.9,223.1,194.1,266,194.1,316.5z"/>
	<path fill="#C5D3FD" d="M328.6,168l-27.3-15.8v45.3c0,0-0.4,7.7-1.6,9.9c0,0-0.1,0.1-0.1,0.1c-1.2,1.9-2.7,2.4-4.9,3.7
		c-28.7,18.4-65.8,56.9-65.8,101.5c0,57.4,57,104.8,86.2,112.1c0,0-0.1-0.1-0.1-0.1c5.8,2.3,12.1,3.6,18.6,3.6c0.1,0,0.2,0,0.3,0
		v-19.5c-0.4,0.1-0.7,0.2-1,0.2C325.7,408.9,327.6,234.2,328.6,168z"/>
	<path fill="#B9C5E7" d="M333.9,171l-15.8-9.1v35.8c0,0-0.3,9.6-1.8,12.5c-1.6,3.1-4.4,5.2-7.7,8.6c-17.7,18.6-38.3,52.6-38.3,91.5
		c0,71.9,53.7,98.6,62.6,98.6c0.3,0,0.6-0.1,1-0.2V377c-0.8,0.5-0.8-140.4,0-139.3V171z"/>
	<path fill="#AC31AF" d="M349.2,322.8c0,46.9-8.2,87.2-14.6,104.6l0,0C341,410,349.2,369.7,349.2,322.8c0-41.6-7-78-12.9-97.8
		c-1.1-3.7-2.1-5.9-2.6-9.2c0.5,3.3,1.5,5.6,2.6,9.2C342.3,244.8,349.2,281.2,349.2,322.8z"/>
	<path fill="none" d="M360.3,208.2c-0.1-0.3-0.2-0.7-0.4-1.2c0,0,0,0,0,0c-0.1-0.2-0.1-0.4-0.1-0.7c0,0,0,0,0,0
		c0-0.2-0.1-0.5-0.1-0.7c0,0,0,0,0-0.1c0-0.2-0.1-0.5-0.1-0.7c0,0,0,0,0,0c0-0.2-0.1-0.5-0.1-0.7c0,0,0,0,0,0
		c-0.1-1-0.4-43.6-0.4-43.6l-1.8,1.3l-18.7,13.1l-42-24.3v48.3c0,0-0.3,6.5-1.3,9.3c-46.7,15.5-105.6,58.3-105.6,108.8
		c0,63.5,57.4,111.4,138.1,111.4s138.1-47.9,138.1-111.4C465.7,266.6,406.6,223.8,360.3,208.2z"/>
	<path fill="#91A0C1" d="M332.6,235.9c0,0-27.6,36.9-27.6,82.4s27.6,59.4,27.6,59.4s0.5-0.2,1.3-0.7V237.7
		C333.1,236.6,332.6,235.9,332.6,235.9z"/>
	<path fill="#22F3BA" d="M381,89.2c0-0.1-0.1-0.2-0.2-0.3c-0.1-0.1-0.2-0.1-0.3,0c-13.4,7.1-24.5,17.8-32,31.1
		c-0.5,0.8-0.9,1.6-1.3,2.4c-1.3-8-4.2-15.6-8.6-22.5c-0.1-0.1-0.2-0.2-0.3-0.2s-0.2,0.1-0.3,0.2c-6.1,9.5-9.3,20.5-9.3,31.8
		s3.2,22.3,9.3,31.8c0.1,0.1,0.2,0.2,0.3,0.2c0.1,0,0.1,0,0.2-0.1c0,0,0,0,0,0c0.1,0,0.1,0,0.2,0c0.1,0,0.1,0,0.2,0
		c13.4-7.1,24.5-17.8,32-31.1C378.3,119.4,381.8,104.4,381,89.2z"/>
	<path fill="#2D303F" d="M293.9,147.9"/>
</g>
<g id="Layer_2">
	<path fill="#735A93" d="M360.4,207.8c-1-2.7-1.4-9-1.4-9v-38.6l-1.1,0.8l-18.7,13.1l-12.2-7v262h0.6c8,0,18.3-0.8,18.7-1
		c34.8-3.3,64.7-15.8,86.5-36c21.8-20.2,33.3-46.2,33.3-75.1C466.1,269.3,411.7,225.2,360.4,207.8z"/>
</g>
</svg>
