<?xml version="1.0" encoding="utf-8"?>
<!-- Generator: Adobe Illustrator 19.1.0, SVG Export Plug-In . SVG Version: 6.00 Build 0)  -->
<svg version="1.2" baseProfile="tiny" id="Layer_1" xmlns="http://www.w3.org/2000/svg" xmlns:xlink="http://www.w3.org/1999/xlink"
	 x="0px" y="0px" viewBox="114 110.5 416 229" xml:space="preserve">
<g>
	<path fill="#22F4BB" d="M434.5,184.5c-2.2,0-4,1.2-4,2.7s1.8,2.7,4,2.7c2.2,0,4-1.2,4-2.7S436.7,184.5,434.5,184.5z M434.5,186.2
		c1.4,0,2.4,0.6,2.4,1.1c0,0.4-1,1.1-2.4,1.1c-1.4,0-2.4-0.6-2.4-1.1C432.1,186.8,433.1,186.2,434.5,186.2z"/>
	<path fill="#22F4BB" d="M422.8,192.3c0-1.5-1.8-2.7-4-2.7c-2.2,0-4,1.2-4,2.7s1.8,2.7,4,2.7C421,195.1,422.8,193.8,422.8,192.3z
		 M421.1,192.3c0,0.4-1,1.1-2.4,1.1c-1.4,0-2.4-0.6-2.4-1.1c0-0.4,1-1.1,2.4-1.1C420.2,191.2,421.1,191.9,421.1,192.3z"/>
	<path fill="#22F4BB" d="M477.1,194.9c5.1-5.8,4.7-12.4-1.1-18.1c-5.7-5.6-15.8-9.9-28.7-12.1c-2.2-0.4-5.3-0.1-6.7,1.3
		c-0.5,0.5-0.7,1.2-0.4,1.8c0.3,1,1.6,1.8,3.4,2.1c10.3,1.8,18.4,5.2,22.8,9.6c4.2,4.1,4.5,8.6,0.8,12.8c-0.7,0.8-0.6,1.9,0.2,2.6
		c0.5,0.6,1.5,1,3,1.3c0.7,0.2,1.3,0.2,1.9,0.2v0C474.4,196.5,476.3,195.9,477.1,194.9z M475.9,193.8c-0.6,0.7-2.9,1.2-5,0.8
		c-1.4-0.3-1.9-0.6-2-0.8c-0.2-0.2-0.2-0.2-0.1-0.4c4.2-4.8,3.9-10.3-0.9-15.1c-4.7-4.6-13.1-8.2-23.7-10c-1.6-0.3-2.1-0.8-2.1-1
		c0,0,0-0.1,0.1-0.1c0.4-0.4,1.9-0.9,3.5-0.9c0.5,0,1,0.1,1.6,0.1c12.5,2.2,22.3,6.3,27.8,11.7C480.2,183.2,480.5,188.6,475.9,193.8
		z"/>
	<path fill="#22F4BB" d="M440.7,172.1c-2.2-0.4-5.3-0.2-6.7,1.2c-0.7,0.8-0.7,1.9,0.1,2.7c0.6,0.6,1.5,1,2.9,1.2
		c5.7,1,10.4,3,12.8,5.4c1.6,1.6,3,4,0.5,6.8c-0.4,0.6-0.6,1.2-0.4,1.9c0.4,1,1.7,1.7,3.5,2.1c0.7,0.1,1.3,0.2,1.9,0.2h0
		c1.9,0,3.9-0.4,4.8-1.6c3.3-3.9,3-8.2-0.8-12C455.7,176.4,449.1,173.6,440.7,172.1z M440.4,173.9c8,1.3,14.4,4,17.7,7.3
		c3.2,3.1,3.4,6.5,0.7,9.8c-0.6,0.7-2.9,1.2-5,0.8c-1.5-0.2-2.1-0.7-2.2-1c0-0.1,0-0.1,0.1-0.2c2.5-2.9,2.3-6.2-0.6-9.1
		c-2.7-2.7-7.6-4.8-13.7-5.8c-1.3-0.3-1.8-0.6-2-0.8c-0.2-0.2-0.2-0.2,0-0.3C436,173.9,438.2,173.4,440.4,173.9z"/>
	<path fill="#22F4BB" d="M149.1,282.1c2,6.3,6.6,13,14.8,21.6c12.3,13,29.6,14.9,38.9,14.9c6.3,0,12.4-0.9,17.2-2.4
		c66.7-21.3,273.8-87.2,275.9-87.9c0.6-0.2,1.2-0.6,1.6-1.1c7-8.4,13.1-17.9,5.7-33.1c-0.1-0.1-0.1-0.1-0.1-0.2c-1-1.7-2-3.3-3.1-5
		c-0.1-0.2-0.2-0.4-0.4-0.6c-12.4-18.5-29.3-26.9-36.6-30.6l-0.6-0.3c-4.1-2.1-7.5-3.1-10.1-3.1c-1,0-1.7,0.2-2.2,0.3
		c-12.4,3.6-258.8,75.4-263.9,77.2c-23.2,7-34.7,16.8-37.5,31.7v0.1C147.7,270.5,147.1,275.9,149.1,282.1z M152.2,268.5
		c4.4,15.8,16.2,26.8,23.7,30.7c9.8,4.9,18.6,6.7,26.8,6.7l0,0c7.5,0,14.4-1.5,21-3.3c12.2-3.5,46.4-15,52.2-16.9v8.3
		c-23.1,7.4-43.2,13.8-57.2,18.2c-12.2,3.9-37,4.2-51.8-11.4C152.7,285.9,151.1,278.7,152.2,268.5z M277.6,293.4v-8.3l223.5-71.3
		c-1.4,3.8-3.9,7.2-6.8,10.6C488,226.3,363.1,266.1,277.6,293.4z M501.7,211.7l-224.2,71.5c0-2.8-0.2-5.4-0.6-7.8
		c10.2-3.2,214.5-66.8,220.1-68.3c1.1-0.3,2-1,2.5-2.1c1-2.1,0.7-5.4,0.1-8.4C502.5,202.7,502.8,207.5,501.7,211.7z M496.1,190.6
		c0,0,0,0.1,0,0.1c1.1,2.7,3.6,10.5,2,13.6c-0.3,0.6-0.8,1-1.5,1.2C491,207,291.9,269,276.7,273.8c-1-4.8-3.1-9.4-7.2-15.5
		c-6-9.1-27.8-32.1-32.7-37.3c76.6-22.4,212.6-61.9,214.4-62.5c0.1,0,0.1-0.1,0.2-0.1c0,0,2.2-0.7,9,2.6l0.7,0.3
		C468.3,165.1,484.3,173.1,496.1,190.6z M235,221.5c3.1,3.2,26.9,28.4,33.1,37.7c0.2,0.4,0.5,0.7,0.7,1.1l-53.5,17.1
		c-0.1,0-0.1,0-0.1,0.1c-0.2,0.1-19.1,8.9-35.3-5.8c-10.5-12.3-12.1-16.9-12.2-16.9c0-0.1-0.1-0.1-0.1-0.1
		c-0.2-0.3-3.8-7.9,8.9-15.1c3.3-1.4,6.9-2.7,10.8-3.9C192.4,234,210.5,228.7,235,221.5z M275.9,283.8c-3.6,1.2-40.1,13.5-52.7,17.1
		c-13.4,3.8-28.3,5.9-46.5-3.3c-7.9-4-20.7-16.3-23.8-33.8c0,0,0,0,0,0c1.7-8.6,6.9-15.3,16.3-20.8c-5.5,6.1-3.3,11.5-3,12.3
		c0.2,0.6,2.1,5.3,12.4,17.4l0.1,0.1c7.8,7.1,16.1,9,22.9,9c7.8,0,13.6-2.5,14.2-2.9l53.9-17.2C274.8,269.8,275.8,275.1,275.9,283.8
		z"/>
</g>
</svg>
