<?xml version="1.0" encoding="utf-8"?>
<!-- Generator: Adobe Illustrator 22.0.1, SVG Export Plug-In . SVG Version: 6.00 Build 0)  -->
<svg version="1.2" baseProfile="tiny" id="Layer_1" xmlns="http://www.w3.org/2000/svg" xmlns:xlink="http://www.w3.org/1999/xlink"
	 x="0px" y="0px" viewBox="0 0 366 255.1" xml:space="preserve">
<g>
	<g>
		<g>
			<path fill="#22F4BB" d="M220.1,172.5c3.3-0.7,5.5,1.4,5.2,4.8c-0.4,3.4-3.4,6.8-6.7,7.6l-16.5,3.9c-3.3,0.7-5.5-1.4-5.2-4.8
				c0.4-3.4,3.4-6.8,6.7-7.6L220.1,172.5 M220.2,171.6l-16.5,3.9c-3.7,0.9-7.2,4.9-7.8,8.8l0,0c-0.4,3.9,2.2,6.5,6,5.5l16.5-3.9
				c3.7-0.9,7.2-4.9,7.8-8.8l0,0C226.7,173.2,224,170.6,220.2,171.6L220.2,171.6z"/>
		</g>
		<g>
			<path fill="#22F4BB" d="M221.9,178.1c0-0.3-0.2-0.5-0.4-0.4c-0.1,0-0.2,0.1-0.3,0.2l-0.5-0.2v-0.1c0-0.3-0.2-0.5-0.4-0.4
				c-0.3,0.1-0.5,0.4-0.6,0.7c0,0.2,0.1,0.4,0.3,0.4l-0.1,0.7c-0.2,0.1-0.4,0.3-0.4,0.6s0.2,0.5,0.4,0.4c0.2-0.1,0.5-0.4,0.6-0.7
				v-0.1l0.6-0.5c0.1,0.1,0.2,0.1,0.3,0C221.5,178.7,221.9,178.4,221.9,178.1z M220.3,178.1l0.5,0.2v0.1v0.1l-0.6,0.5h-0.1l0.1-0.7
				C220.2,178.2,220.2,178.1,220.3,178.1z"/>
		</g>
		<g>
			<path fill="#22F4BB" d="M202.8,181.4c-0.3,0.1-0.5,0.2-0.9,0.4l0.2,0.2c0.2-0.1,0.3-0.2,0.5-0.3c0.5-0.1,0.9,0.2,0.7,0.7
				c-0.1,0.5-0.5,1.1-1,1.2s-0.6-0.1-0.7-0.4l0.3-0.1c0.1,0,0.2-0.2,0.2-0.3l-0.5-0.6l-0.7,1c-0.1,0.1-0.1,0.3,0.1,0.3l0.3-0.1
				c0,0.5,0.5,1,1.2,0.7c0.7-0.2,1.4-1,1.5-1.7C204,181.7,203.4,181.2,202.8,181.4z"/>
		</g>
	</g>
	<g>
		<path fill="#22F4BB" d="M201.9,36.9c24.5,0,34.5,8.5,34.5,8.5s49.7,41.1,63.6,52.9s12.8,21.6,12.6,24.6c-0.2,3-3.6,23.6-12.6,39.6
			c-9,16.1-20.6,19.7-20.6,19.7s-132,35-142.5,35.9c-2,0.2-3.9,0.2-5.7,0.2c-7.7,0-13.2-1.2-13.2-1.2c-40.7-7.9-46.2-42.8-46.2-42.8
			l-3-17.1L53.3,76.4c-1.7-26.3,47.3-31,47.3-31s67.9-7.1,96.1-8.3C198.5,36.9,200.2,36.9,201.9,36.9 M201.9,32.9
			c-1.7,0-3.5,0-5.3,0.1c-28.1,1.3-95.7,8.3-96.4,8.4c-2.1,0.2-52.8,5.4-50.8,35.2v0.2V77l15.4,80.7l3,17.1c0.1,0.8,1.8,9.9,8.5,20
			c6.3,9.5,18.5,21.7,40.8,26c0.7,0.1,6.3,1.3,14,1.3c2,0,4-0.1,6-0.2c10.6-0.9,129.7-32.4,143.2-36h0.1h0.1
			c0.5-0.2,13.2-4.3,22.8-21.5c9.5-17,12.9-38.1,13.1-41.2V123c0.3-3.7,1.1-14.9-14-27.7c-13.8-11.7-63.1-52.5-63.6-52.9
			C238,41.6,227,32.9,201.9,32.9L201.9,32.9z"/>
	</g>
	<g>
		<path fill="#22F4BB" d="M128.5,179.1c-5.4,0-11.3-0.4-16.8-1.7c-12.2-2.9-33.6-9.3-40.7-20.1c-6.2-9.4-17.6-68.9-18.1-71.4
			l0.8-0.1c0.1,0.6,11.9,61.9,18,71.1c6.9,10.5,28.2,16.9,40.2,19.7c16,3.8,35.5,0.1,35.7,0.1c1.3-0.3,128.3-28,142.5-31.5
			c18.1-4.5,21.4-17.5,21.5-17.7l0.8,0.2c0,0.1-3.5,13.7-22.1,18.3c-14.2,3.5-141.2,31.3-142.5,31.5
			C147.6,177.5,139,179.1,128.5,179.1z"/>
	</g>
	<g>
		<path fill="#22F4BB" d="M131.3,158.1c-19.1,0-33.5-4.1-43-12.1c-8.9-7.6-9.9-16-10-16.8c-0.4-1.7-9.3-38.9-14.1-58
			c-1-4.1-0.4-7.8,2-11.1C73.7,49.3,96.8,47,97.8,46.9c0.8-0.1,84-7.9,104.5-8.8c20.8-0.9,33.4,8.5,33.9,8.9
			c0.4,0.4,38.6,33.3,55.6,48.5c0.9,0.8,1.8,1.6,2.6,2.3c1.1,1,4,4.4,4.5,5.3c2.8,5.4,3.2,10.3,1.1,14.5c-4.5,9.2-18.6,12-19.2,12.1
			L151.9,156l-7.5,1.5C139.8,157.9,135.4,158.1,131.3,158.1z M204.9,39.6c-0.8,0-1.7,0-2.5,0.1c-20.5,0.8-103.6,8.7-104.5,8.8
			c-0.2,0-23.3,2.4-30.6,12.6c-2,2.9-2.6,6.2-1.7,9.8c4.9,19.5,14,57.7,14.1,58v0.1c0,0.1,0.8,8.5,9.5,15.9
			c11,9.3,30,13.2,54.9,11.1l7.3-1.5l129.1-26.2c0.1,0,14-2.8,18.1-11.3c1.8-3.8,1.5-8.2-1.1-13.1c-0.3-0.6-3.1-3.9-4.2-4.9
			c-0.8-0.7-1.7-1.5-2.6-2.3c-17-15.2-55.2-48.1-55.6-48.4C235.2,48.2,223.7,39.6,204.9,39.6z"/>
	</g>
	<g>
		<path fill="#22F4BB" d="M127.6,150.8c-14,0-23.2-3.8-29-7.7c-9.6-6.6-12.1-15-12.2-15.3l0,0c-0.1-0.4-9.9-37.7-15-56.5
			c-1.3-4.7-0.7-8.7,1.8-12.2c6.2-8.7,22-10,22.7-10c0.8-0.1,86.3-8.2,106.5-9.4c20.4-1.3,32,8.1,32.5,8.5
			c0.4,0.4,40.6,36.8,54.6,49.4l0.1,0.1c4.5,5.4,6,10.2,4.4,14.4c-2.9,8-15.8,11.3-23.1,12.6c-22.5,3.8-48.7,9-74.1,14.1
			c-15.2,3-29.6,5.9-42.7,8.4C143.7,149.8,135,150.8,127.6,150.8z M87.9,127.3c0.1,0.3,2.5,8.3,11.6,14.5
			c8.5,5.8,24.9,11.2,54.1,3.8c13.2-2.5,27.5-5.4,42.7-8.4c25.4-5.1,51.6-10.3,74.1-14.1c12-2.1,20-6.4,21.9-11.6
			c1.3-3.6-0.1-8-4.1-12.9c-14-12.6-54.1-48.9-54.5-49.3c-0.1-0.1-11.6-9.4-31.3-8.1C182.3,42.4,96.8,50.5,96,50.6
			c-0.2,0-15.8,1.3-21.5,9.4c-2.1,3-2.6,6.7-1.5,10.8C78,89.5,87.7,126.6,87.9,127.3z"/>
	</g>
	<g>
		<path fill="#22F4BB" d="M127.1,153c-29.8,0-39.1-20.7-39.2-20.9L81,105.5l0.8-0.2l6.9,26.6c0.1,0.2,11.9,26,51.1,19.2
			c46.6-8.1,73.4-14.2,73.7-14.3l66.5-13.3c0.6-0.2,16.6-5,12.9-18.1l0.8-0.2c3.9,13.8-13.3,19-13.5,19l-66.5,13.3
			c-0.3,0.1-27.1,6.2-73.7,14.3C135.2,152.7,131,153,127.1,153z"/>
	</g>
	<g>
		<path fill="#22F4BB" d="M69.1,89.9c-0.2-0.8-4.8-19.8-2.9-24c1.9-7.7,12.8-11.6,13.2-11.8l0.3,0.7c-0.1,0-10.9,4-12.8,11.3
			c-1.8,4,2.9,23.3,2.9,23.5L69.1,89.9z"/>
	</g>
	<g>
		<path fill="#22F4BB" d="M290.9,125.8l-0.4-0.7c0.1,0,6.6-4.1,7.8-10c0.5-2.7-0.2-5.4-2.1-8.1c-7.4-10.2-16.1-16.4-16.2-16.5
			l0.5-0.6c0.1,0.1,8.8,6.3,16.4,16.6c2,2.8,2.8,5.7,2.2,8.7C297.8,121.5,291.2,125.7,290.9,125.8z"/>
	</g>
	<g>
		<g>
			<g>
				<path fill="#22F4BB" d="M193,52c-0.9,0-1.8-0.1-2.7-0.4l-1.1-0.4l0.6-0.8c1.6-2.2,6.1-1.6,7.8-1.4l2.5,0.3l-1.9,1.1
					c-0.7,0.4-2.1,1.2-3.9,1.4l0,0C193.9,52,193.4,52,193,52z M190.5,50.8L190.5,50.8c1.2,0.4,2.4,0.5,3.7,0.3l0,0
					c1.6-0.2,2.8-0.9,3.5-1.3h-0.1C196,49.7,192,49.2,190.5,50.8z"/>
			</g>
			<g>
				<path fill="#22F4BB" d="M229.2,69.9c-0.9,0-1.8-0.1-2.7-0.4l-1.1-0.4l0.6-0.8c1.6-2.2,6.1-1.6,7.8-1.4l2.5,0.3l-1.9,1.1
					c-0.7,0.4-2.1,1.2-3.9,1.4l0,0C230.1,69.9,229.7,69.9,229.2,69.9z M226.8,68.8L226.8,68.8c1.2,0.4,2.4,0.5,3.7,0.3
					c1.6-0.2,2.8-0.9,3.5-1.3h-0.1C232.3,67.6,228.2,67.1,226.8,68.8z"/>
			</g>
			<g>
				<path fill="#22F4BB" d="M237.6,84.2c-0.9,0-1.8-0.1-2.7-0.4l-1.1-0.4l0.6-0.8c1.6-2.2,6.2-1.6,7.8-1.4l2.5,0.3l-1.9,1.1
					c-0.7,0.4-2.1,1.2-3.9,1.4l0,0C238.5,84.1,238,84.2,237.6,84.2z M235.1,83L235.1,83c1.2,0.4,2.4,0.5,3.7,0.3l0,0
					c1.6-0.2,2.8-0.9,3.5-1.3h-0.1C240.6,81.8,236.6,81.3,235.1,83z"/>
			</g>
			<g>
				<path fill="#22F4BB" d="M226.7,109.3c-0.9,0-1.8-0.1-2.7-0.4l-1.1-0.4l0.6-0.8c1.6-2.2,6.1-1.6,7.8-1.4l2.5,0.3l-1.9,1.1
					c-0.7,0.4-2.1,1.2-3.9,1.4l0,0C227.6,109.3,227.2,109.3,226.7,109.3z M224.3,108.1L224.3,108.1c1.2,0.4,2.4,0.5,3.7,0.3l0,0
					c1.6-0.2,2.8-0.9,3.5-1.3h-0.1C229.8,107,225.7,106.4,224.3,108.1z"/>
			</g>
			<g>
				<path fill="#22F4BB" d="M218.9,115l-0.6-1c-0.3-0.6-1-1.7-0.5-2.8c0.3-0.8,1.3-1.4,2.7-1.8l0.8-0.2l0.5,0.4
					c1.3,0.9,1.2,1.8,0.9,2.5c-0.5,1.1-1.8,1.8-2.6,2.2L218.9,115z M221,110.1l-0.4,0.1c-1.2,0.3-1.9,0.7-2.2,1.3
					c-0.3,0.8,0.2,1.6,0.5,2.1l0.2,0.3l0.6-0.3c0.6-0.3,1.9-1.1,2.2-1.9l0,0c0.1-0.3,0.2-0.8-0.7-1.5L221,110.1z"/>
			</g>
			<g>
				<path fill="#22F4BB" d="M238.1,104.4l-0.6-1c-0.3-0.6-1-1.7-0.5-2.8c0.3-0.8,1.3-1.4,2.7-1.8l0.8-0.2L241,99
					c1.3,0.9,1.2,1.8,0.9,2.5l0,0c-0.5,1.1-1.8,1.8-2.6,2.2L238.1,104.4z M240.3,99.4l-0.4,0.1c-1.2,0.3-1.9,0.7-2.2,1.3
					c-0.3,0.8,0.2,1.6,0.5,2.1l0.2,0.3l0.6-0.3c0.6-0.3,1.9-1.1,2.2-1.9l0,0c0.1-0.3,0.2-0.8-0.7-1.5L240.3,99.4z"/>
			</g>
			<g>
				<path fill="#22F4BB" d="M234.2,105.1l-2.1-0.3c-1-0.1-2.9-0.4-4.3-1.1l0,0c-1.1-0.6-1.7-1.3-1.7-2.3v-0.7l1-0.1
					c4.3-0.3,5.8,2.1,6.3,3L234.2,105.1z M226.8,101.5c0,0.6,0.4,1.1,1.2,1.5l0,0c1.3,0.6,3.2,0.9,4.1,1l0.5,0.1
					c-0.5-0.8-1.7-2.9-5.6-2.6H226.8z"/>
			</g>
			<g>
				<path fill="#22F4BB" d="M244.9,80l-2.1-0.3c-1-0.1-2.9-0.4-4.3-1.1l0,0c-1.1-0.6-1.7-1.3-1.7-2.3v-0.7l1-0.1
					c4.3-0.3,5.8,2.1,6.3,3L244.9,80z M238.8,77.9c1.3,0.6,3.2,0.9,4.1,1l0.5,0.1c-0.5-0.8-1.7-2.9-5.6-2.6h-0.3
					C237.6,77,238,77.5,238.8,77.9L238.8,77.9z"/>
			</g>
			<g>
				<path fill="#22F4BB" d="M236,74.5l-0.5-0.4c-1.3-0.9-1.2-1.8-0.9-2.5l0,0c0.5-1.1,1.8-1.8,2.6-2.2l1.2-0.7l0.6,1
					c0.3,0.6,1,1.7,0.5,2.8c-0.3,0.8-1.3,1.4-2.7,1.8L236,74.5z M235.2,72c-0.1,0.3-0.2,0.8,0.7,1.5l0.2,0.2l0.4-0.1
					c1.2-0.3,1.9-0.7,2.2-1.3c0.3-0.8-0.2-1.6-0.5-2.1l-0.2-0.3l-0.6,0.3C236.8,70.5,235.6,71.2,235.2,72L235.2,72z"/>
			</g>
			<g>
				<path fill="#22F4BB" d="M214.9,115.8l-2.1-0.3c-1-0.1-2.9-0.4-4.3-1.1l0,0c-1.1-0.6-1.7-1.3-1.7-2.3v-0.7l1-0.1
					c4.3-0.3,5.8,2.1,6.3,3L214.9,115.8z M208.8,113.7c1.3,0.6,3.2,0.9,4.1,1l0.5,0.1c-0.5-0.8-1.7-2.9-5.6-2.6h-0.3
					C207.6,112.8,208,113.3,208.8,113.7L208.8,113.7z"/>
			</g>
			<g>
				<path fill="#22F4BB" d="M200.1,56.6l-0.6-0.4c-0.8-0.5-1.2-1.2-1.2-1.8c0.1-1.4,1.9-2.4,2.8-2.9l1.2-0.7l0.6,1
					c0.3,0.5,1,1.7,0.5,2.8l0,0c-0.3,0.8-1.2,1.4-2.6,1.8L200.1,56.6z M202.1,51.9l-0.6,0.3c-0.6,0.4-2.3,1.3-2.4,2.2
					c0,0.4,0.3,0.8,0.9,1.2l0.3,0.2l0.4-0.1c1.1-0.3,1.8-0.8,2.1-1.4l0,0c0.3-0.8-0.2-1.6-0.5-2.1L202.1,51.9z"/>
			</g>
			<g>
				<path fill="#22F4BB" d="M212.8,54.6c-1.3,0-2.4-0.2-3.4-0.7l0,0c-1.4-0.7-2.1-1.8-2.4-2.3l-0.8-1.4l2.1,0.3
					c1.5,0.2,4.6,0.6,5.6,2c0.3,0.4,0.4,0.9,0.4,1.4l-0.1,0.7h-1C213.1,54.6,213,54.6,212.8,54.6z M209.8,53.2
					c0.9,0.5,2.1,0.7,3.5,0.6h0.3c0-0.3,0-0.6-0.2-0.8c-0.9-1.2-4-1.6-5.1-1.7l-0.5-0.1C208,51.7,208.6,52.6,209.8,53.2L209.8,53.2z
					"/>
			</g>
			<g>
				<path fill="#22F4BB" d="M172.5,53.3l-0.6-0.4c-0.8-0.5-1.2-1.2-1.2-1.8c0.1-1.4,1.9-2.4,2.8-2.9l1.2-0.7l0.6,1
					c0.3,0.5,1,1.7,0.5,2.8l0,0l0,0l0,0c-0.3,0.8-1.2,1.4-2.6,1.8L172.5,53.3z M174.5,48.5l-0.6,0.3c-0.6,0.4-2.3,1.3-2.4,2.2
					c0,0.4,0.3,0.8,0.9,1.2l0.3,0.2l0.4-0.1c1.1-0.3,1.8-0.8,2.1-1.4l0,0c0.3-0.8-0.2-1.6-0.5-2.1L174.5,48.5z"/>
			</g>
			<g>
				<path fill="#22F4BB" d="M185.3,51.1c-1.3,0-2.4-0.2-3.4-0.7l0,0c-1.4-0.7-2.1-1.8-2.4-2.3l-0.8-1.4l2.1,0.3
					c1.5,0.2,4.6,0.6,5.6,2c0.3,0.4,0.4,0.9,0.4,1.4l-0.1,0.7h-1C185.6,51.1,185.5,51.1,185.3,51.1z M182.3,49.7
					c0.9,0.5,2.1,0.7,3.5,0.6h0.3c0-0.3,0-0.6-0.2-0.8c-0.9-1.2-4-1.6-5.1-1.7l-0.5-0.1C180.5,48.2,181.1,49.1,182.3,49.7
					L182.3,49.7z"/>
			</g>
			<g>
				<path fill="#22F4BB" d="M210,93.3c-1.7,0-2.9-0.7-3.7-2l-0.4-0.7l1,0.1c1.8,0.2,4.1,0.8,4.1,2.2v0.4h-0.6
					C210.3,93.3,210,93.3,210,93.3z M207.5,91.7c0.5,0.5,1.2,0.8,2,0.8C209.2,92.2,208.4,91.8,207.5,91.7z"/>
			</g>
			<g>
				<path fill="#22F4BB" d="M208.8,70.3l-0.1-0.1c-0.6-0.4-0.9-0.9-0.9-1.5c0.1-0.8,0.8-1.5,2.3-2.3l0.3-0.2l0.2,0.3
					c0.4,0.7,0.8,1.6,0.5,2.4c-0.3,0.6-1,1.1-2.1,1.3L208.8,70.3z M210.1,67.3c-1.3,0.7-1.6,1.2-1.6,1.5c0,0.2,0.1,0.4,0.4,0.7
					c0.8-0.2,1.2-0.4,1.4-0.8C210.5,68.3,210.3,67.8,210.1,67.3z"/>
			</g>
			<g>
				<path fill="#22F4BB" d="M215.9,75.6l-0.8-0.1c-2-0.2-3.9-0.6-4.6-1.6c-0.2-0.3-0.3-0.7-0.3-1.1l0.1-0.3h0.3
					c2.9-0.2,4.1,1.2,4.9,2.4L215.9,75.6z M211.1,73.3c0,0.1,0.1,0.1,0.1,0.2c0.5,0.6,2,1,3.2,1.1C213.7,73.8,212.8,73.2,211.1,73.3
					z"/>
			</g>
			<g>
				<path fill="#22F4BB" d="M190.6,104.1c-1.5,0-2.6-0.6-3.5-1.9l-0.5-0.7l0.9,0.1c1.9,0.3,3.9,0.8,3.9,2.1v0.4H191
					C190.9,104.1,190.7,104.1,190.6,104.1z M188.4,102.5c0.5,0.4,1.1,0.8,2,0.8C190.1,102.9,189.1,102.6,188.4,102.5z"/>
			</g>
			<g>
				<path fill="#22F4BB" d="M194.1,70.7l-0.2-0.4c-0.3-0.5-0.6-1.2-0.3-1.9c0.2-0.5,0.7-0.9,1.6-1.1l0.2-0.1l0.2,0.1
					c0.4,0.4,0.6,0.8,0.6,1.2c-0.1,0.8-0.9,1.4-1.7,1.9L194.1,70.7z M195.2,68.1c-0.5,0.2-0.7,0.4-0.8,0.6s-0.1,0.5,0.1,0.8
					c0.4-0.3,0.9-0.7,1-1C195.4,68.4,195.3,68.3,195.2,68.1z"/>
			</g>
			<g>
				<path fill="#22F4BB" d="M201.3,66c-0.7,0-1.3-0.1-2-0.4l-0.4-0.2l0.3-0.4c1.2-1.6,4-1.3,6.2-1.1l1.2,0.1l-1.1,0.6
					C204.4,65.2,202.9,66,201.3,66z M200.1,65c1.3,0.4,2.6,0,3.7-0.5C202.5,64.4,201,64.4,200.1,65z"/>
			</g>
			<g>
				<path fill="#22F4BB" d="M173.6,62.3c-0.7,0-1.3-0.1-2-0.4l-0.4-0.2l0.3-0.4c1.2-1.6,4-1.3,6.2-1.1l1.2,0.1l-1.1,0.6
					C176.7,61.6,175.2,62.3,173.6,62.3z M172.5,61.4c1.3,0.4,2.6,0,3.7-0.5C174.8,60.8,173.3,60.8,172.5,61.4z"/>
			</g>
			<g>
				<path fill="#22F4BB" d="M181.1,66.7l-0.1-0.1c-0.6-0.4-1-0.9-1-1.4c0-0.9,1.1-1.6,2.3-2.4l0.3-0.2l0.2,0.3
					c0.4,0.7,0.9,1.6,0.5,2.5C183,66,182.3,66.5,181.1,66.7L181.1,66.7z M182.4,63.7c-0.7,0.4-1.6,1-1.6,1.5c0,0.2,0.2,0.5,0.5,0.7
					c0.7-0.2,1.2-0.4,1.3-0.8C182.8,64.8,182.7,64.3,182.4,63.7z"/>
			</g>
			<g>
				<path fill="#22F4BB" d="M193.1,64.9c-2.7,0-3.8-1.8-4.1-2.5l-0.4-0.7l0.8,0.1c2.3,0.3,5.1,0.8,4.8,2.7v0.3h-0.3
					C193.6,64.8,193.3,64.9,193.1,64.9z M190.1,62.7c0.6,0.8,1.6,1.5,3.3,1.4C193.2,63.4,191.8,63,190.1,62.7z"/>
			</g>
			<g>
				<path fill="#22F4BB" d="M205.1,100.6h-0.7c-0.8,0-1.7-0.2-2.9-0.5l0,0c-1.8-0.5-2-1.4-1.9-2.1v-0.3h0.3c2.8-0.3,4.2,1.1,4.9,2.4
					L205.1,100.6z M201.7,99.3c0.7,0.2,1.4,0.4,2,0.4c-0.8-1-1.9-1.4-3.3-1.4C200.4,98.7,200.7,99,201.7,99.3L201.7,99.3z"/>
			</g>
			<g>
				<path fill="#22F4BB" d="M201.7,73.4c-0.6,0-1.3-0.1-1.9-0.1l-1.3-0.1l1.1-0.6c1.3-0.7,3-1.4,4.9-0.7l0.5,0.2l-0.4,0.4
					C204.1,73.2,202.9,73.4,201.7,73.4z M201.5,72.7c0.9,0,1.5-0.1,2-0.2C202.8,72.3,202.1,72.5,201.5,72.7z"/>
			</g>
			<g>
				<path fill="#22F4BB" d="M210.1,87.8c-0.6,0-1.3-0.1-1.9-0.1l-1.3-0.1L208,87c1.2-0.6,2.9-1.3,4.9-0.7l0.6,0.2l-0.3,0.5
					C212.6,87.6,211.4,87.8,210.1,87.8z M209.9,87c0.7,0,1.4,0,1.9-0.2C211.1,86.7,210.5,86.8,209.9,87z"/>
			</g>
			<g>
				<path fill="#22F4BB" d="M217.3,84.6l-0.1-0.1c-0.7-0.4-1-0.9-1-1.5c0-0.8,0.8-1.5,2.3-2.3l0.3-0.1l0.2,0.2
					c0.6,0.7,0.9,1.7,0.6,2.4c-0.3,0.8-1.3,1.1-2.1,1.3L217.3,84.6z M218.6,81.6c-1.4,0.8-1.6,1.3-1.6,1.5c0,0.3,0.2,0.5,0.5,0.7
					c0.8-0.2,1.3-0.5,1.4-0.8C219,82.7,218.9,82.1,218.6,81.6z"/>
			</g>
			<g>
				<path fill="#22F4BB" d="M224.1,89.9l-0.6-0.1c-2.5-0.3-4-0.8-4.5-1.6c-0.2-0.3-0.3-0.7-0.2-1.1l0.1-0.3h0.3
					c1.3-0.1,2.2,0.1,2.9,0.4c0.9,0.5,1.7,1.4,1.9,2.1L224.1,89.9z M219.5,87.6c0,0.1,0.1,0.1,0.1,0.2c0.2,0.3,0.9,0.8,3.2,1.2
					c-0.3-0.4-0.7-0.8-1.2-1C221.2,87.7,220.5,87.6,219.5,87.6z"/>
			</g>
			<g>
				<path fill="#22F4BB" d="M218.2,94.6c-0.7,0-1.4-0.1-2.1-0.4l-0.5-0.2l0.3-0.4c0.5-0.7,1.2-1.1,2.2-1.2c1.1-0.1,2.8-0.1,4,0.2
					l0.9,0.2l-0.8,0.5C220.9,94.2,219.5,94.6,218.2,94.6z M217,93.7c1.2,0.3,2.5,0.1,3.8-0.5c-0.9-0.1-1.9-0.1-2.5,0
					C217.7,93.3,217.3,93.5,217,93.7z"/>
			</g>
			<g>
				<path fill="#22F4BB" d="M199.1,105.3c-0.7,0-1.4-0.1-2.1-0.4l-0.5-0.2l0.3-0.4c0.5-0.7,1.2-1.1,2.2-1.2c1.1-0.2,2.8-0.1,4,0.2
					l0.9,0.2l-0.8,0.5C201.8,104.9,200.4,105.3,199.1,105.3z M197.9,104.4c1.2,0.3,2.5,0.1,3.8-0.5c-0.9-0.1-1.9-0.1-2.5,0
					C198.6,104,198.2,104.2,197.9,104.4z"/>
			</g>
			<g>
				<path fill="#22F4BB" d="M210.9,99.7l-0.2-0.3c-0.6-0.9-0.8-1.7-0.5-2.3c0.3-0.7,1-1.1,2.1-1.4h0.2l0.1,0.1
					c0.3,0.2,1.4,0.9,0.9,1.9c-0.3,0.6-1.3,1.4-2.3,1.8L210.9,99.7z M212.3,96.6c-0.6,0.1-1.2,0.4-1.4,0.9c-0.1,0.3,0,0.8,0.3,1.3
					c0.8-0.4,1.4-1,1.6-1.3C212.9,97.3,213,97.1,212.3,96.6z"/>
			</g>
			<g>
				<path fill="#22F4BB" d="M191.6,110.4l-0.2-0.3c-0.6-0.9-0.8-1.7-0.5-2.3c0.3-0.7,1-1.1,2.1-1.4h0.2l0.1,0.1
					c0.3,0.2,1.4,0.9,0.9,1.9c-0.3,0.6-1.3,1.4-2.3,1.8L191.6,110.4z M193,107.2c-0.6,0.1-1.2,0.4-1.4,0.9c-0.1,0.3,0,0.8,0.3,1.3
					c0.8-0.4,1.4-1,1.6-1.3C193.5,108,193.7,107.7,193,107.2z"/>
			</g>
			<g>
				<path fill="#22F4BB" d="M209.8,80.3c-0.7,0-1.4-0.1-2.1-0.4l-0.5-0.2l0.3-0.4c0.5-0.7,1.2-1.1,2.2-1.2c1.1-0.2,2.8-0.1,4,0.2
					l0.9,0.2l-0.8,0.5C212.4,79.9,211.1,80.3,209.8,80.3z M208.6,79.3c1.2,0.3,2.5,0.1,3.8-0.5c-0.9-0.1-1.9-0.1-2.5,0
					S208.9,79.1,208.6,79.3z"/>
			</g>
			<g>
				<path fill="#22F4BB" d="M166.5,67.1l-0.2-0.4c-0.3-0.5-0.6-1.2-0.3-1.9c0.2-0.5,0.7-0.9,1.6-1.1l0.2-0.1l0.2,0.1
					c0.5,0.3,0.7,0.7,0.7,1.2c0,0.8-0.9,1.4-1.8,1.9L166.5,67.1z M167.6,64.6c-0.5,0.2-0.8,0.4-0.9,0.6c-0.1,0.2-0.1,0.5,0.1,0.8
					c0.8-0.5,1-0.9,1-1.1C167.8,64.8,167.7,64.7,167.6,64.6z"/>
			</g>
			<g>
				<path fill="#22F4BB" d="M165.5,61.3c-2.6,0-3.7-1.4-4.3-2.5l-0.4-0.7l0.8,0.1c1.8,0.2,3.9,0.6,4.6,1.6c0.2,0.3,0.3,0.7,0.2,1.1
					l-0.1,0.3H166C165.9,61.3,165.6,61.3,165.5,61.3z M162.3,59.1c0.6,0.8,1.5,1.4,3.3,1.3c0-0.1-0.1-0.1-0.1-0.2
					C165.1,59.7,163.5,59.3,162.3,59.1z"/>
			</g>
			<g>
				<path fill="#22F4BB" d="M206.4,109.7l-0.5-0.2c-0.7-0.5-1-0.9-1-1.5c0.1-1.1,1.5-1.9,2.3-2.4l1.1-0.6l0.5,0.9
					c0.3,0.5,0.8,1.1,0.4,2c-0.3,0.7-1,1.1-2.2,1.1l0,0L206.4,109.7z M208.1,106.2l-0.4,0.2c-0.6,0.4-1.9,1.1-1.9,1.8
					c0,0.3,0.2,0.6,0.7,0.9l0.2,0.1l0.3-0.1c0.9-0.2,1.5-0.6,1.7-1.1c0.2-0.6-0.1-1.2-0.4-1.7L208.1,106.2z"/>
			</g>
			<g>
				<path fill="#22F4BB" d="M218.4,108.1c-3.2,0-4.3-1.8-4.7-2.5l-0.7-1.3l1.9,0.2c1.7,0.2,5.2,0.7,5,2.9l-0.1,0.6l-0.9,0.1
					C218.8,108.1,218.6,108.1,218.4,108.1z M214.4,105.3c0.5,0.8,1.5,2.2,4.5,2h0.2c0-1.4-3-1.8-4.4-2H214.4z"/>
			</g>
			<g>
				<path fill="#22F4BB" d="M199.4,119c-3.2,0-4.3-1.8-4.7-2.5l-0.7-1.3l1.9,0.2c1.7,0.2,5.2,0.7,5,2.9l-0.1,0.6l-0.9,0.1
					C199.7,119,199.5,119,199.4,119z M195.4,116.1c0.5,0.8,1.5,2.2,4.5,2h0.2c0-1.4-3-1.8-4.4-2H195.4z"/>
			</g>
			<g>
				<path fill="#22F4BB" d="M218.4,102.6c-1,0-1.9-0.1-2.5-0.2l-2.3-0.3l1.8-1c1.2-0.6,3.6-2.3,6.6-1l0,0l1,0.4l-0.3,0.4l-0.2,0.3
					C221.5,102.3,219.9,102.6,218.4,102.6z M216,101.6c1.5,0.2,4.4,0.5,5.6-0.7C219.2,100.1,217.2,101,216,101.6z"/>
			</g>
			<g>
				<path fill="#22F4BB" d="M225.5,99.1l-0.5-0.3c-0.7-0.5-1-1-1-1.5c0.1-1.1,1.5-1.9,2.3-2.4l1.1-0.6l0.5,0.9
					c0.3,0.5,0.8,1.3,0.4,2.2c-0.3,0.7-1,1.3-2.2,1.3l0,0L225.5,99.1z M227.2,95.4l-0.4,0.2c-0.6,0.4-1.9,1.1-1.9,1.8
					c0,0.3,0.2,0.6,0.7,0.9l0.2,0.1l0.3-0.1c0.9-0.2,1.5-0.6,1.7-1.1c0.2-0.6-0.1-1.2-0.4-1.7L227.2,95.4z"/>
			</g>
			<g>
				<path fill="#22F4BB" d="M199.4,113.3c-1,0-1.9-0.1-2.5-0.2l-2.3-0.3l1.8-0.6c1.2-0.6,3.6-3.1,6.6-0.5l0,0l1-0.1l-0.6,0.5
					C202.5,113.3,200.9,113.3,199.4,113.3z M197,112.4c1.5,0.2,4.4,0.5,5.6-0.7C200.2,110.8,198.2,111.8,197,112.4z"/>
			</g>
			<g>
				<path fill="#22F4BB" d="M237.5,97.3c-3.2,0-4.3-1.8-4.7-2.5l-0.7-1.3l1.9,0.2c1.7,0.2,5.2,0.7,5,2.9l-0.1,0.6l-0.9,0.1
					C237.8,97.3,237.7,97.3,237.5,97.3z M233.5,94.5c0.5,0.8,1.5,2.2,4.5,2h0.2c0-1.4-3-1.8-4.4-2H233.5z"/>
			</g>
			<g>
				<path fill="#22F4BB" d="M237.5,91.8c-1,0-1.9-0.1-2.5-0.2l-2.3-0.3l1.8-0.8c1.2-0.6,3.6-2,6.6-0.7l0,0l1,0.2l-0.6,0.6
					C240.6,91.6,239,91.8,237.5,91.8z M235.1,90.8c1.5,0.2,4.4,0.5,5.6-0.7C238.3,89.3,236.3,90.2,235.1,90.8z"/>
			</g>
			<g>
				<path fill="#22F4BB" d="M229.8,89.5l-0.5-0.9c-0.3-0.5-0.8-1.6-0.4-2.5c0.3-0.7,1-0.3,2.2-1.6l0,0l0.7-0.1l0.5,0.4
					c0.7,0.5,1,1,1,1.6c-0.1,1.1-1.5,2-2.3,2.4L229.8,89.5z M231.2,85.5c-0.9,0.2-1.5,0.6-1.7,1.1c-0.2,0.6,0.1,1.2,0.4,1.7l0.1,0.2
					l0.4-0.2c0.6-0.4,1.9-1.1,1.9-1.8c0-0.3-0.2-0.6-0.7-0.9l-0.2-0.1L231.2,85.5z"/>
			</g>
			<g>
				<g>
					<path fill="#22F4BB" d="M229.1,83c-3.2,0-4.3-1.8-4.7-2.5l-0.7-1.3l1.9,0.2c1.7,0.2,5.2,0.7,5,2.9l0,0v0.3v0.3l-0.9,0.1
						C229.4,83,229.3,83,229.1,83z M225.1,80.2c0.5,0.8,1.5,2.2,4.5,2h0.2c0-1.4-3-1.8-4.4-2H225.1z"/>
				</g>
				<g>
					<path fill="#22F4BB" d="M229.1,77.5c-1,0-1.9-0.1-2.5-0.2l-2.3-0.3l1.8-0.8c1.2-0.6,3.6-2,6.6-0.7l0,0l1,0.1l-0.3,0.3l-0.2,0.2
						C232.2,77.2,230.6,77.5,229.1,77.5z M226.7,76.5c1.5,0.2,4.4,0.5,5.6-0.7C229.9,75,227.8,75.9,226.7,76.5z"/>
				</g>
				<g>
					<path fill="#22F4BB" d="M221.4,75.2l-0.5-0.9c-0.3-0.5-0.8-1.6-0.4-2.5c0.3-0.7,1-1.6,2.2-1.6l0,0l0.7-0.1l0.5,0.4
						c0.7,0.5,1,1,1,1.6c-0.1,1.1-1.5,2-2.3,2.4L221.4,75.2z M222.8,71.2c-0.9,0.2-1.5,0.6-1.7,1.1c-0.2,0.6,0.1,1.2,0.4,1.7
						l0.1,0.2L222,74c0.6-0.4,1.9-1.1,1.9-1.8c0-0.3-0.2-0.6-0.7-0.9l-0.2-0.1L222.8,71.2z"/>
				</g>
			</g>
			<g>
				<path fill="#22F4BB" d="M220.7,68.7c-3.2,0-4.3-1.8-4.7-2.5l-0.7-1.3l1.9,0.2c1.7,0.2,5.2,0.7,5,2.9l-0.1,0.6l-0.9,0.1
					C221,68.7,220.8,68.7,220.7,68.7z M216.7,65.9c0.5,0.8,1.5,2.2,4.5,2h0.2c0-1.4-3-1.8-4.4-2H216.7z"/>
			</g>
			<g>
				<g>
					<path fill="#22F4BB" d="M220.6,63.2c-1,0-1.9-0.1-2.5-0.2l-2.3-0.3l1.8-0.8c1.2-0.6,3.6-2,6.6-0.7l0,0l1,0.1l-0.6,0.6
						C223.8,63,222.1,63.2,220.6,63.2z M218.3,62.2c1.5,0.2,4.4,0.5,5.6-0.7C221.5,60.7,219.4,61.6,218.3,62.2z"/>
				</g>
				<g>
					<path fill="#22F4BB" d="M212.9,60.9l-0.5-0.9c-0.3-0.5-0.8-1.5-0.4-2.5c0.3-0.7,1-1.6,2.2-1.6l0,0l0.7-0.1l0.5,0.4
						c0.7,0.5,1,1,1,1.6c-0.1,1.1-1.5,1.9-2.3,2.4L212.9,60.9z M214.4,56.9c-0.9,0.2-1.5,0.6-1.7,1.1c-0.2,0.6,0.1,1.2,0.4,1.7
						l0.1,0.2l0.4-0.2c0.6-0.4,1.9-1.1,1.9-1.8c0-0.3-0.2-0.6-0.7-0.9l-0.2-0.1H214.4z"/>
				</g>
				<g>
					<path fill="#22F4BB" d="M208.3,61.7l-1.9-0.2c-1.7-0.2-5.2-0.7-5-2.9l0,0v-0.3V58l0.9-0.1c3.5-0.2,4.7,1.7,5.2,2.5L208.3,61.7z
						 M202.1,58.7c0,1.4,3,1.8,4.4,2h0.3c-0.5-0.8-1.5-2.2-4.5-2H202.1z"/>
				</g>
			</g>
			<g>
				<g>
					<path fill="#22F4BB" d="M165.5,56c-1,0-1.9-0.1-2.5-0.2l-2.3-0.3l1.8-1.1c1.2-0.6,3.6-2.3,6.6-1l0,0l1,0.5l-0.6,0.8
						C168.6,55.7,167,56,165.5,56z M163.1,55.1c1.5,0.2,4.4,0.5,5.6-0.7C166.3,53.5,164.3,54.5,163.1,55.1z"/>
				</g>
				<g>
					<path fill="#22F4BB" d="M157.8,53.8l-0.5-0.9c-0.3-0.5-0.8-1.2-0.4-2.1c0.3-0.7,1-1.3,2.2-1.3l0,0l0.7-0.4l0.5,0.2
						c0.7,0.5,1,1,1,1.5c-0.1,1.1-1.5,1.9-2.3,2.4L157.8,53.8z M159.2,49.8c-0.9,0.2-1.5,0.6-1.7,1.1c-0.2,0.6,0.1,1.2,0.4,1.7
						l0.1,0.2l0.4-0.2c0.6-0.4,1.9-1.1,1.9-1.8c0-0.3-0.2-0.6-0.7-0.9l-0.2-0.1H159.2z"/>
				</g>
			</g>
			<g>
				<path fill="#22F4BB" d="M192.7,59.6c-1,0-1.9-0.1-2.5-0.2l-2.3-0.3l1.8-1c1.2-0.6,3.6-2.2,6.6-0.9l0,0l1,0.3l-0.6,0.7
					C195.8,59.4,194.2,59.6,192.7,59.6z M190.3,58.7c1.5,0.2,4.4,0.5,5.6-0.7C193.5,57.1,191.5,58.1,190.3,58.7z"/>
			</g>
			<g>
				<path fill="#22F4BB" d="M185,57.4l-0.5-0.9c-0.3-0.5-0.8-1.7-0.4-2.6c0.3-0.7,1-0.5,2.2-1.8l0,0l0.7,0.1l0.5,0.5
					c0.7,0.5,1,1.1,1,1.6c-0.1,1.1-1.5,2-2.3,2.5L185,57.4z M186.5,53.3c-0.9,0.2-1.5,0.6-1.7,1.1c-0.2,0.6,0.1,1.2,0.4,1.7l0.1,0.2
					l0.4-0.2c0.6-0.4,1.9-1.1,1.9-1.8c0-0.3-0.2-0.6-0.7-0.9l0,0c0,0-0.1-0.1-0.2-0.1H186.5z"/>
			</g>
			<g>
				<path fill="#22F4BB" d="M180.7,58.1l-1.9-0.2c-1.7-0.2-5.2-0.7-5-2.9l0.1-0.6l0.9-0.1c3.6-0.2,4.7,1.7,5.2,2.5L180.7,58.1z
					 M174.5,55.2c0,1.4,3,1.8,4.4,2h0.3c-0.5-0.8-1.5-2.2-4.5-2H174.5z"/>
			</g>
		</g>
		<g>
			<g>
				<path fill="#22F4BB" d="M118.3,63.5c-1.2,0-2.3-0.1-3-0.2l-2.5-0.3l1.9-1.1c1.2-0.7,4.3-2.4,7.9-1.1l1.1,0.4l-0.6,0.7
					c-0.7,0.8-1.7,1.2-3.1,1.5l0,0C119.5,63.4,118.9,63.5,118.3,63.5z M115.3,62.4L115.3,62.4c1,0.1,2.9,0.4,4.6,0.1l0,0
					c1.1-0.2,2-0.5,2.5-1.1C119.3,60.3,116.5,61.8,115.3,62.4z"/>
			</g>
			<g>
				<path fill="#22F4BB" d="M107.4,88.6c-1.2,0-2.3-0.1-3-0.2l-2.5-0.3l1.9-1.1c1.2-0.7,4.3-2.4,7.9-1.1l1.1,0.4l-0.6,0.7
					c-0.7,0.8-1.7,1.2-3.1,1.5l0,0C108.6,88.6,108,88.6,107.4,88.6z M104.4,87.6L104.4,87.6c1,0.1,2.9,0.4,4.6,0.1l0,0
					c1.1-0.2,2-0.5,2.5-1.1C108.4,85.5,105.6,87,104.4,87.6z"/>
			</g>
			<g>
				<path fill="#22F4BB" d="M115.8,102.8c-1.2,0-2.3-0.1-3-0.2l-2.5-0.3l1.9-1.1c1.2-0.7,4.3-2.4,7.9-1.1l1.1,0.4l-0.6,0.7
					c-0.7,0.8-1.7,1.2-3.1,1.5l0,0C117,102.8,116.4,102.8,115.8,102.8z M112.8,101.8L112.8,101.8c1,0.1,2.9,0.4,4.6,0.1l0,0
					c1.1-0.2,2-0.5,2.5-1.1C116.8,99.7,114,101.2,112.8,101.8z"/>
			</g>
			<g>
				<path fill="#22F4BB" d="M152,120.8c-1.2,0-2.3-0.1-3-0.2l-2.5-0.3l1.9-1.1c1.2-0.7,4.3-2.4,7.9-1.1l1.1,0.4l-0.6,0.7
					c-0.7,0.8-1.7,1.2-3.1,1.5l0,0C153.2,120.7,152.6,120.8,152,120.8z M149,119.7h0.1c0.9,0.1,2.8,0.4,4.5,0.1l0,0
					c1.1-0.2,2-0.5,2.5-1.1C153,117.6,150.2,119.1,149,119.7z"/>
			</g>
			<g>
				<path fill="#22F4BB" d="M168,122.9l-2.1-0.3c-1-0.1-2.9-0.4-4.3-1.1l0,0c-1.1-0.6-1.7-1.3-1.7-2.3v-0.7l1-0.1
					c4.3-0.3,5.8,2.1,6.3,3L168,122.9z M161.9,120.9c1.3,0.6,3.2,0.9,4.1,1l0.5,0.1c-0.5-0.8-1.7-2.9-5.6-2.6h-0.3
					C160.7,119.9,161.1,120.4,161.9,120.9L161.9,120.9z"/>
			</g>
			<g>
				<path fill="#22F4BB" d="M140.5,119.5l-2.1-0.3c-1-0.1-2.9-0.4-4.3-1.1l0,0c-1.1-0.6-1.7-1.3-1.7-2.3v-0.7l1-0.1
					c4.3-0.3,5.8,2.1,6.3,3L140.5,119.5z M133.2,115.9c0,0.6,0.4,1.1,1.2,1.5l0,0c1.3,0.6,3.2,0.9,4.1,1l0.5,0.1
					c-0.5-0.8-1.7-2.9-5.6-2.6H133.2z"/>
			</g>
			<g>
				<path fill="#22F4BB" d="M144.5,118.8l-0.6-1c-0.3-0.6-1-1.7-0.5-2.8c0.3-0.8,1.3-1.4,2.7-1.8l0.8-0.2l0.5,0.4
					c1.2,0.9,1.2,1.8,0.9,2.5l0,0c-0.5,1.1-1.8,1.8-2.6,2.2L144.5,118.8z M146.6,113.8l-0.4,0.1c-1.2,0.3-1.9,0.7-2.2,1.3
					c-0.3,0.8,0.2,1.6,0.5,2.1l0.2,0.3l0.6-0.3c0.6-0.3,1.9-1.1,2.2-1.9l0,0c0.1-0.3,0.2-0.8-0.7-1.5L146.6,113.8z"/>
			</g>
			<g>
				<path fill="#22F4BB" d="M108.4,100.9l-0.6-1c-0.3-0.6-1-1.7-0.5-2.8c0.3-0.8,1.3-1.4,2.7-1.8l0.8-0.2l0.5,0.4
					c1.2,0.9,1.2,1.8,0.9,2.5l0,0c-0.5,1.1-1.8,1.8-2.6,2.2L108.4,100.9z M110.5,95.9l-0.4,0.1c-1.2,0.3-1.9,0.7-2.2,1.3
					c-0.3,0.8,0.2,1.6,0.5,2.1l0.2,0.3l0.6-0.3c0.6-0.3,1.9-1.1,2.2-1.9l0,0c0.1-0.3,0.2-0.8-0.7-1.5L110.5,95.9z"/>
			</g>
			<g>
				<path fill="#22F4BB" d="M108.2,94c-3.8,0-5.1-2.2-5.6-3l-0.8-1.4l2.1,0.3c1,0.1,2.9,0.4,4.3,1.1l0,0c1.1,0.6,1.7,1.3,1.7,2.3V94
					l-1,0.1C108.6,94,108.4,94,108.2,94z M103.3,90.6c0.5,0.8,1.7,2.9,5.6,2.6h0.3c0-0.6-0.4-1.1-1.2-1.5l0,0
					c-1.3-0.6-3.2-0.9-4.1-1L103.3,90.6z"/>
			</g>
			<g>
				<path fill="#22F4BB" d="M172,122.3l-0.6-1c-0.3-0.6-1-1.7-0.5-2.8c0.3-0.8,1.3-1.4,2.7-1.8l0.8-0.2l0.5,0.4
					c1.3,0.9,1.2,1.8,0.9,2.5l0,0c-0.5,1.1-1.8,1.8-2.6,2.2L172,122.3z M174.2,117.3l-0.4,0.1c-1.2,0.3-1.9,0.7-2.2,1.3
					c-0.3,0.8,0.2,1.6,0.5,2.1l0.2,0.3l0.6-0.3c0.6-0.3,1.9-1.1,2.2-1.9c0.1-0.3,0.2-0.8-0.7-1.5L174.2,117.3z"/>
			</g>
			<g>
				<path fill="#22F4BB" d="M119,68.9c-1.3,0-2.4-0.2-3.4-0.7l0,0c-1.4-0.7-2.1-1.8-2.4-2.3l-0.8-1.4l2.1,0.3c1.5,0.2,4.6,0.6,5.6,2
					c0.3,0.4,0.4,0.9,0.4,1.4l-0.1,0.7h-1C119.3,68.9,119.1,68.9,119,68.9z M113.9,65.5c0.3,0.5,0.8,1.4,2.1,2l0,0
					c0.9,0.5,2.1,0.7,3.5,0.6h0.3c0-0.3,0-0.6-0.2-0.8c-0.9-1.2-4-1.6-5.1-1.7L113.9,65.5z"/>
			</g>
			<g>
				<path fill="#22F4BB" d="M106.4,71.1l-0.6-0.4c-0.8-0.5-1.2-1.2-1.2-1.8c0.1-1.4,1.9-2.4,2.8-2.9l1.2-0.7l0.6,1
					c0.3,0.5,1,1.7,0.5,2.8l0,0l0,0l0,0c-0.3,0.8-1.2,1.4-2.6,1.8L106.4,71.1z M108.4,66.4l-0.6,0.3c-0.6,0.4-2.3,1.3-2.4,2.2
					c0,0.4,0.3,0.8,0.9,1.2l0.3,0.2l0.4-0.1c1.1-0.3,1.8-0.8,2.1-1.4l0,0c0.3-0.8-0.2-1.6-0.5-2.1L108.4,66.4z"/>
			</g>
			<g>
				<path fill="#22F4BB" d="M138.4,58.4c-1.3,0-2.4-0.2-3.4-0.7l0,0c-1.4-0.7-2.1-1.8-2.4-2.3l-0.8-1.4l2.1,0.3
					c1.5,0.2,4.6,0.6,5.6,2c0.3,0.4,0.4,0.9,0.4,1.4l-0.1,0.7h-1C138.7,58.4,138.5,58.4,138.4,58.4z M133.3,55
					c0.3,0.5,0.8,1.4,2.1,2l0,0c0.9,0.5,2.1,0.7,3.5,0.6h0.3c0-0.3,0-0.6-0.2-0.8c-0.9-1.2-4-1.6-5.1-1.7L133.3,55z"/>
			</g>
			<g>
				<path fill="#22F4BB" d="M125.6,60.5l-0.6-0.4c-0.8-0.5-1.2-1.2-1.2-1.8c0.1-1.4,1.9-2.4,2.8-2.9l1.2-0.7l0.6,1
					c0.3,0.5,1,1.7,0.5,2.8l0,0c-0.3,0.8-1.2,1.4-2.6,1.8L125.6,60.5z M127.6,55.7L127,56c-0.6,0.4-2.3,1.3-2.4,2.2
					c0,0.4,0.3,0.8,0.9,1.2l0.3,0.2l0.4-0.1c1.1-0.3,1.8-0.8,2.1-1.4c0.3-0.8-0.2-1.6-0.5-2.1L127.6,55.7z"/>
			</g>
			<g>
				<path fill="#22F4BB" d="M151.4,102.4l-0.2-0.1c-0.6-0.5-0.7-1-0.7-1.3c0.1-0.7,0.7-1.3,1.8-1.8l0.3-0.2l0.2,0.3
					c0.4,0.7,0.5,1.3,0.3,1.9c-0.2,0.5-0.7,0.9-1.5,1.2H151.4z M152.3,100c-0.6,0.3-0.9,0.7-1,1c0,0.2,0.1,0.3,0.2,0.5
					c0.5-0.2,0.7-0.4,0.8-0.6C152.5,100.6,152.5,100.3,152.3,100z"/>
			</g>
			<g>
				<path fill="#22F4BB" d="M126.9,82.8c-2.3,0-3.4-1.3-4.1-2.4l-0.4-0.7l0.8,0.1c2.2,0.2,5,0.8,4.9,2.6v0.3h-0.3
					C127.4,82.8,127.1,82.8,126.9,82.8z M123.9,80.7c0.6,0.8,1.6,1.4,3.3,1.3C126.9,81.4,125.8,81,123.9,80.7z"/>
			</g>
			<g>
				<path fill="#22F4BB" d="M127.9,89.1l-0.2-0.3c-0.4-0.7-0.8-1.6-0.5-2.4c0.3-0.6,1-1.1,2.1-1.3h0.2l0.1,0.1c0.7,0.4,1,0.9,1,1.4
					c0,0.9-1.1,1.7-2.3,2.4L127.9,89.1z M129.3,85.8c-0.8,0.2-1.2,0.5-1.4,0.8c-0.2,0.4,0,0.9,0.3,1.3c0.6-0.4,1.6-1,1.6-1.5
					C129.8,86.2,129.5,86,129.3,85.8z"/>
			</g>
			<g>
				<path fill="#22F4BB" d="M178.9,105.9l-0.1-0.1c-0.5-0.3-0.7-0.7-0.7-1.2c0-0.8,0.9-1.4,1.8-1.9l0.4-0.2l0.2,0.4
					c0.4,0.8,0.5,1.4,0.3,1.9s-0.8,0.9-1.6,1.1L178.9,105.9z M179.9,103.6c-0.7,0.4-1,0.8-1,1.1c0,0.1,0.1,0.2,0.2,0.4
					c0.5-0.1,0.8-0.3,0.9-0.6C180.1,104.3,180.1,104,179.9,103.6z"/>
			</g>
			<g>
				<path fill="#22F4BB" d="M140.9,79l-0.9-0.1c-2-0.3-3.8-0.8-3.9-2.1v-0.4h0.4c2.3-0.1,3.3,1.1,3.9,1.9L140.9,79z M137.2,77.1
					c0.4,0.4,1.1,0.6,2,0.8C138.7,77.5,138.1,77.2,137.2,77.1z"/>
			</g>
			<g>
				<path fill="#22F4BB" d="M127.3,77.3c-0.9,0-1.8-0.1-2.7-0.2l-1.2-0.2l1.1-0.6c1.5-0.8,3.6-1.9,6.2-0.9l0.4,0.2l-0.2,0.4
					C130.2,77,128.8,77.3,127.3,77.3z M126,76.4c1.3,0.1,3,0.1,3.8-0.5C128.4,75.6,127.2,75.9,126,76.4z"/>
			</g>
			<g>
				<path fill="#22F4BB" d="M146.4,66.5c-0.9,0-1.8-0.1-2.7-0.2l-1.2-0.2l1.1-0.6c1.5-0.8,3.6-1.9,6.2-0.9l0.4,0.2l-0.2,0.4
					C149.3,66.2,148,66.5,146.4,66.5z M145.1,65.6c1.3,0.1,2.9,0.1,3.8-0.5C147.5,64.8,146.3,65.1,145.1,65.6z"/>
			</g>
			<g>
				<path fill="#22F4BB" d="M146.1,72c-2.7,0-3.8-1.8-4.1-2.5l-0.4-0.7l0.8,0.1c2.3,0.3,5.1,0.8,4.8,2.7v0.3h-0.3
					C146.6,72,146.4,72,146.1,72z M143.2,69.9c0.6,0.8,1.6,1.5,3.3,1.4C146.2,70.5,144.8,70.1,143.2,69.9z"/>
			</g>
			<g>
				<path fill="#22F4BB" d="M134.2,74l-0.1-0.1c-0.6-0.4-1-0.9-1-1.4c0-0.9,1.1-1.6,2.3-2.4l0.3-0.2l0.2,0.3
					c0.4,0.7,0.9,1.6,0.5,2.5C136.1,73.3,135.4,73.8,134.2,74L134.2,74z M135.5,71c-0.7,0.4-1.6,1-1.6,1.5c0,0.2,0.2,0.5,0.5,0.7
					c0.7-0.2,1.2-0.4,1.3-0.8C135.9,72,135.8,71.6,135.5,71z"/>
			</g>
			<g>
				<path fill="#22F4BB" d="M163.9,106.9l-0.2-0.3c-0.6-0.9-0.8-1.7-0.5-2.3c0.3-0.7,1-1.1,2.1-1.3h0.2l0.1,0.1
					c0.6,0.4,0.9,0.8,1,1.3c0,0.4-0.1,0.8-0.5,1.1l0,0c-0.6,0.6-1.3,1.1-1.9,1.3L163.9,106.9z M165.4,103.7
					c-0.6,0.1-1.2,0.4-1.4,0.8s0,0.9,0.3,1.3c0.4-0.2,0.9-0.6,1.4-1l0,0c0.2-0.2,0.3-0.4,0.3-0.5C165.8,104.2,165.7,104,165.4,103.7
					z"/>
			</g>
			<g>
				<path fill="#22F4BB" d="M135.2,83.7c-0.5,0-1-0.1-1.5-0.3l-0.5-0.2l0.4-0.4c1-1.1,3-1,4.9-0.8l1.3,0.1l-1.1,0.6
					C137.4,83.4,136.3,83.7,135.2,83.7z M134.8,82.9c0.7,0.1,1.4,0,2-0.2C136.1,82.6,135.4,82.7,134.8,82.9z"/>
			</g>
			<g>
				<path fill="#22F4BB" d="M143.7,98c-0.5,0-1-0.1-1.5-0.3l-0.6-0.2l0.5-0.4c1.1-1.1,3.1-1,4.9-0.8l1.3,0.1l-1.1,0.6
					C146.2,97.5,145,98,143.7,98z M143.3,97.2c0.7,0.1,1.3-0.1,1.9-0.2C144.6,97,143.9,97,143.3,97.2z"/>
			</g>
			<g>
				<path fill="#22F4BB" d="M135.3,97.2c-0.9,0-1.7-0.1-2.3-0.5c-0.9-0.5-1.7-1.4-1.9-2.1L131,94l0.6,0.1c2.5,0.3,4,0.8,4.5,1.6
					c0.2,0.3,0.3,0.7,0.2,1.1l-0.1,0.3h-0.3C135.8,97.1,135.6,97.2,135.3,97.2z M132.3,95c0.3,0.4,0.7,0.8,1.2,1
					c0.5,0.3,1.2,0.4,2.2,0.4c0-0.1-0.1-0.1-0.1-0.2C135.3,95.9,134.6,95.3,132.3,95z"/>
			</g>
			<g>
				<path fill="#22F4BB" d="M136.4,103.3l-0.2-0.2c-0.6-0.7-0.9-1.7-0.6-2.4c0.3-0.8,1.3-1.1,2.1-1.3h0.2l0.1,0.1
					c0.7,0.4,1,0.9,1,1.5c0,0.8-0.8,1.5-2.3,2.3H136.4z M137.7,100.2c-0.8,0.2-1.3,0.5-1.4,0.8c-0.1,0.3,0,0.9,0.3,1.4
					c1.4-0.8,1.6-1.3,1.6-1.5C138.3,100.6,138,100.4,137.7,100.2z"/>
			</g>
			<g>
				<path fill="#22F4BB" d="M144.1,106c-0.8,0-1.6-0.1-2.6-0.2l-0.9-0.1l0.7-0.6c0.7-0.5,2.1-1.1,3.2-1.3c1.2-0.2,2.3,0.1,3,0.3
					l0.5,0.2l-0.3,0.4C147.1,105.5,145.9,106,144.1,106z M142.8,105.1c1.8,0.2,3.1,0,3.8-0.5c-0.7-0.2-1.3-0.2-2-0.1
					C144,104.6,143.3,104.9,142.8,105.1z"/>
			</g>
			<g>
				<path fill="#22F4BB" d="M171.5,109.5c-0.7,0-1.6-0.1-2.6-0.2l-0.9-0.1l0.7-0.6c0.7-0.5,2.1-1.1,3.2-1.3c1.2-0.2,2.3,0.1,3,0.3
					l0.5,0.2l-0.3,0.4C174.6,109.1,173.4,109.5,171.5,109.5z M170.2,108.7c1.8,0.2,3.1,0,3.8-0.5c-0.7-0.2-1.3-0.2-2-0.1
					C171.5,108.2,170.8,108.4,170.2,108.7z"/>
			</g>
			<g>
				<path fill="#22F4BB" d="M158.1,107.9h-0.7c-1.2-0.1-2.8-0.4-3.7-0.8s-1.2-1-1.1-1.8V105h0.3c2.3-0.2,4,0.6,4.9,2.4L158.1,107.9z
					 M153.4,105.6c0.1,0.3,0.2,0.5,0.7,0.7c0.6,0.3,1.7,0.6,2.6,0.7C156,106,154.9,105.6,153.4,105.6z"/>
			</g>
			<g>
				<path fill="#22F4BB" d="M185.8,111.3h-0.7c-1.2-0.1-2.8-0.4-3.7-0.8s-1.2-1-1.1-1.8v-0.3h0.3c2.3-0.2,4,0.6,4.9,2.4L185.8,111.3
					z M181.1,109.1c0.1,0.3,0.2,0.5,0.7,0.7c0.6,0.3,1.7,0.6,2.6,0.7C183.7,109.5,182.5,109,181.1,109.1z"/>
			</g>
			<g>
				<path fill="#22F4BB" d="M135.7,91.6c-0.8,0-1.6-0.1-2.6-0.2l-0.9-0.1l0.7-0.6c0.7-0.5,2.1-1.1,3.2-1.3c1.2-0.2,2.3,0.1,3,0.3
					l0.5,0.2l-0.3,0.4C138.6,91.2,137.5,91.6,135.7,91.6z M134.3,90.8c1.8,0.2,3.1,0,3.8-0.5c-0.7-0.2-1.3-0.2-2-0.1
					C135.6,90.3,134.9,90.5,134.3,90.8z"/>
			</g>
			<g>
				<path fill="#22F4BB" d="M160.1,68.2l-0.8-0.1c-2-0.3-4-0.8-3.9-2.2v-0.4h0.4c2.3-0.1,3.3,1.1,3.9,1.9L160.1,68.2z M156.3,66.4
					c0.3,0.3,1,0.6,2,0.8C157.9,66.7,157.3,66.4,156.3,66.4z"/>
			</g>
			<g>
				<path fill="#22F4BB" d="M153.5,63.2l-0.1-0.1c-0.7-0.4-1-0.9-1-1.4c0-1,1.2-1.7,2.3-2.4l0.3-0.2l0.2,0.3
					c0.4,0.6,0.9,1.5,0.5,2.3c-0.3,0.7-1,1.1-2.1,1.4L153.5,63.2z M154.8,60.2c-0.6,0.4-1.6,1-1.6,1.5c0,0.2,0.2,0.5,0.5,0.6
					c0.8-0.2,1.2-0.5,1.4-0.9C155.2,61.2,155.1,60.7,154.8,60.2z"/>
			</g>
			<g>
				<path fill="#22F4BB" d="M171.5,115.4c-3.2,0-4.3-1.8-4.7-2.5l-0.7-1.3l1.9,0.2c1.7,0.2,5.2,0.7,5,2.9l-0.1,0.6l-0.9,0.1
					C171.9,115.3,171.7,115.4,171.5,115.4z M167.5,112.5c0.5,0.8,1.5,2.2,4.5,2h0.2c0-1.4-3-1.8-4.4-2H167.5z"/>
			</g>
			<g>
				<path fill="#22F4BB" d="M159.5,117.2l-0.5-0.3c-0.7-0.5-1-1-1-1.6c0.1-1.1,1.5-1.9,2.3-2.4l1.1-0.6l0.5,0.9
					c0.3,0.5,0.8,1.4,0.4,2.3c-0.3,0.7-1,1.4-2.2,1.4l0,0L159.5,117.2z M161.2,113.4l-0.4,0.2c-0.6,0.4-1.9,1.1-1.9,1.8
					c0,0.3,0.2,0.6,0.7,0.9l0.2,0.1l0.3-0.1c0.9-0.2,1.5-0.6,1.7-1.1c0.2-0.6-0.1-1.2-0.4-1.7L161.2,113.4z"/>
			</g>
			<g>
				<path fill="#22F4BB" d="M187.1,121l-0.5-0.4c-0.7-0.5-1-1-1-1.6c0.1-1.1,1.5-1.9,2.3-2.4l1.1-0.6l0.5,0.9
					c0.3,0.5,0.8,1.5,0.4,2.4c-0.3,0.7-1,1.5-2.2,1.5l0,0L187.1,121z M188.8,117.1l-0.4,0.2c-0.6,0.4-1.9,1.1-1.9,1.8
					c0,0.3,0.2,0.6,0.7,0.9l0.2,0.1l0.3-0.1c0.9-0.2,1.5-0.6,1.7-1.1c0.2-0.6-0.1-1.2-0.4-1.7L188.8,117.1z"/>
			</g>
			<g>
				<path fill="#22F4BB" d="M152.3,112.8c-0.7,0-1.5-0.1-2.3-0.4l-1-0.3l0.6-0.7c1.4-1.8,4.9-1.4,6.5-1.2l2.3,0.3l-1.8,1
					C155.7,112,154.2,112.8,152.3,112.8z M150.3,111.7c2.4,0.8,4.5-0.1,5.6-0.7C154.5,110.8,151.6,110.5,150.3,111.7z"/>
			</g>
			<g>
				<path fill="#22F4BB" d="M143.9,111.7c-3.2,0-4.3-1.8-4.7-2.5l-0.7-1.3l1.9,0.2c1.7,0.2,5.2,0.7,5,2.9l0,0v0.3v0.3l-0.9,0.1
					C144.3,111.7,144.1,111.7,143.9,111.7z M140,108.9c0.5,0.8,1.5,2.2,4.5,2h0.2c0-1.4-3-1.8-4.4-2H140z"/>
			</g>
			<g>
				<path fill="#22F4BB" d="M179.8,116.4c-0.7,0-1.5-0.1-2.3-0.4l-1-0.3l0.6-0.7c1.4-1.8,4.9-1.4,6.5-1.2l2.3,0.3l-1.8,1
					C183.2,115.6,181.7,116.4,179.8,116.4z M177.8,115.3c2.4,0.8,4.5-0.1,5.6-0.7C181.9,114.4,179.1,114.1,177.8,115.3z"/>
			</g>
			<g>
				<path fill="#22F4BB" d="M131.9,113.5l-0.5-0.2c-0.7-0.5-1-1-1-1.5c0.1-1.1,1.5-1.9,2.3-2.4l1.1-0.6l0.5,0.9
					c0.3,0.5,0.8,1.3,0.4,2.2c-0.3,0.7-1,1.3-2.2,1.3l0,0L131.9,113.5z M133.6,109.8l-0.4,0.2c-0.6,0.4-1.9,1.1-1.9,1.8
					c0,0.3,0.2,0.6,0.7,0.9l0.2,0.1l0.3-0.1c0.9-0.2,1.5-0.6,1.7-1.1c0.2-0.6-0.1-1.2-0.4-1.7L133.6,109.8z"/>
			</g>
			<g>
				<path fill="#22F4BB" d="M124.7,109.2c-0.7,0-1.5-0.1-2.3-0.4l-1-0.3l0.6-0.7c1.4-1.8,4.9-1.4,6.5-1.2l2.3,0.3l-1.8,1
					C128.2,108.3,126.6,109.2,124.7,109.2z M122.8,108c2.4,0.8,4.5-0.1,5.6-0.7C126.9,107.1,124,106.8,122.8,108z"/>
			</g>
			<g>
				<path fill="#22F4BB" d="M131.4,104.7l-1.9-0.2c-1.7-0.2-5.2-0.7-5-2.9l0.1-0.6l0.9-0.1c3.5-0.2,4.7,1.7,5.2,2.5L131.4,104.7z
					 M125.3,101.8c0,1.4,3,1.8,4.4,2h0.3c-0.5-0.8-1.5-2.2-4.5-2H125.3z"/>
			</g>
			<g>
				<g>
					<path fill="#22F4BB" d="M123.5,99.2L123,99c-0.7-0.5-1-1-1-1.5c0.1-1.1,1.5-1.9,2.3-2.4l1.1-0.6l0.5,0.9
						c0.3,0.5,0.8,1.3,0.4,2.2c-0.3,0.7-1,1.3-2.2,1.3l0,0L123.5,99.2z M125.2,95.5l-0.4,0.2c-0.6,0.4-1.9,1.1-1.9,1.8
						c0,0.3,0.2,0.6,0.7,0.9l0.2,0.1l0.3-0.1c0.9-0.2,1.5-0.6,1.7-1.1c0.2-0.6-0.1-1.2-0.4-1.7L125.2,95.5z"/>
				</g>
				<g>
					<path fill="#22F4BB" d="M116.3,94.8c-0.7,0-1.5-0.1-2.3-0.4l-1-0.3l0.6-0.7c1.4-1.8,4.9-1.4,6.5-1.2l2.3,0.3l-1.8,1
						C119.7,94,118.2,94.8,116.3,94.8z M114.3,93.7c2.4,0.8,4.5-0.1,5.6-0.7C118.5,92.8,115.6,92.5,114.3,93.7z"/>
				</g>
				<g>
					<path fill="#22F4BB" d="M123,90.4l-1.9-0.2c-1.7-0.2-5.2-0.7-5-2.9l0.1-0.6l0.9-0.1c3.6-0.2,4.7,1.7,5.2,2.5L123,90.4z
						 M116.9,87.5c0,1.4,3,1.8,4.4,2h0.3c-0.5-0.8-1.5-2.2-4.5-2H116.9z"/>
				</g>
			</g>
			<g>
				<path fill="#22F4BB" d="M115.1,85.5l-0.5-0.6c-0.7-0.5-1-1.1-1-1.7c0.1-1.1,1.5-2,2.3-2.5l1.1-0.6l0.5,0.9
					c0.3,0.5,0.8,1.9,0.4,2.8c-0.3,0.7-1,0.7-2.2,2l0,0L115.1,85.5z M116.8,81.2l-0.4,0.2c-0.6,0.4-1.9,1.1-1.9,1.8
					c0,0.3,0.2,0.6,0.7,0.9l0.2,0.1l0.3-0.1c0.9-0.2,1.5-0.6,1.7-1.1c0.2-0.6-0.1-1.2-0.4-1.7L116.8,81.2z"/>
			</g>
			<g>
				<g>
					<path fill="#22F4BB" d="M107.8,80.5c-0.7,0-1.5-0.1-2.3-0.4l-1-0.3l0.6-0.7c1.4-1.8,4.9-1.4,6.5-1.2l2.3,0.3l-1.8,1
						C111.3,79.7,109.8,80.5,107.8,80.5z M105.9,79.4c2.4,0.8,4.5-0.1,5.6-0.7C110,78.5,107.2,78.2,105.9,79.4z"/>
				</g>
				<g>
					<path fill="#22F4BB" d="M114.6,76.1l-1.9-0.2c-1.7-0.2-5.2-0.7-5-2.9l0.1-0.6l0.9-0.1c3.6-0.2,4.7,1.7,5.2,2.5L114.6,76.1z
						 M108.5,73.2c0,1.4,3,1.8,4.4,2h0.3c-0.5-0.8-1.5-2.2-4.5-2H108.5z"/>
				</g>
				<g>
					<path fill="#22F4BB" d="M119.2,75.3l-0.5-0.9c-0.3-0.5-0.8-1.6-0.4-2.5c0.3-0.7,1-0.3,2.2-1.6l0,0l0.7-0.1l0.5,0.4
						c0.7,0.5,1,1,1,1.6c-0.1,1.1-1.5,2-2.3,2.4L119.2,75.3z M120.7,71.2c-0.9,0.2-1.5,0.6-1.7,1.1c-0.2,0.6,0.1,1.2,0.4,1.7
						l0.1,0.2l0.4-0.2c0.6-0.4,1.9-1.1,1.9-1.8c0-0.3-0.2-0.6-0.7-0.9l-0.2-0.1L120.7,71.2z"/>
				</g>
			</g>
			<g>
				<g>
					<path fill="#22F4BB" d="M146.2,59.1c-0.7,0-1.5-0.1-2.3-0.4l-0.5-0.2l-0.5-0.2l0.6-0.7c1.4-1.8,4.9-1.4,6.5-1.2l2.3,0.3l-1.8,1
						C149.7,58.2,148.1,59.1,146.2,59.1z M144.2,58c2.4,0.8,4.5-0.1,5.6-0.7C148.4,57,145.5,56.7,144.2,58z"/>
				</g>
				<g>
					<path fill="#22F4BB" d="M152.9,54.6l-1.9-0.2c-1.7-0.2-5.2-0.7-5-2.9l0.1-0.6l0.9-0.1c3.6-0.2,4.7,1.7,5.2,2.5L152.9,54.6z
						 M146.8,51.7c0,1.4,3,1.8,4.4,2h0.3c-0.5-0.8-1.5-2.2-4.5-2H146.8z"/>
				</g>
			</g>
			<g>
				<path fill="#22F4BB" d="M127.3,69.7c-0.7,0-1.5-0.1-2.3-0.4l-0.5-0.2l-0.5-0.2l0.6-0.7c1.4-1.8,4.9-1.4,6.5-1.2l2.3,0.3l-1.8,1
					C130.8,68.9,129.3,69.7,127.3,69.7z M125.4,68.6c2.4,0.8,4.5-0.1,5.6-0.7C129.5,67.7,126.6,67.4,125.4,68.6z"/>
			</g>
			<g>
				<path fill="#22F4BB" d="M134.1,65.3l-1.9-0.2c-1.7-0.2-5.2-0.7-5-2.9l0.1-0.6l0.9-0.1c3.6-0.2,4.7,1.7,5.2,2.5L134.1,65.3z
					 M127.9,62.3c0,1.4,3,1.8,4.4,2h0.3c-0.5-0.8-1.5-2.2-4.5-2L127.9,62.3z"/>
			</g>
			<g>
				<path fill="#22F4BB" d="M138.4,64.5l-0.5-0.9c-0.3-0.5-0.8-1.4-0.4-2.3c0.3-0.7,1-1.4,2.2-1.4l0,0l0.7-0.2l0.5,0.3
					c0.7,0.5,1,1,1,1.6c-0.1,1.1-1.5,1.9-2.3,2.4L138.4,64.5z M139.9,60.5c-0.9,0.2-1.5,0.6-1.7,1.1c-0.2,0.6,0.1,1.2,0.4,1.7
					l0.1,0.2l0.4-0.2c0.6-0.4,1.9-1.1,1.9-1.8c0-0.3-0.2-0.6-0.7-0.9l-0.2-0.1H139.9z"/>
			</g>
		</g>
	</g>
</g>
</svg>
