<svg xmlns="http://www.w3.org/2000/svg" width="150" height="150">
  <style>
    .st0{fill:#2D3441;} .st1{fill:#22F4BB;}
  </style>
  <g id="Layer_1">
    <path d="M75 113.3c11.2-4.7 20.9-13 27.9-24.1 7.3-11.4 11.1-24.9 11.1-39 0-2.6-.1-5.3-.4-7.9H111c-12.9 0-25.4-1.8-36-5.3-10.6 3.4-23.1 5.3-36 5.3h-2.6c-.3 2.6-.4 5.3-.4 7.9 0 14.1 3.8 27.6 11.1 39 7 11 16.7 19.3 27.9 24.1z" class="st0"/>
    <path d="M119.5 41.1c-.3-2.8-2.6-4.8-5.4-4.8H111c-12.8 0-24.6-1.9-34.3-5-.5-.2-1.1-.3-1.7-.3-.6 0-1.2.1-1.7.3-9.7 3.2-21.5 5-34.3 5h-3.1c-2.8 0-5.1 2.1-5.4 4.8-.3 3-.5 6-.5 9.1 0 31.5 17.8 58.3 42.9 68.7.7.3 1.4.4 2.1.4s1.5-.1 2.1-.4c25-10.4 42.9-37.2 42.9-68.7 0-3.1-.2-6.1-.5-9.1zM36 50.2c0-2.6.1-5.3.4-7.9H39c12.9 0 25.4-1.8 36-5.3 10.6 3.4 23.1 5.3 36 5.3h2.6c.3 2.6.4 5.3.4 7.9 0 14.1-3.8 27.6-11.1 39-7 11-16.6 19.3-27.9 24.1-11.2-4.7-20.9-13-27.9-24.1C39.8 77.8 36 64.3 36 50.2z" class="st1"/>
    <path d="M53.8 68.1l.2.8h.1l.2-.7L58.6 52H64l-7.2 22.2h-5.6L44.1 52h5.4l4.3 16.1zm17.1-1.5v7.6h-5.1V52h8.5c2.6 0 4.7.7 6.3 2 1.5 1.3 2.3 3.1 2.3 5.3s-.8 3.9-2.3 5.3-3.6 2-6.3 2h-3.4zm0-4h3.3c1.1 0 2-.3 2.6-.9.6-.6.9-1.4.9-2.4s-.3-1.8-.9-2.4c-.6-.6-1.4-.9-2.6-.9h-3.3v6.6zm33.2 11.6H99l-8.1-13.9h-.1v13.9h-5.1V52h5.1l8.1 13.9h.1V52h5.1v22.2zM79.5 91.8l3.7-3.7c1.2-1.2 1.2-3.1 0-4.2-1.2-1.2-3.1-1.2-4.2 0l-3.7 3.7-3.7-3.7c-1.2-1.2-3.1-1.2-4.2 0-1.2 1.2-1.2 3.1 0 4.2l3.7 3.7-3.7 3.7c-1.2 1.2-1.2 3.1 0 4.2.6.6 1.4.9 2.1.9s1.5-.3 2.1-.9l3.7-3.7 3.7 3.7c.6.6 1.4.9 2.1.9s1.5-.3 2.1-.9c1.2-1.2 1.2-3.1 0-4.2l-3.7-3.7z" class="st1"/>
  </g>
</svg>
