<svg xmlns="http://www.w3.org/2000/svg" id="Layer_1" width="150" height="150">
  <style>
    .st0{fill:#22F4BB;} .st1{fill:#2D3341;}
  </style>
  <path d="M111 36.3c-12.8 0-24.6-1.9-34.3-5-1.1-.4-2.3-.4-3.4 0-9.7 3.2-21.5 5-34.3 5h-3c-2.8-.1-5.2 2-5.5 4.8-.3 3-.5 6-.5 9.1 0 31.5 17.8 58.3 42.9 68.7 1.4.6 2.9.6 4.3 0 25-10.4 42.9-37.2 42.9-68.7 0-3.1-.2-6.1-.5-9.1-.3-2.8-2.7-4.9-5.5-4.8H111z" class="st0"/>
  <path d="M73.2 101H73c-.9 0-1.7-.4-2.3-1.1l-6.6-7.4c-1.2-1.4-1.1-3.4.3-4.7 1.4-1.2 3.4-1.1 4.7.3l4.4 4.9 10.1-9c1.4-1.2 3.4-1.1 4.7.3 1.2 1.4 1.1 3.4-.3 4.7l-12.6 11.3c-.6.4-1.4.7-2.2.7zM53.6 68.1l.2.8h.1l.2-.7L58.4 52h5.4l-7.2 22.2H51L43.9 52h5.4l4.3 16.1zm17.1-1.5v7.6h-5.1V52h8.5c2.6 0 4.7.7 6.3 2 1.5 1.3 2.3 3.1 2.3 5.3s-.8 3.9-2.3 5.3-3.6 2-6.3 2h-3.4zm0-4H74c1.1 0 2-.3 2.6-.9.6-.6.9-1.4.9-2.4s-.3-1.8-.9-2.4c-.6-.6-1.4-.9-2.5-.9h-3.3v6.6zm33.2 11.6h-5.1l-8.1-13.9h-.1v13.9h-5.1V52h5.1l8.1 13.9h.1V52h5.1v22.2z" class="st1"/>
</svg>
