<?xml version="1.0" encoding="utf-8"?>
<!-- Generator: Adobe Illustrator 19.1.0, SVG Export Plug-In . SVG Version: 6.00 Build 0)  -->
<svg version="1.1" id="Layer_1" xmlns="http://www.w3.org/2000/svg" xmlns:xlink="http://www.w3.org/1999/xlink" x="0px" y="0px"
	 viewBox="-283 387 64.8 20" style="enable-background:new -283 387 64.8 20;" xml:space="preserve">
<style type="text/css">
	.st0{fill:#FFFFFF;}
</style>
<g>
	<path class="st0" d="M-272.6,399.7h-4.3c-0.1,0-0.1,0.1-0.1,0.1v1.5c0,0.1,0.1,0.1,0.1,0.1h2.2v2.6c-0.4,0.1-1,0.2-1.6,0.2
		c-2.5,0-4.1-1.5-4.1-4c0-2.5,1.7-4,4.3-4c1.2,0,1.9,0.2,2.4,0.4l0.2,0.1c0,0,0.1,0,0.1,0c0,0,0.1,0,0.1-0.1l0.5-1.5
		c0-0.1,0-0.1-0.1-0.1l-0.2-0.1c-0.6-0.3-1.7-0.5-3-0.5c-3.9,0-6.6,2.4-6.6,5.9c0,1.7,0.6,3.3,1.7,4.2c1.1,1,2.6,1.5,4.6,1.5
		c1.5,0,2.8-0.3,3.7-0.6l0.2-0.1c0,0,0.1-0.1,0.1-0.1v-5.5C-272.4,399.7-272.5,399.7-272.6,399.7z"/>
	<path class="st0" d="M-261.4,404.2h-4.8v-9.4c0-0.1-0.1-0.1-0.1-0.1h-2c-0.1,0-0.1,0.1-0.1,0.1v11.2c0,0.1,0.1,0.1,0.1,0.1h6.9
		c0.1,0,0.1-0.1,0.1-0.1v-1.6C-261.3,404.2-261.3,404.2-261.4,404.2z"/>
	<path class="st0" d="M-250,393.6c-0.7,0-1.2,0.5-1.2,1.2c0,0.7,0.5,1.2,1.1,1.2c0.4,0,0.7-0.1,0.9-0.4c0.2-0.2,0.3-0.5,0.3-0.8
		C-248.8,394.1-249.3,393.6-250,393.6z"/>
	<path class="st0" d="M-249,397.6h-2c-0.1,0-0.1,0.1-0.1,0.1v8.1c0,0.1,0.1,0.1,0.1,0.1h2c0.1,0,0.1-0.1,0.1-0.1v-8.1
		C-248.9,397.7-248.9,397.6-249,397.6z"/>
	<path class="st0" d="M-236.5,394.6h-1.9c-0.1,0-0.1,0.1-0.1,0.1v4.7c0,0.9,0,1.9,0.1,2.9c-0.4-0.7-0.9-1.4-1.4-2.2l-3.8-5.5
		c0,0-0.1,0-0.1,0h-2c-0.1,0-0.1,0.1-0.1,0.1v11.2c0,0.1,0.1,0.1,0.1,0.1h1.9c0.1,0,0.1-0.1,0.1-0.1v-4.8c0-1.2,0-2.2-0.1-3.1
		c0.4,0.7,0.9,1.5,1.5,2.4l3.7,5.5c0,0,0.1,0.1,0.1,0.1h1.9c0.1,0,0.1-0.1,0.1-0.1v-11.2C-236.3,394.6-236.4,394.6-236.5,394.6z"/>
	<path class="st0" d="M-229.5,397.4c-2.5,0-4.2,1.8-4.2,4.5c0,2.6,1.7,4.2,4.4,4.2c1.4,0,2.4-0.3,2.9-0.5l0.2-0.1
		c0.1,0,0.1-0.1,0.1-0.1l-0.4-1.4c0,0,0-0.1-0.1-0.1c0,0-0.1,0-0.1,0l-0.3,0.1c-0.5,0.2-1.1,0.4-2.2,0.4c-0.7,0-2.3-0.2-2.5-2h5.7
		c0.1,0,0.1,0,0.1-0.1l0-0.3c0-0.1,0-0.4,0-0.6C-225.8,399.6-226.8,397.4-229.5,397.4z M-231.6,400.7c0.1-0.5,0.6-1.6,1.9-1.6
		c0.5,0,0.9,0.1,1.2,0.4c0.4,0.4,0.5,0.9,0.5,1.2H-231.6z"/>
	<path class="st0" d="M-218.7,397.6h-2v-2.2c0,0,0-0.1,0-0.1c0,0-0.1,0-0.1,0l-1.9,0.5c-0.1,0-0.1,0.1-0.1,0.1v1.7h-1.2
		c-0.1,0-0.1,0.1-0.1,0.1v1.5c0,0.1,0.1,0.1,0.1,0.1h1.2v3.9c0,1.1,0.2,1.8,0.7,2.2c0.4,0.5,1.1,0.7,1.9,0.7c0.6,0,1.1-0.1,1.5-0.2
		l0.2-0.1c0,0,0.1-0.1,0.1-0.1l-0.1-1.5c0,0,0-0.1,0-0.1c0,0-0.1,0-0.1,0l-0.3,0.1c-0.2,0-0.4,0.1-0.8,0.1c-0.4,0-0.8-0.1-0.8-1.2
		v-3.8h2c0.1,0,0.1-0.1,0.1-0.1v-1.5C-218.6,397.7-218.7,397.6-218.7,397.6z"/>
	<circle class="st0" cx="-256.9" cy="400.4" r="1.2"/>
	<path class="st0" d="M-245,389.7c0.1-0.1,0.1-0.4-0.1-0.5l-0.2-0.1c-1.4-0.8-3-1.3-4.7-1.3c-1.6,0-3.3,0.4-4.7,1.3l-0.2,0.1
		c-0.2,0.1-0.2,0.3-0.1,0.5l0.7,0.7c0.1,0.1,0.3,0.1,0.4,0c1.2-0.7,2.5-1,3.9-1c1.4,0,2.7,0.4,3.9,1l0,0c0.1,0.1,0.3,0.1,0.4,0
		L-245,389.7z"/>
	<path class="st0" d="M-247.1,391.3c-0.9-0.5-1.9-0.7-2.9-0.7c-1,0-2,0.3-2.9,0.7c-0.1,0-0.1,0.1-0.1,0.2c0,0.1,0,0.1,0.1,0.2
		l0.7,0.7c0.1,0.1,0.2,0.1,0.4,0.1c0.6-0.3,1.2-0.4,1.9-0.4c0.6,0,1.3,0.1,1.9,0.4c0.1,0.1,0.3,0,0.4-0.1l0.7-0.7
		c0.1-0.1,0.1-0.1,0.1-0.2l0,0C-247,391.4-247,391.4-247.1,391.3z"/>
</g>
</svg>
