<?xml version="1.0" encoding="utf-8"?>
<!-- Generator: Adobe Illustrator 19.1.0, SVG Export Plug-In . SVG Version: 6.00 Build 0)  -->
<svg version="1.2" baseProfile="tiny" id="Layer_1" xmlns="http://www.w3.org/2000/svg" xmlns:xlink="http://www.w3.org/1999/xlink"
	 x="0px" y="0px" viewBox="0 0 44 20" xml:space="preserve">
<g>
	<polygon fill="#FFFFFF" points="20,0 10,0 5,5 15,5 	"/>
	<polygon fill="#FFFFFF" points="38.6,20 43.6,20 43.6,3.2 38.6,8.2 	"/>
	<polygon fill="#FFFFFF" points="26.8,0 21.8,0 21.8,20 26.8,20 31.8,20 36.8,15 26.8,15 	"/>
	<polygon fill="#FFFFFF" points="38.6,0 38.6,5 43.6,0 	"/>
	<polygon fill="#FFFFFF" points="15,10 10.4,10 10.4,10.8 15,10.8 15,15 5,15 5,5 0,10 0,20 15,20 20,15 20,10 20,10 	"/>
</g>
</svg>
