<?xml version="1.0" encoding="utf-8"?>
<!-- Generator: Adobe Illustrator 22.0.1, SVG Export Plug-In . SVG Version: 6.00 Build 0)  -->
<svg version="1.1" id="Layer_1" xmlns="http://www.w3.org/2000/svg" xmlns:xlink="http://www.w3.org/1999/xlink" x="0px" y="0px"
	 viewBox="0 0 366 255.1" style="enable-background:new 0 0 366 255.1;" xml:space="preserve">
<style type="text/css">
	.st0{fill:#22F4BB;}
</style>
<path class="st0" d="M143.8,222.9c-9.4,0.2-18.6-2.2-26.5-7l-72.5-45.1c-3.6-2.2-9-5.5-9.1-14.2l-0.9-47.1
	c-0.1-7.7,5.5-15,13.5-17.3L199.5,37c20.8-7.2,29.7-7.1,57.2,6.9L323.5,79c2.7,1.7,6.8,4.4,6.9,11.6l0.9,48.2
	c0.1,7.5-2.5,9.2-5.4,10.3c-0.2,0.1-0.4,0.2-0.6,0.3L165,218.1C158.1,221.2,150.9,222.7,143.8,222.9 M220.7,34.9
	c-6.2,0.1-12.3,1.8-20.4,4.6L49.1,94.7c-6.9,2.1-11.8,8.2-11.7,14.7l0.9,47.1c0.1,7.2,4.4,9.8,7.8,11.9l72.6,45.1
	c13.1,8,30,8.8,45.2,2.1l160.3-68.8c0.2-0.1,0.5-0.2,0.7-0.3c2-0.8,3.9-1.5,3.7-7.8l-0.9-48.2c-0.1-5.8-3.1-7.7-5.7-9.4h-0.1
	l-66.5-35C239.3,38,229.9,34.7,220.7,34.9"/>
<g>
	<path class="st0" d="M178.7,148.6l-21.8,9.3c-5.3,2.3-19.1,6.9-32.1-0.8l-84.3-50.4c-1.8-1.3-2.8-2.4-2.7-4.2h-0.3
		c-0.2,2,1,3.2,2.8,4.6l84.3,50.4c5.7,3.4,11.6,4.4,16.8,4.3c6.8-0.1,12.5-2.2,15.6-3.5l22-9.3C179,148.8,178.8,148.7,178.7,148.6z"
		/>
	<path class="st0" d="M178.9,148.4c0.1,0.1,0.3,0.3,0.3,0.7l0.1,0.3l-22.1,9.4c-5.5,2.3-10.7,3.5-15.8,3.5c-0.2,0-0.5,0-0.7,0
		c-6,0-11.5-1.5-16.4-4.4L40,107.5c-1.8-1.4-3.3-2.7-3-5.1l0-0.5h1.3l0,0.5c-0.1,1.6,0.8,2.5,2.5,3.8l84.3,50.4
		c12.8,7.6,26.4,3.1,31.6,0.8l21.9-9.3L178.9,148.4L178.9,148.4z"/>
</g>
<polygon class="st0" points="86.3,178.4 85.3,178.2 84.7,148.7 85.7,148.7 "/>
<path class="st0" d="M54.3,136.9c-0.2,0-0.5-0.1-0.8-0.2l-10-5.9c-0.9-0.5-1.5-2-1.4-3.3v-1.7c0.1-1.2,0.5-2,1.3-2.4s2-0.2,3.4,0.6
	l4.3,2.6c1.7,1,4.9,3.8,4.6,6.9v1.7c-0.1,0.8-0.4,1.4-0.9,1.6C54.6,136.9,54.4,136.9,54.3,136.9 M44.4,123.9c-0.2,0-0.4,0.1-0.6,0.1
	c-0.5,0.3-0.8,0.9-0.9,1.8v1.7c-0.1,1,0.4,2.2,1.1,2.6l10,5.9c0.2,0.1,0.4,0.2,0.6,0.1c0.3-0.1,0.5-0.5,0.5-1v-1.7
	c0.2-2.6-2.4-5.2-4.2-6.3l-4.3-2.6C45.7,124.2,44.9,123.9,44.4,123.9"/>
<path class="st0" d="M229.5,147.4c0,0.9-0.5,1.7-1.2,1.7s-1.3-0.7-1.3-1.7c0-0.9,0.5-1.7,1.2-1.7S229.5,146.5,229.5,147.4"/>
<path class="st0" d="M76,111.2c-2.2,0-4.8-0.6-8.2-2.2l-10.3-5.6c-2.2-1-3.4-2.3-3.3-3.6c0-1.3,1.2-2.4,3.1-3.1L212.8,39
	c4-1.5,10.5-1.1,14.6,0.7l11.8,5.3c2.2,1,3.4,2.3,3.4,3.7c0,1.3-1.2,2.4-3.1,3.1L82.3,109.7C80.4,110.5,78.4,111.2,76,111.2z
	 M218.9,39c-2.1,0-4.1,0.3-5.7,0.9L57.7,97.6c-1.5,0.6-2.4,1.4-2.5,2.2c0,0.9,1,1.9,2.8,2.7l10.3,5.6c6.8,3.2,10,2.1,13.7,0.7h0.1
	l157-58c1.5-0.6,2.4-1.4,2.5-2.2c0-0.9-1-1.9-2.8-2.7L227,40.5C224.8,39.5,221.8,39,218.9,39z"/>
<path class="st0" d="M65.2,99.3c-0.4,0.2-1.1,0.2-1.5-0.1c-0.4-0.2-0.4-0.5,0-0.7s1.1-0.2,1.5,0.1C65.6,98.8,65.6,99.1,65.2,99.3"/>
<path class="st0" d="M69.6,101.6c-0.4,0.2-1.1,0.2-1.5-0.1c-0.4-0.2-0.4-0.5,0-0.7s1.1-0.2,1.5,0.1C70,101.1,70,101.4,69.6,101.6"/>
<path class="st0" d="M74,103.8c-0.4,0.2-1.1,0.2-1.5-0.1c-0.4-0.2-0.4-0.5,0-0.7s1.1-0.2,1.5,0.1C74.4,103.3,74.4,103.7,74,103.8"/>
<path class="st0" d="M78.4,106.1c-0.4,0.2-1.1,0.2-1.5-0.1c-0.4-0.2-0.4-0.5,0-0.7s1.1-0.2,1.5,0.1
	C78.8,105.6,78.8,105.9,78.4,106.1"/>
<polygon class="st0" points="184.3,60.2 183.4,60.6 178.2,58.3 179.2,57.9 "/>
<polygon class="st0" points="182.6,60.8 181.7,61.2 177.5,59.3 178.5,59 "/>
<polygon class="st0" points="180.9,61.5 180,61.8 176.8,60.4 177.7,60 "/>
<polygon class="st0" points="179.2,62.1 178.3,62.4 176,61.4 177,61.1 "/>
<path class="st0" d="M157,70l2.2,0.1v-0.9c-0.6,0-1.1,0-1.5,0.2C157.2,69.6,157,69.8,157,70"/>
<polygon class="st0" points="159.2,69.2 159.2,69.2 159.2,70.1 "/>
<path class="st0" d="M157,70l2.2,0.1L157,70z"/>
<path class="st0" d="M154.4,69.9l1.3,0.1c0-0.4,0.4-0.7,1-1c0.7-0.2,1.5-0.4,2.5-0.3v-0.5c-1.3-0.1-2.5,0.1-3.4,0.4
	C154.8,68.9,154.3,69.4,154.4,69.9"/>
<path class="st0" d="M151.9,69.8l1.3,0.1c0-0.6,0.6-1.2,1.8-1.7c1.2-0.4,2.7-0.6,4.2-0.5v-0.5c-1.9-0.1-3.8,0.1-5.2,0.6
	C152.5,68.2,151.8,69,151.9,69.8"/>
<polygon class="st0" points="135.8,77.8 133.7,77.5 132.6,77.9 132.2,77.8 133,77.5 130.6,76.4 128.5,77.2 130.8,78.3 131.6,78 
	132,78.2 130.9,78.6 131.4,79.5 130.7,79.7 133,80.8 135.2,80 132.8,78.9 132.2,79.1 132,78.8 134.2,78 135,78.1 134.4,78.3 
	136.8,79.4 138.9,78.6 136.6,77.6 "/>
<polygon class="st0" points="83.5,96.1 82.6,96.4 78.5,94.5 79.4,94.2 "/>
<path class="st0" d="M82.5,93.9c-0.2,0-0.4,0-0.6,0l0.2,0.5c1.1,0,2.3,0.2,3.2,0.6c1.5,0.7,1.6,1.7,0.1,2.2s-3.9,0.4-5.4-0.3
	c-0.9-0.4-1.3-0.9-1.2-1.3l-1.3-0.1c0,0.1,0,0.1,0,0.2c0,0.6,0.6,1.1,1.6,1.6c1,0.4,2.3,0.7,3.7,0.8c1.4,0.1,2.6-0.1,3.6-0.4
	c2-0.7,1.9-2.1-0.1-3C85.2,94.3,83.9,94,82.5,93.9"/>
<path class="st0" d="M104.9,84.6c-1.9,0.7-1.8,2,0.1,2.9c2,0.9,5.1,1,7,0.3s1.8-2-0.1-2.9C109.9,84.1,106.8,83.9,104.9,84.6
	 M109.4,84.7l-1,0.4c-0.6-0.2-1.1-0.3-1.8-0.4C107.5,84.6,108.5,84.6,109.4,84.7 M105.6,85c0.7,0.1,1.4,0.2,2.1,0.4l-1.3,0.5
	C106,85.6,105.8,85.3,105.6,85 M106.5,87.5c-0.3-0.1-0.6-0.2-0.8-0.3c-0.3-0.1-0.5-0.2-0.6-0.4l1.2-0.4c0.2,0.1,0.4,0.2,0.7,0.3
	c0.3,0.1,0.5,0.2,0.8,0.3L106.5,87.5z M107.5,87.8l1-0.4c0.6,0.2,1.1,0.3,1.8,0.4C109.4,87.9,108.4,87.9,107.5,87.8 M105.7,86.1
	l-1,0.4c-0.3-0.4-0.2-0.8,0.2-1.1C105.1,85.6,105.3,85.9,105.7,86.1 M111.3,87.5c-0.7-0.1-1.4-0.2-2.1-0.4l1.3-0.5
	C110.9,86.9,111.2,87.2,111.3,87.5 M110,86.3l-1.6,0.6c-0.3-0.1-0.5-0.2-0.8-0.3c-0.3-0.1-0.4-0.2-0.6-0.3l1.6-0.6
	c0.3,0.1,0.5,0.2,0.8,0.3C109.6,86,109.8,86.1,110,86.3 M112.1,87.1c-0.2-0.3-0.4-0.5-0.8-0.8l1-0.4
	C112.6,86.4,112.5,86.8,112.1,87.1 M110.7,86c-0.2-0.1-0.4-0.2-0.7-0.3c-0.2-0.1-0.5-0.2-0.8-0.3l1.2-0.4c0.3,0.1,0.6,0.2,0.8,0.3
	c0.3,0.1,0.5,0.2,0.6,0.4L110.7,86z"/>
<polygon class="st0" points="159.5,72.6 159.9,72.5 161.7,73.1 160.7,72.2 161.1,72 163.1,72.5 161.8,71.8 162.2,71.6 164.1,72.8 
	163.7,72.9 161.3,72.3 162.4,73.3 162.1,73.5 "/>
<polygon class="st0" points="162.9,71.4 165.1,72.4 164.7,72.5 162.5,71.5 "/>
<polygon class="st0" points="164.8,70.7 165.1,70.8 164.1,71.2 164.7,71.5 165.6,71.1 166,71.3 165,71.6 166,72 165.6,72.2 
	163.4,71.2 "/>
<polygon class="st0" points="165.5,70.4 167.7,71.4 167.3,71.5 165.1,70.5 "/>
<polygon class="st0" points="110.4,90.3 110.8,90.2 112.6,90.8 111.6,89.9 112,89.7 114,90.2 112.7,89.4 113.1,89.3 115,90.5 
	114.6,90.6 112.2,90 113.4,91 113,91.2 "/>
<polygon class="st0" points="115.9,90.1 115.5,90.3 114.1,88.9 114.6,88.8 117.7,89.4 117.3,89.6 116.4,89.4 115.7,89.7 115.5,89.5 
	115.9,89.3 114.8,89.1 "/>
<polygon class="st0" points="118,89.3 115.8,88.3 116.2,88.2 118.9,88.5 117.3,87.8 117.7,87.6 119.9,88.6 119.5,88.8 116.7,88.5 
	118.4,89.2 "/>
<path class="st0" d="M87.6,100.9l-2.2-1l1-0.4c0.4-0.2,0.9-0.1,1.3,0c0.5,0.2,0.4,0.4-0.1,0.7l-0.4-0.1c0.3-0.2,0.3-0.3,0.1-0.4
	c-0.2-0.1-0.4-0.1-0.5,0l-0.5,0.2l1.9,0.8L87.6,100.9z"/>
<path class="st0" d="M92.7,99l-2.2-1l1-0.4c0.4-0.2,0.9-0.2,1.3,0c0.3,0.1,0.3,0.3,0.2,0.5l1.6,0.2L94,98.5l-1.6-0.2l-0.2-0.1
	c0.3-0.2,0.3-0.3,0.1-0.4c-0.2-0.1-0.3-0.1-0.5,0L91.3,98l1.9,0.8L92.7,99z"/>
<polygon class="st0" points="87.5,99.1 87.9,98.9 89.7,99.6 88.7,98.6 89,98.5 91.1,99 89.8,98.2 90.2,98.1 92,99.2 91.7,99.4 
	89.3,98.8 90.4,99.8 90.1,100 "/>
<polygon class="st0" points="136,81.8 137.9,82.7 138.8,82.4 139.1,82.5 137.9,83 135.6,82 "/>
<polygon class="st0" points="139.7,82.3 139.3,82.4 138,81.1 138.4,80.9 141.6,81.6 141.2,81.8 140.3,81.6 139.6,81.8 139.4,81.6 
	139.8,81.5 138.6,81.2 "/>
<polygon class="st0" points="141.9,81.5 139.6,80.5 140,80.4 142.8,80.7 141.2,79.9 141.5,79.8 143.8,80.8 143.4,81 140.6,80.6 
	142.2,81.4 "/>
<path class="st0" d="M179.9,64.6c0.1-0.1,0.3-0.2,0.5-0.3c0.5-0.2,1-0.2,1.4,0c0.2,0.1,0.3,0.2,0.2,0.3c0.3,0,0.5,0,0.8,0.1
	c0.4,0.2,0.4,0.4-0.2,0.6c-0.2,0.1-0.5,0.1-0.7,0.2l-0.4-0.2c0.3,0,0.5-0.1,0.7-0.2c0.3-0.1,0.3-0.2,0.1-0.3c-0.2-0.1-0.4-0.1-0.6,0
	l-0.5,0.2l-0.4-0.2l0.5-0.2c0.2-0.1,0.2-0.2,0-0.2c-0.2-0.1-0.4-0.1-0.7,0c-0.2,0.1-0.4,0.2-0.5,0.3L179.9,64.6z"/>
<path class="st0" d="M185.4,64.2c-0.1,0.1-0.3,0.2-0.5,0.3c-0.8,0.3-1.5,0.2-2.3-0.1c-0.7-0.3-0.7-0.6,0.1-0.9
	c0.2-0.1,0.5-0.1,0.7-0.2l0.4,0.2c-0.3,0-0.5,0.1-0.7,0.2c-0.5,0.2-0.5,0.4,0,0.6c0.5,0.2,1,0.3,1.5,0.1c0.1,0,0.1-0.1,0.2-0.1
	l-0.7-0.3l0.4-0.1L185.4,64.2z"/>
<polygon class="st0" points="186.2,64 185.7,64.2 184.6,62.8 185,62.6 "/>
<polygon class="st0" points="188.9,63 188.5,63.2 188,63 186.9,63.4 186.6,63.2 186,62.3 186.4,62.1 187,63.1 187.6,62.8 
	186.9,62.5 187.3,62.3 188,62.7 188.5,62.7 188.6,62.7 188.4,62.8 "/>
<path class="st0" d="M191,62.2c-0.1,0.1-0.3,0.2-0.5,0.3c-0.8,0.3-1.5,0.2-2.3-0.1c-0.7-0.3-0.7-0.6,0.1-0.9
	c0.2-0.1,0.5-0.1,0.7-0.2l0.4,0.2c-0.3,0-0.5,0.1-0.7,0.2c-0.5,0.2-0.5,0.4,0,0.6c0.5,0.2,1,0.3,1.5,0.1c0.1,0,0.1-0.1,0.2-0.1
	l-0.6-0.3l0.4-0.1L191,62.2z"/>
<path class="st0" d="M171.7,167.7L171.7,167.7l-4.5,1.9l-4,1.7l0.4,22.5l0.1,5.4l0.1,2.9l12.4-5.2l-0.6-30.8L171.7,167.7z
	 M170.9,169.1l0.9-0.4l0.5,23.6l-0.9-0.7L170.9,169.1z M164.3,171.8l3-1.3l0.4,20.8l-3,1.3L164.3,171.8z M164.8,195.7l4.3-1.7
	l0.8,0.6l-5,2L164.8,195.7z M164.8,200.4v-1.7l7.8-3.3l2,0.8L164.8,200.4z M175.2,195.8l-2.3-0.9l-0.5-26.5l2.3-1L175.2,195.8z"/>
<path class="st0" d="M55.3,134.4l-10-5.8c-0.7-0.4-1.2-1.2-1.2-2.1l-0.1-2.9h0.3l0.1,2.9c0,0.7,0.4,1.4,1,1.8l10,5.8L55.3,134.4z"/>
<path class="st0" d="M55.7,133.3l-9.2-5.4c-0.8-0.5-1.3-1.3-1.3-2.2v-2.4l0.5,0.2c0.4,0.2,10,4,10,9.1V133.3z M45.9,124.4v1.3
	c0,0.7,0.4,1.3,0.9,1.6l8,4.7C54.1,128.2,47.8,125.2,45.9,124.4z"/>
<path class="st0" d="M45.2,128.1c-0.2,0-0.5-0.1-0.6-0.4c-0.2-0.3,0-0.7,0.3-0.9l1.9-1c0.3-0.2,0.7-0.1,0.9,0.3
	c0.2,0.3,0.1,0.7-0.3,0.9l-1.9,1C45.4,128.1,45.3,128.1,45.2,128.1"/>
<path class="st0" d="M83.9,160.8L83.9,160.8l-1.3-0.8l-0.1-4.5v-0.1l-4.3-2.5l-0.1-4.1v-0.1l-2.2-1.2v-2v-0.1l-6.8-3.9v0.1v2
	l-2.2-1.2v0.1l0.1,4.1l-4.3-2.5v0.1l0.1,4.3l-1.3-0.8v0.1l0.1,7l1.3,0.8v0.1l0.1,3.5v1.6l19.7,11.4v-2l-0.1-2.9v-0.1l1.3,0.8V160.8z
	 M83.2,162.4l-4.4,2.1h-0.1l0.1,3l-0.9-0.5l-0.1-2.9l5.4-2.6V162.4z M77.7,153.4l0.1,0.1l0.7,0.4l-10.6,5.2h-0.1v2.3l-0.9-0.5v-2.2
	L77.7,153.4z M70.2,160.3v2.5l-0.9-0.5v-2.4l10.6-5.2l0.8,0.4L70.2,160.3L70.2,160.3z M69.1,159.7L69.1,159.7l-0.1,2.4l-0.9-0.5
	v-2.3l10.7-5.2l0.8,0.4L69.1,159.7z M77.6,163.9L77.6,163.9v3l-0.9-0.5l-0.1-2.8l5.9-2.9l0.7,0.4v0.1L77.6,163.9z M82.1,160.5
	l-5.8,2.8h-0.1l0.1,2.9l-0.9-0.5l-0.1-2.8l6.5-3.1v0.2v0.4L82.1,160.5z M81.9,159.4l-6.7,3.3h-0.1l0.1,2.8l-0.9-0.5l-0.1-2.7
	l7.6-3.7L81.9,159.4z M81.8,158.3l-7.9,3.8h-0.1l0.1,2.7l-0.9-0.5l-0.1-2.6l8.8-4.3L81.8,158.3z M81.8,157.1l-9.1,4.4h-0.1v2.6
	l-0.9-0.5v-2.5l10-4.9L81.8,157.1z M71.5,160.9L71.5,160.9v2.6l-0.9-0.5v-2.5l10.6-5.2l0.7,0.4v0.1L71.5,160.9z M63.3,154.9l-1-0.6
	l-0.1-5.5l0.3,0.2l1,0.6v-1.2l-0.1-3.2l3.2,1.9l1,0.6v-1.2l-0.1-3l1.1,0.7l1,0.6v-1.2v-0.9l5.5,3.2v1.7v0.4l0.3,0.2l1.8,1.1l0.1,3.8
	v0.2l-10.9,5.3h-0.1v1l-2.8,0.9l0,0l-0.1-4.8v-0.4L63.3,154.9z M82.1,170.9l-17.9-10.3l2.4-0.7v1.3l0.1,0.1l0,0l12.2,6.9H79l0.2-0.1
	l0,0l0,0l2.9-1.2v0.3L82.1,170.9z M83,166.5l-1-0.6v0.5l-2.9,1.2l-0.1-2.8l4.2-2l0.1,3.9L83,166.5z"/>
<path class="st0" d="M109.2,175.7L109.2,175.7l-1.3-0.8l-0.1-4.5v-0.1l-4.3-2.5l-0.1-4.1v-0.1l-2.2-1.2v-2v-0.1l-6.8-3.9v0.1v2
	l-2.2-1.2v0.1l0.1,4.1L88,159v0.1l0.1,4.3l-1.3-0.8v0.1l0.1,7l1.3,0.8v0.1l0.1,3.5v1.6l19.7,11.4v-2l-0.1-2.9v-0.1l1.3,0.8
	L109.2,175.7z M108.6,177.3l-4.4,2.1h-0.1l0.1,3l-0.9-0.5l-0.1-2.9l5.4-2.6V177.3z M103.1,168.4l0.1,0.1l0.7,0.4L93.2,174h-0.1v2.3
	l-0.9-0.5v-2.2L103.1,168.4z M95.6,175.3v2.5l-0.9-0.5v-2.4l10.6-5.2l0.8,0.4L95.6,175.3L95.6,175.3z M94.4,174.6L94.4,174.6
	l-0.1,2.4l-0.9-0.5v-2.3l10.7-5.2l0.8,0.4L94.4,174.6z M103,178.9L103,178.9v3l-0.9-0.5l-0.1-2.8l5.9-2.9l0.7,0.4v0.1L103,178.9z
	 M107.5,175.5l-5.8,2.8h-0.1l0.1,2.9l-0.9-0.5l-0.1-2.8l6.5-3.1v0.2v0.4L107.5,175.5z M107.2,174.4l-6.7,3.3h-0.1l0.1,2.8l-0.9-0.5
	l-0.1-2.7l7.6-3.7L107.2,174.4z M107.2,173.2l-7.9,3.8h-0.1l0.1,2.7l-0.9-0.5v-2.6l8.8-4.3V173.2z M107.2,172l-9.1,4.4H98l0.1,2.6
	l-0.9-0.5V176l10-4.9V172z M96.9,175.8L96.9,175.8v2.6l-0.9-0.5v-2.5l10.6-5.2l0.7,0.4v0.1L96.9,175.8z M88.6,169.8l-1-0.6l-0.1-5.5
	l0.3,0.2l1,0.6v-1.2l-0.1-3.2L92,162l1,0.6v-1.2l-0.1-3l1.1,0.7l1,0.6v-1.2v-0.9l5.5,3.2v1.7v0.4l0.3,0.2l1.8,1.1l0.1,3.8v0.2
	L92,173.4h-0.1v1l-2.8,0.9l0,0l-0.1-4.8v-0.4L88.6,169.8z M107.4,185.8l-17.9-10.3l2.4-0.7v1.3l0.1,0.1l0,0l12.2,6.9h0.1l0.2-0.1
	l0,0l0,0l2.9-1.2v0.3L107.4,185.8z M108.4,181.4l-1-0.6v0.5l-2.9,1.2l-0.1-2.8l4.2-2l0.1,3.9L108.4,181.4z"/>
<path class="st0" d="M204.8,154c-0.1,0-0.2-0.1-0.2-0.2c0-0.1,0.1-0.2,0.2-0.2c0.7,0,1.2-0.6,1.2-1.3s-0.6-1.3-1.2-1.3
	c-0.1,0-0.2-0.1-0.2-0.2c0-0.1,0.1-0.2,0.2-0.2c0.8,0,1.5,0.7,1.6,1.6C206.3,153.2,205.7,154,204.8,154"/>
<path class="st0" d="M210.7,155.9c-0.1,0-0.2-0.1-0.2-0.2c0-0.1,0.1-0.2,0.2-0.2c0.7,0,1.2-0.6,1.2-1.3s-0.6-1.3-1.2-1.3
	c-0.1,0-0.2-0.1-0.2-0.2c0-0.1,0.1-0.2,0.2-0.2c0.8,0,1.5,0.7,1.6,1.6C212.2,155.1,211.5,155.9,210.7,155.9"/>
<path class="st0" d="M199.3,160.6c-0.1,0-0.2-0.1-0.2-0.2c0-0.1,0.1-0.2,0.2-0.2c0.7,0,1.2-0.6,1.2-1.3s-0.6-1.3-1.2-1.3
	c-0.1,0-0.2-0.1-0.2-0.2c0-0.1,0.1-0.2,0.2-0.2c0.8,0,1.5,0.7,1.6,1.6C200.8,159.8,200.1,160.6,199.3,160.6"/>
<path class="st0" d="M202.1,162.1c0,0,3.2-5.5,10.1-4.3"/>
<path class="st0" d="M201.5,54.8l-1.7,0.6l0,0l0.5,0.3h0.1l0.9-0.3l0.8,0.6c-0.1,0.1-0.3,0.2-0.6,0.3c-1,0.3-2.1,0.2-2.8-0.4
	c-0.7-0.5-0.5-1.1,0.5-1.4c0.5-0.2,0.8-0.2,1.1-0.2h0.1l0,0l0,0l-0.3-0.4c0,0,0,0-0.1,0h-0.1c-0.3,0-0.8,0.1-1.3,0.3
	c-1.5,0.5-1.8,1.4-0.9,2.1c0.5,0.4,1.2,0.7,1.9,0.7c0.8,0.1,1.5,0,2.3-0.2c0.6-0.2,1.1-0.4,1.3-0.6l0,0l0,0L201.5,54.8
	C201.6,54.8,201.5,54.8,201.5,54.8"/>
<path class="st0" d="M207.6,54.3l-2.1,0.7l-3-2.1h-0.1l-0.8,0.3l0,0l3.5,2.5h0.1l3-1l0,0L207.6,54.3
	C207.7,54.3,207.7,54.3,207.6,54.3"/>
<path class="st0" d="M209,50.2c-0.3,0.1-0.3,0.3-0.1,0.4c0.2,0.1,0.6,0.2,0.9,0.1c0.2-0.1,0.3-0.1,0.3-0.2c0-0.1,0-0.2-0.2-0.2
	C209.7,50.2,209.3,50.1,209,50.2"/>
<path class="st0" d="M210.8,51l-0.9,0.3l0,0l3,1.9h0.1l0.9-0.3l0,0L210.8,51C210.9,51,210.9,51,210.8,51"/>
<path class="st0" d="M215.5,48.4l-0.9,0.3l0,0l1.8,1c0.4,0.2,0.7,0.4,1.2,0.7c-0.5-0.1-1-0.2-1.5-0.3l-3.8-0.6c0,0,0,0-0.1,0
	l-0.9,0.3l0,0l4.2,2.5h0.1l0.9-0.3l0,0l-1.9-1.1c-0.5-0.3-0.8-0.5-1.2-0.7c0.5,0.1,1,0.2,1.6,0.3l4,0.7c0,0,0,0,0.1,0l0.9-0.3l0,0
	L215.5,48.4L215.5,48.4"/>
<path class="st0" d="M219.9,47.9c-1.2,0.4-1.3,1.1-0.3,1.7c1.1,0.6,2.7,0.7,4.1,0.2c0.7-0.2,1.1-0.5,1.3-0.6h0.1l0,0l-0.8-0.3
	c0,0,0,0-0.1,0c0,0,0,0-0.1,0L224,49c-0.2,0.1-0.4,0.3-1,0.5c-0.4,0.1-1.3,0.3-2.1-0.1l2.9-0.9l0,0l-0.1-0.1c-0.1,0-0.1-0.1-0.2-0.2
	C222.7,47.7,221.3,47.4,219.9,47.9 M220.3,48.9c-0.1-0.1-0.4-0.5,0.3-0.7c0.3-0.1,0.5-0.1,0.8-0.1s0.6,0.1,0.8,0.2L220.3,48.9z"/>
<path class="st0" d="M225.5,46.1l-1.1,0.4l-0.9-0.5c0,0,0,0-0.1,0c0,0,0,0-0.1,0l-0.8,0.4l0,0l0.7,0.4l-0.6,0.2l0,0l0.6,0.3h0.1
	l0.6-0.2l1.7,0.9c0.5,0.2,0.9,0.4,1.4,0.4c0.4,0,0.9,0,1.4-0.2c0.3-0.1,0.6-0.2,0.7-0.3h0.1l0,0l-0.7-0.3c0,0,0,0-0.1,0
	c0,0,0,0-0.1,0l-0.1,0.1c-0.1,0-0.2,0.1-0.4,0.2c-0.2,0.1-0.5,0.1-1-0.1l-1.7-0.9l1.1-0.4l0,0l-0.7-0.3
	C225.6,46.1,225.5,46.1,225.5,46.1"/>
<path class="st0" d="M207.9,52.5c-0.3,0.1-0.3,0.3-0.1,0.4c0.2,0.2,0.7,0.2,0.9,0.1c0.3-0.1,0.3-0.3,0.1-0.4
	C208.6,52.4,208.2,52.4,207.9,52.5"/>
<path class="st0" d="M209.8,48.7c0-0.1-0.1-0.1-0.2-0.1h-0.1c-0.9,0-1.7,0.2-2.4,0.4s-1.2,0.6-1.5,0.9V50c0,0,0,0.1,0.1,0.1h0.5
	c0.1,0,0.1,0,0.2,0c0.3-0.3,0.7-0.6,1.3-0.8s1.3-0.3,2-0.4l0,0c0.1,0,0.1,0,0.1-0.1L209.8,48.7z"/>
<path class="st0" d="M209.4,49.3c-0.5,0-1.1,0.1-1.5,0.3c-0.4,0.1-0.8,0.3-1,0.6c0,0,0,0,0,0.1h0.1h0.6c0.1,0,0.1,0,0.2,0
	c0.2-0.1,0.4-0.3,0.7-0.4c0.3-0.1,0.6-0.2,1-0.2c0.1,0,0.1,0,0.1-0.1l0.1-0.3c0,0,0,0,0-0.1l0,0C209.5,49.3,209.5,49.3,209.4,49.3"
	/>
<path class="st0" d="M111,193.3l-50.5-29.4l-0.6-30.4l50.5,29.4L111,193.3z M61.5,163.4l48.5,28.2l-0.5-28L61,135.3L61.5,163.4z"/>
<path class="st0" d="M213,125.9c-0.3,0-0.6,0-0.9,0.1L176,140.6c-0.7,0.3-1.3,0.9-1.4,1.7c-0.2,0.7,0,1.5,0.6,2
	c3.2,3.3,6.7,9.8,6.8,14.4l0.2,9.7c0,0.6,0.3,1.1,0.8,1.4c0.3,0.2,0.6,0.3,0.9,0.3c0.2,0,0.4-0.1,0.7-0.1l37.6-16.1
	c0.6-0.3,1-0.9,1-1.6L223,142C222.8,135,218.5,126.5,213,125.9 M222.5,152.4c0,0.4-0.2,0.8-0.6,1l-37.6,16.1c-0.3,0.1-0.7,0.1-1-0.1
	c-0.3-0.2-0.5-0.5-0.5-0.8l-0.2-9.7c-0.1-4.9-3.6-11.4-7-14.9c-0.4-0.4-0.5-0.9-0.4-1.4s0.5-1,1-1.2l36.2-14.6
	c0.1-0.1,0.3-0.1,0.4-0.1h0.1c5,0.5,9.2,8.9,9.3,15.4L222.5,152.4z"/>
<g>
	<path class="st0" d="M322.7,79.9l-0.2,0.3c2.1,1.3,3.1,2.3,3,3.4c-0.1,1.7-2.6,3.7-8.5,6.6l-97.8,41.3c0,0.1,0.1,0.2,0.1,0.3
		l97.8-41.3c6.1-3,8.6-5,8.6-6.9C325.9,82.4,324.9,81.2,322.7,79.9z"/>
	<path class="st0" d="M219.6,132.2l-0.2-0.6c0-0.1-0.2-0.2-0.2-0.3l-0.1-0.2L219,131l97.8-41.3c5.5-2.7,8.1-4.7,8.2-6.2
		c0.1-0.8-0.8-1.7-2.8-2.9l-0.4-0.3l0.8-1.1l0.4,0.2c2.4,1.4,3.5,2.8,3.2,4.2c0,2.1-2.5,4.1-8.9,7.3L219.6,132.2z"/>
</g>
</svg>
