<?xml version="1.0" encoding="utf-8"?>
<!-- Generator: Adobe Illustrator 22.0.1, SVG Export Plug-In . SVG Version: 6.00 Build 0)  -->
<svg version="1.2" baseProfile="tiny" id="Layer_1" xmlns="http://www.w3.org/2000/svg" xmlns:xlink="http://www.w3.org/1999/xlink"
	 x="0px" y="0px" viewBox="0 0 366 255.1" xml:space="preserve">
<polyline fill="none" stroke="#22F4BB" stroke-miterlimit="10" points="94.6,139.7 102.7,137.4 102.7,132 94.6,134.3 "/>
<polyline fill="none" stroke="#22F4BB" stroke-miterlimit="10" points="90.6,131.3 98.6,128.9 102.7,132 94.6,134.3 "/>
<polyline fill="none" points="103.6,119.6 104.1,133 102.7,133.4 "/>
<line fill="none" x1="104.1" y1="133" x2="109.7" y2="136.4"/>
<line fill="none" stroke="#22F4BB" stroke-miterlimit="10" x1="99.2" y1="138.4" x2="106.1" y2="143"/>
<polyline fill="none" stroke="#22F4BB" stroke-miterlimit="10" points="101.2,138.4 106.1,141.5 109.9,144.4 109.3,122.9 
	89.3,111.3 90.3,131.1 94.6,134.3 94.6,139.7 87.8,135.3 85.9,109.9 "/>
<g>
	<path fill="none" stroke="#22F4BB" stroke-width="3" stroke-miterlimit="10" d="M80.5,138.1l80.8,55.6c0,0,5,3.3,10,1.1
		c6.9-3.2,114-47.4,114-47.4s2.4-1.1,2.9-3.2c1.4-5.8,0.5-40.4,0.5-40.4s0.4-6.5-6.6-10.2c-7-3.7-84.8-32.8-84.8-32.8
		s-5.8-2.1-11.6-0.7c-5.8,1.5-103.8,27.2-103.8,27.2s-4.7,2.1-4.7,8.8c0,5.6,0.9,30,1.2,38C78.4,135.7,79.2,137.2,80.5,138.1z"/>
	<polygon fill="none" stroke="#22F4BB" stroke-miterlimit="10" points="85.6,104.3 86.8,135.7 113.7,153.5 112.7,120 	"/>
	<polyline fill="none" stroke="#22F4BB" stroke-miterlimit="10" points="110.1,140.2 106.1,141.5 106.1,147.6 113.7,152.3 	"/>
	<ellipse fill="none" stroke="#22F4BB" stroke-width="0.5" stroke-miterlimit="10" cx="222.7" cy="79.5" rx="1.6" ry="1"/>
	<path fill="none" stroke="#22F4BB" stroke-miterlimit="10" d="M133.3,146.7c0,0-0.3,4.2,0.5,6.3s1.6,4,3.9,5.8
		c2.3,1.8,8.3,5.5,8.3,5.5s1.9,1.1,2.9,0.7c1-0.5,2-1.3,2.3-3.1s0.7-5.4-1.2-7.3c-1.8-1.8-14.1-9.6-14.1-9.6
		S133.4,143.6,133.3,146.7z"/>
	<path fill="none" stroke="#22F4BB" stroke-miterlimit="10" d="M136.2,145.2c0,0-1.2,2.5-0.7,5.6c0.5,3.1,1.3,4.4,2.9,5.7
		c1.6,1.3,9.2,6.1,9.2,6.1s1.4,1.3,3.3,0"/>
	
		<ellipse transform="matrix(0.9915 -0.1303 0.1303 0.9915 -17.6148 17.6167)" fill="none" stroke="#22F4BB" stroke-miterlimit="10" cx="125.9" cy="143.5" rx="1.3" ry="2.1"/>
	<path fill="none" stroke="#22F4BB" stroke-miterlimit="10" d="M138.6,146.7c0,0,0,1.3-1,1.5s-1.6,0.2-1.6,0.7
		c0,0.5,0.4,0.7,2.2,0.7c1.8,0,1.9,3.4,1.7,4.2s-1.2,0.8-1,1.4s4.4,2.7,4.4,2.7s0.7,0.5,1.2,0s2.5-1.9,3.7-1.8
		c1.2,0.1,0.5,1.2,1.7,1.1c1.2-0.1,1-1.8,1-1.8"/>
	<path fill="none" stroke="#22F4BB" stroke-miterlimit="10" d="M151,160.4c0,0-0.4,1.5-1.6,1.3c-1.2-0.2-5.7-3.5-5.7-3.5"/>
	<path fill="none" stroke="#22F4BB" stroke-miterlimit="10" d="M143,149.6c0,0,0,2.2,1.1,2.9c1.1,0.7,2.1-0.8,2.1-0.8"/>
	<path fill="none" stroke="#22F4BB" stroke-miterlimit="10" d="M77.6,90l85.9,55.4c2.3,1.4,5.1,1.6,7.6,0.7L287,100.7"/>
</g>
</svg>
