<?xml version="1.0" encoding="utf-8"?>
<!-- Generator: Adobe Illustrator 19.1.0, SVG Export Plug-In . SVG Version: 6.00 Build 0)  -->
<svg version="1.1" id="Layer_1" xmlns="http://www.w3.org/2000/svg" xmlns:xlink="http://www.w3.org/1999/xlink" x="0px" y="0px"
	 viewBox="-296 153.9 366 255.1" style="enable-background:new -296 153.9 366 255.1;" xml:space="preserve">
<style type="text/css">
	.st0{fill:none;}
	.st1{fill:#17C4FF;}
</style>
<g>
	<path class="st0" d="M-206.2,266.1l0.9,18.5l7.7-2.3c0.2,0,0.3,0,0.4,0.1l4.1,3.1c0,0,0,0,0,0c0.1,0.1,0.1,0.1,0.1,0.2
		c0,0,0,0.1,0,0.1c0,0,0,0.1,0,0.1v5.4c0,0.2-0.1,0.4-0.4,0.5l-0.7,0.2l4,2.9l3.1-1l-0.5-16.7L-206.2,266.1z"/>
	<path class="st0" d="M-169.8,296.1c-0.2-0.2-0.3-0.3-0.5-0.3c0,0,0,0,0,0c-0.4,0-0.7,0.8-0.6,1.7c0.1,0.5,0.2,0.9,0.5,1.2
		c0.2,0.2,0.4,0.3,0.5,0.3c0.4,0,0.7-0.8,0.6-1.7C-169.4,296.8-169.5,296.4-169.8,296.1z"/>
	<polygon class="st0" points="-190.4,295.7 -195.1,292.3 -195.6,292.5 -190.4,296 	"/>
	<polygon class="st0" points="-190.4,297.2 -196.9,292.8 -200.9,294 -200.9,294.5 -190.4,301.4 	"/>
	<polygon class="st0" points="-209.6,263.8 -208.2,289 -201.9,293.2 -201.9,288.5 -206.2,285.3 -207.2,264.3 -186.2,276.5 
		-185.6,298.2 -189.4,296.2 -189.4,301.2 -182.9,305.3 -183.8,274.2 -209.9,259.1 -209.7,263.8 	"/>
	<polygon class="st0" points="-194.4,285.7 -197.5,283.4 -204.3,285.4 -201.3,287.7 	"/>
	<path class="st0" d="M-73.3,234.1c0.7,0,1.3-0.4,1.3-0.8s-0.6-0.8-1.3-0.8c-0.7,0-1.4,0.4-1.4,0.8S-74,234.1-73.3,234.1z"/>
	<path class="st0" d="M-132.2,298.9c2.1,1.3,4.7,1.5,7.2,0.6l115.1-45.1c-0.7-1.7-2.1-3.7-4.9-5.2c-6.8-3.6-83.8-32.4-84.6-32.7
		c0,0-5.3-1.9-10.4-0.6c-5.6,1.4-98.5,25.8-103.6,27.1c-0.3,0.2-1.3,0.8-2.1,2.1L-132.2,298.9z M-73.3,232.1c1,0,1.8,0.5,1.8,1.3
		s-0.8,1.3-1.8,1.3c-1,0-1.9-0.5-1.9-1.3S-74.3,232.1-73.3,232.1z"/>
	<polygon class="st0" points="-186.6,296.6 -186.7,294.9 -188.6,295.5 	"/>
	<polygon class="st0" points="-193.8,286.6 -200.9,288.6 -200.9,292.9 -193.8,290.9 	"/>
	<path class="st0" d="M-151.3,307.1c-0.3,0-0.6-0.1-0.9-0.3c-1.1-0.7-1.3-2.4-1.3-3c-1.3-0.8-2.5-1.6-3.6-2.3
		c-0.2,0.5-0.6,1-1.2,1.1c-0.2,0-0.3,0.1-0.5,0.1c-0.3,0.1-0.7,0.1-0.7,0.2c0.1,0,0.4,0.1,1.7,0.1c0.6,0,1.1,0.3,1.4,0.7
		c0.9,1.2,0.9,3.4,0.7,4.1c-0.1,0.6-0.6,0.9-0.8,1c0,0-0.1,0.1-0.1,0.1c0.4,0.4,2.4,1.5,4.1,2.4c0.1,0,0.4,0.3,0.6,0.1
		c0.4-0.4,2.6-2.1,4.1-1.9c0.9,0.1,1.1,0.6,1.3,0.9c0.1,0.2,0.1,0.2,0.4,0.2c0.1,0,0.3-0.1,0.3-0.2c0.1-0.1,0.2-0.3,0.2-0.5
		c-0.2-0.5-0.5-0.8-0.7-1.1c-0.5-0.5-1.8-1.4-3.4-2.5C-150.1,306.7-150.7,307.1-151.3,307.1z"/>
	<path class="st0" d="M-151.6,306c0.4,0.2,0.8,0,1.1-0.2c-0.6-0.4-1.2-0.8-1.8-1.2C-152.3,305.1-152,305.7-151.6,306z"/>
	<path class="st0" d="M-146.8,317.6c-0.9,0-1.6-0.4-1.9-0.7c-0.2-0.1-7.6-4.8-9.2-6.1c-1.8-1.5-2.6-3-3.1-6
		c-0.4-2.5,0.2-4.6,0.6-5.5c-0.2-0.1-0.5-0.2-0.8-0.2c-0.1,0-0.3,0-0.4,0.1c-0.4,0.2-0.5,0.9-0.5,1.4l0,0c0,0-0.3,4.1,0.5,6.1
		c0.8,2.2,1.6,3.9,3.7,5.6c2.3,1.8,8.2,5.4,8.3,5.5c0.7,0.4,1.9,0.9,2.5,0.7c0.4-0.2,0.9-0.5,1.3-1
		C-146.3,317.5-146.6,317.6-146.8,317.6z"/>
	<path class="st0" d="M-9.3,257.7L-9.3,257.7c0-0.2,0-1.1-0.3-2.3l-115.1,45.1c-1.1,0.4-2.2,0.6-3.3,0.6c-1.7,0-3.3-0.4-4.7-1.3
		L-216,246c-0.5,1-0.8,2.3-0.8,4c0,5.4,0.8,28.3,1.2,37.9c0,1,0.5,1.9,1.2,2.4l80.8,55.6c0,0,4.2,2.6,8.1,0.9
		c6.8-3.2,109.7-45.6,114-47.4c0.3-0.2,1.5-0.9,1.7-1.8C-8.6,293.1-9.1,267.3-9.3,257.7L-9.3,257.7z M-209.7,289.9l-1.2-32.6
		l28.1,16.3l1,34.7L-209.7,289.9z M-169.7,300c-0.1,0-0.1,0-0.2,0c-0.5,0-0.9-0.2-1.3-0.7c-0.4-0.4-0.6-1-0.7-1.7
		c-0.2-1.4,0.4-2.7,1.4-2.8c0.5-0.1,1,0.2,1.4,0.7c0.4,0.4,0.6,1,0.7,1.7C-168.1,298.6-168.7,299.8-169.7,300z M-144.3,315.9
		c-0.4,2.1-1.6,3-2.6,3.5c-0.2,0.1-0.5,0.1-0.7,0.1c-1.1,0-2.5-0.7-2.6-0.8c-0.3-0.2-6.1-3.7-8.4-5.5c-2.3-1.8-3.2-3.7-4.1-6
		c-0.8-2.1-0.6-6.2-0.5-6.5c0-1.1,0.4-1.9,1-2.3c1-0.6,2.2,0.1,2.3,0.2c0.5,0.3,12.4,7.9,14.2,9.7c0.3,0.3,0.6,0.7,0.8,1.1l0.2,0
		c0,0,0,0.3,0,0.6C-144,311.3-143.9,313.3-144.3,315.9z"/>
	<path class="st0" d="M-145.3,315.7c-0.3,0.2-0.6,0.4-1.1,0.4c-0.1,0-0.2,0-0.3,0c-1.3-0.2-5.1-3-5.9-3.6l0.1-0.1
		c-0.2-0.1-0.3-0.1-0.4-0.2c-2.8-1.4-4.4-2.4-4.6-2.9c-0.2-0.7,0.3-1,0.6-1.2c0.2-0.2,0.4-0.3,0.4-0.5c0.1-0.5,0.1-2.4-0.6-3.2
		c-0.2-0.2-0.4-0.4-0.7-0.4c-0.9,0-1.8,0-2.3-0.4c0,0.3,0,0.7,0.1,1c0.5,3.1,1.3,4.2,2.7,5.4c1.6,1.3,9.1,6,9.2,6.1
		c0.1,0.1,1.2,1.1,2.8,0l0,0C-145.3,316-145.3,315.9-145.3,315.7C-145.3,315.7-145.3,315.7-145.3,315.7z"/>
	<path class="st0" d="M-147.4,310.8c-0.1-0.2-0.1-0.3-0.4-0.3c-0.9-0.1-2.8,1.1-3.3,1.7c0,0-0.1,0.1-0.1,0.1
		c1.7,1.2,4.1,2.8,4.7,2.9c0.7,0.1,1-0.9,1-0.9l0.4,0.1c0.1-1.3,0-2.3-0.1-3c-0.2,0.2-0.5,0.3-0.8,0.4
		C-147,311.7-147.3,311.1-147.4,310.8z"/>
	<path class="st0" d="M-158.5,301.6c0.4-0.1,0.5-0.5,0.6-0.7c-0.6-0.4-1.2-0.8-1.6-1c-0.2,0.5-0.4,1.2-0.5,2.2
		c0.3-0.2,0.7-0.2,1.1-0.3C-158.8,301.7-158.7,301.6-158.5,301.6z"/>
	<path class="st1" d="M-5.3,257.7c0-1,0-8-7.7-12C-20,242-94.8,214-98,212.8c-0.3-0.1-6.4-2.3-12.8-0.8
		c-5.7,1.5-102.8,26.9-103.8,27.2l-0.3,0.1c-0.2,0.1-5.9,2.7-5.9,10.6c0,5.4,0.8,28.4,1.2,38c0,2.3,1.1,4.4,3,5.6l80.8,55.6
		c0.2,0.1,3.4,2.2,7.4,2.2c1.4,0,3-0.3,4.5-0.9c6.8-3.1,112.9-46.9,114-47.4c0.3-0.2,3.3-1.6,4-4.5C-4.4,292.7-5.2,261.6-5.3,257.7z
		 M-213.4,243.1c5-1.3,98-25.7,103.6-27.1c5.1-1.2,10.4,0.6,10.4,0.6c0.8,0.3,77.8,29.1,84.6,32.7c2.8,1.5,4.2,3.5,4.9,5.2
		l-115.1,45.1c-2.4,0.9-5,0.6-7.2-0.6l-83.3-53.7C-214.7,243.9-213.7,243.3-213.4,243.1z M-9.7,297.6c-0.2,0.9-1.4,1.7-1.7,1.8
		c-4.4,1.8-107.2,44.3-114,47.4c-3.9,1.7-8.1-0.9-8.1-0.9l-80.8-55.6c-0.8-0.5-1.2-1.4-1.2-2.4c-0.4-9.6-1.2-32.6-1.2-37.9
		c0-1.7,0.3-2.9,0.8-4l83.2,53.7c1.4,0.9,3.1,1.3,4.7,1.3c1.1,0,2.2-0.2,3.3-0.6l115.1-45.1c0.3,1.2,0.3,2.1,0.3,2.2l0,0.1l0,0.1
		C-9.1,267.3-8.6,293.1-9.7,297.6z"/>
	<path class="st1" d="M-210.9,257.3l1.2,32.6l27.9,18.5l-1-34.7L-210.9,257.3z M-186.6,296.6l-2-1l1.9-0.6L-186.6,296.6z
		 M-200.9,288.6l7.1-2v4.4l-7.1,2V288.6z M-195.1,292.3l4.7,3.3v0.3l-5.2-3.5L-195.1,292.3z M-189.8,294.8l-4-2.9l0.7-0.2
		c0.2-0.1,0.4-0.3,0.4-0.5v-5.4c0,0,0-0.1,0-0.1c0,0,0-0.1,0-0.1c0-0.1-0.1-0.1-0.1-0.2c0,0,0,0,0,0l-4.1-3.1
		c-0.1-0.1-0.3-0.1-0.4-0.1l-7.7,2.3l-0.9-18.5l19,11l0.5,16.7L-189.8,294.8z M-197.5,283.4l3.1,2.3l-6.9,2l-3-2.3L-197.5,283.4z
		 M-200.9,294l4-1.1l6.5,4.3v4.3l-10.5-6.9V294z M-183.8,274.2l0.9,31.1l-6.5-4v-5l3.8,2l-0.6-21.7l-21-12.2l1.1,21l4.3,3.2v4.8
		l-6.3-4.2l-1.4-25.3l-0.1,0l-0.2-4.7L-183.8,274.2z"/>
	<path class="st1" d="M-73.3,234.6c1,0,1.8-0.5,1.8-1.3s-0.8-1.3-1.8-1.3c-1,0-1.9,0.5-1.9,1.3S-74.3,234.6-73.3,234.6z
		 M-73.3,232.6c0.7,0,1.3,0.4,1.3,0.8s-0.6,0.8-1.3,0.8c-0.7,0-1.4-0.4-1.4-0.8S-74,232.6-73.3,232.6z"/>
	<path class="st1" d="M-169,295.5c-0.4-0.5-0.9-0.7-1.4-0.7c-1,0.1-1.6,1.4-1.4,2.8c0.1,0.6,0.3,1.2,0.7,1.7
		c0.4,0.4,0.8,0.7,1.3,0.7c0.1,0,0.1,0,0.2,0c1-0.1,1.6-1.4,1.4-2.8C-168.4,296.5-168.6,295.9-169,295.5z M-169.9,299
		c-0.2,0-0.4-0.1-0.5-0.3c-0.2-0.3-0.4-0.7-0.5-1.2c-0.1-0.9,0.2-1.6,0.6-1.7c0,0,0,0,0,0c0.2,0,0.3,0.1,0.5,0.3
		c0.2,0.3,0.4,0.7,0.5,1.2C-169.2,298.2-169.5,298.9-169.9,299z"/>
	<path class="st1" d="M-144.6,309.2l-0.2,0c-0.2-0.4-0.5-0.8-0.8-1.1c-1.8-1.8-13.7-9.3-14.2-9.7c-0.1-0.1-1.3-0.7-2.3-0.2
		c-0.6,0.4-1,1.1-1,2.3c0,0.3-0.3,4.4,0.5,6.5c0.9,2.3,1.7,4.2,4.1,6c2.3,1.8,8.1,5.4,8.4,5.5c0.2,0.1,1.5,0.8,2.6,0.8
		c0.3,0,0.5,0,0.7-0.1c0.9-0.5,2.2-1.3,2.6-3.5c0.4-2.5,0.3-4.6-0.3-6.1C-144.6,309.5-144.6,309.3-144.6,309.2z M-145.1,314.3
		l-0.4-0.1c0,0-0.3,1.1-1,0.9c-0.7-0.1-3-1.6-4.7-2.9c0,0,0.1-0.1,0.1-0.1c0.5-0.5,2.4-1.7,3.3-1.7c0.3,0,0.3,0.1,0.4,0.3
		c0.1,0.3,0.4,0.9,1.4,0.8c0.3,0,0.6-0.2,0.8-0.4C-145.1,312-145,313-145.1,314.3z M-145.4,316.1c-1.5,1-2.6,0.1-2.8,0
		c-0.1,0-7.6-4.8-9.2-6.1c-1.4-1.1-2.2-2.3-2.7-5.4c-0.1-0.3-0.1-0.7-0.1-1c0.5,0.4,1.4,0.4,2.3,0.4c0.3,0,0.5,0.1,0.7,0.4
		c0.7,0.9,0.7,2.8,0.6,3.2c0,0.2-0.2,0.3-0.4,0.5c-0.3,0.2-0.8,0.5-0.6,1.2c0.2,0.5,1.7,1.5,4.6,2.9c0.1,0.1,0.3,0.2,0.4,0.2
		l-0.1,0.1c0.8,0.6,4.7,3.4,5.9,3.6c0.1,0,0.2,0,0.3,0c0.4,0,0.8-0.2,1.1-0.4c0,0,0,0,0,0C-145.3,315.9-145.3,316-145.4,316.1
		L-145.4,316.1z M-159.6,299.8c0.4,0.3,1,0.6,1.6,1c-0.1,0.3-0.2,0.7-0.6,0.7c-0.2,0-0.3,0.1-0.5,0.1c-0.4,0.1-0.8,0.1-1.1,0.3
		C-159.9,301.1-159.7,300.3-159.6,299.8z M-145.6,309.9c0,0.2-0.1,0.4-0.2,0.5c-0.1,0.1-0.2,0.2-0.3,0.2c-0.3,0-0.3,0-0.4-0.2
		c-0.1-0.3-0.4-0.8-1.3-0.9c-1.5-0.1-3.6,1.5-4.1,1.9c-0.2,0.2-0.5,0-0.6-0.1c-1.7-0.8-3.7-2-4.1-2.4c0,0,0.1-0.1,0.1-0.1
		c0.3-0.2,0.7-0.5,0.8-1c0.2-0.7,0.2-2.9-0.7-4.1c-0.4-0.5-0.9-0.7-1.4-0.7c-1.4,0-1.7-0.1-1.7-0.1c0.1-0.1,0.4-0.1,0.7-0.2
		c0.2,0,0.3-0.1,0.5-0.1c0.7-0.1,1.1-0.6,1.2-1.1c1.1,0.7,2.3,1.5,3.6,2.3c0,0.7,0.2,2.4,1.3,3c0.3,0.2,0.6,0.3,0.9,0.3
		c0.6,0,1.2-0.4,1.6-0.8c1.6,1.1,2.9,2.1,3.4,2.5C-146.1,309.1-145.8,309.5-145.6,309.9z M-152.4,304.5c0.6,0.4,1.2,0.8,1.8,1.2
		c-0.3,0.3-0.7,0.5-1.1,0.2C-152,305.7-152.3,305.1-152.4,304.5z M-147.3,318.4c-0.5,0.2-1.8-0.3-2.5-0.7c-0.1,0-6-3.7-8.3-5.5
		c-2.1-1.7-2.9-3.4-3.7-5.6c-0.8-2-0.5-6-0.5-6.1l0,0c0-0.5,0.1-1.2,0.5-1.4c0.1-0.1,0.3-0.1,0.4-0.1c0.3,0,0.7,0.1,0.8,0.2
		c-0.3,0.9-1,3-0.6,5.5c0.5,3,1.3,4.5,3.1,6c1.6,1.3,8.9,5.9,9.2,6.1c0.3,0.3,1.1,0.7,1.9,0.7c0.2,0,0.5,0,0.8-0.1
		C-146.4,317.9-146.9,318.2-147.3,318.4z"/>
</g>
</svg>
