<svg xmlns="http://www.w3.org/2000/svg" version="1.2" baseProfile="tiny" viewBox="410.8 -258.3 407 407">
  <g id="Layer_1">
    <path fill="none" d="M621.9-230.3c.1.2.2.5.2.8-.1-.3-.1-.6-.2-.8zm-2-2.4c.1 0 .1.1.2.1-.1 0-.1 0-.2-.1zm123.7 77.4c0-.3 0-.6-.1-.8.1.2.1.5.1.8zm-122.1-75.8c.1.2.3.4.3.7-.1-.3-.2-.5-.3-.7zm.7 2.5c0 .3 0 .6-.1 1 .1-.3.1-.7.1-1zm-1.2-3.1l.4.4c-.1-.1-.2-.3-.4-.4zM765.4-90.1c6.5 0 11.7 5.2 11.7 11.7 0-6.5-5.2-11.7-11.7-11.7zm-146.3-143h.1c0 .1 0 .1-.1 0zm121.5 77.8c0-.3 0-.6.1-.8-.1.2-.1.5-.1.8zm-123.2-78.1c.3 0 .6 0 1 .1-.4-.1-.7-.1-1-.1zm3.1 1.2c.1.1.2.1.3.2-.1-.1-.2-.1-.3-.2zm-5.6 7.7c-.1 0-.1-.1-.2-.1.1 0 .1.1.2.1zm.8.4h-.1.1zm-1.4-.9c-.1-.1-.2-.1-.3-.2.1.1.2.2.3.2zm-.5-.5l-.4-.4c.1.1.2.3.4.4zm3.6 1.7c-.3 0-.6 0-1-.1.4.1.7.1 1 .1zm4.5-3.1v.1c-.1 0 0 0 0-.1zm-.4.8c0 .1-.1.1-.1.2 0-.1 0-.1.1-.2zm-.5.6c-.1.1-.1.2-.2.3.1-.1.1-.2.2-.3zm-.5.5l-.4.4c.1-.1.3-.2.4-.4zm-.6.5c-.2.1-.4.3-.7.3.3-.1.5-.2.7-.3zm-139.8 94.9c.3-.3.8-.5 1.4-.5.9 0 1.6.3 1.9.5v-.1c-.3-.2-1-.5-1.8-.5-.7 0-1.2.2-1.5.6z"/>
    <path fill="none" d="M765.4-66.7c6.5 0 11.7-5.2 11.7-11.7 0 6.5-5.2 11.7-11.7 11.7zM613.3-226.1c-.1-.2-.3-.4-.3-.7.1.3.2.5.3.7zM447-105.5h342v.1H447zm30.1 24.3c-.3 1.2-.5 2.4-1 4 .5-1.6.8-2.8 1-4zm2.4 4.3c.4 1.5.7 2.9.9 4.2-.2-1.3-.5-2.8-.9-4.2zm-6.9 0c.4 1.5.7 3 1 4.2.2-1.2.6-2.7 1-4.3l1.7-6.1-1.7 6.1c-.4 1.6-.8 3-1 4.2-.2-1.2-.5-2.7-.9-4.2l-1.5-6.1h-1.7v.1h1.6l1.5 6.1zm278.7-80.2l.6.4zm-3.4 6.7l-.6-.3.6.4 4-6.4zM734.5 8.2c0-2.1 1.7-3.9 3.8-3.9-2.1 0-3.9 1.7-3.9 3.9v1.9h.1V8.2zm-.9 1.9h-.2v7.7h.2zM747-155.2c-.1-.2-.2-.4-.2-.7v-.4c0-.3 0-.5.2-.7.1-.2.3-.3.6-.3h-.1c-.2 0-.5.1-.6.3-.1.2-.2.4-.2.7h-.1v.4c0 .3 0 .5.2.7s.4.3.7.3h.1c-.3 0-.5-.1-.6-.3zm-263.7 33.6z"/>
    <path fill="none" d="M477.9-77.2c-.4-1.6-.6-2.8-.8-4 .2 1.3.4 2.5.8 4zm28.2-2.4h.1v8.7h-.1zm-23.2-44c0-.9-.5-1.5-1.9-2-1.7-.6-2.7-1.5-2.7-2.9 0-.7.3-1.4.9-1.9-.6.5-1 1.2-1 2 0 1.5 1.1 2.3 2.7 2.9 1.4.5 1.9 1.1 1.9 2 0 .5-.2.8-.5 1.1.4-.3.6-.7.6-1.2zM744-157.2c.5.6.7 1.3.7 2.2v2.4c0 .9-.2 1.7-.7 2.2-.3.3-.5.4-.8.6.3-.1.6-.3.8-.6.5-.5.7-1.3.7-2.2v-2.4c0-.9-.2-1.7-.7-2.2zm-11.5 78.8c0 7.3 5.9 13.2 13.2 13.2-7.2 0-13.2-5.9-13.2-13.2zm21.2 0c0 6.5 5.2 11.7 11.7 11.7-6.5 0-11.7-5.2-11.7-11.7zm11.7-11.7c-6.5 0-11.7 5.2-11.7 11.7 0-6.5 5.2-11.7 11.7-11.7zM497.6-77.8h4.7v.1h-4.7zM748-158c.2 0 .4.1.6.3l-.6-.3zM487.5-79.6h.1v8.7h-.1zm-.7-3.5c.5 0 .9.4.9 1 .1.6-.4 1-.9 1 .6 0 1-.5 1-1 0-.6-.4-1-1-1zM749-157.2l.3.6c-.1-.3-.2-.5-.3-.6zm-129.9-66.9c-.2.1-.5.2-.8.2.3 0 .6-.1.8-.2zM737-151.6c0 .2-.1.3-.2.5.1-.1.2-.3.2-.5zm-3.3-5.6c.5-.5 1.1-.8 1.9-.8-.8 0-1.4.2-1.9.8zm3 7.4c-.3.1-.7.2-1.1.2.4 0 .8-.1 1.1-.2zm-1.1-7.4c.5 0 .8.2 1.1.5-.3-.3-.6-.5-1.1-.5zm-97.7 24.1c.5 0 .9.4.9 1 .1.6-.4 1-.9 1 .6 0 1-.5 1-1 0-.6-.4-1-1-1zM430.7 42.2v-54.6c0-.3.2-.5.5-.5h-.1c-.3 0-.5.2-.5.5v54.6c0 .3.3.5.5.5h.1c-.3 0-.5-.2-.5-.5zm125.1-237c4.1 0 7.4-3.3 7.4-7.4v-.1c0 4.1-3.3 7.4-7.4 7.5-4.1-.1-7.4-3.4-7.4-7.5v.1c0 4.1 3.3 7.4 7.4 7.4z"/>
    <path fill="none" d="M555.8-196.3c3.3 0 5.9-2.6 5.9-5.9v-.1c0 3.3-2.7 5.9-5.9 6-3.2-.1-5.9-2.6-5.9-5.9 0 3.3 2.7 5.9 5.9 5.9zm-125.4 70.2v-29.1c0-.3.2-.5.5-.5h-.1c-.3 0-.5.2-.5.5v29.1c0 .3.3.5.5.5h.1c-.3 0-.5-.2-.5-.5zm44.4 98.3v-.3.3zm142.6-204.1c-1.9 0-3.3 1.5-3.3 3.3 0-1.8 1.5-3.3 3.3-3.3z"/>
    <path fill="none" d="M617.4-233.4c-2.7 0-4.8 2.1-4.8 4.8 0-2.7 2.2-4.8 4.8-4.8zm122.8 76.2c.5-.5 1.1-.8 1.9-.8-.8 0-1.4.2-1.9.8zm3 7.4c-.3.1-.7.2-1.1.2.4 0 .8-.1 1.1-.2zm-6.1-5.5v2.9c0 .3 0 .6-.1.8.1-.2.1-.5.1-.8v-2.9c0-.3 0-.6-.1-.8.1.2.1.5.1.8zm-.4-1.4c.2.1.3.3.3.6 0-.2-.1-.4-.3-.6zm-123.8-70.2c-.1-.2-.2-.5-.2-.8.1.3.1.6.2.8z"/>
    <path fill="none" d="M737.5-157.2c.5.6.7 1.3.7 2.2v2.4c0 .9-.2 1.7-.7 2.2-.3.3-.5.4-.8.6.3-.1.6-.3.8-.6.5-.5.7-1.3.7-2.2v-2.4c0-.9-.2-1.7-.7-2.2zm-259.3 35.7l.3-1h-.1l-.3 1.1c.6.3 1.6.6 2.6.6.9 0 1.7-.2 2.3-.6-.5.3-1.3.5-2.2.5-1 0-2.1-.2-2.6-.6zM767.9 13l-.9-.3c.4.1.6.2.9.3zM526.6-27.6c0 .9 0 1.7.1 2.6-.1-.9-.1-1.7-.1-2.6zm-1.5-.2c.4.7.8 1.3 1.1 1.9-.3-.6-.6-1.2-1.1-1.9zm-1.5-.1c-.6-1-1.2-2-1.7-2.9.5.9 1.1 1.9 1.7 2.9l2.9 4.4h1.2-1.2l-2.9-4.4zm-60.4 3.7c.7 0 1.4-.2 1.8-.4v-.2c-.5.3-1.2.4-1.9.4-1.4 0-2.4-.5-3-1.5.6 1.1 1.6 1.7 3.1 1.7zm50.4-8l3.1 8.8h.1l-3.1-8.8zm16.1 8.7v-7.9 7.9zm-74.4-130.6c0-.2 0-.4.1-.5-.1.2-.1.3-.1.5zm56 127.9l-1 2.8h.2l.9-2.8h3.1zm-53.4-130.5c-1.3 0-2.3.9-2.5 2 .2-1.1 1.3-2 2.5-2zM513-31.2v.2c.2.4.3.9.4 1.4l.8 2.5h.2l-.9-2.5c-.2-.6-.4-1.1-.5-1.6zm-49.8-1c1 0 1.6.2 2 .3v-.1c-.3-.2-1-.4-2.1-.4-2.8 0-4.7 1.9-4.8 4.5 0 .7.1 1.4.4 1.9-.2-.5-.3-1.1-.3-1.7 0-2.8 1.9-4.7 4.8-4.5zM476-154.1c0-.2 0-.4.1-.5-.1.2-.1.3-.1.5zm9.5-2.6c-1.3 0-2.3.9-2.5 2 .2-1.1 1.3-2 2.5-2zm75.8 127.5s0 .1 0 0c0 .1 0 0 0 0zm-12.9-1.7c0 .1 0 .2-.1.3.1.8.3 1.6.6 2.6l1.1 4.6h.1L549-28c-.3-1.2-.5-2-.6-2.9zm-81.8-1.3h.1v8.8h-.1zm92 .8c.2 0 .5 0 .7.1-.2-.1-.5-.1-.7-.1zm2.9 3.6zM775.9 8.3c-5.5-5.7-14.6-5.7-20.3-.1l.1.1c5.5-5.7 14.7-5.7 20.2 0zm-297.3-165zm72.9 128.9l1.2-4.4h-.1l-1.1 4.4c-.4 1-.6 1.8-.7 2.7v.3c.2-.9.4-1.9.7-3zm-7.4-4.4h-1.3l2.3 8.8h.2l-2.3-8.8zm2.6 4.4l1.2-4.4h-.1l-1.2 4.4c-.3 1-.5 1.9-.7 2.7 0 .1 0 .2.1.3.1-.8.4-1.9.7-3zm-55.7-.8zm67.6 4.4c1.9 0 2.9-1.6 2.9-3.6 0 1.9-1.1 3.6-2.9 3.6zm-88.8-111l-9.1 9.1 9.1-9 1.4 1.4v-.1zm6.3 107.5zm2.9-4.7c-1.5 0-2.7.7-3.4 1.9.8-1.1 2-1.8 3.4-1.9 2.5.1 4.1 1.9 4.1 4.4 0-2.6-1.6-4.4-4.1-4.4zm11.9 3.2s0 .1 0 0c0 .1 0 0 0 0zm-2.7-2.2c.2 0 .5 0 .7.1-.2-.1-.5-.1-.7-.1zm-13.1 5.5c-.2-.4-.3-1-.3-1.5l.3 1.5zm3.9 1.7c1.9 0 2.9-1.6 2.9-3.6 0 1.9-1.1 3.6-2.9 3.6zm2.7-5s0 .1 0 0c0 .1 0 0 0 0zm14 5.8c2.2 0 3.2-1.1 3.2-2.5 0 1.3-1.1 2.5-3.2 2.5zm-16.7-.8zm2.8-4.4z"/>
    <path fill="none" d="M479-31.4c.2 0 .5 0 .7.1-.2-.1-.5-.1-.7-.1zm16.7 0c.2-.1.5-.1.8-.1-.3 0-.6.1-.8.1zm-.9 1c.1-.4.4-.8.9-1-.5.2-.8.6-.9 1zm3.4-.7zm-3.4.9v-.2.2zm1.2 2.7c-1.5-.5-2.4-1.3-2.4-2.5 0 1.3.9 2 2.4 2.5 1.2.5 1.7.9 1.7 1.7 0-.8-.5-1.2-1.7-1.7zm-2.3 2.6l-.3.9c.5.4 1.4.6 2.3.6-.9 0-1.8-.3-2.3-.6l.3-.9zm2.4-126.6l.3-.3-.3.3zm-7.9 127.3c1.9 0 2.9-1.6 2.9-3.6 0 1.9-1.1 3.6-2.9 3.6zm10.3-7.8l-.1.2zm-30.7 4.4h4.4v.1h-4.4z"/>
    <path fill="none" d="M488.3-32.4c-.9 0-1.8.3-2.4.8.6-.4 1.4-.7 2.4-.8 2.4.1 4 1.9 4 4.5 0 1.5-.5 2.6-1.2 3.4.8-.8 1.3-1.9 1.3-3.5 0-2.6-1.6-4.4-4.1-4.4zm-3 4.7c0 1.8 1.1 3.5 2.9 3.5-1.8 0-2.9-1.7-2.9-3.5zm76.1-.9zM734.5 66c0-2.1 1.7-3.9 3.8-3.9h-.1c-2.1 0-3.9 1.7-3.9 3.9v1.9h.1V66zm22.4 1.4l-1.3-1.3zm7.9 58.4h-.1.1zm-26.4-62.5c1.4 0 2.6 1.2 2.5 2.7v1.9h.2V66c0-1.5-1.2-2.7-2.7-2.7zm13.1-216zm14.3 214.5c3.7 0 7.4 1.4 10.2 4.3-2.8-2.8-6.5-4.3-10.2-4.3zm.1 8.6c.4 0 .7 0 1.1.1-.4-.1-.7-.1-1.1-.1zm-2.1 55.7c-.1 0-.2.1-.3.1.1 0 .2-.1.3-.1zm0-55.3c-.1 0-.2.1-.3.1.1 0 .2-.1.3-.1zm1-.3h-.1.1zm3.1 55.6l-.9-.3c.4.1.6.2.9.3zM759.6 70c1.6-1.6 3.8-2.6 6.2-2.6-2.5 0-4.7 1-6.3 2.6l2.1 2.1h.1l-2.1-2.1zm6.2-55.6c1.1 0 2.1.5 2.8 1.2l-2.8 2.8 2.8-2.8c-.7-.7-1.7-1.2-2.8-1.2zm-1-1.7h-.1.1zm-31.2 55.2h-.2v7.7h.2zM763.8 13c-.1 0-.2.1-.3.1.1 0 .2-.1.3-.1zm2.1-.4c.4 0 .7 0 1.1.1-.4-.1-.7-.1-1.1-.1zM478.6-156.7c-1.3 0-2.3.9-2.5 2 .2-1.1 1.3-2 2.5-2zm281 168.9c1.6-1.6 3.8-2.6 6.2-2.6-2.5 0-4.7 1-6.3 2.6l2.1 2.1h.1l-2.1-2.1zM770 127.4c-.5-.5-1.1-.9-1.7-1.2.6.3 1.2.7 1.7 1.2zm-19.1-278c-.1-.2-.2-.4-.2-.7 0 .3 0 .5.2.7zM770 14.3c-.5-.5-1.1-.9-1.7-1.2.6.3 1.2.7 1.7 1.2zm-2.1 56.5l-.9-.3c.4.1.6.2.9.3zm-2.1 56.8c.8 0 1.6.3 2.2.7-.6-.4-1.4-.7-2.2-.7z"/>
    <path fill="none" d="M749.8-151.3v-.4c0-.5.2-.9.5-1.2-.3.3-.5.7-.5 1.2v.4c0 .5.2.9.5 1.2.3.3.7.5 1.2.5-.5 0-.9-.2-1.2-.5s-.5-.7-.5-1.2zM569.4-25.9c-.2-.8-.6-1.5-1.2-1.7h-.1c.7.3 1.1.9 1.3 1.7.3 1.2.5 2 .7 2.4-.2-.3-.4-1.2-.7-2.4zm2.1-6.3h-.2v8.7h.3v-8.7zM778.4-158c-.1-.2-.3-.3-.4-.4.2.1.3.2.4.4zM573.5-28.9l2.8-3.3h-.1l-2.7 3.3c-.3.3-.5.5-.7.8v.1c.2-.3.5-.6.7-.9zm0 1.1l-.1.1 3 4.2h1.4-1.3zm178.8-124.3c0 .1.1.2.1.4 0-.1 0-.2-.1-.4zM568.6-29.8c0 1-.7 1.7-2.1 1.7h.2c1.2 0 2-.7 1.9-1.7.1-1.1-.8-1.6-2-1.6h-.1c1.3 0 2.1.5 2.1 1.6zm-85.7-124.3c0-.2 0-.4.1-.5-.1.2-.1.3-.1.5zm75.8 121.7c-2.4 0-4.2 1.9-4.2 4.6 0-2.7 1.8-4.5 4.2-4.6 2.5.1 4.1 1.9 4.1 4.4 0-2.6-1.6-4.4-4.1-4.4zm200.2-126c-.2.1-.3.3-.4.4.1-.2.2-.3.4-.4zM770 72.1c-.5-.5-1.1-.9-1.7-1.2.6.3 1.2.7 1.7 1.2z"/>
    <path fill="none" d="M566.5-32.2c1.2 0 2 .2 2.6.7.4.4.7 1 .7 1.7v-.1c0-.7-.2-1.3-.7-1.7-.6-.5-1.4-.7-2.6-.6-.8-.1-1.6 0-2.2.1h-.1v8.6h.1V-32c.6-.1 1.4-.2 2.2-.2z"/>
    <path fill="none" d="M565.4-31.3c.2 0 .6-.1 1.1-.1-.5 0-.9 0-1.1.1zm200.5 157c.4 0 .7 0 1.1.1-.4-.1-.7-.1-1.1-.1zM447 95.9h342v.1H447zm318.8-23.6c.8 0 1.6.3 2.2.7-.6-.4-1.4-.7-2.2-.7zm-13.5-224.4zm7.3 277.4c1.6-1.6 3.8-2.6 6.2-2.6-2.5 0-4.7 1-6.3 2.6l2.1 2.1h.1l-2.1-2.1zm6.2-4.5c3 0 5.7 1.2 7.6 3.2-1.9-2-4.6-3.2-7.6-3.2zM579.4-23.3c.5 0 .8-.3.8-.8 0 .4-.3.8-.8.8zm.7-1.1c-.1-.3-.4-.5-.7-.5.4 0 .6.2.7.5zm4.9 1.1c.5 0 .8-.3.8-.8 0 .4-.3.8-.8.8zm-2.8 0c.5 0 .8-.3.8-.8 0 .4-.3.8-.8.8zm183.6 140.4c-3.7 0-7.4 1.4-10.2 4.3l2.6 2.6-2.6-2.6c2.8-2.8 6.5-4.3 10.2-4.3zm-268-275.5h.8-.8zm0 2.2c-1.8 0-3.4.7-4.5 1.9 1.1-1.2 2.8-1.9 4.5-1.9zm-2.6 33.5c0-.2-.1-.4-.1-.6 0 .2 0 .4.1.6zm9-8.3c.4 0 .7.3.7.8.1.4-.3.8-.7.8.5 0 .8-.3.8-.8s-.4-.9-.8-.8zm-7.2 10l-.1-1zm2.2-30.8l.3.3-.3-.3zm2.3-1.7l.1-.1c-1-1-2.3-1.6-3.8-1.6s-2.8.6-3.8 1.6c1-.9 2.2-1.5 3.7-1.5s2.8.6 3.8 1.6zm-1.3 23.2l-.2.1v2h1.9v1h.2v-1h-1.9zm-5 0h-.1v2.1h1.9-1.8zm5.5 9.5c.1 0 .1 0 0 0 .6 0 1-.1 1.3-.2l-.1-1h-.1l.1 1c-.3.1-.7.2-1.2.2zm-.7-2.5c0 .9.3 1.4 1 1.4h.1c-.7 0-1-.5-1.1-1.4l.1-3.9h-.1v3.9zm2.3-31c-1.1-1.2-2.7-1.9-4.5-1.9 1.7 0 3.3.7 4.5 1.9zM607.2-127l1.7-6.1h-.1l-1.7 6.1c-.4 1.5-.7 2.8-.9 3.9v.3c.2-1.2.6-2.6 1-4.2zm-5.2-6.1l3.1 12.2h1.7v-.1h-1.6zm-76.1 5.7c-.8 0-1.2.5-1.2 1 0-.5.4-.9 1.2-1 .7.1 1.2.3 1.5.5l.3-1-.3.9c-.3-.2-.8-.4-1.5-.4zm83.8-3.8c0 .1 0 .2-.1.3.2 1.2.4 2.3.8 3.7l1.6 6.3h.1l-1.6-6.3c-.4-1.6-.6-2.8-.8-4zm-88.2 4.9v4.2c0 1.6-.3 2.7-1 3.3-.7.7-1.7.9-2.6.9-.8 0-1.7-.2-2.3-.5.6.4 1.5.6 2.4.6s1.9-.2 2.6-.9c.7-.6 1-1.6 1-3.3l-.1-4.3c.1-.8.2-1.4.2-1.9h-.1c-.1.5-.1 1.1-.1 1.9zm3.8 5.5c-.8 0-1.5-.2-2-.5v.1c.5.3 1.2.5 2 .4 1.7.1 2.7-.8 2.7-2.1v-.1c0 1.3-1 2.2-2.7 2.2zm0-3.5c-1.3-.5-1.9-1.2-1.9-2 0 .9.6 1.6 1.9 2 .9.5 1.3.8 1.4 1.4v-.1c0-.6-.4-.9-1.4-1.3zm88.7-2.6l1.7-6.1h1.5-1.6l-1.7 6.1c-.4 1.4-.7 2.7-.9 4v.2c.3-1.3.6-2.7 1-4.2zm4.7-4.4c-.1 0-.1-.1-.2-.1.1.1.2.1.2.1zm.6-1.8c.5 0 .9.4.9 1 .1.6-.4 1-.9 1 .6 0 1-.5 1-1 0-.6-.4-1-1-1zm-.4 1.9zm-129.6 9.6c.9 0 1.5-.2 2-.4l.2.7-.2-.9c-.5.2-1.1.4-2 .4-1.2 0-2.4-.7-2.5-2.3 0 1.8 1.2 2.5 2.5 2.5zm140.9-6.2h4.6v.1h-4.6zm-139.6 2.5h-3.8c.1-.9.7-2.1 2-2.1-1.3 0-1.9 1.2-2.1 2.1h3.9zm4.6-5z"/>
    <path fill="none" d="M488.9-128.5c-2.1 0-3.4 1.7-3.4 3.9v.1c0-2.2 1.3-3.9 3.4-3.6 2.4 0 3 2.1 3 3.4v-.2c0-1.4-.6-3.5-3-3.6zm21.7.1c-1.2 0-2 .7-2.4 1.4l-.1-1.2h-1.2v.1h1.2l.1 1.2c.4-.7 1.2-1.4 2.4-1.4 1 0 2.6.6 2.6 3.1v-.1c0-2.5-1.6-3.1-2.6-3.1zm7.7 1.1c-.8 0-1.5.4-1.8 1.1.4-.7 1-1.1 1.8-1.1zm2 .1l-.1-.1s.1 0 .1.1zm-11.9 1.3c-.1.1-.1.4-.1.6 0-.2 0-.4.1-.6zm11.4 3.1c-.4.5-.9.8-1.5.8.6 0 1.1-.3 1.5-.8z"/>
    <path fill="none" d="M517.9-121c-.9 0-1.6-.3-2.1-.9.5.6 1.3 1 2.1.9 1.1.1 1.9-.3 2.3-1v-.2c-.4.7-1.2 1.2-2.3 1.2zm-9.5-4.9c.3-.7.9-1.3 1.8-1.3-.9 0-1.6.6-1.8 1.3zm11.8.6c0-.2 0-.4-.1-.6-.2-.8-.8-1.4-1.8-1.4.9 0 1.6.6 1.8 1.4.1.2.1.4.1.6v1.3c0 .2 0 .5-.1.7-.1.2-.2.4-.3.5.1-.2.2-.3.3-.5.1-.2.1-.5.1-.7v-1.3z"/>
    <path fill="#FFF" d="M432.7-155.7h-1.8c-.3 0-.5.2-.5.5v29.1c0 .3.2.5.5.5h1.8v-30.1zm-2.2 71v54.6c0 .3.2.5.5.5h1.8v-55.6H431c-.3 0-.5.2-.5.5zm376.2 53.6v-52.6c0-.8-.7-1.5-1.5-1.5h-1.4v55.6h1.4c.8 0 1.5-.7 1.5-1.5zm-370.9-161v332h9.2v-301c0-2.2 1.8-4 4-4h338c2.2 0 4 1.8 4 4v301h9.8v-332c0-27.8-22.6-50.4-50.4-50.4H486.2c-27.8 0-50.4 22.6-50.4 50.4zm181.6-41.3c.3 0 .6 0 1 .1.3.1.5.1.8.2h.1c.2.1.4.2.7.3.1 0 .1.1.2.1.2.1.3.2.4.4.1.1.2.1.3.2.1.1.2.2.2.3l.4.4c0 .1.1.1.1.2.1.2.3.4.3.7v.1c.1.2.2.5.2.8.1.3.1.6.1 1s0 .6-.1 1c-.1.3-.1.5-.2.8v.1c-.1.2-.2.4-.3.7 0 .1-.1.1-.1.2-.1.2-.2.3-.4.4-.1.1-.1.2-.2.3-.1.1-.2.2-.3.2l-.4.4c-.1 0-.1.1-.2.1-.2.1-.4.3-.7.3h-.1c-.2.1-.5.2-.8.2-.3.1-.6.1-1 .1s-.6 0-1-.1c-.3-.1-.5-.1-.8-.2h-.1c-.2-.1-.4-.2-.7-.3-.1 0-.1-.1-.2-.1-.2-.1-.3-.2-.4-.4-.1-.1-.2-.1-.3-.2-.1-.1-.2-.2-.2-.3l-.4-.4c0-.1-.1-.1-.1-.2-.1-.2-.3-.4-.3-.7v-.1c-.1-.2-.2-.5-.2-.8-.1-.3-.1-.6-.1-1 0-2.7 2.1-4.8 4.8-4.8zM590-206.1h54c2.2 0 4 1.8 4 4s-1.8 4-4 4h-54c-2.2 0-4-1.8-4-4s1.8-4 4-4zm-41.6 3.8c0-4.1 3.3-7.4 7.4-7.4 4.1 0 7.4 3.3 7.4 7.4v.1c0 4.1-3.3 7.4-7.4 7.4-4.1 0-7.4-3.3-7.4-7.4v-.1zM431.2-12.9c-.3 0-.5.2-.5.5v54.6c0 .3.2.5.5.5h1.5v-55.6h-1.5z"/>
    <path fill="#F1F1F2" d="M738.3 63.3c-1.5 0-2.6 1.2-2.6 2.7v1.9h5.2V66c.1-1.5-1.1-2.7-2.6-2.7zm8.5-219.6v.4c0 .3.1.5.2.7.1.2.3.3.6.3.2 0 .4-.1.5-.3.1-.2.2-.4.2-.7v-.4c0-.3 0-.5-.2-.7-.1-.2-.3-.3-.5-.3-.3 0-.5.1-.6.3-.2.2-.2.4-.2.7zM568.6-29.8c0-1.1-.8-1.6-2.1-1.6-.5 0-.8.1-1.1.1h.1v3.2h1c1.4 0 2.1-.7 2.1-1.7zM520.2-124v-1.3c0-.2 0-.4-.1-.6-.2-.8-.9-1.4-1.8-1.4-.8 0-1.4.4-1.8 1.1-.2.4-.3 1-.3 1.6 0 1.4.7 2.6 2.1 2.6.6 0 1.1-.3 1.5-.8.1-.2.2-.3.3-.5.1-.2.1-.5.1-.7zm38.4 99.8c1.8 0 2.9-1.7 2.9-3.6v-.9c0-.2-.1-.3-.1-.5v-.1c-.3-1-1-1.9-2-2.1-.2-.1-.4-.1-.7-.1-1.9 0-2.9 1.7-2.9 3.7-.1 1.9 1 3.6 2.8 3.6zm-70.4 0c1.8 0 2.9-1.7 2.9-3.6v-.9c0-.2-.1-.3-.1-.5v-.1c-.3-1-1-1.9-2-2.1-.2-.1-.4-.1-.7-.1-1 0-1.7.4-2.2 1.1-.5.7-.7 1.6-.7 2.6-.1 1.9 1 3.6 2.8 3.6zM513-31c-.2.5-.3 1-.5 1.4l-.8 2.5h2.5l-.8-2.5c-.2-.5-.3-1-.4-1.4zm-34 6.8c1.8 0 2.9-1.7 2.9-3.6v-.9c0-.2-.1-.3-.1-.5v-.1c-.3-1-1-1.9-2-2.1-.2-.1-.4-.1-.7-.1-1 0-1.7.4-2.2 1.1-.5.7-.7 1.6-.7 2.6-.1 1.9 1 3.6 2.8 3.6zM447 97.9v42h342v-42H447zm173.7 36.5H469.5v-20.8h151.2v20.8zm145.1-2.8l-2.8-2.8c.7-.8 1.7-1.2 2.8-1.2.8 0 1.6.3 2.2.7.2.1.4.3.6.5l-2.8 2.8zm4.3-4.2h-.1c-.5-.5-1.1-.9-1.7-1.2-.1 0-.2-.1-.3-.1l-.9-.3h-.1c-.4-.1-.7-.1-1.1-.1-.4 0-.7 0-1.1.1h-.1l-.9.3c-.1 0-.2.1-.3.1-.6.3-1.2.7-1.7 1.2h-.1l-2.1-2.1c1.6-1.6 3.8-2.6 6.3-2.6h.1c2.5 0 4.7 1 6.3 2.6l-2.2 2.1zm3.3-3.4c-1.9-2-4.6-3.2-7.6-3.2-2.6 0-5 .9-6.9 2.5-.3.2-.5.5-.7.7l-2.6-2.6c2.8-2.9 6.5-4.3 10.2-4.3 3.7 0 7.4 1.4 10.2 4.3l-2.6 2.6zm-21.2-274.6c.1-.2.2-.4.2-.7v-.4c0-.1 0-.3-.1-.4v-.1c0-.1-.1-.2-.2-.2-.1-.2-.3-.3-.6-.3h-.1c-.2 0-.4.1-.5.3-.1.2-.2.4-.2.7v.4c0 .3.1.5.2.7.2.2.4.3.7.3.2 0 .4-.1.6-.3zm-305.2 45h342v.1H447zm39.8-19.7h3.8c0-.8-.3-2.1-1.8-2.1-1.3 0-1.9 1.2-2 2.1zm250.3-30c0-.3 0-.6-.1-.8l-.3-.6c-.3-.3-.6-.5-1.1-.5s-.8.2-1.1.5-.4.8-.4 1.4v2.9c0 .6.1 1.1.4 1.4.3.3.6.5 1.1.5s.8-.2 1.1-.5l.1-.1c.1-.1.2-.3.2-.5.1-.2.1-.5.1-.8v-2.9zm6.1-1.4c-.3-.3-.6-.5-1.1-.5s-.8.2-1.1.5c-.1.1-.3.3-.3.6s-.1.5-.1.8v2.9c0 .3 0 .6.1.8l.3.6c.3.3.6.5 1.1.5s.8-.2 1.1-.5c.1-.1.1-.2.2-.3.2-.3.2-.7.2-1.1v-2.9c0-.3 0-.6-.1-.8s-.1-.4-.3-.6z"/>
    <path fill="#F1F1F2" d="M789-50.7H447V-16h342v-34.7zM463.1-24.4c.7 0 1.4-.1 1.9-.4v.2h.1l.2.9c-.4.2-1.3.4-2.4.4-2 0-3.6-.9-4.2-2.7-.2-.6-.4-1.2-.4-1.9.1-2.6 2-4.5 4.8-4.5 1.1 0 1.8.2 2.1.4v.1s.1 0 .1.1l-.3.9c-.4-.2-1-.4-1.8-.4-2.1 0-3.5 1.3-3.5 3.6 0 .7.2 1.3.4 1.8.6 1 1.6 1.5 3 1.5zm10.3 1h-1.2v-4.1h-4.4v4.1h-1.2v-8.8h1.2v3.7h4.4v-3.7h1.2v8.8zm9.7-4.5c0 3-1.9 4.6-4.2 4.6-1.8 0-3.2-1-3.8-2.6-.2-.4-.3-.9-.3-1.5v-.7c.1-1 .3-1.8.8-2.5.7-1.2 1.9-1.9 3.4-1.9 2.5.1 4.1 1.9 4.1 4.6 0-.1 0-.1 0 0zm8 3.4c-.8.8-1.8 1.2-3 1.2-2.3 0-4-1.8-4.1-4.4 0-1.8.7-3.1 1.9-3.9.7-.5 1.5-.8 2.4-.8 2.5 0 4.1 1.8 4.1 4.4 0 1.5-.5 2.7-1.3 3.5zm4.6 1.1c-.9 0-1.8-.2-2.3-.6l.3-.9c.5.3 1.3.6 2.1.6 1.2 0 1.9-.6 1.9-1.5 0-.8-.5-1.2-1.7-1.7-1.5-.5-2.4-1.2-2.4-2.5 0-1.4 1.1-2.4 2.9-2.4.7 0 1.2.1 1.6.3.1 0 .3.1.4.1l-.1.2-.2.7c-.3-.1-.9-.4-1.7-.4-.3 0-.6 0-.8.1-.5.2-.8.6-.9 1v.2c0 .8.6 1.2 1.8 1.7.6.2 1 .5 1.4.7l.3.3c.4.4.6.9.6 1.6 0 1.4-1 2.5-3.2 2.5zm9.8-.1l-5.1.1v-8.8h4.9v.9h-3.7v2.8h3.5v.9h-3.5v3.2h3.9v.9zm11.2.1h-1.2l-1-2.8h-3.1l-.9 2.8h-1.4l3.1-8.8h1.5l3 8.8zm11-.1h-1.2l-2.9-4.4c-.6-1-1.2-2-1.7-2.9.1 1.1.1 2.1.1 3.6v3.8h-1.1v-8.8h1.3l2.9 4.4c.5.7.8 1.3 1.1 1.9.2.3.3.6.5.9-.1-.9-.1-1.7-.1-2.6v-4.7h1.1v8.8zm7.1 0l-5.1.1v-8.8h4.9v.9h-3.7v2.8h3.5v.9h-3.5v3.2h3.9v.9zm7.4-8.7v1h-2.8v7.8h-1.2v-7.8h-2.7v-1h6.7zm9.1 8.8H550l-1.1-4.6c-.3-1-.5-1.8-.6-2.6-.2.8-.4 1.6-.6 2.6l-1.3 4.6h-1.3l-2.3-8.8h1.4l1.1 4.4c.3 1 .5 2 .6 2.7.1-.8.4-1.7.7-2.7l1.2-4.4h1.3l1.1 4.4c.2.9.4 1.9.6 2.7.2-.9.4-1.7.6-2.7l1.2-4.4h1.3l-2.6 8.8zm11.5-4.5c0 3-1.9 4.6-4.2 4.6-2.4 0-4.1-1.8-4.1-4.4v-.1c0-2.7 1.8-4.6 4.2-4.6 2.5 0 4.1 1.8 4.1 4.5 0-.1 0-.1 0 0zm7.3 4.5h-1.2c-.1-.3-.3-1-.6-2.1-.3-1.2-.7-1.7-1.8-1.7h-1v3.8h-1.2v-.1h-.1v-8.6h.1c.6-.1 1.4-.2 2.2-.2 1.2 0 2 .2 2.6.7.5.4.7 1 .7 1.7v.1c0 1.1-.6 1.8-1.6 2.2.6.2 1 .9 1.2 1.7.3 1.2.5 2.1.7 2.5 0-.1 0 0 0 0zm7.7-.1h-1.4l-3-4.2-.8.9h.2v3.4h-1.2v-.1h-.3v-8.7h1.5v4.1c.2-.3.4-.5.6-.8l2.8-3.3h1.5l-3.3 3.7 3.4 5zm1.6.2c-.3 0-.5-.1-.6-.3-.1-.1-.2-.3-.2-.5 0-.5.3-.8.8-.8.4 0 .6.2.7.5 0 .1.1.2.1.3 0 .5-.3.8-.8.8zm2.8 0c-.1 0-.2 0-.3-.1-.3-.1-.5-.4-.5-.7 0-.4.2-.6.5-.7.1 0 .2-.1.3-.1.5 0 .8.3.8.8s-.3.8-.8.8zm2.8 0c-.5 0-.8-.4-.8-.8 0-.5.3-.8.8-.8s.8.3.8.8-.3.8-.8.8zm204-137.8c0-1.1-.9-2-2-2H449c-1.1 0-2 .9-2 2v53.4h342v-53.4zm-303.5 4.4c1.4 0 2.6 1.2 2.6 2.6 0 1.4-1.2 2.6-2.6 2.6-1.4 0-2.6-1.2-2.6-2.6 0-.2 0-.4.1-.5.2-1.2 1.2-2.1 2.5-2.1zm-20.7 0c1.4 0 2.6 1.2 2.6 2.6 0 1.4-1.2 2.6-2.6 2.6-1.4 0-2.6-1.2-2.6-2.6 0-1.4 1.2-2.6 2.6-2.6zm-6.9 5.2c-1.4 0-2.6-1.2-2.6-2.6 0-.2 0-.4.1-.5.3-1.1 1.2-2 2.5-2 1.4 0 2.6 1.2 2.6 2.6 0 1.3-1.2 2.5-2.6 2.5zm13.3 17.8l-7.7 7.6 7.7 7.7-1.4 1.4-9.1-9.1 9.1-9.1 1.4 1.4v.1zm.5-17.8c-1.4 0-2.6-1.2-2.6-2.6 0-1.4 1.2-2.6 2.6-2.6 1.4 0 2.6 1.2 2.6 2.6 0 1.4-1.2 2.6-2.6 2.6zm4.3-2.6c0-.2 0-.4.1-.5.3-1.1 1.2-2 2.5-2 1.4 0 2.6 1.2 2.6 2.6 0 1.4-1.2 2.6-2.6 2.6-1.4-.1-2.6-1.3-2.6-2.7zm7.3 32.5c-.1.1-.2.2-.4.3-.6.4-1.3.6-2.3.6-1 0-2-.3-2.6-.6l.3-1.1h.1v-.1c.5.4 1.4.7 2.3.7.6 0 1.2-.2 1.5-.5.3-.3.5-.7.5-1.1 0-.9-.5-1.5-1.9-2-1.6-.6-2.7-1.4-2.7-2.9 0-.8.4-1.5 1-2s1.4-.8 2.5-.9c1 0 1.7.2 2.2.5l-.4 1.1h-.1v.1c-.3-.2-1-.5-1.9-.5-.7 0-1.1.2-1.4.5-.3.3-.4.6-.4.9 0 .9.6 1.4 2 1.9 1.7.7 2.6 1.5 2.6 3 .1.8-.2 1.5-.9 2.1zm8.6-3.1v.6h-5.1c.1 1.6 1.2 2.3 2.5 2.3.9 0 1.5-.2 2-.4l.2.9v.2c-.4.2-1.2.4-2.4.4-2.3 0-3.6-1.5-3.6-3.7v-.2c0-2.2 1.3-3.9 3.4-3.9 2.4.1 3 2.2 3 3.6v.2zm5.1-3.5v1h-1.9v3.9c0 .2 0 .4.1.6.1.5.4.8.9.8.4 0 .6-.1.8-.1l.1 1c-.3.1-.7.2-1.2.2-.6 0-1.1-.2-1.4-.6-.4-.4-.5-1-.5-1.9v-4h-1.1v-1h1.1v-1.7l1.2-.3h.1v2.1h1.8zm-3-25.4c1-1 2.3-1.6 3.8-1.6s2.8.6 3.8 1.6l-.1.1-1.3 1.3c-.6-.6-1.5-1-2.5-1s-1.9.4-2.5 1l-1.3-1.3.1-.1zm5.5 2.1l-1.7 1.7-1.7-1.7.3-.3c.4-.3.8-.4 1.4-.4.5 0 1 .2 1.4.4l.3.3zm2.6 24.3h-2v3.9c0 .9.3 1.4 1 1.4.3 0 .5-.1.7-.1h.1l.1 1c-.3.1-.7.2-1.2.2h-.1c-.6 0-1.1-.2-1.4-.6-.4-.4-.5-1-.5-1.9v-4h-1.1v-1h1.1v-1.7l1.2-.3h.1-.1.2v2.1h1.9v1zm-4.3-29c-1.7 0-3.4.7-4.5 1.9l-1.6-1.6c.2-.2.4-.4.7-.6.7-.6 1.4-1 2.2-1.3.3-.1.5-.2.8-.3.8-.2 1.6-.4 2.4-.4h.8c1.9.2 3.8 1 5.3 2.5l-1.6 1.6c-1.2-1.1-2.8-1.8-4.5-1.8zm7 35.3h-1.3v-7.3h1.3v7.3zm-.6-8.5c-.1 0-.1 0 0 0-.6 0-.9-.3-.9-.8s.4-.9.8-.8h.1c.4-.1.8.3.8.8s-.3.8-.8.8zm9 4.2v4.3h-1.3v-4.2c0-1.1-.5-2.1-1.7-2.1-.9 0-1.5.6-1.8 1.3-.1.2-.1.4-.1.6v4.4H507v-5.2c0-.8-.1-1.4-.1-2v-.1h1.2l.1 1.2c.4-.7 1.2-1.4 2.4-1.4 1 0 2.6.6 2.6 3.1v.1zm8.4-1v4.2c0 1.7-.3 2.7-1 3.3-.7.7-1.7.9-2.6.9s-1.8-.2-2.4-.6c0 0-.1 0-.1-.1l.3-1c.5.3 1.2.6 2.1.6 1.3 0 2.3-.7 2.3-2.5v-.6c-.4.6-1.2 1.1-2.2 1.1-.9 0-1.7-.4-2.2-1-.6-.6-1-1.6-1.1-2.7 0-2.5 1.6-3.9 3.3-3.9 1.2 0 1.8.6 2.2 1.1l.1.1.1-1.1h1.2v.1h.1c0 .6-.1 1.2-.1 2.1zm6.4 3.3c0 1.3-1 2.2-2.7 2.2-.8 0-1.5-.2-2-.5v-.1l.3-1c.4.2 1 .5 1.7.5.9 0 1.3-.4 1.4-1.1 0-.6-.4-.9-1.4-1.3-1.3-.5-1.9-1.2-1.9-2.1v-.1c0-1.1.9-2.1 2.5-2.1.7 0 1.4.3 1.8.5v.1l-.3 1c-.3-.2-.8-.4-1.5-.4-.8 0-1.2.4-1.2.9 0 .6.5.8 1.4 1.2 1.3.5 1.9 1.1 1.9 2.3 0-.1 0-.1 0 0zm85.8 2H612l-1.6-6.3c-.4-1.4-.6-2.5-.8-3.7-.3 1.1-.5 2.3-.9 3.7l-1.8 6.3v-.1h-.1v.1h-1.7l-3.1-12.2h1.8l1.5 6.1c.3 1.4.6 2.8.9 3.9.2-1.1.6-2.5.9-3.9l1.7-6.1h1.8l1.5 6.2c.4 1.4.7 2.7.9 4 .3-1.2.6-2.5.9-4l1.7-6.1h1.7l-3.5 12.1zm6.3 0h-1.6v-8.7h1.6v8.7zm-.8-10.2c-.1 0-.1 0 0 0-.2 0-.3 0-.4-.1h-.1c-.1 0-.1-.1-.2-.1s-.1-.1-.2-.1c-.2-.2-.3-.4-.4-.7 0-.6.4-1 1-1s1 .4 1 1c.3.5-.1 1-.7 1zm7.3 5.9H622v-1.2h4.6v1.2zm8.7-6.5h-5.1v3.9h4.6v.1h.1v1.3h-4.7v5.5h-1.7v-12.2h6.8v1.4zm1.7 10.8v-8.7h1.6v8.7H637zm.9-10.2c-.1 0-.1 0 0 0-.7 0-1.1-.5-1.1-1 0-.6.4-1 1-1h.1c.6 0 1 .4 1 1 0 .5-.4 1-1 1zm92-26.9v8.3h-1.2v-7.2H727v-.8l2.9-.3zm8.3 5.4c0 .9-.2 1.7-.7 2.2-.3.3-.5.4-.8.6s-.7.2-1.1.2c-.8 0-1.4-.3-1.9-.8s-.7-1.3-.7-2.2v-2.4c0-.9.2-1.7.7-2.2.5-.6 1.1-.8 1.9-.8s1.4.2 1.9.8c.5.5.7 1.3.7 2.2v2.4zm6.5 0c0 .9-.2 1.7-.7 2.2-.3.3-.5.4-.8.6s-.7.2-1.1.2c-.8 0-1.4-.3-1.9-.8s-.7-1.3-.7-2.2v-2.4c0-.9.2-1.7.7-2.2.5-.6 1.1-.8 1.9-.8s1.4.2 1.9.8c.5.5.7 1.3.7 2.2v2.4zm1.2-3.3v-.4c0-.5.2-.9.5-1.2.3-.3.7-.5 1.2-.5h.4c.2 0 .4.1.6.3.1.1.2.1.2.2s.1.2.2.2l.3.6v.8c0 .5-.2.9-.5 1.2s-.7.5-1.2.5-.9-.2-1.2-.5c-.3-.3-.5-.7-.5-1.2zm1.4 5.2l3.9-6.4h.1l.6.4-4 6.4-.6-.4zm5.9-.6c0 .5-.2.9-.5 1.2-.3.3-.7.5-1.2.5s-.9-.2-1.2-.5c-.3-.3-.5-.7-.5-1.2v-.4c0-.5.2-.9.5-1.2.3-.4.7-.5 1.2-.5s.9.2 1.2.5.5.7.5 1.2v.4zm26.5-1.1l-1 .1v1.1c0 .8-.7 1.5-1.5 1.5h-17.5c-.9 0-1.5-.7-1.5-1.5v-6c0-.3.1-.6.3-.8.1-.2.3-.3.4-.4.2-.2.5-.3.8-.3h17.5c.3 0 .6.1.8.3.2.1.3.3.4.4.2.2.3.5.3.8v1.1h1v3.7zM447 95.9h342V42H447v53.9zm318.8-19.6l-2.8-2.8c.7-.8 1.7-1.2 2.8-1.2.8 0 1.6.3 2.2.7.2.1.4.3.6.5l-2.8 2.8zm4.3-4.2h-.1c-.5-.5-1.1-.9-1.7-1.2-.1 0-.2-.1-.3-.1l-.9-.3h-.1c-.4-.1-.7-.1-1.1-.1-.4 0-.7 0-1.1.1h-.1l-.9.3c-.1 0-.2.1-.3.1-.6.3-1.2.7-1.7 1.2h-.1l-2.1-2.1c1.6-1.6 3.8-2.6 6.3-2.6h.1c2.5 0 4.7 1 6.3 2.6l-2.2 2.1zm-4.3-10.3c3.7 0 7.4 1.4 10.2 4.3l-2.6 2.6c-1.9-2-4.6-3.2-7.6-3.2-2.9 0-5.6 1.2-7.6 3.2l-1.3-1.3-1.3-1.3c2.8-2.8 6.5-4.3 10.2-4.3zm-32.4 6.1h1V66c0-2.2 1.8-3.9 3.9-3.9h.1c2.1 0 3.9 1.7 3.9 3.9v1.9h1v7.7h-9.9v-7.7zm-263.9-8.5H596v20.8H469.5V59.4z"/>
    <path fill="#DBDBDB" d="M787-165.1H449c-2.2 0-4 1.8-4 4v301h2v-42h342v42h2v-301c0-2.2-1.8-4-4-4zm-340 4c0-1.1.9-2 2-2h338c1.1 0 2 .9 2 2v53.4H447v-53.4zm0 110.4h342V-16H447v-34.7zM789 95.9L447 96V42h342v53.9zm.2-55.9H447v-54h342.2v54zm0-92.7H447v-52.9h342v.2h.2v52.7z"/>
    <path fill="#F1F1F2" d="M555.8-196.4c3.2 0 5.9-2.6 5.9-5.9 0-3.3-2.7-5.8-5.9-5.8s-5.9 2.6-5.9 5.9 2.7 5.8 5.9 5.8z"/>
    <path fill="#DBDBDB" d="M555.8-194.9c4.1 0 7.4-3.3 7.4-7.4 0-4.1-3.3-7.4-7.4-7.4-4.1 0-7.4 3.3-7.4 7.4 0 4.1 3.3 7.4 7.4 7.4zm0-13.2c3.2 0 5.9 2.6 5.9 5.8v.1c0 3.3-2.6 5.9-5.9 5.9-3.2 0-5.9-2.6-5.9-5.9s2.7-5.9 5.9-5.9z"/>
    <path fill="#F1F1F2" d="M617.4-225.3c1.8 0 3.3-1.5 3.3-3.3s-1.5-3.3-3.3-3.3c-1.8 0-3.3 1.5-3.3 3.3s1.5 3.3 3.3 3.3z"/>
    <path fill="#DBDBDB" d="M612.9-226.9v.1c.1.2.2.4.3.7 0 .1.1.1.1.2.1.2.2.3.4.4.1.1.1.2.2.3.1.1.2.2.3.2l.4.4c.1 0 .1.1.2.1.2.1.4.3.7.3h.1c.2.1.5.2.8.2.3.1.6.1 1 .1.3 0 .6 0 1-.1.3-.1.5-.1.8-.2h.1c.2-.1.4-.2.7-.3.1 0 .1-.1.2-.1.2-.1.3-.2.4-.4.1-.1.2-.1.3-.2.1-.1.2-.2.2-.3l.4-.4c0-.1.1-.1.1-.2.1-.2.3-.4.3-.7v-.1c.1-.2.2-.5.2-.8.1-.3.1-.6.1-1 0-.3 0-.6-.1-1-.1-.3-.1-.5-.2-.8v-.1c-.1-.2-.2-.4-.3-.7 0-.1-.1-.1-.1-.2-.1-.2-.2-.3-.4-.4-.1-.1-.1-.2-.2-.3-.1-.1-.2-.2-.3-.2l-.4-.4c-.1 0-.1-.1-.2-.1-.2-.1-.4-.3-.7-.3h-.1c-.2-.1-.5-.2-.8-.2-.3-.1-.6-.1-1-.1-2.6 0-4.8 2.1-4.8 4.8 0 .3 0 .6.1 1 .1.3.1.6.2.8zm4.5-5c1.8 0 3.3 1.5 3.3 3.3s-1.5 3.3-3.3 3.3c-1.8 0-3.3-1.5-3.3-3.3s1.4-3.3 3.3-3.3z"/>
    <path fill="#E5E5E5" d="M590-200.1h54c1.1 0 2-.9 2-2s-.9-2-2-2h-54c-1.1 0-2 .9-2 2s.9 2 2 2z"/>
    <path fill="#DBDBDB" d="M590-198.1h54c2.2 0 4-1.8 4-4s-1.8-4-4-4h-54c-2.2 0-4 1.8-4 4s1.8 4 4 4zm0-6h54c1.1 0 2 .9 2 2s-.9 2-2 2h-54c-1.1 0-2-.9-2-2s.9-2 2-2z"/>
    <path fill="#BABABA" d="M457.9-156.7c-1.2 0-2.3.9-2.5 2 0 .2-.1.3-.1.5 0 1.4 1.2 2.6 2.6 2.6 1.4 0 2.6-1.2 2.6-2.6 0-1.3-1.2-2.5-2.6-2.5z"/>
    <circle cx="464.8" cy="-154.1" r="2.6" fill="#BABABA"/>
    <circle cx="471.7" cy="-154.1" r="2.6" fill="#BABABA"/>
    <path fill="#BABABA" d="M481.2-154.1c0-1.4-1.2-2.6-2.6-2.6-1.2 0-2.3.9-2.5 2 0 .2-.1.3-.1.5 0 1.4 1.2 2.6 2.6 2.6 1.4.1 2.6-1.1 2.6-2.5zm1.7 0c0 1.4 1.2 2.6 2.6 2.6 1.4 0 2.6-1.2 2.6-2.6 0-1.4-1.2-2.6-2.6-2.6-1.2 0-2.3.9-2.5 2-.1.3-.1.4-.1.6zm22 23.9c0-.5-.3-.8-.8-.8-.4-.1-.8.3-.8.8s.3.8.8.8h.1c.4 0 .8-.4.7-.8zm5.7 1.9c-1.2 0-2 .7-2.4 1.4l-.1-1.2h-1.2c0 .6.1 1.2.1 2v5.2h1.3v-4.4c0-.2 0-.5.1-.6.2-.7.9-1.3 1.8-1.3 1.2 0 1.7 1 1.7 2.1v4.2h1.3v-4.3c0-2.5-1.6-3.1-2.6-3.1zm105.1-4.7l-1.7 6.1c-.4 1.5-.7 2.9-1 4.2v-.2c-.2-1.2-.5-2.5-.9-4l-1.5-6.2h-1.7l-1.7 6.1c-.4 1.6-.8 3-1 4.2v-.3c-.2-1.2-.6-2.5-.9-3.9l-1.5-6.1H602l3.2 12.1h1.7v.1l1.8-6.3c.5-1.5.7-2.6.9-3.7 0-.1 0-.2.1-.3.2 1.2.4 2.4.8 4l1.6 6.3h1.7l3.5-12.1h-1.6zm-112.2 4.8h1.3v7.3h-1.3zm115-1.4h1.6v8.7h-1.6zM500-128.2v-2.1l-1.2.3v1.7h-1.1v1h1.1v4c0 .9.1 1.5.5 1.9.3.4.8.6 1.4.6.5 0 .9-.1 1.2-.2l-.1-1c-.2 0-.4.1-.7.1h-.1c-.7 0-1-.5-1-1.4v-3.9h1.9v-1H500zm-4.8-2.1h-.1zm-6.3 2.2c-2.1-.3-3.4 1.4-3.4 3.6v.1c0 2.2 1.3 3.7 3.6 3.7 1.2 0 2-.2 2.4-.4v-.2l-.2-.7c-.5.2-1.1.4-2 .4-1.3 0-2.5-.7-2.5-2.5h5.1v-.6c0-1.3-.6-3.4-3-3.4zm-2.2 2.8c.2-.9.8-2.1 2.1-2.1 1.5 0 1.8 1.3 1.8 2.1h-3.9zm8.4-5l-1.2.3v1.7h-1.1v1h1.1v4c0 .9.1 1.5.5 1.9.3.4.8.6 1.4.6.5 0 .9-.1 1.2-.2l-.1-1c-.2 0-.4.1-.8.1-.5 0-.8-.3-.9-.8 0-.2-.1-.4-.1-.6v-3.9h1.9v-1h-1.9v-2.1zm125.1-1.8c0-.6-.4-1-1-1s-1 .4-1 1c.1.3.2.5.4.7.1.1.1.1.2.1s.1.1.2.1h.1c.1 0 .2.1.3.1h.1c.3 0 .8-.4.7-1zM727-156.9h1.7v7.2h1.2v-8.3l-2.9.3zm17.7 4.3v-2.4c0-.9-.2-1.6-.7-2.2-.5-.6-1.1-.8-1.9-.8-.8 0-1.4.3-1.9.8s-.7 1.3-.7 2.2v2.4c0 .9.2 1.7.7 2.2s1.1.8 1.9.8c.4 0 .8-.1 1.1-.2s.6-.3.8-.6c.5-.5.7-1.3.7-2.2zm-1.1-2.7v2.9c0 .4-.1.8-.2 1.1-.1.1-.1.2-.2.3-.3.3-.6.5-1.1.5s-.8-.2-1.1-.5c-.1-.2-.3-.3-.3-.6s-.1-.5-.1-.8v-2.9c0-.3 0-.6.1-.8l.3-.6c.3-.3.6-.5 1.1-.5s.8.2 1.1.5c.2.1.3.3.3.6s.1.5.1.8zm-5.4 2.7v-2.4c0-.9-.2-1.6-.7-2.2-.5-.6-1.1-.8-1.9-.8-.8 0-1.4.3-1.9.8s-.7 1.3-.7 2.2v2.4c0 .9.2 1.7.7 2.2s1.1.8 1.9.8c.4 0 .8-.1 1.1-.2s.6-.3.8-.6c.5-.5.7-1.3.7-2.2zm-1.1.2c0 .3 0 .6-.1.8 0 .2-.1.3-.2.5 0 0 0 .1-.1.1-.3.3-.6.5-1.1.5s-.8-.2-1.1-.5c-.3-.3-.4-.8-.4-1.4v-2.9c0-.6.1-1.1.4-1.4s.6-.5 1.1-.5c.5 0 .8.2 1.1.5.2.1.3.3.3.6s.1.5.1.8v2.9zm11.7-2.3c.3-.3.5-.7.5-1.2v-.8c0-.2-.1-.4-.3-.6-.1-.1-.1-.2-.2-.2s-.2-.1-.2-.2l-.6-.3h-.4c-.5 0-.9.2-1.2.5-.3.3-.5.7-.5 1.2v.4c0 .5.2.9.5 1.2.3.3.7.5 1.2.5s.9-.2 1.2-.5zm-2-.5c-.2-.2-.2-.4-.2-.7v-.4h.1c0-.3.1-.5.2-.7.1-.2.4-.3.6-.3h.1c.3 0 .5.1.5.3.2.2.2.4.2.7v.4c0 .3-.1.5-.2.7-.1.2-.3.3-.5.3h-.1c-.3 0-.5-.1-.7-.3zm5.1-1.5l-.6-.4h-.1l-3.9 6.4.6.3zm26.8-.5c0-.3-.1-.6-.3-.8-.1-.2-.3-.3-.4-.4-.2-.2-.5-.3-.8-.3h-17.5c-.3 0-.6.1-.8.3-.2.1-.3.3-.4.4-.2.2-.3.5-.3.8v6c0 .8.6 1.5 1.5 1.5h17.5c.8 0 1.5-.7 1.5-1.5v-1.1h1v-3.8h-1v-1.1zM637-129.6h1.6v8.7H637zm-8.5-3.5v12.2h1.7v-5.5h4.7v-1.3h-4.7v-4h5.1v-1.4h-.1zm-6.5 6.7h4.6v1.2H622zm16.8-5.7c0-.6-.4-1-1-1s-1 .4-1 1c0 .5.4 1 1 1h.1c.5 0 1-.4.9-1zm-178.1 6l9.1 9.1 1.4-1.4-7.7-7.7 7.7-7.6-1.4-1.4zm59.8 7.3c.7-.6 1-1.7 1-3.3v-4.2c0-.8 0-1.4.1-1.9v-.1h-1.2l-.1 1.1c0-.1-.1-.1-.1-.2-.3-.5-1-1.1-2.2-1.1-1.7 0-3.3 1.4-3.3 3.9.1 1.1.4 2 1.1 2.7.6.6 1.3.9 2.1.9 1.1 0 1.9-.5 2.3-1.2v.8c0 1.8-1 2.5-2.3 2.5-.9 0-1.6-.3-2.1-.6l-.3 1s.1 0 .1.1c.6.4 1.4.5 2.3.5.9 0 1.9-.2 2.6-.9zm-.4-4.5c-.1.2-.2.4-.3.5-.4.5-.9.8-1.5.8-1.4 0-2.1-1.2-2.1-2.6 0-.6.1-1.2.3-1.6.4-.7 1-1.1 1.8-1.1 1 0 1.6.6 1.8 1.4.1.2.1.4.1.6v1.3c0 .2 0 .5-.1.7zm-38.4-3.5c-1.4-.5-2-1-2-1.9 0-.3.1-.7.4-.9.3-.3.8-.6 1.5-.6.9 0 1.5.3 1.8.5h.1l.4-1.1c-.5-.3-1.2-.5-2.2-.5-1.1 0-1.9.4-2.5.9-.6.5-.9 1.2-.9 1.9 0 1.4 1 2.3 2.7 2.9 1.4.5 1.9 1.1 1.9 2 0 .5-.2.9-.6 1.2-.4.3-.9.5-1.5.5-.9 0-1.8-.3-2.3-.7v.1l-.3 1c.5.4 1.6.6 2.6.6.9 0 1.6-.2 2.2-.5.1-.1.2-.2.3-.2.7-.5 1-1.3 1-2.1 0-1.6-.9-2.4-2.6-3.1zm18.3-3.5h.1zm252.7-22.6c-.3-.3-.7-.5-1.2-.5s-.9.1-1.2.5c-.3.3-.5.7-.5 1.2v.4c0 .5.2.9.5 1.2s.7.5 1.2.5.9-.2 1.2-.5c.3-.3.5-.7.5-1.2v-.4c0-.5-.2-.9-.5-1.2zm-2 1.6v-.4c0-.3.1-.5.2-.7.2-.2.4-.3.5-.3h.1c.3 0 .5.1.6.3.1 0 .2.1.2.2v.1c0 .1.1.2.1.4v.4c0 .3-.1.5-.2.7-.2.2-.4.3-.6.3-.3 0-.5-.1-.7-.3s-.2-.4-.2-.7zm-224.6 26.1c-.9-.4-1.4-.6-1.4-1.2 0-.5.4-1 1.2-1 .7 0 1.2.2 1.5.4l.3-.9v-.1c-.4-.2-1.1-.5-1.8-.5-1.6 0-2.5 1-2.5 2.1v.1c0 .9.6 1.6 1.9 2 1 .4 1.4.7 1.4 1.3v.1c0 .7-.5 1.1-1.4 1.1-.7 0-1.3-.3-1.7-.5l-.3 1c.5.3 1.2.5 2 .5 1.7 0 2.7-.9 2.7-2.2 0-1.1-.6-1.7-1.9-2.2z"/>
    <path fill="#FFF" d="M447-105.4v52.7h342.2v-52.7H447zm34.2 34.5h-1.7l-1.6-6.3c-.4-1.5-.6-2.7-.8-4-.2 1.2-.5 2.4-1 4l-1.8 6.3h-1.7L469.4-83h.1v-.1h1.7l1.5 6.1c.4 1.5.7 3 .9 4.2.2-1.2.6-2.6 1-4.2l1.7-6.1h1.7l1.5 6.2c.4 1.4.7 2.9.9 4.2.3-1.3.6-2.7 1-4.2l1.7-6.1h1.6l-3.5 12.1zm6.4 0h-1.7v-8.7h1.7v8.7zm-.8-10.2c-.1 0-.1 0 0 0-.7 0-1.1-.4-1.1-1s.4-1 1-1h.1c.6 0 1 .4 1 1 0 .5-.4 1-1 1zm7.3 5.9h-4.6v-1.2h4.6v1.2zm8.7-6.5h-5.2v3.9h4.7v.1h.1v1.3h-4.8v5.5H496v-12.2h6.8v1.4zm3.4 10.8h-1.7v-8.7h1.7v8.7zm-.9-10.2c-.6 0-1-.4-1-1s.4-1 1-1 1 .4 1 1c.1.6-.4 1-1 1zm260.2 15.9h-19.8c-7.3 0-13.2-5.9-13.2-13.2s5.9-13.2 13.2-13.2h19.8c7.3 0 13.2 5.9 13.2 13.2s-5.9 13.2-13.2 13.2zM447 40h342.2v-54H447v54zm318.8-21.6l-2.8-2.8c.7-.7 1.7-1.2 2.8-1.2 1.1 0 2.1.5 2.8 1.2l-2.8 2.8zm4.3-4.1h-.1c-.5-.5-1.1-.9-1.7-1.2-.1 0-.2-.1-.3-.1l-.9-.3h-.1c-.4-.1-.7-.1-1.1-.1-.4 0-.7 0-1.1.1h-.1l-.9.3c-.1 0-.2.1-.3.1-.6.3-1.2.7-1.7 1.2h-.1l-2.1-2.1c1.6-1.6 3.8-2.6 6.3-2.6h.1c2.5 0 4.7 1 6.3 2.6l-2.2 2.1zm-14.5-6.1c5.7-5.6 14.8-5.6 20.4 0l-.1.1h.1l-2.6 2.6c-1.9-2-4.6-3.2-7.6-3.2-2.9 0-5.6 1.2-7.6 3.2l-2.6-2.6v-.1zm-22.2 1.9h1V8.2c0-2.2 1.8-3.9 3.9-3.9 2.1 0 3.9 1.7 3.9 3.9v1.9h1v7.7h-9.9v-7.7z"/>
    <path fill="#BABABA" d="M481.4-76.9c-.4 1.5-.7 2.9-1 4.2-.2-1.3-.5-2.7-.9-4.2l-1.5-6.2h-1.7l-1.7 6.1c-.4 1.6-.8 3.1-1 4.3-.3-1.2-.6-2.7-1-4.2l-1.5-6.1h-1.7l3.2 12.1h1.7l1.8-6.3c.5-1.6.7-2.8 1-4 .2 1.2.4 2.4.8 4l1.6 6.3h1.7l3.5-12.1h-1.6l-1.7 6.1zm4.6-2.7h-.1v8.7h1.6v-8.7zm1.7-2.5c0-.6-.4-1-.9-1h-.1c-.6 0-1 .4-1 1s.4 1 1 1h.1c.5 0 1-.4.9-1zm1.8 5.7v1.2h4.6v-1.2zm6.5-6.7v12.2h1.6v-5.5h4.8v-1.3h-4.8v-4h5.2v-1.4h-.1zm9.3 0c-.6 0-1 .4-1 1s.4 1 1 1 1.1-.4 1-1c0-.6-.4-1-1-1zm-.7 3.5h-.1v8.7h1.6v-8.7z"/>
    <path fill="#1E1E1E" d="M743.1 17.8h.2v-7.7h-1V8.2c0-2.2-1.8-3.9-3.9-3.9-2.2 0-3.8 1.8-3.8 3.9v1.9h-.9v7.7h9.4zm-2-7.7h-5.4V8.2c0-1.5 1.2-2.7 2.7-2.7s2.7 1.2 2.7 2.7v1.9z"/>
    <path fill="#FFF" d="M738.4 5.5c-1.5 0-2.7 1.2-2.7 2.7v1.9h5.4V8.2c0-1.5-1.2-2.7-2.7-2.7z"/>
    <path fill="#1E1E1E" d="M765.8 9.6c-2.5 0-4.7 1-6.2 2.6l2.1 2.1c.5-.5 1.1-.9 1.7-1.2.1 0 .2-.1.3-.1l.9-.3h.1c.4-.1.7-.1 1.1-.1.4 0 .7 0 1 .1h.1l.9.3c.1 0 .2.1.3.1.7.3 1.3.7 1.8 1.1h.1l2.1-2.1c-1.5-1.5-3.7-2.5-6.3-2.5.1 0 .1 0 0 0zm0 4.8c-1.1 0-2.1.5-2.8 1.2l2.8 2.8 2.8-2.8c-.7-.7-1.7-1.2-2.8-1.2z"/>
    <path fill="#1E1E1E" d="M758.2 10.9c2-2 4.7-3.2 7.6-3.2 3 0 5.7 1.2 7.6 3.2l2.6-2.6h-.1c-5.6-5.6-14.7-5.6-20.3 0h-.1l2.7 2.6z"/>
    <path fill="#BABABA" d="M743.1 75.6h.2v-7.7h-1V66c0-2.2-1.8-3.9-3.9-3.9-2.2 0-3.8 1.8-3.8 3.9v1.9h-.9v7.7h9.4zm-2-7.7h-5.4V66c0-1.5 1.2-2.7 2.6-2.7h.1c1.5 0 2.7 1.2 2.7 2.7v1.9zm24.7-.5c-2.5 0-4.7 1-6.2 2.6l2.1 2.1c.5-.5 1.1-.9 1.7-1.2.1 0 .2-.1.3-.1l.9-.3h.1c.4-.1.7-.1 1.1-.1.4 0 .7 0 1 .1h.1l.9.3c.1 0 .2.1.3.1.7.3 1.3.7 1.8 1.1h.1l2.1-2.1c-1.5-1.5-3.7-2.5-6.3-2.5.1 0 .1 0 0 0z"/>
    <path fill="#BABABA" d="M756.9 67.4l1.3 1.3c2-2 4.7-3.2 7.6-3.2 3 0 5.7 1.2 7.6 3.2l2.6-2.6c-2.8-2.8-6.5-4.3-10.2-4.3-3.7 0-7.4 1.4-10.2 4.3l1.3 1.3zm8.9 4.9c-1.1 0-2.1.4-2.8 1.2l2.8 2.8 2.8-2.8c-.2-.2-.4-.3-.6-.5-.6-.4-1.4-.7-2.2-.7zm0 50.4c-2.5 0-4.7 1-6.2 2.6l2.1 2.1c.5-.5 1.1-.9 1.7-1.2.1 0 .2-.1.3-.1l.9-.3h.1c.4-.1.7-.1 1.1-.1.4 0 .7 0 1 .1h.1l.9.3c.1 0 .2.1.3.1.7.3 1.3.7 1.8 1.1h.1l2.1-2.1c-1.5-1.5-3.7-2.5-6.3-2.5.1 0 .1 0 0 0zm0 4.9c-1.1 0-2.1.4-2.8 1.2l2.8 2.8 2.8-2.8c-.2-.2-.4-.3-.6-.5-.6-.4-1.4-.7-2.2-.7z"/>
    <path fill="#BABABA" d="M776 121.4c-2.8-2.9-6.5-4.3-10.2-4.3-3.7 0-7.4 1.4-10.2 4.3l2.6 2.6c.2-.3.5-.5.7-.7 1.8-1.6 4.2-2.5 6.9-2.5 3 0 5.7 1.2 7.6 3.2l2.6-2.6z"/>
    <path fill="#17BF53" d="M765.5-91.6h-19.8c-7.3 0-13.2 5.9-13.2 13.2s6 13.2 13.2 13.2h19.8c7.3 0 13.2-5.9 13.2-13.2s-5.9-13.2-13.2-13.2zm-.1 24.9c-6.5 0-11.7-5.2-11.7-11.7s5.2-11.7 11.7-11.7 11.7 5.2 11.7 11.7-5.2 11.7-11.7 11.7z"/>
    <circle cx="765.4" cy="-78.4" r="11.7" fill="#FFF"/>
    <path fill="#E5E5E5" d="M469.5 113.6h151.2v20.8H469.5zm0-54.2H596v20.8H469.5z"/>
    <path fill="#BABABA" d="M579.4-24.9c-.5 0-.8.3-.8.8 0 .2.1.4.2.5.1.2.3.3.6.3.5 0 .8-.4.8-.8 0-.1 0-.2-.1-.3-.1-.3-.3-.5-.7-.5zm-91.2-7.4c-.9 0-1.7.2-2.3.7-1.1.8-1.9 2.1-1.9 3.9.1 2.6 1.8 4.4 4.1 4.4 1.2 0 2.2-.4 3-1.2.7-.8 1.2-1.9 1.2-3.4 0-2.6-1.6-4.4-4.1-4.4zm0 .9c.2 0 .5 0 .7.1 1 .3 1.7 1.1 2 2.1v.1c0 .2.1.3.1.5v.9c0 2-1 3.6-2.9 3.6-1.8 0-2.9-1.7-2.9-3.5 0-1 .2-1.9.7-2.6.6-.8 1.4-1.2 2.3-1.2zm96.8 6.5c-.5 0-.8.3-.8.8 0 .4.3.8.8.8s.8-.4.8-.8c0-.5-.3-.8-.8-.8zm-26.3-7.4c-2.4 0-4.2 1.8-4.2 4.5v.1c0 2.6 1.7 4.4 4.1 4.4 2.3 0 4.2-1.6 4.2-4.6v-.1c0-2.5-1.6-4.3-4.1-4.3zm-.1.9c.2 0 .5 0 .7.1 1 .3 1.7 1.1 2 2.1v.1c0 .2.1.3.1.5v.9c0 2-1 3.6-2.9 3.6-1.8 0-2.9-1.7-2.9-3.5.1-2.1 1.1-3.8 3-3.8zm9.5 3.8h.1c.9-.3 1.6-1.1 1.6-2.2 0-.7-.3-1.3-.7-1.7-.6-.5-1.4-.7-2.6-.7-.8 0-1.6.1-2.2.2v8.6h1.2v-3.8h1c1.1 0 1.5.5 1.8 1.7.3 1.1.5 1.8.6 2.1h1.2v-.1c-.2-.4-.4-1.2-.7-2.3-.2-.9-.6-1.5-1.3-1.8zm.6-2.2c0 1-.8 1.7-2 1.7h-1.2v-3.2h-.1c.2-.1.5-.1 1.1-.1h.1c1.2 0 2.1.5 2.1 1.6zm-42.1 1.2v1c0 .9 0 1.7.1 2.6-.1-.3-.3-.6-.5-.9-.3-.6-.7-1.2-1.1-1.9l-2.9-4.4h-1.3v8.8h1.1v-3.8c0-1.5 0-2.5-.1-3.6.5.9 1.1 1.9 1.7 2.9l2.9 4.4h1.2v-8.8h-1.1v3.7zm55.6 3.7c-.1 0-.2 0-.3.1-.3.1-.5.4-.5.7 0 .3.2.6.5.7.1 0 .2.1.3.1.5 0 .8-.4.8-.8 0-.5-.3-.8-.8-.8zM479-32.3c-1.4 0-2.6.7-3.4 1.8-.4.7-.7 1.5-.8 2.5v.7c0 .5.1 1 .3 1.5.6 1.6 2 2.6 3.8 2.6 2.3 0 4.2-1.6 4.2-4.6v-.1c0-2.6-1.6-4.4-4.1-4.4zm-2.9 4.6c0-1 .2-1.9.7-2.6.5-.7 1.2-1.1 2.2-1.1.2 0 .5 0 .7.1 1 .3 1.7 1.1 2 2.1v.1c0 .2.1.3.1.5v.9c0 2-1 3.6-2.9 3.6-1.7-.1-2.8-1.8-2.8-3.6zm25.5.1h3.5v-.9h-3.5v-2.8h3.7v-.9h-4.9v8.8h5.1v-1h-3.9zm33.9-4.6v1h2.7v7.8h1.2v-7.8h2.8v-1h-6.7zm38.9 3.7l3.3-3.7h-1.4l-2.8 3.3c-.2.3-.5.6-.7.9v-4.2h-1.2v8.8h1.2v-3.4h-.2l.8-.9.1-.1 3 4.3h1.4l-3.5-5zm-76.1 1l-.3-.3c-.4-.3-.8-.5-1.4-.7-1.2-.5-1.8-.9-1.8-1.7v-.2c.1-.4.4-.8.9-1 .2-.1.5-.1.8-.1.8 0 1.4.3 1.7.4l.2-.7.1-.2c-.1 0-.2-.1-.4-.1-.4-.1-1-.3-1.6-.3-1.8 0-2.9 1-2.9 2.4 0 1.2.9 2 2.4 2.5 1.2.5 1.7.9 1.7 1.7 0 .9-.7 1.5-1.9 1.5-.8 0-1.6-.3-2.1-.6l-.3.9c.5.3 1.4.6 2.3.6 2.1 0 3.2-1.2 3.2-2.5 0-.6-.2-1.1-.6-1.6zm54.4-4.7l-1.2 4.4c-.3 1.1-.5 2.1-.7 3v-.3c-.1-.8-.4-1.8-.6-2.7l-1.1-4.4h-1.2l-1.2 4.4c-.3 1.1-.6 2.2-.7 3 0-.1 0-.2-.1-.3-.2-.8-.4-1.8-.6-2.7l-1.1-4.4H543l2.3 8.8h1.1l1.3-4.6c.3-1 .5-1.8.6-2.6 0-.1 0-.2.1-.3.1.9.3 1.7.6 2.9l1.1 4.6h1.2l2.6-8.8h-1.2zm-89.5.9c.8 0 1.4.2 1.8.4l.3-.9s-.1 0-.1-.1c-.3-.2-1-.3-2-.3-2.9-.2-4.8 1.7-4.8 4.5 0 .7.1 1.2.3 1.7.6 1.8 2.2 2.7 4.2 2.7 1.1 0 2-.2 2.4-.4l-.2-.9h-.1c-.5.2-1.2.4-1.8.4-1.5 0-2.5-.6-3.1-1.7-.3-.5-.4-1.1-.4-1.8 0-2.3 1.4-3.6 3.5-3.6zm9-.9v3.7h-4.4v-3.7h-1.1v8.8h1.1v-4.2h4.4v4.2h1.2v-8.8h-1.2zm41.4 0h-1.4l-3.1 8.8h1.2l1-2.8h3.2l1 2.8h1.2l-3.1-8.8zm.6 5.1h-2.5l.8-2.5c.2-.5.3-1 .5-1.4v-.2c.1.5.3 1 .5 1.6l.9 2.5h-.2zm16.7-.5h3.5v-.9h-3.5v-2.8h3.7v-.9h-4.9v8.8h5.1v-1h-3.9v-3.2zm-35.7-124.6c.6-.6 1.5-1 2.5-1s1.9.4 2.5 1l1.3-1.3c-1-1-2.3-1.6-3.8-1.6-1.4 0-2.7.6-3.7 1.5l-.1.1 1.3 1.3zm2.6 0c-.5 0-1 .2-1.4.4l-.3.3 1.7 1.7 1.7-1.7-.3-.3c-.4-.2-.9-.4-1.4-.4z"/>
    <path fill="#BABABA" d="M498.6-158.4h-.8c-.8 0-1.7.1-2.4.4-.3.1-.5.2-.8.3-.8.3-1.5.8-2.2 1.3-.2.2-.4.4-.7.6l1.6 1.6c1.1-1.2 2.7-1.9 4.5-1.9 1.8 0 3.4.7 4.5 1.9l1.6-1.6c-1.5-1.6-3.4-2.4-5.3-2.6z"/>
    <path fill="#D0D2D3" d="M805.2-26.6c2.5 0 4.5-2 4.5-4.5v-52.6c0-2.5-2-4.5-4.5-4.5h-1.4v-103.9c0-29.4-23.9-53.4-53.4-53.4H486.1c-29.4 0-53.4 23.9-53.4 53.4v33.5h-1.9c-1.9 0-3.5 1.6-3.5 3.5v29c0 1.9 1.6 3.5 3.5 3.5h1.9v34.4H431c-1.9 0-3.5 1.6-3.5 3.5v54.6c0 1.9 1.6 3.5 3.5 3.5h1.8v10.7h-1.6c-1.9 0-3.5 1.6-3.5 3.5v54.6c0 1.9 1.6 3.5 3.5 3.5h1.6v94.2h3v-332c0-27.8 22.6-50.4 50.4-50.4h264.3c27.8 0 50.4 22.6 50.4 50.4v332h2.9V-26.6h1.4zm-1.4-58.6h1.4c.8 0 1.5.7 1.5 1.5v52.6c0 .8-.7 1.5-1.5 1.5h-1.4v-55.6zM431.2 42.7h-.1c-.2 0-.5-.2-.5-.5v-54.6c0-.3.2-.5.5-.5h1.6v55.6h-1.5zm-.3-168.3h-.1c-.2 0-.5-.2-.5-.5v-29.1c0-.3.2-.5.5-.5h1.9v30.1h-1.8zm1.9 96H431c-.3 0-.5-.2-.5-.5v-54.6c0-.3.2-.5.5-.5h1.8v55.6z"/>
  </g>
</svg>
