<svg xmlns="http://www.w3.org/2000/svg" version="1.2" baseProfile="tiny" viewBox="827 -258.4 407 407">
  <g id="Layer_1">
    <path fill="none" d="M888.4-116.6c.4-.2.7-.5.9-.9.1-.1.1-.3.1-.4 0 .1-.1.3-.1.4-.1.3-.4.7-.9.9zm-1.9-1.1c0-1.1 1.2-1.5 2.4-1.5-1.2 0-2.4.4-2.4 1.5zm.9 2zm.9-.8c-.2.1-.4.1-.6.1.2-.1.4-.1.6-.1zm-.4-5.3c-.7 0-1.3.2-1.8.5.5-.3 1.2-.5 1.8-.5zm1.5 1.6c0-.6-.1-1.6-1.5-1.6 1.3 0 1.5 1 1.5 1.6v.1c-.6 0-1.2.1-1.7.2.5-.1 1.1-.2 1.7-.2v-.1zm-1.4-2.5zm-2.2.6l.3.8-.3-.8zm11.2-31.1v.1zm2.9 34.1c0 2.1 1.4 3.5 3.4 3.5.9 0 1.6-.2 1.9-.4v-.1c-.3.2-1 .4-1.9.4-2.1 0-3.4-1.3-3.4-3.4zm6.2.1c0-2.1 1.2-3.7 3.1-3.7-2 0-3.2 1.6-3.1 3.7-.1 2 1.1 3.4 3.2 3.4h.1c-2.1 0-3.4-1.4-3.3-3.4zm-2.6-2.6c.6 0 1.1.1 1.4.3l.3-1-.3.9c-.3-.1-.7-.3-1.4-.2-1.6-.1-2.4 1-2.4 2.4v.1c0-1.4.8-2.5 2.4-2.5zm-6.3 1.8c0-1.1-.4-2-1.6-2-.7 0-1.2.4-1.5.9.3-.5.8-.8 1.4-.8 1.2 0 1.6.9 1.6 2v3.9h1.2v-.1h-1.1v-3.9zm-4.6-.9c0-.7-.1-1.1-.1-1.7h-.1c.1.5.1 1.1.1 1.8v4.9h1.2v-.1h-1.1v-4.9zm1.1-.7c.1-.1.1-.3.2-.4-.1.2-.1.3-.2.4zm10.2-31.8v.1zm-5.2 0v.1-.1zm-6.9.1v-.1zm-20.7-.1c0-.2 0-.4.1-.5-.1.2-.1.4-.1.5zm-25.7 28v-29.1c0-.3.2-.5.5-.5h-.1c-.3 0-.5.2-.5.5v29.1c0 .3.3.5.5.5h.1c-.3 0-.5-.2-.5-.5zm44.2 9.4l-.1-.9zM845.7 43.1v-54.6c0-.3.2-.5.5-.5h-.1c-.3 0-.5.2-.5.5v54.6c0 .3.3.5.5.5h.1c-.3 0-.5-.2-.5-.5zm44.4-196.2c0 .2 0 .3-.1.5.1-.2.1-.4.1-.5zm-2.6 2.5c1.3 0 2.3-.9 2.5-2-.2 1.2-1.3 2-2.5 2zm-2.6-2.5v-.1zm-2.7 36.5c.7 0 1.4-.2 2-.3l-.1-.2c-.5.2-1.3.4-2 .4-1.1 0-2-.4-2.6-1 .6.8 1.5 1.1 2.7 1.1zm.1-8.7c1 0 1.7.2 2.1.3-.3-.1-1-.4-2.2-.4-2.9 0-4.9 2-4.9 5 0 1.6.5 2.8 1.4 3.6-.8-.8-1.3-2-1.3-3.5 0-3 2-5 4.9-5zm-8.6-30.5c-1.3 0-2.3.9-2.5 2 .2-1.1 1.3-2 2.5-2zm37.7 39c-.5.2-1 .4-1.9.4.9-.1 1.4-.2 1.9-.4zm159.2-2.1c.4 0 .7-.1 1-.2-.3.2-.6.2-1 .2zM891-74c0-1.5 1.7-1.7 3.3-1.7-1.6-.1-3.4.2-3.3 1.7-.1.9.6 1.3 1.3 1.3-.7 0-1.3-.4-1.3-1.3z"/>
    <path fill="none" d="M895.9-76.5c0-1.6-.6-3.2-3-3.2h-.1c2.3 0 2.9 1.6 2.9 3.2h-.1v2.8c0 .7 0 1.4.1 1.9h-1.1v.1h1.4c-.1-.6-.1-1.2-.1-1.9v-2.9zm2.4.4c.3.4.9.7 1.6 1 .4.1.7.3.9.4-.2-.2-.6-.4-1-.5-.7-.3-1.1-.6-1.5-.9zm2.2-2.6c-.8 0-1.3.5-1.3 1.1 0 .3.1.5.4.7-.2-.2-.3-.4-.3-.6 0-.6.4-1.1 1.2-1.2.8.1 1.4.3 1.7.5l.4-1s-.1 0-.1-.1l-.4 1c-.3-.1-.9-.4-1.6-.4zm-8.5 7.1h.1c1 0 1.8-.5 2.2-1v-.2c-.4.7-1.3 1.2-2.3 1.2zm296-50.9c.6.4.9 1.2.9 2v4.5h.1v-4.4c0-.9-.2-1.8-1-2.1zm-326 17.9h342v.1H862zm25.2 25.2c0 1.5-1.1 2.3-2.8 2.3h.1c1.7 0 2.8-.8 2.7-2.3.1-1.4-.9-2.1-2.5-2.1h-.1c1.6.1 2.7.8 2.6 2.1zm3.4 1.3c.6-.3 1.3-.5 2-.5h-.1c-.7-.1-1.4.1-1.9.5zm293-45.6h1.2v-.1h-1.3c.1.6.1 1.3.1 2.1v5.7h.1v-5.6c0-.8-.1-1.5-.1-2.1z"/>
    <path fill="none" d="M887.7-81.8c-.6-.6-1.7-.9-3.1-.9-1.2 0-2.1.1-2.8.2v10.7-10.6c.7-.1 1.6-.2 2.8-.2 1.4 0 2.4.3 3.1.9.6.5 1 1.3 1 2.3v-.1c0-1-.4-1.8-1-2.3zm34.8 6.2c0 2.5 1.6 4 3.8 4-2.1 0-3.8-1.6-3.8-4zm4-4.1c1.2 0 2.1.4 2.8 1.1-.7-.7-1.6-1.1-2.8-1.1-2.3 0-4 1.5-4 4.1 0-2.6 1.8-4.1 4-4.1zm-.2 8.1c2 0 4-1.2 4-4.1 0 2.9-2.1 4.1-4 4.1zm3-7c.5.5.8 1.2 1 2-.2-.7-.5-1.4-1-2zm-9-.8l-.6 2.3.6-2.3zm-2.4 7.5l-1.2-3.7c-.3-.8-.5-1.6-.7-2.5-.2 1-.4 1.8-.7 2.6l-1.3 3.7h-1.3l-2.4-7.6 2.4 7.7h1.3l1.3-3.7c.3-.9.5-1.7.7-2.6.2.9.4 1.6.7 2.5l1.2 3.6 1.3.1 1.3-3.9-1.3 3.8h-1.3zM907-78.7c-.8 0-1.3.5-1.3 1.1 0 .3.1.5.4.7-.2-.2-.3-.4-.3-.6 0-.6.4-1.1 1.2-1.2.8.1 1.4.3 1.7.5l.4-1s-.1 0-.1-.1l-.4 1c-.3-.1-.9-.4-1.6-.4zm-2.2 2.6c.3.4.9.7 1.6 1 .4.1.7.3.9.4-.2-.2-.6-.4-1-.5-.7-.3-1.1-.6-1.5-.9zm-3.5.1c.9.5 1.4 1.1 1.4 2 0 1.3-1.1 2.3-3 2.3-.8 0-1.5-.2-2.1-.5v.1c.5.3 1.3.5 2.2.5 1.9 0 2.9-1 3.1-2.3 0-.9-.5-1.6-1.6-2.1z"/>
    <path fill="none" d="M926.5-78.6s0 .1 0 0c1.7 0 2.3 1.6 2.2 3 0 1.7-1 3-2.3 3 1.4 0 2.4-1.3 2.5-3 0-1.3-.7-3-2.4-3zm-18.3 2.8c.8.5 1.1 1 1 1.8 0 1.3-1.1 2.3-3 2.3-.8 0-1.5-.2-2.1-.5v.1c.5.3 1.3.5 2.2.5 1.9 0 3-1 3.1-2.3 0-.8-.4-1.4-1.2-1.9zm256.4-80.8c.3.3.5.7.5 1.2v.4c0 .5-.2.9-.5 1.2.3-.3.5-.7.5-1.2v-.4c0-.5-.2-.9-.5-1.2-.3-.3-.7-.5-1.2-.5s-.9.2-1.2.5c.3-.3.7-.5 1.2-.5s.9.2 1.2.5zm-8.2 5.1v-2.9c0-.6.1-1.1.4-1.4s.6-.5 1.1-.5c-.5 0-.8.2-1.1.5-.3.3-.4.8-.4 1.4v2.9c0 .6.1 1.1.4 1.4-.3-.3-.4-.8-.4-1.4zm3.4-4.8c.5.6.7 1.3.7 2.2v2.4c0 .9-.2 1.7-.7 2.2s-1.1.8-1.9.8c.8 0 1.4-.3 1.9-.8s.7-1.3.7-2.2v-2.4c0-.9-.2-1.7-.7-2.2zm-1.9-.8c-.8 0-1.4.2-1.9.8.5-.5 1.1-.8 1.9-.8zm29.7 33.2c.7 0 1.5.3 2.1 1-.6-.9-1.5-1.1-2.2-1.1-1.2 0-2.1.7-2.5 1.4v.2c.4-.8 1.3-1.5 2.6-1.5zm-34.7-27.1c0 .3-.1.5-.2.7.1-.2.2-.4.2-.7zm-1.5-6.1c-.8 0-1.4.2-1.9.8.5-.5 1.1-.8 1.9-.8z"/>
    <path fill="none" d="M1153.3-156.3c.5.6.7 1.3.7 2.2v2.4c0 .9-.2 1.7-.7 2.2s-1.1.8-1.9.8c.8 0 1.4-.3 1.9-.8s.7-1.3.7-2.2v-2.4c0-.9-.2-1.7-.7-2.2zm4.6 6.7zm12.2 29.8c0-2.6 1.8-4.1 4-4.1-2.2 0-4 1.5-4 4.1 0 2.5 1.6 4 3.8 4-2.1 0-3.8-1.5-3.8-4zm-3.6-30.6v-.4.4c0 .3 0 .5.2.7-.1-.2-.2-.4-.2-.7zm7.4 34.6c2 0 4-1.2 4-4.1 0 3-2.1 4.1-4 4.1zm5.7-10.1c0-.5.4-.9.8-.9-.5 0-.9.4-.8.9-.1.5.3.9.8.9h.1c-.5 0-.9-.4-.9-.9zm-11.5-25.3zm-4.4 1.7l-.6-.3.6.4 4-6.4-.6-.4.6.4zm1.2 32.6c1.2 0 2-.6 2-2.7h.1v-7h1.2v-.2h-1.4v7.1c0 2.1-.7 2.7-1.9 2.8-.6-.1-1-.2-1.3-.3l-.2 1.1h.1l.2-1c.3.1.7.2 1.2.2zm2.4-34.8s0-.1 0 0c-.2 0-.4.1-.6.3.2-.2.4-.3.6-.3zm.8.6c0 .1.1.2.1.4 0-.2 0-.3-.1-.4zm-4.8-2.9c-.2 0-.4-.1-.5-.3-.1-.2-.2-.4-.2-.7v-.4c0-.3 0-.5.2-.7.1-.2.3-.3.5-.3h-.1c-.2 0-.5.1-.6.3-.1.2-.2.4-.2.7h-.1v.4c0 .3 0 .5.2.7.3.2.5.3.8.3zm-130.9-78.5c-2.7 0-4.8 2.1-4.8 4.8 0-2.7 2.2-4.8 4.8-4.8zm0 9.6c-.3 0-.6 0-1-.1.4.1.7.1 1 .1zm1.7-.3c-.2.1-.5.2-.8.2.3 0 .6-.1.8-.2zm-3.4 0h-.1.1zm-.8-.4c-.1 0-.1-.1-.2-.1.1.1.1.1.2.1zm5 0c-.2.1-.4.3-.7.3.3 0 .5-.1.7-.3zm.6-.4l-.4.4c.1-.2.3-.3.4-.4zm1.7-3.7c0 .3 0 .6-.1 1 .1-.3.1-.6.1-1zm-.3 1.8v.1c-.1 0 0-.1 0-.1zm-7.6 1.9c-.1-.1-.2-.1-.3-.2.1 0 .2.1.3.2zm6.7-.5c-.1.1-.1.2-.2.3.1-.1.1-.2.2-.3zm.9-4.9c.1.2.2.5.2.8-.1-.3-.1-.5-.2-.8zm-.4 4.3c0 .1-.1.1-.1.2 0-.1 0-.2.1-.2zm-7.7.6l-.4-.4.4.4zm-58 29.1c3.3 0 5.9-2.6 5.9-5.9v-.1c0 3.4-2.7 5.9-5.9 6-3.2-.1-5.9-2.7-5.9-6v.1c0 3.3 2.7 5.9 5.9 5.9zm88.2-3.8h-54c-1.1 0-2-.9-2-2v.1c0 1.1.9 2 2 2h54c1.1 0 2-.9 2-2v-.1c0 1.1-.9 2-2 2z"/>
    <path fill="none" d="M1005-197.1h54c2.2 0 4-1.8 4-4v-.1c0 2.2-1.8 4-4 4h-54c-2.2 0-4-1.8-4-4v.1c0 2.2 1.8 4 4 4zm22.9-28.8c-.1-.2-.2-.5-.2-.8.1.3.1.5.2.8zm.4.8c-.1-.2-.3-.4-.3-.7.1.2.2.4.3.7zm4.1-5.9c-1.9 0-3.3 1.5-3.3 3.3 0-1.8 1.5-3.3 3.3-3.3zM944.3-83.1l-.1 9.3c0 .7.1 1.5.1 2H943v.1h1.4c-.1-.5-.1-1.3-.1-2v-9.4zm-3.9 3.4c1.2 0 2 .6 2.4 1.2-.4-.6-1.2-1.2-2.4-1.2-2 0-3.6 1.6-3.6 4.2 0-2.6 1.7-4.2 3.6-4.2zm1.2 7.9c.5-.2.8-.5 1.1-.8-.3.3-.7.6-1.1.8zm-.2 0c-.2.1-.3.1-.5.1.2 0 .4 0 .5-.1zm1.4-3.2c0 .2-.1.4-.1.6.1-.2.1-.4.1-.6v-1.4 1.4zm-3.4 2c-.1 0-.2-.1-.2-.1s.1.1.2.1zm-7.3-6.4z"/>
    <path fill="none" d="M942.7-76.9c-.2-1-1-1.7-2.1-1.7 1.1.1 1.9.9 2.1 1.7zm-12.5.4c0 .3.1.6.1.9 0-.4 0-.6-.1-.9zm2-.6c0 .1 0 .1 0 0v5.4h1.4v-.1h-1.4v-5.3zm1.5.5c-.1.2-.1.5-.1.7v.1c0-.3.1-.5.1-.8.2-.9.9-1.7 1.9-1.7h.5v-.1h-.5c-1 0-1.7.7-1.9 1.8zm101.2-155.1c.1 0 .1.1.2.1-.1-.1-.1-.1-.2-.1zm-.8-.4zm2.4 1.9c.1.2.3.4.3.7-.1-.2-.2-.4-.3-.7zm-4.1-2.3c.3 0 .6 0 1 .1-.4 0-.7-.1-1-.1zm3.6 1.7l.4.4-.4-.4zm-.5-.5c.1.1.2.1.3.2-.1 0-.2-.1-.3-.2zM940.6-72.7c-.4 0-.8-.1-1.1-.2.3.2.7.2 1.1.2zm101.9-47.3c0-.7-.4-1.1-1.6-1.5-2.1-.7-2.5-1.8-2.5-2.6 0-1.6 1.3-2.7 3.1-2.7h-.1c-1.9 0-3.2 1.1-3.2 2.7 0 .8.5 1.9 2.5 2.6 1.2.4 1.6.8 1.4 1.4 0 .8-.6 1.2-1.5 1.2h.1c1 0 1.6-.4 1.8-1.1zm-28-6.7c.2 0 .3.1.4.1v-.1h-.1c-.2-.1-.3-.1-.5-.1-.9 0-1.7.5-2.2 1.3v.4c.4-1 1.4-1.6 2.4-1.6zm7.8 4.3c.3.1.7.1 1 .1-.3-.1-.7-.1-1-.1zm-1.8-7.5c.9-.1 2-.2 3-.2-1.1 0-2.1 0-3.1.2h-.2v12.2h.2l.1-12.2zm-14.5 5.1c.6.6.7 1.4.7 1.8h-4.5v.1h4.6c-.1-.5-.1-1.3-.8-1.9.1 0 .1 0 0 0zm-95.7 3.5c.2.2.4.5.4.8-.1-.3-.2-.6-.4-.8zm100-2.4c0-1.2 0-2 .1-2.7v-.1h1.5v-.1h-1.9v.1c.1.7.1 1.6.1 2.7v6.1h.2v-6z"/>
    <path fill="none" d="M1000.5-122c0-2.8 1.7-4.8 4.2-4.8-2.6 0-4.3 2-4.4 4.9 0 2.7 1.7 4.5 4.5 4.5h.1c-2.8 0-4.5-1.8-4.4-4.6zm7.1 2.7v-.1.1c-.6.2-1.3.4-2.4.4 1.2 0 1.8-.2 2.4-.4zm-3.6.3z"/>
    <path fill="none" d="M1003.8-119.1c-.4-.2-.8-.5-1.1-.9.3.4.6.7 1.1.9zm-1-5.3c.1-.2.2-.3.4-.4-.2.1-.3.2-.4.4zm31.6 5.9l.1.8h.2l-.1-1c-.1.1-.1.2-.2.2zm-.1-1.7c-.1.3-.3.5-.5.7.3-.2.4-.4.5-.7zm-2.1 1.4c-.7 0-1.4-.4-1.4-1.4 0-.5.2-.8.5-1.1.5-.5 1.5-.8 3-.8h-.1c-1.5 0-2.5.3-3 .8-.3.3-.4.7-.4 1.1 0 1 .7 1.4 1.4 1.4zm9.3-6.4c.8 0 1.4.3 1.7.5l.1.1v-.1c-.3-.3-.9-.6-1.8-.5.1-.1.1 0 0 0zm-18.1 1.3c-.5 0-.9 0-1.2-.1v-4.5 4.5c.3.1.7.1 1.2.1z"/>
    <path fill="none" d="M1029-120.1c0-.8.3-1.5.8-2 .8-.9 2.4-1.3 4.7-1.3v-.1c0-1.3-.6-1.9-1.9-1.9h-.1c1.2 0 1.9.7 1.7 1.9v.1c-2.1 0-3.7.4-4.6 1.3-.5.5-.8 1.2-.8 2 0 1.3 1 2.6 2.9 2.6h.1c-1.8 0-2.8-1.3-2.8-2.6zm-5.6-3.8c1.9 0 3-.9 3-2.4v-.1c0 1.7-1.1 2.5-3 2.5zm6.4-2.2c.8-.5 1.8-.8 2.9-.8h-.1c-1.1 0-2.2.3-3 .8l-.1.1.5 1.3.1-.1h.1l-.4-1.3zM915-157.4l1.3.3c-.4-.1-.8-.2-1.3-.3zm2.4 4.8c-1-1-2.3-1.6-3.8-1.6s-2.8.6-3.8 1.6l.1.1c.9-1 2.3-1.6 3.8-1.6 1.4-.1 2.7.5 3.7 1.5zm-8.3-.8c1.1-1.2 2.8-1.9 4.5-1.9-1.8 0-3.4.7-4.5 1.9zm5.6 27.7h.1v9.9h-.1zm-3.9 5.9h-3.6 3.6c0-.2 0-.4-.1-.6.1.3.1.5.1.6zm8.9-35.2l-1.6 1.6c-1.1-1.2-2.7-1.9-4.5-1.9 1.7 0 3.3.7 4.5 1.9l1.6-1.6c-.8-.8-1.7-1.4-2.6-1.8.9.5 1.8 1.1 2.6 1.8zm65.1 28.5h-.2v.1c.1.6.1 1.3.1 2.3v6.5h.1v-6.5c0-1-.1-1.7 0-2.4zm13.6 7.6c.4 0 .7-.1.9-.1v-.1h-.1c-.2 0-.5.1-.9.1-.3 0-.6-.1-.8-.3.2.3.5.4.9.4zm-9.5-6.3s0 .1 0 0c1.6 0 1.9 1.3 1.9 2.4v5.1h.1v-5.1c0-1.1-.4-2.4-2-2.4zm8.4-1.5h2.2v.1h-2.2zm-14.9 1.9h.1v1.5h-.1zm13 4.3v-4.5h-.2v4.4c0 1.2.2 1.9.7 2.4l.1.1c-.5-.5-.7-1.3-.7-2.4h.1zm.1-8.1l1.7-.4v-.2l-1.8.5v2.1H994v.1h1.5zm-6 1.9c-.1 0-.1-.1 0 0-1.4 0-2.4.6-2.9 1.3v.1c.5-.7 1.5-1.4 2.9-1.4zm-11.9-1.7v3.5-3.5h5.1v-1.6 1.6zm5.4 10.8h-7.3 7.3v-1.6zm87.7-9.2zm4.4 4.6c0 2.1-.9 3.4-2.1 4.2 1.2-.7 2.1-2.1 2.1-4.2 0-.3 0-.7-.1-1 .1.4.1.7.1 1zm-2.6-4.2l.6.3-.6-.3zm8.6-.3c.2 0 .3.1.4.1v-.1h-.1c-.2-.1-.3-.1-.5-.1-.9 0-1.7.5-2.2 1.3v.4c.4-1 1.4-1.6 2.4-1.6zm-9.5 0c.2 0 .4.1.6.2-.1-.1-.3-.1-.6-.2zm5.3 3c0-1.2 0-2 .1-2.7v-.1h1.5v-.1h-1.9v.1c.1.7.1 1.6.1 2.7v6.1h.2v-6zm-106.1-70.2c4.1 0 7.4-3.3 7.4-7.4v-.1c0 4.2-3.3 7.4-7.4 7.5-4.1-.1-7.4-3.4-7.4-7.5v.1c0 4.1 3.3 7.4 7.4 7.4zm103.1 68.4c.1.1.2.2.3.4-.1-.1-.2-.3-.3-.4zm-3.2-1.3c-2.8 0-4.6 1.9-4.6 4.8 0-2.9 1.9-4.7 4.6-4.8zm4.1 2.8c0 .1.1.3.1.4 0-.1-.1-.3-.1-.4zm-.4-.8c.1.1.1.2.2.4-.1-.2-.1-.3-.2-.4zm-1.2-1.2c.2.1.3.2.4.4-.1-.2-.2-.3-.4-.4zm-5.2 3.9c0 .1 0 .1 0 0 0 .1 0 .1 0 0zm-30 4l.5-1.4h-.1l-.1-.1-.5 1.5h.2c.6.5 1.5.7 2.5.7h.1c-1 0-1.8-.2-2.6-.7zm48.6-7.1c1.2 0 2 .8 2.2 1.7.1.1.1.4.1.6v1.5c0 .3 0 .5-.1.7-.1.4-.3.7-.5 1 .3-.3.5-.7.6-1.1.1-.2.1-.4.1-.7v-1.5c0-.2-.1-.4-.1-.6-.2-.8-.9-1.7-2.3-1.6-.8-.1-1.5.3-1.9 1 .4-.6 1.1-1 1.9-1zm-36.8 5.2c0-.7-.4-1.1-1.6-1.5-2.1-.7-2.5-1.8-2.5-2.6 0-1.6 1.3-2.7 3.1-2.7h-.1c-1.9 0-3.2 1.1-3.2 2.7 0 .8.5 1.9 2.5 2.6 1.2.4 1.6.8 1.4 1.4 0 .8-.6 1.2-1.5 1.2h.1c1 0 1.6-.4 1.8-1.1zm41-10.7h-1.9v.1h1.9v10.7c0 .5 0 1.5.1 2.2v-.1c-.1-.6-.1-1.7-.1-2.2v-10.7z"/>
    <path fill="none" d="M1048.8-125.2c.8 0 1.4.3 1.7.5l.1.1v-.1c-.3-.3-.9-.6-1.8-.5.1-.1.1 0 0 0zm-3.5 7.1l.5-1.4h-.1l-.1-.1-.5 1.5.1.1c.7.4 1.6.6 2.6.6h.1c-1 0-1.8-.2-2.6-.7zm38.2-7.4c.7-.8 1.7-1.2 2.8-1.2s2 .4 2.6 1.1v-.1c-.5-.7-1.5-1.1-2.6-1.1s-2.1.4-2.8 1.2c-.9.9-1.4 2.1-1.4 3.5 0 .7.1 1.3.3 1.9-.2-.5-.2-1.1-.2-1.7-.1-1.4.4-2.7 1.3-3.6zm-29.3-1v-.1zm6.8 8.9l-1.4-4.2c-.3-.8-.5-1.6-.7-2.4-.2.9-.5 1.7-.7 2.4l-1.5 4.2v-.1h-1.6l-2.7-8.8h-.2l2.8 9h1.7l1.5-4.2c.2-.7.5-1.5.7-2.4.2.8.4 1.6.7 2.4l1.4 4.1 1.7.1 3-9-3 8.9h-1.7z"/>
    <path fill="#FFF" d="M847.7-154.8h-1.8c-.3 0-.5.2-.5.5v29.1c0 .3.2.5.5.5h1.8v-30.1zm-2 143.3v54.6c0 .3.2.5.5.5h1.5V-12h-1.5c-.3 0-.5.2-.5.5zm5.1-179.7v331.1h9.2v-300.1c0-2.2 1.8-4 4-4h338c2.2 0 4 1.8 4 4v300.1h9.8v-331.1c0-27.8-22.6-50.4-50.4-50.4H901.2c-27.8.1-50.4 22.6-50.4 50.4zm181.6-41.3c.3 0 .6 0 1 .1.3.1.5.1.8.2h.1c.2.1.4.2.7.3.1 0 .1.1.2.1.2.1.3.2.4.4.1.1.2.1.3.2.1.1.2.2.2.3l.4.4c0 .1.1.1.1.2.1.2.3.4.3.7v.1c.1.2.2.5.2.8.1.3.1.6.1 1s0 .6-.1 1c-.1.3-.1.5-.2.8v.1c-.1.2-.2.4-.3.7 0 .1-.1.1-.1.2-.1.2-.2.3-.4.4-.1.1-.1.2-.2.3-.1.1-.2.2-.3.2l-.4.4c-.1 0-.1.1-.2.1-.2.1-.4.3-.7.3h-.1c-.2.1-.5.2-.8.2-.3.1-.6.1-1 .1s-.6 0-1-.1c-.3-.1-.5-.1-.8-.2h-.1c-.2-.1-.4-.2-.7-.3-.1 0-.1-.1-.2-.1-.2-.1-.3-.2-.4-.4-.1-.1-.2-.1-.3-.2-.1-.1-.2-.2-.2-.3l-.4-.4c0-.1-.1-.1-.1-.2-.1-.2-.3-.4-.3-.7v-.1c-.1-.2-.2-.5-.2-.8-.1-.3-.1-.6-.1-1 0-2.7 2.1-4.8 4.8-4.8zm-31.4 31.3c0-2.2 1.8-4 4-4h54c2.2 0 4 1.8 4 4v.1c0 2.2-1.8 4-4 4h-54c-2.2 0-4-1.8-4-4v-.1c0 .1 0 .1 0 0zm-37.6-.2c0-4.1 3.3-7.4 7.4-7.4s7.4 3.3 7.4 7.4v.1c0 4.1-3.3 7.4-7.4 7.4s-7.4-3.3-7.4-7.4v-.1c0 .1 0 .1 0 0zm256.8 172.7c.8 0 1.5-.7 1.5-1.5v-52.6c0-.8-.7-1.5-1.5-1.5h-1.4v55.6h1.4zM847.8-84.3H846c-.3 0-.5.2-.5.5v54.6c0 .3.2.5.5.5h1.8v-55.6z"/>
    <path fill="#F1F1F2" d="M1168-149.7c.1-.2.2-.4.2-.7v-.4c0-.1 0-.3-.1-.4v-.1c0-.1-.1-.2-.2-.2-.1-.2-.3-.3-.6-.3s-.5.1-.6.3c-.1.2-.2.4-.2.7v.4c0 .3.1.5.2.7.2.2.4.3.7.3.2 0 .4-.1.6-.3zm-5.4-5.7v.4c0 .3.1.5.2.7.1.2.3.3.6.3.2 0 .4-.1.5-.3.1-.2.2-.4.2-.7v-.4c0-.3 0-.5-.2-.7-.1-.2-.3-.3-.5-.3-.3 0-.5.1-.5.3-.3.2-.3.4-.3.7zm-9.9-.1c-.1-.1-.1-.2-.2-.3-.1-.1-.2-.1-.2-.2-.2-.1-.3-.2-.5-.3h-.6c-.2 0-.4.1-.5.3-.1.1-.2.1-.2.2-.3.3-.4.8-.4 1.4v2.9c0 .6.1 1.1.4 1.4.3.3.6.5 1.1.5s.8-.2 1.1-.5c.1-.1.1-.2.2-.3.1-.2.2-.4.2-.7v-3.7c-.2-.3-.3-.5-.4-.7zm-242 35.2v-.2c-.1-.3-.2-.6-.4-.8-.3-.3-.6-.4-1.2-.4-1.2 0-1.8 1.1-1.9 2h3.6c0-.2 0-.4-.1-.6zm248.7-34.1c0-.6-.1-1.1-.4-1.4-.3-.3-.6-.5-1.1-.5s-.8.2-1.1.5-.4.8-.4 1.4v2.9c0 .6.1 1.1.4 1.4.3.3.6.5 1.1.5.5 0 .8-.2 1.1-.5.3-.3.4-.8.4-1.4v-2.9zm14.6 31.6c-1.7 0-2.4 1.5-2.4 3 0 1.7 1 3 2.4 3s2.4-1.3 2.4-3c0-1.3-.7-3-2.4-3zm-106 .8c0 1.8 1.1 3.2 2.6 3.2.4 0 .7-.1 1-.2.9-.5 1.6-1.6 1.6-3.1s-.8-3.2-2.6-3.2c-1.8-.1-2.6 1.6-2.6 3.3 0-.1 0-.1 0 0zm-45.8-2c.3.1.7.1 1.2.1 1.9 0 3-.9 3-2.4s-1-2.2-2.8-2.2c-.6 0-1 0-1.3.1h-.1v4.4zm8.6 3.8c0 1 .7 1.4 1.4 1.4s1.3-.3 1.6-.7c.2-.2.4-.5.5-.7.1-.2.1-.4.1-.5v-1.4h-.1c-1.5 0-2.5.3-3 .8-.3.3-.5.6-.5 1.1zM862-104.7h342v.1H862zm144-20.1c-.4-.4-.9-.5-1.4-.5-.6 0-1.1.2-1.4.5-.2.1-.3.3-.4.4-.3.4-.5 1-.6 1.4h4.5c0-.4-.1-1.2-.7-1.8zm-119.5 7.1c0 .8.6 1.2 1.2 1.2.2 0 .4 0 .6-.1.1 0 .1-.1.2-.1.4-.2.7-.6.9-.9 0-.1.1-.3.1-.4v-1.2h-.5c-1.3 0-2.5.4-2.5 1.5zm202.4-3.7v-1.5c0-.2 0-.5-.1-.6-.2-.9-1-1.7-2.2-1.7-.8 0-1.5.4-1.9 1-.4.5-.6 1.3-.6 2.1 0 1.4.6 3.1 2.5 3.1.6 0 1.2-.2 1.7-.7.2-.3.4-.6.5-1 .1-.2.1-.4.1-.7zM862-49.8h342v189.7H862z"/>
    <path fill="#F1F1F2" d="M1204-160.2c0-1.1-.9-2-2-2H864c-1.1 0-2 .9-2 2v53.4h342v-53.4zm-323.4 4.4c1.4 0 2.6 1.2 2.6 2.6 0 1.4-1.2 2.6-2.6 2.6-1.4 0-2.6-1.2-2.6-2.6 0-1.4 1.2-2.6 2.6-2.6zm-6.9 5.2c-1.4 0-2.6-1.2-2.6-2.6 0-.2 0-.4.1-.5.3-1.1 1.2-2 2.5-2 1.4 0 2.6 1.2 2.6 2.6 0 1.4-1.2 2.5-2.6 2.5zm8.4 35.1c-1.4 0-2.6-.5-3.4-1.3-.9-.8-1.4-2-1.4-3.6 0-3 2-5 4.9-5 1.2 0 1.9.3 2.2.4 0 0 .1 0 .1.1l-.3 1c-.5-.2-1.1-.4-1.9-.4-2.2 0-3.7 1.4-3.7 3.9 0 1.1.3 2.1.9 2.7.6.6 1.5 1 2.6 1 .7 0 1.5-.2 2-.4l.1.2h.1l.3 1c-.5.2-1.4.4-2.5.4zm5.4-40.3c1.4 0 2.6 1.2 2.6 2.6 0 .2 0 .3-.1.5v.1c-.3 1.1-1.2 2-2.5 2-1.4 0-2.6-1.2-2.6-2.6 0-1.4 1.2-2.6 2.6-2.6zm2.1 40l-.1-.9c-.4.5-1.1 1-2.1 1-1.4 0-2.1-.9-2.1-1.9 0-.4.1-.8.3-1.1.1-.2.2-.3.3-.4.3-.3.6-.5 1-.6.2-.1.4-.1.7-.2.5-.1 1.1-.2 1.7-.2v-.1c0-.6-.2-1.6-1.5-1.6-.6 0-1.3.2-1.8.5l-.3-.8c.5-.4 1.3-.6 2.2-.6 2.1 0 2.6 1.4 2.6 2.8v2.5c0 .6 0 1.1.1 1.6h-1zm2.2-37.4c0-1.4 1.2-2.6 2.6-2.6 1.4 0 2.6 1.2 2.6 2.6 0 1.4-1.2 2.6-2.6 2.6-1.4 0-2.6-1.1-2.6-2.6zm6.6 37.3h-.1v.1h-1.2v-3.9c0-1.1-.4-2-1.6-2-.6 0-1.1.3-1.4.8-.1.1-.1.3-.2.4-.1.2-.1.4-.1.6v4.1h-.1v.1h-1.2v-4.9c0-.7 0-1.3-.1-1.8h.1v-.1h1.1l.1 1c.1-.1.2-.2.2-.3.4-.5 1.1-.9 2.1-1 .9 0 2.4.6 2.4 2.9v4zm.3-37.3c0-1.4 1.2-2.6 2.6-2.6 1.4 0 2.6 1.2 2.6 2.6 0 1.4-1.2 2.6-2.6 2.6-1.4 0-2.6-1.1-2.6-2.6zm4.8 36.5c.7 0 1.1-.1 1.5-.3l.2.9v.1c-.3.2-1 .4-1.9.4-2 0-3.4-1.4-3.4-3.5v-.1c0-2.1 1.4-3.6 3.6-3.6.7 0 1.4.2 1.7.4v.1l-.3 1c-.3-.2-.8-.3-1.4-.3-1.6 0-2.4 1-2.4 2.5.1 1.5 1.1 2.4 2.4 2.4zm8.6-2.2h-4.8c0 1.7 1.1 2.4 2.3 2.4.9 0 1.4-.2 1.8-.4h.1l.2.9c-.5.2-1.2.4-2.3.4h-.1c-2.1 0-3.3-1.4-3.3-3.4 0-2.1 1.2-3.7 3.2-3.7h.1c2.2 0 2.8 2 2.8 3.2v.6zm2.7 3.1h-1.3v-9.9h1.3v9.9zm-1.2-33.1l-1.7-1.7c.4-.4 1-.7 1.7-.7s1.3.3 1.7.7l-1.7 1.7zm2.6-2.4c-.6-.6-1.5-1-2.5-1s-1.9.4-2.5 1l-1.3-1.3-.1-.1c1-1 2.3-1.6 3.8-1.6s2.8.6 3.8 1.6l.1.1-1.3 1.3zm1.9-2.1c-1.2-1.2-2.8-1.9-4.5-1.9s-3.4.7-4.5 1.9l-1.6-1.6c2.1-2.1 4.9-2.9 7.5-2.4l1.3.3c.3.1.5.2.8.3.9.4 1.8 1 2.6 1.8l-1.6 1.6zm64.9 35.8h-7.3V-130h7v1.6h-5.1v3.5h4.8v.1h.1v1.5h-4.9v4.1h5.4v1.6zm9.8-.1h-2v-5.1c0-1.1-.3-2.4-2-2.4-1.1 0-1.8.7-2 1.5-.1.2-.1.4-.1.7v5.4h-2v-6.5c0-1 0-1.7-.1-2.3v-.1h.2v-.1h1.7l.1 1.1c.5-.7 1.5-1.3 2.8-1.3h.1c.6 0 3.3.2 3.3 3.8v5.3zm6.8-7.4h-2.3v4.6c0 .5.1.9.2 1.2.2.2.4.3.8.3s.7-.1.9-.1h.1v.1h.1l.1 1.4h-.1c-.4.1-.9.2-1.5.2-.8 0-1.5-.2-1.9-.7l-.1-.1c-.5-.5-.7-1.2-.7-2.4v-4.4H994v-1.6h1.4v-2.1l1.8-.5v.1h.1v2.4h2.2v.1h.1v1.5zm9 3.4h-6.3c0 .7.2 1.2.4 1.7.3.4.6.7 1.1.9.1 0 .1.1.2.1h.1c.3.1.7.2 1.1.2 1.2 0 1.8-.2 2.3-.4l.1-.1v.1l.1-.1.3 1.4h-.1c-.5.3-1.5.6-3 .6h-.1c-2.8 0-4.5-1.8-4.5-4.5.1-2.9 1.8-4.9 4.4-4.9h.1c2.8 0 3.8 2.2 3.8 4.2v.8zm6.5-3.2h-.2c-.1-.1-.3-.1-.5-.1-1.1 0-1.9.7-2.1 1.9-.1.2-.1.4-.1.7v4.8h-1.9v-.1h-.2v-6.1c0-1.1 0-2-.1-2.7v-.1h1.9v.1h.2v1c.5-.8 1.3-1.3 2.2-1.3.2 0 .3 0 .5.1h.1v.1h.2v1.7zm12.2 1.1c-.8.9-2.2 1.4-3.9 1.4h-.1c-.3 0-.7 0-1-.1v4.8h-2.1v-12.2h.2c1-.2 2-.2 3.1-.2h.1c1.6 0 2.8.3 3.6 1 .7.6 1.1 1.5 1.1 2.6s-.3 2-1 2.7zm9.1 6.1h-1.9l-.1-.8c-.6.7-1.5 1-2.5 1h-.2c-1.9 0-2.9-1.3-2.9-2.6 0-.8.3-1.5.8-2 .9-.9 2.5-1.3 4.6-1.3v-.1c.2-1.2-.5-1.9-1.7-1.9-.8 0-1.6.2-2.2.6l-.1.1v-.1h-.1l-.1.1-.5-1.3.1-.1c.8-.5 1.9-.8 3-.8h.2c2.9 0 3.5 2 3.5 3.7v3.3c0 .9 0 1.6.1 2.1v.1zm4.3.3h-.2c-1 0-1.9-.2-2.6-.6l-.1-.1.5-1.5.1.1h.1v-.1l.1.1c.5.3 1.2.6 2 .6.9 0 1.5-.4 1.5-1.2.2-.6-.2-1-1.4-1.4-2-.7-2.5-1.8-2.5-2.6 0-1.6 1.3-2.7 3.2-2.7h.2c.8 0 1.7.3 2.3.6l.1.1-.5 1.4-.1-.1h-.1v.1l-.1-.1c-.3-.2-.8-.5-1.7-.5-.8 0-1.3.5-1.3 1.1 0 .7.5 1 1.6 1.4 1.7.6 2.4 1.4 2.4 2.7 0 1.6-1.4 2.7-3.5 2.7zm7.3 0h-.2c-1 0-1.9-.2-2.6-.6l-.1-.1.5-1.5.1.1h.1v-.1l.1.1c.5.3 1.2.6 2 .6.9 0 1.5-.4 1.5-1.2.2-.6-.2-1-1.4-1.4-2-.7-2.5-1.8-2.5-2.6 0-1.6 1.3-2.7 3.2-2.7h.2c.8 0 1.7.3 2.3.6l.1.1-.5 1.4-.1-.1h-.1v.1l-.1-.1c-.3-.2-.8-.5-1.7-.5-.8 0-1.3.5-1.3 1.1 0 .7.5 1 1.6 1.4 1.7.6 2.4 1.4 2.4 2.7 0 1.6-1.4 2.7-3.5 2.7zm17.7-9.1l-3 9h-1.7l-1.4-4.2c-.3-.8-.5-1.6-.7-2.4-.2.9-.5 1.7-.7 2.4l-1.5 4.2h-1.7l-2.8-9h.2l-.1-.2h1.9v.1l1.2 4.4c.2.9.4 1.6.6 2.4.2-.7.5-1.5.7-2.3l1.5-4.5h1.6v.1l1.4 4.4c.3.9.5 1.7.7 2.4.2-.8.4-1.7.6-2.4l1.3-4.5 1.9.1zm7.3 8.5c-.7.4-1.6.6-2.5.6-2.6 0-4.4-1.9-4.4-4.6 0-2.9 1.8-4.8 4.6-4.8.3 0 .6 0 .9.1.2 0 .4.1.6.2.1 0 .2 0 .2.1l.6.3c.1 0 .1.1.2.1.2.1.3.2.4.4l.2.2c.1.1.2.2.3.4.1.1.2.2.2.3.1.1.1.2.2.4.1.1.1.3.2.4 0 .1.1.3.1.4 0 .2.1.3.1.5.1.3.1.6.1 1 .1 1.9-.8 3.3-2 4zm8.7-6.9h-.2c-.1-.1-.3-.1-.5-.1-1.1 0-1.9.7-2.1 1.9-.1.2-.1.4-.1.7v4.8h-1.9v-.1h-.2v-6.1c0-1.1 0-2-.1-2.7v-.1h1.9v.1h.2v1c.5-.8 1.3-1.3 2.2-1.3.2 0 .3 0 .5.1h.1v.1h.2v1.7zm9.2 7.2v.1h-1.7l-.1-1.3c-.6.9-1.7 1.5-3 1.5-1.8 0-3.2-1.1-3.7-2.8-.2-.6-.3-1.2-.3-1.9 0-1.4.5-2.6 1.4-3.5.7-.8 1.7-1.2 2.8-1.2 1.1 0 2.1.4 2.6 1.1v-5h1.9v10.7c0 .5 0 1.6.1 2.3zm54.8-31.1h-1.1v-7.2h-1.8v-.8l2.9-.3v8.3zm8.3-2.9c0 .9-.2 1.7-.7 2.2s-1.1.8-1.9.8c-.8 0-1.4-.3-1.9-.8s-.7-1.3-.7-2.2v-2.4c0-.9.2-1.7.7-2.2.5-.6 1.1-.8 1.9-.8.8 0 1.4.2 1.9.8.5.5.7 1.3.7 2.2v2.4zm6.5 0c0 .9-.2 1.7-.7 2.2s-1.1.8-1.9.8c-.8 0-1.4-.3-1.9-.8s-.7-1.3-.7-2.2v-2.4c0-.9.2-1.7.7-2.2.5-.6 1.1-.8 1.9-.8.8 0 1.4.2 1.9.8.5.5.7 1.3.7 2.2v2.4zm1.2-3.3v-.4c0-.5.2-.9.5-1.2.3-.3.7-.5 1.2-.5s.9.2 1.2.5c.3.3.5.7.5 1.2v.4c0 .5-.2.9-.5 1.2-.3.3-.7.5-1.2.5s-.9-.2-1.2-.5-.5-.7-.5-1.2zm5.4-1.2l.6.4-4 6.4-.6-.4 4-6.4zm1.3 36.8c0 2.8-1.5 3.7-3.4 3.7-.5 0-1.1-.2-1.5-.3v-.1h-.1l.2-1.1c.3.1.7.2 1.2.2 1.3 0 2-.6 2-2.7v-7.1h1.4v.2h.2v7.2zm.6-31c0 .5-.2.9-.5 1.2s-.7.5-1.2.5-.9-.2-1.2-.5-.5-.7-.5-1.2v-.4c0-.5.2-.9.5-1.2.3-.4.7-.5 1.2-.5s.9.2 1.2.5.5.7.5 1.2v.4zm4.9 34.6c-2.2 0-3.8-1.5-3.8-4 0-2.6 1.8-4.1 4-4.1 2.3 0 3.8 1.6 3.8 4 0 3-2 4.1-4 4.1zm7.3-.2h-1.5v-7.7h1.5v7.7zm-.7-9c-.1 0-.1 0 0 0-.6 0-1-.4-1-.9s.4-.9.9-.9h.1c.5 0 .8.4.9.9 0 .5-.3.9-.9.9zm10 9.1h-1.5v-.1h-.1v-4.5c0-.9-.3-1.6-.9-2-.2-.1-.5-.2-.8-.2-.9 0-1.7.6-1.9 1.4-.1.2-.1.5-.1.7v4.7h-1.5v-.1h-.1v-5.7c0-.8 0-1.5-.1-2.1h1.3v.1h.1l.1 1.1c.4-.7 1.3-1.4 2.5-1.4.7 0 1.7.3 2.2 1.1.4.5.7 1.3.8 2.4v4.6zm5-35.6l-1 .1v1.1c0 .8-.7 1.5-1.5 1.5h-17.5c-.8 0-1.5-.7-1.5-1.5v-6c0-.8.7-1.5 1.5-1.5h17.5c.8 0 1.5.7 1.5 1.5v1.1h1v3.7z"/>
    <path fill="#DBDBDB" d="M1202-164.2H864c-2.2 0-4 1.8-4 4v300.1h2V-49.8h342v189.7h2v-300.1c0-2.2-1.8-4-4-4zm-340 4c0-1.1.9-2 2-2h338c1.1 0 2 .9 2 2v53.4H862v-53.4zm342.2 108.4H862v-52.9h342v.2h.2v52.7z"/>
    <path fill="#F1F1F2" d="M970.8-195.5c3.2 0 5.9-2.6 5.9-5.9 0-3.3-2.7-5.8-5.9-5.8s-5.9 2.6-5.9 5.8c0 3.4 2.7 5.9 5.9 5.9z"/>
    <path fill="#DBDBDB" d="M970.8-194c4.1 0 7.4-3.3 7.4-7.4 0-4.1-3.3-7.4-7.4-7.4s-7.4 3.3-7.4 7.4c0 4.2 3.3 7.4 7.4 7.4zm-5.9-7.3c0-3.3 2.7-5.8 5.9-5.8s5.9 2.6 5.9 5.8v.1c0 3.3-2.6 5.9-5.9 5.9-3.2-.1-5.9-2.7-5.9-6z"/>
    <path fill="#F1F1F2" d="M1032.4-224.4c1.8 0 3.3-1.5 3.3-3.3s-1.5-3.3-3.3-3.3-3.3 1.5-3.3 3.3 1.5 3.3 3.3 3.3z"/>
    <path fill="#DBDBDB" d="M1027.9-225.9v.1c.1.2.2.4.3.7 0 .1.1.1.1.2.1.2.2.3.4.4.1.1.1.2.2.3.1.1.2.2.3.2l.4.4c.1 0 .1.1.2.1.2.1.4.3.7.3h.1c.2.1.5.2.8.2.3.1.6.1 1 .1.3 0 .6 0 1-.1.3-.1.5-.1.8-.2h.1c.2-.1.4-.2.7-.3.1 0 .1-.1.2-.1.2-.1.3-.2.4-.4.1-.1.2-.1.3-.2.1-.1.2-.2.2-.3l.4-.4c0-.1.1-.1.1-.2.1-.2.3-.4.3-.7v-.1c.1-.2.2-.5.2-.8.1-.3.1-.6.1-1 0-.3 0-.6-.1-1-.1-.3-.1-.5-.2-.8v-.1c-.1-.2-.2-.4-.3-.7 0-.1-.1-.1-.1-.2-.1-.2-.2-.3-.4-.4-.1-.1-.1-.2-.2-.3-.1-.1-.2-.2-.3-.2l-.4-.4c-.1 0-.1-.1-.2-.1-.2-.1-.4-.3-.7-.3h-.1c-.2-.1-.5-.2-.8-.2-.3-.1-.6-.1-1-.1-2.6 0-4.8 2.1-4.8 4.8 0 .3 0 .6.1 1 .1.3.1.5.2.8zm4.5-5.1c1.8 0 3.3 1.5 3.3 3.3s-1.5 3.3-3.3 3.3-3.3-1.5-3.3-3.3 1.4-3.3 3.3-3.3z"/>
    <path fill="#E5E5E5" d="M1003-201.1c0 1.1.9 2 2 2h54c1.1 0 2-.9 2-2s-.9-2-2-2h-54c-1.1-.1-2 .8-2 2z"/>
    <path fill="#DBDBDB" d="M1005-197.2h54c2.2 0 4-1.8 4-4s-1.8-4-4-4h-54c-2.2 0-4 1.8-4 4 0 2.3 1.8 4 4 4zm54-6c1.1 0 2 .9 2 2v.1c0 1.1-.9 2-2 2h-54c-1.1 0-2-.9-2-2v-.1c0-1.2.9-2 2-2h54z"/>
    <path fill="#FFF" d="M928.7-75.6c.1-1.4-.5-3-2.3-3-1.8 0-2.4 1.5-2.4 3 0 1.7 1 3 2.4 3 1.3 0 2.3-1.3 2.3-3zm11.9 2.9c.9 0 1.8-.6 2.1-1.7 0-.2.1-.4.1-.6v-1.4c0-.1 0-.2-.1-.3v-.1c-.2-.9-1-1.7-2.1-1.7-1.5 0-2.4 1.3-2.4 3 0 1 .3 1.9.9 2.4.1.1.1.1.2.1s.1.1.2.1c.3.2.7.2 1.1.2zM891-74c0 .9.6 1.3 1.3 1.3 1 0 1.7-.6 1.9-1.3.1-.1.1-.3.1-.4v-1.3c-1.6.1-3.3.3-3.3 1.7zm-3.8-5.4c.1-1.4-1-2.1-2.6-2.1-.6 0-1.1 0-1.3.1v4.2c.3.1.7.1 1.1.1 1.7 0 2.8-.8 2.8-2.3z"/>
    <path fill="#FFF" d="M862-104.5v52.7h342.2v-52.7H862zm26.7 25.1c0 1-.3 1.7-.9 2.3-.8.8-2 1.2-3.4 1.2-.5 0-.9 0-1.2-.1v4.3h-1.4v-10.8c.7-.1 1.6-.2 2.8-.2 1.4 0 2.5.3 3.1.9.6.5 1 1.3 1 2.3v.1zm5.9 7.7l-.2-.1-.1-.8c-.5.5-1.2 1-2.2 1h-.2c-1.6 0-2.4-1.1-2.4-2.2 0-1.9 1.7-2.9 4.8-2.9v-.2c0-.6-.2-1.7-1.7-1.8-.7 0-1.4.2-2 .6v-.1c-.1 0-.1.1-.2.1l-.3-.9c.6-.4 1.6-.7 2.6-.7h.2c2.4 0 3 1.6 3 3.2v2.9c0 .7 0 1.3.1 1.9h-1.4zm5.2.1c-.9 0-1.7-.2-2.2-.5v-.1h-.1l.4-1.1c.4.3 1.2.6 1.9.6 1 0 1.5-.6 1.5-1.2 0-.3-.1-.6-.5-.9-.2-.1-.5-.3-.9-.4-.7-.3-1.2-.6-1.6-1-.4-.4-.6-.8-.6-1.3 0-1.3 1.1-2.3 2.8-2.3.8 0 1.6.2 2 .5 0 0 .1 0 .1.1l-.4 1c-.3-.2-.9-.4-1.6-.4-.9 0-1.3.5-1.3 1.1 0 .3.1.5.3.6.2.2.6.4 1.1.6l.6.3c1.1.5 1.6 1.1 1.6 2.1-.2 1.3-1.2 2.3-3.1 2.3zm6.5 0c-.9 0-1.7-.2-2.2-.5v-.1h-.1l.4-1.1c.4.3 1.2.6 1.9.6 1 0 1.5-.6 1.5-1.2 0-.3-.1-.6-.5-.9-.2-.1-.5-.3-.9-.4-.7-.3-1.2-.6-1.6-1-.4-.4-.6-.8-.6-1.3 0-1.3 1.1-2.3 2.8-2.3.8 0 1.6.2 2 .5 0 0 .1 0 .1.1l-.4 1c-.3-.2-.9-.4-1.6-.4-.9 0-1.3.5-1.3 1.1 0 .3.1.5.3.6.2.2.6.4 1.1.6.4.2.7.3 1 .5.8.5 1.2 1.1 1.2 1.9-.1 1.3-1.2 2.3-3.1 2.3zm12.9-.2h-1.3l-1.2-3.7c-.3-.9-.5-1.6-.7-2.5-.2.9-.4 1.7-.7 2.6l-1.3 3.7h-1.3l-2.4-7.7v-.1h1.5l1.1 3.9c.2.9.5 1.7.6 2.5.2-.7.4-1.6.7-2.4l1.3-4h1.2l1.2 3.9c.3.9.5 1.7.7 2.5.1-.8.3-1.6.6-2.5l.5-1.6.6-2.2.1-.2h1.4l-1.3 3.9-1.3 3.9zm11.1-3.9c0 2.9-2 4.1-4 4.1-2.2 0-3.8-1.5-3.8-4 0-2.6 1.7-4.1 4-4.1 1.2 0 2.1.4 2.8 1.1.5.5.8 1.2 1 2v.9zm5.8-2.7l-.5.1c-1 0-1.7.8-1.9 1.8 0 .2-.1.4-.1.7v4.1h-1.4v-5.4c0-.8-.1-1.5-.1-2.1v-.2h1.3l.1 1.5c.3-1 1.2-1.7 2.2-1.7h.4v1.2zm6.9 6.7l-.1-1.4c-.1.1-.2.3-.3.4-.3.4-.6.6-1.1.8 0 0-.1 0-.1.1-.2.1-.3.1-.5.1-.2.1-.5.1-.8.1-1.9 0-3.4-1.5-3.4-3.9 0-2.6 1.6-4.2 3.6-4.2 1.2 0 2 .6 2.4 1.2v-4.6h1.5v9.4c0 .7 0 1.5.1 2H943z"/>
    <path fill="#BABABA" d="M873.7-155.8c-1.2 0-2.3.9-2.5 2 0 .2-.1.3-.1.5 0 1.4 1.2 2.6 2.6 2.6 1.4 0 2.6-1.2 2.6-2.6 0-1.3-1.2-2.5-2.6-2.5z"/>
    <circle cx="880.6" cy="-153.2" r="2.6" fill="#BABABA"/>
    <path fill="#BABABA" d="M884.9-153.1c0 1.4 1.2 2.6 2.6 2.6 1.2 0 2.3-.9 2.5-2v-.1c0-.2 0-.3.1-.5 0-1.4-1.2-2.6-2.6-2.6-1.4-.1-2.6 1.1-2.6 2.6 0-.1 0-.1 0 0zm9.5 2.5c1.4 0 2.6-1.2 2.6-2.6 0-1.4-1.2-2.6-2.6-2.6-1.4 0-2.6 1.2-2.6 2.6 0 1.5 1.2 2.6 2.6 2.6zm6.9 0c1.4 0 2.6-1.2 2.6-2.6 0-1.4-1.2-2.6-2.6-2.6-1.4 0-2.6 1.2-2.6 2.6 0 1.5 1.2 2.6 2.6 2.6zm12.4-3.6c-1.5 0-2.9.6-3.8 1.6l1.3 1.3c.6-.6 1.5-1 2.5-1s1.9.4 2.5 1l1.3-1.3-.1-.1c-1-.9-2.3-1.5-3.7-1.5zm240.3 2.5v-2.4c0-.9-.2-1.6-.7-2.2-.5-.6-1.1-.8-1.9-.8-.8 0-1.4.3-1.9.8s-.7 1.3-.7 2.2v2.4c0 .9.2 1.7.7 2.2s1.1.8 1.9.8c.8 0 1.4-.3 1.9-.8s.7-1.3.7-2.2zm-1.1.2v.4c0 .3-.1.5-.2.7-.1.1-.1.2-.2.3-.3.3-.6.5-1.1.5s-.8-.2-1.1-.5c-.3-.3-.4-.8-.4-1.4v-2.9c0-.6.1-1.1.4-1.4l.2-.2c.2-.1.3-.2.5-.3h.6c.2 0 .4.1.5.3.1.1.2.1.2.2.1.1.1.2.2.3.1.2.2.4.2.7v3.3zm7.6-.2v-2.4c0-.9-.2-1.6-.7-2.2-.5-.6-1.1-.8-1.9-.8-.8 0-1.4.3-1.9.8s-.7 1.3-.7 2.2v2.4c0 .9.2 1.7.7 2.2s1.1.8 1.9.8c.8 0 1.4-.3 1.9-.8s.7-1.3.7-2.2zm-1.5 1.6c-.3.3-.6.5-1.1.5-.5 0-.8-.2-1.1-.5-.3-.3-.4-.8-.4-1.4v-2.9c0-.6.1-1.1.4-1.4.3-.3.6-.5 1.1-.5.5 0 .8.2 1.1.5.3.3.4.8.4 1.4v2.9c0 .6-.1 1.1-.4 1.4zm35.5-6.2c0-.8-.7-1.5-1.5-1.5h-17.5c-.8 0-1.5.7-1.5 1.5v6c0 .8.7 1.5 1.5 1.5h17.5c.8 0 1.5-.7 1.5-1.5v-1.1h1v-3.8h-1v-1.1zm-27.2 3.8c-.5 0-.9.1-1.2.5-.3.3-.5.7-.5 1.2v.4c0 .5.2.9.5 1.2s.7.5 1.2.5.9-.2 1.2-.5.5-.7.5-1.2v-.4c0-.5-.2-.9-.5-1.2s-.7-.5-1.2-.5zm.1 3.1c-.3 0-.5-.1-.7-.3-.2-.2-.2-.4-.2-.7v-.4c0-.3.1-.5.2-.7.2-.2.4-.3.6-.3.3 0 .5.1.6.3.1 0 .2.1.2.2v.1c0 .1.1.2.1.4v.4c0 .3-.1.5-.2.7-.2.2-.4.3-.6.3zm-3.7-.1l4-6.3-.6-.4-4 6.4zm-18-7.6l-2.9.3v.8h1.8v7.2h1.1v-8.3zm18.9 3.3c.3-.3.5-.7.5-1.2v-.4c0-.5-.2-.9-.5-1.2s-.7-.5-1.2-.5-.9.2-1.2.5c-.3.3-.5.7-.5 1.2v.4c0 .5.2.9.5 1.2s.7.5 1.2.5.9-.2 1.2-.5zm-2.2-1.6h.1c0-.3.1-.5.2-.7.1-.2.4-.3.6-.3h.1c.3 0 .5.1.5.3.2.2.2.4.2.7v.4c0 .3-.1.5-.2.7-.1.2-.3.3-.5.3h-.1c-.3 0-.5-.1-.7-.3-.2-.2-.2-.4-.2-.7v-.4zM983-119.2h-5.4v-4.1h4.8v-1.6h-4.8v-3.5h5.1v-1.6h-7v12.4h7.3zm107.8-11.4h-1.9v5c-.6-.7-1.5-1.1-2.6-1.1s-2.1.4-2.8 1.2c-.9.9-1.4 2.2-1.3 3.6 0 .6.1 1.2.2 1.7.5 1.7 1.9 2.8 3.7 2.8 1.3 0 2.4-.6 3-1.5l.1 1.3h1.7v-.1c-.1-.7-.1-1.7-.1-2.2v-10.7zm-4.1 5.3c1.3 0 2 .9 2.2 1.7 0 .2.1.4.1.6v1.5c0 .3 0 .5-.1.7-.1.5-.4.8-.6 1.1-.4.4-1 .7-1.7.7-1.9 0-2.5-1.7-2.5-3.1 0-.9.2-1.6.6-2.1.4-.6 1.1-1.1 2-1.1z"/>
    <path fill="#BABABA" d="M919.7-155c-.8-.8-1.7-1.4-2.6-1.8-.3-.1-.5-.2-.8-.3-.4-.1-.9-.3-1.3-.3-2.6-.4-5.4.4-7.5 2.4l1.6 1.6c1.1-1.2 2.7-1.9 4.5-1.9 1.8 0 3.4.7 4.5 1.9l1.6-1.6zm155.4 32.8c0-.3 0-.7-.1-1 0-.2-.1-.3-.1-.5 0-.1-.1-.3-.1-.4-.1-.2-.1-.3-.2-.4-.1-.1-.1-.2-.2-.4-.1-.1-.2-.2-.2-.3-.1-.1-.2-.3-.3-.4l-.2-.2-.4-.4c-.1 0-.1-.1-.2-.1l-.6-.3c-.1 0-.2 0-.2-.1-.2-.1-.4-.1-.6-.2-.3-.1-.6-.1-.9-.1-2.7 0-4.6 1.9-4.6 4.8 0 2.7 1.8 4.6 4.4 4.6.9 0 1.7-.2 2.5-.6 1.1-.5 2-1.9 2-4zm-7.1.1c0-1.6.8-3.3 2.6-3.3s2.6 1.7 2.6 3.2c0 1.4-.6 2.6-1.6 3.1-.3.2-.7.2-1 .2-1.5 0-2.6-1.3-2.6-3.2 0 .1 0 .1 0 0zm-156.1-28.5l1.7 1.7 1.7-1.7c-.4-.4-1-.7-1.7-.7s-1.3.3-1.7.7zm85.4 24v-2.5h-.1l-1.7.5v2.1H994v1.5h1.4v4.5h-.1c0 1.1.2 1.9.7 2.4.4.5 1.1.7 1.9.7.6 0 1.1-.1 1.5-.2h.1l-.1-1.4h-.1c-.2 0-.5.1-.9.1s-.7-.1-.9-.4c-.2-.3-.2-.7-.2-1.2v-4.6h2.3v-1.5h-2.3zm17.6 0c-.1 0-.2-.1-.4-.1-1 0-2 .6-2.4 1.6v-1.4h-1.7v.1c-.1.7-.1 1.5-.1 2.7v6.1h1.9v-4.8c0-.3 0-.5.1-.7.2-1.2 1-1.9 2.1-1.9.2 0 .4 0 .5.1h.2v-1.7h-.2c.1 0 0 0 0 0zm21.4 3.4c0-1.7-.6-3.7-3.5-3.7h-.1c-1.1 0-2.1.3-2.9.8l-.1.1.5 1.2v.1l.1-.1c.6-.4 1.4-.6 2.2-.6h.1c1.3 0 1.9.6 1.9 1.9v.1c-2.3 0-3.9.4-4.7 1.3-.5.5-.8 1.2-.8 2 0 1.3 1 2.5 2.8 2.6h.1c1 0 1.9-.4 2.5-1l.2-.2.1 1h1.7v-.1c-.1-.5-.1-1.2-.1-2.1v-3.3zm-5.5 3c0-.4.1-.8.4-1.1.5-.5 1.5-.8 3-.8h.2v1.4c0 .1 0 .3-.1.5s-.2.5-.5.7c-.4.4-.9.7-1.6.7-.7 0-1.4-.4-1.4-1.4zm-7.2-9.9s0 .1 0 0c-1.1 0-2.2.1-3.1.2h-.1v12.2h1.9v-4.8c.3.1.7.1 1 .1h.1c1.7 0 3.1-.5 3.9-1.4.7-.7 1-1.6 1-2.7s-.4-2-1.1-2.6c-.8-.7-2-1-3.6-1zm-1.4 1.6s.1 0 0 0c.4-.1.8-.1 1.4-.1 1.8 0 2.8.8 2.8 2.2v.1c0 1.5-1.1 2.4-3 2.4-.5 0-.9 0-1.2-.1v-4.5zm26.9 5.7c-1.1-.4-1.6-.7-1.6-1.4 0-.6.6-1.1 1.3-1.1h.1c.8 0 1.4.3 1.7.5h.1l.1.1.5-1.4-.1-.1c-.6-.3-1.5-.6-2.3-.6h-.1c-1.8 0-3.1 1.1-3.1 2.7 0 .8.4 1.9 2.5 2.6 1.2.4 1.6.8 1.6 1.5-.2.7-.8 1.1-1.8 1.1h-.1c-.8 0-1.5-.3-2-.6l-.1-.1v.1l-.5 1.4.1.1c.7.4 1.5.6 2.5.6h.1c2.1 0 3.5-1.1 3.5-2.7 0-1.3-.7-2.1-2.4-2.7zm-7.3 0c-1.1-.4-1.6-.7-1.6-1.4 0-.6.6-1.1 1.3-1.1h.1c.8 0 1.4.3 1.7.5h.1l.1.1.5-1.4-.1-.1c-.6-.3-1.5-.6-2.3-.6h-.1c-1.8 0-3.1 1.1-3.1 2.7 0 .8.4 1.9 2.5 2.6 1.2.4 1.6.8 1.6 1.5-.2.7-.8 1.1-1.8 1.1h-.1c-.8 0-1.5-.3-2-.6l-.1-.1v.1l-.5 1.4.1.1c.7.4 1.5.6 2.5.6h.1c2.1 0 3.5-1.1 3.5-2.7 0-1.3-.7-2.1-2.4-2.7zm-37-4s0 .1 0 0c-2.6 0-4.3 2-4.3 4.8-.1 2.8 1.6 4.6 4.4 4.6 1.5 0 2.5-.3 3-.6h.1l-.3-1.4-.1.1c-.6.2-1.2.4-2.4.4-.4 0-.8-.1-1.1-.2h-.1c-.1 0-.1-.1-.2-.1-.4-.2-.8-.5-1.1-.9-.3-.4-.4-1-.4-1.7h6.3v-.9c0-1.9-1-4.1-3.8-4.1zm-2.6 3.8v-.1c.1-.4.3-.9.6-1.4.1-.2.2-.3.4-.4.4-.3.8-.5 1.4-.5.6 0 1 .2 1.4.5l.1.1c.6.6.6 1.4.7 1.8h-4.6zm61.6-3.6l-1.3 4.5c-.2.7-.4 1.6-.6 2.4-.2-.7-.4-1.5-.7-2.4l-1.4-4.4v-.1h-1.6l-1.5 4.5c-.2.8-.5 1.6-.7 2.3-.2-.8-.4-1.5-.6-2.4l-1.2-4.4v-.1h-1.9l.1.2 2.7 8.8h1.6v.1l1.5-4.2c.2-.7.5-1.5.7-2.4.2.8.4 1.6.7 2.4l1.4 4.2h1.7l3-8.9v-.1h-1.9zm-74.3-.2s0 .1 0 0c-1.4 0-2.4.7-2.9 1.4v-.1l-.1-1.1h-1.7v.1c-.1.7 0 1.4 0 2.4v6.5h1.9v-5.4c0-.3 0-.5.1-.7.2-.8 1-1.5 2-1.5h.1c1.6 0 2 1.3 2 2.4v5.1h1.9v-5.3c0-3.6-2.7-3.8-3.3-3.8zm92 .2c-.1 0-.2-.1-.4-.1-1 0-2 .6-2.4 1.6v-1.4h-1.7v.1c-.1.7-.1 1.5-.1 2.7v6.1h1.9v-4.8c0-.3 0-.5.1-.7.2-1.2 1-1.9 2.1-1.9.2 0 .4 0 .5.1h.2v-1.7h-.2c.1 0 0 0 0 0zM909.2-74c.1-.8-.3-1.4-1-1.8-.3-.2-.6-.3-1-.5-.5-.2-.8-.4-1.1-.6-.3-.2-.4-.4-.4-.7 0-.6.5-1.1 1.3-1.1.7 0 1.3.3 1.6.4l.4-1c-.4-.3-1.2-.5-2-.5-1.7 0-2.8 1-2.8 2.3 0 .5.2.9.6 1.3.3.3.8.6 1.5.9.5.2.8.3 1 .5.3.3.5.5.5.9 0 .6-.5 1.2-1.5 1.2-.7 0-1.5-.3-1.9-.6l-.4 1.1h.1c.6.3 1.3.5 2.1.5 1.9 0 3-1 3-2.3zm35 .2v-9.3h-1.4v4.6c-.4-.6-1.2-1.2-2.4-1.2-1.9 0-3.6 1.6-3.6 4.2 0 2.4 1.5 3.9 3.4 3.9.3 0 .5 0 .8-.1.2 0 .3-.1.5-.1 0 0 .1 0 .1-.1.4-.2.8-.5 1.1-.8.1-.1.2-.3.3-.4l.1 1.3h1.3c-.1-.5-.2-1.3-.2-2zm-4.8.8c-.1 0-.2-.1-.2-.1-.6-.5-.9-1.4-.9-2.4 0-1.7.9-3 2.4-3 1.1 0 1.9.7 2.1 1.6v.2c0 .1 0 .2.1.3v1.4c0 .2 0 .4-.1.6-.3 1.1-1.2 1.7-2.1 1.7-.4 0-.8-.1-1.1-.2-.1 0-.2-.1-.2-.1zm-51.7-8.7c-.7-.6-1.7-.9-3.1-.9-1.2 0-2.1.1-2.8.2v10.7h1.4V-76c.3.1.7.1 1.2.1 1.4 0 2.6-.4 3.4-1.2.6-.6.9-1.3.9-2.3 0-1-.4-1.8-1-2.3zm-.4 2.3c0 1.5-1.1 2.3-2.8 2.3h-.1c-.5 0-.8 0-1.1-.1v-4.2c.2-.1.7-.1 1.3-.1h.1c1.6 0 2.6.7 2.6 2.1zm15.4 5.4c0-.9-.5-1.5-1.4-2l-.6-.3c-.5-.2-.8-.4-1.1-.6-.3-.2-.4-.4-.4-.7 0-.6.5-1.1 1.3-1.1.7 0 1.3.3 1.6.4l.4-1c-.4-.3-1.2-.5-2-.5-1.7 0-2.8 1-2.8 2.3 0 .5.2.9.6 1.3.3.3.8.6 1.5.9.5.2.8.3 1 .5.3.3.5.5.5.9 0 .6-.5 1.2-1.5 1.2-.7 0-1.5-.3-1.9-.6l-.4 1.1h.1c.6.3 1.3.5 2.1.5 1.9 0 3-1 3-2.3zm-7.1.3v-2.8h.1c0-1.6-.6-3.1-2.9-3.2h-.1c-1 0-2 .3-2.6.7l.3.9c.1 0 .1-.1.2-.1.6-.3 1.2-.5 1.9-.5h.1c1.5 0 1.7 1.2 1.7 1.8v.2c-3.1 0-4.8 1-4.8 2.9 0 1.1.8 2.2 2.4 2.2h.1c1.1 0 1.9-.5 2.3-1.2v.2l.1.8h1.3c-.1-.5-.1-1.2-.1-1.9zm-4.7-.3c0-1.5 1.8-1.8 3.4-1.7v1.3c0 .1 0 .3-.1.4-.2.7-.9 1.3-1.9 1.3-.7 0-1.4-.4-1.4-1.3zm38.4-4.6c-.7-.7-1.6-1.1-2.8-1.1-2.2 0-4 1.5-4 4.1 0 2.4 1.7 4 3.8 4 1.9 0 4-1.2 4-4.1 0-.3 0-.6-.1-.9-.1-.7-.4-1.4-.9-2zm-2.9 6c-1.4 0-2.4-1.3-2.4-3 0-1.5.7-3 2.4-3h.1c1.7 0 2.4 1.7 2.4 3-.1 1.7-1.1 3-2.5 3zm-6-7l-.1.2-.7 2.2-.5 1.6c-.3.9-.5 1.7-.6 2.5-.2-.8-.4-1.6-.7-2.5l-1.2-3.9h-1.2l-1.3 4c-.3.8-.5 1.7-.7 2.4-.1-.8-.4-1.6-.6-2.5l-1.1-3.9h-1.5v.1l2.4 7.6h1.3l1.3-3.7c.3-.8.5-1.6.7-2.6.2.9.4 1.7.7 2.5l1.2 3.7h1.3l1.3-3.8 1.3-3.9h-1.3zm13.1 1.6l-.1-1.5h-1.3v.2c0 .6.1 1.3.1 2.1v5.3h1.4V-76c0-.2 0-.5.1-.7.2-1.1.9-1.8 1.9-1.8h.5v-1.3h-.4c-1 .1-1.9.8-2.2 1.8zm-42.9-41.9c0-1.4-.5-2.8-2.6-2.8-.9 0-1.7.2-2.2.6l.3.8c.5-.3 1.1-.5 1.8-.5 1.4 0 1.5 1 1.5 1.6v.1c-.7 0-1.2.1-1.7.2-.3.1-.5.1-.7.2-.4.2-.8.4-1 .6-.1.1-.2.3-.3.4-.2.3-.3.7-.3 1.1 0 1 .7 1.9 2.1 1.9 1 0 1.7-.5 2.1-1l.1.9h1.1c-.1-.5-.1-1-.1-1.6v-2.5zm-1.7.7h.5v1.2c0 .1 0 .3-.1.4-.1.4-.4.7-.9.9-.1 0-.1.1-.2.1-.2.1-.4.1-.6.1-.6 0-1.2-.4-1.2-1.2.1-1.1 1.3-1.5 2.5-1.5zm14.6-2.5c.7 0 1.1.2 1.4.3l.3-.9v-.1c-.3-.2-1-.4-1.7-.4-2.2 0-3.6 1.5-3.6 3.6v.1c0 2.1 1.3 3.4 3.4 3.4.9 0 1.6-.2 1.9-.4l-.2-.9c-.4.2-.8.3-1.5.3-1.3 0-2.3-1-2.4-2.4v-.1c0-1.4.8-2.5 2.4-2.5zm10.1-4h-.1v9.9h1.2v-9.9zm253.4-.9v7h-.1c0 2.1-.8 2.7-2 2.7-.5 0-.9-.1-1.2-.2l-.2 1v.1c.4.1 1 .3 1.5.3 1.9 0 3.4-.9 3.4-3.7v-7.2h-1.4zm20.6 2.7c-1.3 0-2.2.7-2.6 1.5v-.2l-.1-1.1h-1.3c0 .6.1 1.3.1 2.1v5.7h1.5v-4.7c0-.2 0-.5.1-.7.2-.8 1-1.4 1.9-1.4.3 0 .6.1.8.2.7.3 1 1.1 1 2.1v4.5h1.5v-4.6c0-1.1-.3-1.8-.8-2.4-.6-.7-1.4-1-2.1-1zm-7.9.2h1.5v7.7h-1.5zm-270.4 1s0 .1 0 0c-2 0-3.2 1.6-3.2 3.7-.1 2 1.2 3.4 3.3 3.4 1.1 0 1.8-.2 2.3-.4l-.2-.9h-.1c-.5.2-1 .4-1.8.4-1.2 0-2.3-.7-2.3-2.4h4.8v-.6c0-1.2-.6-3.2-2.8-3.2zm-2.1 2.9c.1-.9.7-2 1.9-2 .5 0 .9.2 1.2.4.2.2.4.5.4.8v.2c0 .2.1.4.1.6h-3.6zm-23 3c-.6.1-1.3.3-2 .3-1.2 0-2.1-.4-2.7-1.1-.6-.7-.9-1.6-.9-2.7 0-2.5 1.5-3.9 3.7-3.9.8 0 1.4.2 1.9.4l.3-1s-.1 0-.1-.1c-.4-.2-1.1-.3-2.1-.3-2.9 0-4.9 2-4.9 5 0 1.5.5 2.7 1.3 3.5.8.8 2 1.3 3.4 1.3 1.1 0 2-.2 2.5-.4l-.3-1h-.1zm296.3-10s0 .1 0 0c-.5 0-.9.4-.9.9s.4.9.9.9c.6 0 .9-.4.9-.9-.1-.5-.4-.9-.9-.9zm-284.5 4c-1 .1-1.7.5-2.1 1-.1.1-.2.2-.2.4v-.1l-.1-1h-1.1v.1c0 .6.1 1 .1 1.7v4.9h1.2v-4.1c0-.2 0-.4.1-.6 0-.1.1-.3.2-.4.3-.5.8-.9 1.5-.9 1.2 0 1.6.9 1.6 2v3.9h1.2v-4c0-2.3-1.5-2.9-2.4-2.9zm278.1-1.1c-2.2 0-4 1.5-4 4.1 0 2.5 1.7 4 3.8 4 1.9 0 4-1.2 4-4.1 0-2.4-1.5-4-3.8-4zm-.1 7.1c-1.4 0-2.4-1.3-2.4-3 0-1.5.7-3 2.4-3s2.4 1.7 2.4 3c0 1.7-1 3-2.4 3z"/>
    <path fill="#D0D2D3" d="M850.8 139.9v-331.1c0-27.8 22.6-50.4 50.4-50.4h264.3c27.8 0 50.4 22.6 50.4 50.4v331.1h2.9V-25.7h1.4c2.5 0 4.5-2 4.5-4.5v-52.6c0-2.5-2-4.5-4.5-4.5h-1.4v-103.9c0-29.4-23.9-53.4-53.4-53.4H901.1c-29.4 0-53.4 23.9-53.4 53.4v33.5h-1.9c-1.9 0-3.5 1.6-3.5 3.5v29c0 1.9 1.6 3.5 3.5 3.5h1.9v34.4H846c-1.9 0-3.5 1.6-3.5 3.5v54.6c0 1.9 1.6 3.5 3.5 3.5h1.8V-15h-1.6c-1.9 0-3.5 1.6-3.5 3.5v54.6c0 1.9 1.6 3.5 3.5 3.5h1.6v93.3h3zm368-224.2h1.4c.8 0 1.5.7 1.5 1.5v52.6c0 .8-.7 1.5-1.5 1.5h-1.4v-55.6zm-372.9-40.4h-.1c-.2 0-.5-.2-.5-.5v-29.1c0-.3.2-.5.5-.5h1.9v30.1h-1.8zm.1 96c-.3 0-.5-.2-.5-.5v-54.6c0-.3.2-.5.5-.5h1.8v55.6H846zm-.4 71.8v-54.6c0-.3.2-.5.5-.5h1.6v55.6h-1.6c-.2 0-.5-.2-.5-.5z"/>
  </g>
</svg>
