<?xml version="1.0" encoding="utf-8"?>
<!-- Generator: Adobe Illustrator 22.1.0, SVG Export Plug-In . SVG Version: 6.00 Build 0)  -->
<svg version="1.1" id="Layer_1" xmlns="http://www.w3.org/2000/svg" xmlns:xlink="http://www.w3.org/1999/xlink" x="0px" y="0px"
	 viewBox="0 0 366 255.1" style="enable-background:new 0 0 366 255.1;" xml:space="preserve">
<style type="text/css">
	.st0{fill:none;stroke:#22F3BA;stroke-width:2;stroke-miterlimit:10;}
	.st1{fill:none;stroke:#22F3BA;stroke-width:0.5;stroke-miterlimit:10;}
	.st2{fill:none;stroke:#22F3BA;stroke-width:0.25;stroke-miterlimit:10;}
	.st3{fill:none;stroke:#22F3BA;stroke-miterlimit:10;}
	.st4{fill:none;stroke:#22F3BA;stroke-width:2;stroke-linecap:round;stroke-linejoin:round;stroke-miterlimit:10;}
	.st5{fill:#22F3BA;}
</style>
<g>
	<path class="st0" d="M120.7,202.1l39.1,28.5c0,0,3.8,2.8,7.9,3c4.1,0.2,5.9,0.3,8.5-0.7s91.3-44.6,91.3-44.6s2.4-1.1,2.5-2.7
		s0.4-13.8,0.4-13.8s0.3-2.5-1.3-3.7c-1.6-1.2-49.2-25.5-49.2-25.5s-4.5-1-8.3,0.3c-3.8,1.2-88.1,35.1-88.1,35.1s-6.1,2.9-6.1,5.5
		s0.6,14.1,0.6,14.1S118.3,200.4,120.7,202.1z"/>
	<path class="st1" d="M117.8,185.6l42.1,29.5c0,0,4.2,2.2,9,2.2s7-0.6,10.6-2.2c3.6-1.6,87.9-40.8,87.9-40.8s2.2-1,3-3.2"/>
	<path class="st2" d="M269.7,169.4c0,0,0.7,1.9-2.6,3.4s-90.5,41.5-90.5,41.5s-7.1,3-15.4-0.6L119.8,185c-0.5-0.4-0.9-1-1-1.6
		s-0.1-1.3,0.1-2.4"/>
	<path class="st1" d="M120,180.6c0,0-1.4,1.6-0.5,3.1s42.3,29.8,42.3,29.8s3.6,1.8,7.2,1.6s5.7-0.4,8.1-1.3
		c2.4-0.8,83.5-38.5,89.8-41.5c0.3-0.1,0.6-0.3,0.8-0.6c0.6-0.6,1.5-1.8,1.2-3.1"/>
	<path class="st1" d="M122.1,191.2v5c0,0,0,1.6,1,2.4c1,0.8,8.2,5.9,8.2,5.9s1.1,0.9,1.2-0.3c0.1-1.2,0-5.5,0-5.5s0.1-1.4-1.1-2.2
		s-8.7-5.9-8.7-5.9S122.1,190.2,122.1,191.2z"/>
	<path class="st1" d="M132.5,203.8c0,0-8.8-6.2-9.1-6.6s0-6.1,0-6.1"/>
	<path class="st1" d="M125.2,192.4v4c0,0.3,0.2,0.7,0.5,0.9l6.6,4.5"/>
	<path class="st1" d="M164.4,198.9l6,3.8c0,0,1.3,1,3.5,0.7c2.2-0.2,1.9-0.2,3.3-0.7c1.4-0.5,72.6-32,72.6-32s2.3-0.8,2.2-1.9
		s-8.5-4.5-8.5-4.5s-1.9-0.8-3.8,0c-1.9,0.8-74.7,31.6-74.7,31.6s-1.1,0.7-1.2,1.3S163.7,198.2,164.4,198.9z"/>
	<path class="st0" d="M103.9,30.6h-3.3c0,0-1.8-0.4-1.7,1.4c0.1,1.8,8.7,145.1,8.7,145.1s-0.1,1.8,1.4,2.2s3.6-1.6,3.8-2.5
		c0.2-0.8-0.3-6.4-0.4-7.6c0-0.1,0-0.3,0.1-0.4c0.8-0.8,4.5-4.5,8.4-3.6l-5.5-80.3L110,31.8c0,0,0.1-1.4-1.9-1.4
		C106,30.6,103.9,30.6,103.9,30.6z"/>
	<path class="st3" d="M117.9,181.2c0,0-4.5-2.8-5.1-4.3"/>
	<path class="st2" d="M118.5,180.7c0,0-1.1-4.9,2.9-8.6c3.9-3.7,7.6-1.4,7.6-1.4"/>
	<path class="st3" d="M124,177.4c0,0,1.6-2.9,3.8-3.7c2.2-0.9,4.1-1.1,5.6,0c0.6,0.4-8-5.3-9.2-6s-2.4-2.2-6.2-1s-5.1,6-5.1,6"/>
	<line class="st2" x1="118.4" y1="180" x2="119.2" y2="180.4"/>
	<line class="st2" x1="118.2" y1="179.2" x2="119.8" y2="180"/>
	<line class="st2" x1="118.4" y1="178.4" x2="120.6" y2="179.6"/>
	<line class="st2" x1="118.5" y1="177.4" x2="121.1" y2="179"/>
	<line class="st2" x1="118.7" y1="176.5" x2="122.3" y2="178.7"/>
	<line class="st2" x1="119" y1="175.5" x2="122.5" y2="177.8"/>
	<line class="st2" x1="119.5" y1="174.6" x2="124" y2="177.4"/>
	<line class="st2" x1="119.8" y1="173.6" x2="124.3" y2="176.4"/>
	<line class="st2" x1="120.5" y1="173" x2="125" y2="175.8"/>
	<line class="st2" x1="121.2" y1="172.2" x2="125.7" y2="174.9"/>
	<line class="st2" x1="121.9" y1="171.6" x2="126.4" y2="174.4"/>
	<line class="st2" x1="122.7" y1="171.1" x2="127.2" y2="173.8"/>
	<line class="st2" x1="123.7" y1="170.6" x2="128.1" y2="173.4"/>
	<line class="st2" x1="124.7" y1="170.4" x2="129.2" y2="173.2"/>
	<line class="st2" x1="125.6" y1="170.2" x2="130.1" y2="173"/>
	<line class="st2" x1="126.9" y1="170.2" x2="131.4" y2="173"/>
	<path class="st2" d="M114,170.1l-1-0.8c0,0-0.5,0.8-0.4,1.7"/>
	<path class="st2" d="M113,169.2c0,0,1.9-1.3,2.9-1.3"/>
	<line class="st2" x1="120.9" y1="165.3" x2="121" y2="166.3"/>
	<path class="st3" d="M201.2,147c0,0-8.6-5.4-11.8-6.2c-3.1-0.8-4.6,0.8-5.4,1.5c-0.9,0.7-2.3,2.7-2.5,4.3s-0.3,2.7,0,3.3
		s1.2,2.3,4.2,3.1"/>
	<path class="st2" d="M187.7,152c0,0-0.1-4,2.7-6.5c2.7-2.4,4.6-2.1,4.6-2.1"/>
	<path class="st2" d="M193.7,149.9c0,0,0.6-1.9,2.2-2.9c1.6-0.9,3-1.2,4.3-0.6"/>
	<line class="st2" x1="187.8" y1="151.1" x2="189.3" y2="151.6"/>
	<line class="st2" x1="187.9" y1="150.3" x2="190.6" y2="151.3"/>
	<line class="st2" x1="188.2" y1="149.4" x2="191.6" y2="150.8"/>
	<line class="st2" x1="188.4" y1="148.5" x2="192.8" y2="150.4"/>
	<line class="st2" x1="188.9" y1="147.8" x2="193.8" y2="149.8"/>
	<line class="st2" x1="189.2" y1="147" x2="194.1" y2="149.2"/>
	<line class="st2" x1="189.6" y1="146.2" x2="194.4" y2="148.5"/>
	<line class="st2" x1="190.3" y1="145.5" x2="194.9" y2="147.9"/>
	<line class="st2" x1="191.2" y1="144.9" x2="195.5" y2="147.4"/>
	<line class="st2" x1="191.8" y1="144.5" x2="196.1" y2="146.9"/>
	<line class="st2" x1="192.5" y1="144" x2="196.7" y2="146.7"/>
	<line class="st2" x1="193.2" y1="143.7" x2="197.5" y2="146.4"/>
	<line class="st2" x1="194.2" y1="143.5" x2="198.4" y2="146.2"/>
	<path class="st4" d="M188,114v26.6c-0.1,0-0.5-1.8-2.5-0.5c-1.7,1.1-3.4,2.3-4.2,3c-0.2,0.2-0.3,0.4-0.3,0.7v6.3
		c0,0-0.1,0.8-1.1,1.5s-1.6,1.1-3.1,0.8s-1.3-1.3-1.3-2.3s-1-127.1-1-127.1s0.1-1.4,1-1.4s6.6-0.2,6.6-0.2s1.4-0.1,1.5,1.1
		c0.1,1.2,1.6,8.9,1.7,9.5L188,114z"/>
	<line class="st2" x1="181.1" y1="143.6" x2="184.8" y2="141.7"/>
	<line class="st2" x1="181.6" y1="143.3" x2="182.6" y2="143.9"/>
	<g>
		<g>
			<path class="st5" d="M175.3,197.7l-0.6,0.3l0,0l0.3,0.1l0,0l0.3-0.1l0.5,0.2c0,0-0.1,0.1-0.2,0.1c-0.4,0.2-0.9,0.1-1.4-0.1
				c-0.5-0.2-0.5-0.5-0.1-0.6c0.2-0.1,0.3-0.1,0.4-0.1h0.1l0,0l0,0l-0.2-0.2l0,0l0,0c-0.1,0-0.3,0.1-0.5,0.1c-0.6,0.3-0.5,0.6,0.1,1
				c0.3,0.2,0.7,0.3,1,0.3c0.4,0,0.7,0,1-0.2c0.2-0.1,0.4-0.2,0.4-0.3l0,0l0,0L175.3,197.7L175.3,197.7z"/>
			<path class="st5" d="M177.8,197.4l-0.7,0.3l-1.8-0.8l0,0L175,197l0,0l2.1,1l0,0l1-0.4l0,0L177.8,197.4L177.8,197.4z"/>
			<path class="st5" d="M177.5,195.7c-0.1,0-0.1,0.1,0,0.2c0.1,0.1,0.3,0.1,0.4,0c0.1,0,0.1-0.1,0.1-0.1s0-0.1-0.1-0.1
				C177.8,195.7,177.6,195.7,177.5,195.7z"/>
			<path class="st5" d="M178.4,196l-0.3,0.1l0,0l1.5,0.7l0,0l0.3-0.1l0,0L178.4,196L178.4,196z"/>
			<path class="st5" d="M179.8,194.9l-0.3,0.1l0,0l0.9,0.4c0.2,0.1,0.4,0.2,0.6,0.3c-0.2,0-0.4-0.1-0.6-0.1l-1.6-0.2l0,0l-0.3,0.1
				l0,0l2.1,1l0,0l0.3-0.1l0,0L180,196c-0.2-0.1-0.4-0.2-0.6-0.3c0.2,0,0.4,0.1,0.7,0.1l1.6,0.3l0,0l0.3-0.1l0,0L179.8,194.9
				L179.8,194.9z"/>
			<path class="st5" d="M181.4,194.7c-0.4,0.2-0.3,0.4,0.2,0.7c0.5,0.2,1.1,0.3,1.5,0.1c0.2-0.1,0.3-0.2,0.4-0.2l0,0l0,0l-0.3-0.1
				l0,0l0,0l0,0c0,0.1-0.1,0.1-0.3,0.2c-0.1,0-0.4,0.1-0.8,0l0.9-0.4l0,0l0,0c0,0-0.1,0-0.1-0.1
				C182.3,194.7,181.8,194.5,181.4,194.7z M181.7,195.1c-0.1-0.1-0.2-0.2,0-0.3c0.1,0,0.2,0,0.3,0s0.2,0,0.3,0.1L181.7,195.1z"/>
			<path class="st5" d="M183.1,194l-0.3,0.1l-0.4-0.2l0,0l0,0l-0.2,0.2l0,0l0.3,0.2l-0.2,0.1l0,0l0.3,0.1l0,0l0.2-0.1l0.7,0.4
				c0.2,0.1,0.4,0.1,0.5,0.2c0.2,0,0.3,0,0.4-0.1c0.1,0,0.2-0.1,0.2-0.1l0,0l0,0l-0.3-0.1l0,0l0,0l0,0c0,0,0,0-0.1,0.1
				c-0.1,0-0.1,0-0.3-0.1l-0.7-0.3l0.3-0.1l0,0L183.1,194L183.1,194z"/>
			<path class="st5" d="M177.5,196.7c-0.1,0-0.1,0.1,0,0.2c0.1,0.1,0.3,0.1,0.4,0c0.1,0,0.1-0.1,0-0.2
				C177.8,196.6,177.6,196.6,177.5,196.7z"/>
			<path class="st5" d="M177.5,195h-0.1h-0.1c-0.4,0-0.7,0.1-0.9,0.2c-0.2,0.1-0.4,0.3-0.5,0.4l0,0c0,0,0,0,0.1,0h0.2h0.1
				c0-0.1,0.2-0.3,0.4-0.4S177.2,195.1,177.5,195L177.5,195C177.5,195,177.6,195,177.5,195L177.5,195z"/>
			<path class="st5" d="M177.5,195.3c-0.2,0-0.4,0.1-0.6,0.1c-0.2,0.1-0.3,0.2-0.3,0.3l0,0l0,0h0.2h0.1c0-0.1,0.1-0.1,0.2-0.2
				c0.1,0,0.2-0.1,0.4-0.1l0,0L177.5,195.3C177.6,195.4,177.6,195.3,177.5,195.3L177.5,195.3C177.6,195.3,177.5,195.3,177.5,195.3z"
				/>
		</g>
		<path class="st5" d="M198.6,185.5c-0.8,0.4-0.7,1,0.3,1.5s2.5,0.6,3.4,0.2c0.8-0.4,0.7-1-0.3-1.5S199.4,185.1,198.6,185.5z
			 M200.8,185.5l-0.4,0.2c-0.3-0.1-0.6-0.2-0.9-0.2C199.8,185.5,200.3,185.5,200.8,185.5z M199,185.7c0.3,0,0.7,0.1,1,0.2l-0.6,0.3
			C199.2,186,199.1,185.8,199,185.7z M199.6,187c-0.1,0-0.3-0.1-0.4-0.2c-0.1-0.1-0.2-0.1-0.3-0.2l0.5-0.2c0.1,0.1,0.2,0.1,0.4,0.2
			c0.1,0.1,0.3,0.1,0.4,0.2L199.6,187z M200.1,187.1l0.4-0.2c0.3,0.1,0.6,0.2,0.9,0.2C201,187.2,200.6,187.2,200.1,187.1z
			 M199.1,186.3l-0.4,0.2c-0.2-0.2-0.2-0.4,0-0.6C198.8,186,198.9,186.1,199.1,186.3z M201.9,187c-0.3,0-0.7-0.1-1-0.2l0.6-0.3
			C201.7,186.7,201.8,186.9,201.9,187z M200.5,186.7c-0.1-0.1-0.3-0.1-0.4-0.2c-0.1-0.1-0.2-0.1-0.3-0.2l0.7-0.3
			c0.1,0.1,0.3,0.1,0.4,0.2c0.1,0.1,0.2,0.1,0.3,0.2L200.5,186.7z M202.2,186.8c-0.1-0.1-0.3-0.3-0.4-0.4l0.4-0.2
			C202.4,186.4,202.4,186.6,202.2,186.8z M201.5,186.2c-0.1-0.1-0.2-0.1-0.4-0.2c-0.1-0.1-0.3-0.1-0.4-0.2l0.5-0.2
			c0.1,0,0.3,0.1,0.4,0.1c0.1,0.1,0.2,0.1,0.3,0.2L201.5,186.2z"/>
		<g>
			<g>
				<polygon class="st5" points="238.9,168.8 239.5,168.6 242.2,169.7 241.6,170 				"/>
				<polygon class="st5" points="238.6,169.5 239.1,169.3 241.2,170.1 240.6,170.4 				"/>
				<polygon class="st5" points="238.2,170.2 238.8,169.9 240.2,170.6 239.6,170.8 				"/>
			</g>
			<path class="st5" d="M238.9,171.1C238.9,171.1,238.8,171.1,238.9,171.1c-0.8-0.3-1.4-0.6-2.1-0.9c-0.1,0-0.1,0-0.2-0.1
				c-0.5-0.1-1-0.1-1.4-0.2h-0.1c0.5-0.2,1-0.4,1.5-0.6l0,0c0.1,0.2,0.3,0.4,0.4,0.6c0,0,0.1,0,0.1,0.1c0.7,0.3,1.4,0.6,2.1,0.9
				c0.1,0,0.1,0,0,0.1C239,171.1,239,171.1,238.9,171.1z M235.8,169.9c0.3,0,0.5,0.1,0.8,0.1c-0.1-0.1-0.1-0.2-0.2-0.3
				C236.1,169.7,235.9,169.8,235.8,169.9z"/>
		</g>
		<g>
			<polygon class="st5" points="187.3,190.5 187.7,190.3 189.8,191.3 189.4,191.5 			"/>
			<path class="st5" d="M191.2,192.1c-0.4,0.2-1,0.2-1.6,0.2s-1.2-0.2-1.7-0.4s-0.8-0.5-0.9-0.8V191l0.6,0.1c0,0.2,0.2,0.5,0.6,0.7
				c0.8,0.4,1.9,0.4,2.5,0.2c0.6-0.3,0.5-0.8-0.2-1.1c-0.4-0.2-1-0.3-1.5-0.3l-0.1-0.3c0.1,0,0.2,0,0.3,0c0.6,0,1.2,0.2,1.7,0.4
				C191.9,191.1,192,191.8,191.2,192.1z"/>
		</g>
		<path class="st5" d="M213.9,181.8c-0.1,0-0.3,0-0.5,0h-0.1c-0.1,0-0.2-0.1-0.2-0.2l0,0l0,0c-0.2,0.1-0.3,0.2-0.3,0.4l1.2,0.1
			L213.9,181.8L213.9,181.8z"/>
		<path class="st5" d="M214,181.6L214,181.6c-0.1,0-0.2,0.1-0.2,0.1h-0.1h-0.1h-0.1c0,0-0.1,0-0.1-0.1h-0.1h0.1c0.1,0,0.1,0,0.2,0
			c0.1,0,0.1-0.1,0.2-0.1c0,0,0,0,0-0.1c0,0,0,0,0-0.1c0,0,0,0-0.1,0h-0.1h-0.1c-0.1,0-0.2,0.1-0.3,0.2h-0.1l-0.8-0.4l0.7-0.3h0.1
			c0,0,0.1,0,0.1,0.1h0.1l-0.5,0.2l0.2,0.1c0.1,0,0.2-0.1,0.2-0.1c0.1,0,0.1,0,0.2,0c0.1,0,0.1,0,0.2,0l0,0c0.1,0,0.1,0,0.2,0
			c0.1,0,0.1,0,0.2,0.1c0.1,0,0.1,0.1,0.2,0.1c0,0,0.1,0.1,0,0.1C214.2,181.4,214.2,181.5,214,181.6
			C214.1,181.5,214.1,181.5,214,181.6z"/>
		<path class="st5" d="M212.2,181.1c-0.1,0-0.1-0.1-0.1-0.2H212c-0.5,0.2-0.6,0.5-0.6,0.8h0.7c0-0.2,0.1-0.4,0.4-0.5L212.2,181.1z"
			/>
		<path class="st5" d="M213.3,180.5C213.3,180.5,213.3,180.4,213.3,180.5c0.1-0.1,0.2-0.2,0.3-0.2h0.1v-0.1c-1-0.1-2,0.1-2.7,0.4
			c-0.7,0.3-1,0.7-0.9,1.2h0.7c-0.1-0.4,0.2-0.7,0.8-1C212,180.6,212.6,180.5,213.3,180.5z"/>
		<g>
			<path class="st5" d="M228,175.5c-0.1,0-0.2,0.1-0.3,0.1s-0.2,0-0.3,0s-0.2,0-0.4,0c-0.1,0-0.2-0.1-0.3-0.1s-0.2-0.1-0.3-0.2
				c-0.1-0.1-0.1-0.1-0.1-0.2c0-0.1,0-0.1,0.1-0.2c0.1-0.1,0.3-0.2,0.6-0.3h0.1h0.1c0,0,0.1,0,0.1,0.1l0.1,0.1h-0.1
				c-0.1,0-0.2,0-0.2,0.1c-0.1,0-0.2,0.1-0.3,0.1v0.1c0,0,0,0.1,0.1,0.1c0,0,0.1,0.1,0.2,0.1c0.1,0,0.1,0,0.2,0.1c0.1,0,0.1,0,0.2,0
				c0.1,0,0.1,0,0.2,0c0.1,0,0.2,0,0.3-0.1c0,0,0,0,0.1,0l-0.3-0.1c0,0-0.1,0-0.1,0.1h-0.1h-0.1h-0.1h-0.1l0.5-0.2h0.1
				c0.2,0.1,0.4,0.2,0.6,0.3h0.1l0,0C228.2,175.3,228.1,175.4,228,175.5z"/>
			<path class="st5" d="M226.5,176.2c-0.1,0-0.3,0-0.4-0.1c0,0,0,0-0.1,0s-0.1-0.1-0.1-0.1l0,0c-0.2,0.1-0.3,0.2-0.3,0.4h1.2v-0.2
				C226.7,176.2,226.6,176.3,226.5,176.2z"/>
			<path class="st5" d="M225.3,175.7c-0.1,0-0.2,0-0.2-0.1c0,0-0.1,0-0.1-0.1c-0.1-0.1-0.1-0.1-0.1-0.2c-0.1,0-0.2,0-0.2,0.1
				c-0.5,0.2-0.7,0.5-0.6,0.8h0.7C224.7,176.1,224.9,175.9,225.3,175.7L225.3,175.7z"/>
			<path class="st5" d="M226,174.9C226.1,174.9,226.1,174.9,226,174.9c0.1-0.1,0.2-0.2,0.3-0.2h0.1v-0.1c-1.1,0-2.1,0.1-2.9,0.4
				c-0.7,0.3-1.1,0.8-0.9,1.2h0.7c0-0.4,0.2-0.7,0.8-1C224.7,175.1,225.4,174.9,226,174.9z"/>
			<path class="st5" d="M227.3,175.8L227.3,175.8c-0.2,0.1-0.3,0.1-0.4,0.2l-0.4,0.2h-0.1c0,0-0.1,0-0.1-0.1l0,0l0,0
				c0-0.1,0-0.1,0-0.2c0-0.1,0-0.1-0.1-0.2c0-0.1,0-0.1-0.1-0.1l0,0l0,0c0,0,0,0-0.1,0h-0.1c-0.1,0-0.2,0.1-0.3,0.2l-0.1,0.1
				l-0.1-0.1c0,0-0.1,0-0.1-0.1h-0.1l0,0c0.1-0.1,0.3-0.2,0.4-0.2c0.1,0,0.1,0,0.2,0c0.1,0,0.1,0,0.2,0c0.1,0,0.1,0,0.2,0.1h0.1
				c0,0,0,0,0.1,0c0,0,0,0.1,0.1,0.1c0,0,0,0.1,0.1,0.1c0,0.1,0,0.1,0.1,0.2c0,0,0,0,0,0.1c0.1,0,0.1,0,0.2-0.1c0.1,0,0.1,0,0.1-0.1
				h0.1h0.1C227.1,175.7,227.2,175.7,227.3,175.8L227.3,175.8z"/>
		</g>
		<path class="st5" d="M215.2,181c-0.1,0-0.2,0.1-0.3,0.1s-0.2,0-0.3,0s-0.2,0-0.4,0c-0.1,0-0.2-0.1-0.3-0.1
			c-0.1-0.1-0.2-0.1-0.3-0.2c-0.1-0.1-0.1-0.1-0.1-0.2c0-0.1,0-0.1,0.1-0.2c0.1-0.1,0.3-0.2,0.6-0.3h0.1h0.1c0,0,0.1,0,0.2,0.1
			l0.1,0.1h-0.1c-0.1,0-0.2,0-0.2,0.1c-0.2,0-0.2,0.1-0.3,0.1v0.1c0,0,0,0.1,0.1,0.1c0,0,0.1,0.1,0.2,0.1c0.1,0,0.1,0.1,0.2,0.1
			c0.1,0,0.1,0,0.2,0c0.1,0,0.1,0,0.2,0c0.1,0,0.2,0,0.3-0.1c0,0,0,0,0.1,0l-0.3-0.1l0,0c0,0-0.1,0-0.2,0.1h-0.1h-0.1
			c0,0-0.1,0-0.1-0.1h-0.1l0.3-0.1l0.2-0.1h0.1c0.2,0.1,0.4,0.2,0.6,0.3h0.1l0,0C215.4,180.9,215.3,181,215.2,181z"/>
	</g>
</g>
</svg>
